%TF.GenerationSoftware,KiCad,Pcbnew,9.0.4*%
%TF.CreationDate,2025-09-25T10:41:26-04:00*%
%TF.ProjectId,fanboy,66616e62-6f79-42e6-9b69-6361645f7063,rev?*%
%TF.SameCoordinates,Original*%
%TF.FileFunction,Copper,L5,Inr*%
%TF.FilePolarity,Positive*%
%FSLAX46Y46*%
G04 Gerber Fmt 4.6, Leading zero omitted, Abs format (unit mm)*
G04 Created by KiCad (PCBNEW 9.0.4) date 2025-09-25 10:41:26*
%MOMM*%
%LPD*%
G01*
G04 APERTURE LIST*
%TA.AperFunction,ComponentPad*%
%ADD10C,3.000000*%
%TD*%
%TA.AperFunction,ComponentPad*%
%ADD11C,2.000000*%
%TD*%
%TA.AperFunction,ComponentPad*%
%ADD12O,1.574800X4.000000*%
%TD*%
%TA.AperFunction,ComponentPad*%
%ADD13C,1.500000*%
%TD*%
%TA.AperFunction,ComponentPad*%
%ADD14O,1.000000X2.100000*%
%TD*%
%TA.AperFunction,ComponentPad*%
%ADD15O,1.000000X1.800000*%
%TD*%
%TA.AperFunction,ViaPad*%
%ADD16C,0.450000*%
%TD*%
%TA.AperFunction,ViaPad*%
%ADD17C,0.500000*%
%TD*%
%TA.AperFunction,ViaPad*%
%ADD18C,0.800000*%
%TD*%
%TA.AperFunction,ViaPad*%
%ADD19C,1.000000*%
%TD*%
G04 APERTURE END LIST*
D10*
%TO.N,/12V*%
%TO.C,J1*%
X148010000Y-73475000D03*
%TO.N,GND*%
X153010000Y-73475000D03*
D11*
%TO.N,unconnected-(J1-MNT1-Pad3)*%
X145010000Y-63475000D03*
%TO.N,unconnected-(J1-MNT2-Pad4)*%
X156010000Y-63475000D03*
%TD*%
D12*
%TO.N,/FAN2_PWM*%
%TO.C,J4*%
X183150000Y-102230000D03*
%TO.N,/FAN2_TACH*%
X180610000Y-102230000D03*
D13*
X180610000Y-101270000D03*
D12*
%TO.N,/12V*%
X178070000Y-102230000D03*
%TO.N,GND*%
X175530000Y-102230000D03*
%TD*%
%TO.N,/FAN1_PWM*%
%TO.C,J3*%
X162310000Y-101790000D03*
%TO.N,/FAN1_TACH*%
X159770000Y-101790000D03*
D13*
X159770000Y-100830000D03*
D12*
%TO.N,/12V*%
X157230000Y-101790000D03*
%TO.N,GND*%
X154690000Y-101790000D03*
%TD*%
D14*
%TO.N,GND*%
%TO.C,J6*%
X181739417Y-68195036D03*
D15*
X181739417Y-64015036D03*
D14*
X173099417Y-68195036D03*
D15*
X173099417Y-64015036D03*
%TD*%
D16*
%TO.N,/5V*%
X187170000Y-70340000D03*
%TO.N,GND*%
X191675000Y-74570000D03*
X192990000Y-74570000D03*
X192342500Y-73840000D03*
X191685000Y-73200000D03*
X193000000Y-73200000D03*
%TO.N,/3V3*%
X174340000Y-90200000D03*
%TO.N,/FAN_ALERT*%
X173250000Y-78320000D03*
X173330000Y-90210000D03*
%TO.N,/FAN2_TACH*%
X173540000Y-93970000D03*
%TO.N,/12V*%
X175350000Y-94200000D03*
%TO.N,GND*%
X169370000Y-86770000D03*
%TO.N,/5V*%
X163390000Y-98770000D03*
X184210000Y-98800000D03*
X186105000Y-73020000D03*
X187420000Y-73020000D03*
X184790000Y-73020000D03*
X185447500Y-73660000D03*
X186762500Y-73660000D03*
X186095000Y-74390000D03*
X187410000Y-74390000D03*
X184780000Y-74390000D03*
%TO.N,GND*%
X182025000Y-94180000D03*
X183340000Y-94180000D03*
X180710000Y-94180000D03*
X161725000Y-94060000D03*
X163040000Y-94060000D03*
X160410000Y-94060000D03*
%TO.N,/12V*%
X157250000Y-98780000D03*
%TO.N,GND*%
X158210000Y-98770000D03*
X179030000Y-98790000D03*
%TO.N,/12V*%
X178060000Y-98860000D03*
%TO.N,/3V3*%
X185140000Y-92440000D03*
X181670000Y-98770000D03*
X160770000Y-98780000D03*
%TO.N,/12V*%
X156325000Y-94060000D03*
X157640000Y-94060000D03*
X155010000Y-94060000D03*
X177980000Y-94200000D03*
X176665000Y-94200000D03*
%TO.N,/3V3*%
X172250000Y-89220000D03*
X170380000Y-89210000D03*
%TO.N,GND*%
X166297500Y-94130000D03*
%TO.N,/3V3*%
X165540000Y-92570000D03*
%TO.N,/FAN1_PWM*%
X162380000Y-97710000D03*
X163807500Y-96030000D03*
%TO.N,/FAN2_TACH*%
X180590000Y-97580000D03*
D17*
%TO.N,/SWD*%
X180140717Y-73170036D03*
X179401524Y-82115036D03*
%TO.N,/SWCLK*%
X177187037Y-72936510D03*
X178641524Y-82030036D03*
%TO.N,/QSPI_SS*%
X173004552Y-76014341D03*
X166690717Y-74570036D03*
%TO.N,/QSPI_SD1*%
X175321524Y-77290036D03*
X167740413Y-74563680D03*
%TO.N,/QSPI_SD2*%
X176161524Y-77290036D03*
X168691524Y-74545036D03*
%TO.N,GND*%
X172560717Y-72250036D03*
X182794417Y-75100036D03*
X180920717Y-86160036D03*
X167680717Y-66690036D03*
X186320000Y-63280000D03*
X182260717Y-86110036D03*
X178281524Y-80540036D03*
X174490000Y-87380000D03*
X177591524Y-79697536D03*
X171593217Y-76817536D03*
X174791524Y-72470036D03*
X177641524Y-85735036D03*
X178291524Y-78870036D03*
X183450717Y-80700036D03*
X160790717Y-66680036D03*
X183370717Y-76570036D03*
X176871524Y-78870036D03*
X181669417Y-74025036D03*
X175841524Y-88035036D03*
X178950000Y-86420000D03*
X170811524Y-80260036D03*
X180571524Y-88500036D03*
X176386099Y-82200036D03*
X184059283Y-75079964D03*
X170580717Y-76010836D03*
X176861524Y-80540036D03*
%TO.N,/3V3*%
X182260717Y-85150036D03*
X168100717Y-72260036D03*
X182490717Y-80700036D03*
X171771524Y-80260036D03*
X178851121Y-85120036D03*
X172553217Y-76817536D03*
X182410717Y-76570036D03*
X178031524Y-74280036D03*
D18*
X189360717Y-76730036D03*
X189360717Y-75640036D03*
X189369417Y-79680036D03*
D17*
X173501524Y-73495036D03*
X165330717Y-72260036D03*
X180391524Y-75175036D03*
%TO.N,/1V1*%
X177381524Y-77315036D03*
X179321524Y-77315036D03*
X177741524Y-82085036D03*
D19*
%TO.N,/5V*%
X175019417Y-70220036D03*
X181000717Y-70470036D03*
D17*
%TO.N,Net-(U27-RUN)*%
X179751141Y-84461836D03*
X173220000Y-83650000D03*
%TO.N,Net-(U27-GPIO1)*%
X189920000Y-63280000D03*
X172330717Y-78310036D03*
%TD*%
%TA.AperFunction,Conductor*%
%TO.N,GND*%
G36*
X193955394Y-61360972D02*
G01*
X193962947Y-61361632D01*
X194101564Y-61373760D01*
X194114907Y-61375665D01*
X194144247Y-61381501D01*
X194152109Y-61383334D01*
X194276922Y-61416777D01*
X194292275Y-61421989D01*
X194309224Y-61429009D01*
X194314134Y-61431169D01*
X194439918Y-61489823D01*
X194458633Y-61500629D01*
X194583582Y-61588119D01*
X194600140Y-61602013D01*
X194707986Y-61709859D01*
X194721880Y-61726417D01*
X194809370Y-61851366D01*
X194820177Y-61870084D01*
X194878809Y-61995819D01*
X194880989Y-62000774D01*
X194888009Y-62017723D01*
X194893222Y-62033080D01*
X194926659Y-62157869D01*
X194928501Y-62165769D01*
X194934330Y-62195071D01*
X194936241Y-62208456D01*
X194949028Y-62354605D01*
X194949500Y-62365413D01*
X194949500Y-107174586D01*
X194949028Y-107185394D01*
X194936241Y-107331542D01*
X194934330Y-107344927D01*
X194928501Y-107374229D01*
X194926659Y-107382129D01*
X194893222Y-107506918D01*
X194888009Y-107522275D01*
X194880989Y-107539224D01*
X194878809Y-107544179D01*
X194820177Y-107669915D01*
X194809370Y-107688633D01*
X194721880Y-107813582D01*
X194707986Y-107830140D01*
X194600140Y-107937986D01*
X194583582Y-107951880D01*
X194458633Y-108039370D01*
X194439915Y-108050177D01*
X194314179Y-108108809D01*
X194309224Y-108110989D01*
X194292275Y-108118009D01*
X194276918Y-108123222D01*
X194152129Y-108156659D01*
X194144229Y-108158501D01*
X194114927Y-108164330D01*
X194101542Y-108166241D01*
X193955395Y-108179028D01*
X193944587Y-108179500D01*
X143175413Y-108179500D01*
X143164605Y-108179028D01*
X143018456Y-108166241D01*
X143005071Y-108164330D01*
X142975769Y-108158501D01*
X142967869Y-108156659D01*
X142843080Y-108123222D01*
X142827723Y-108118009D01*
X142810774Y-108110989D01*
X142805819Y-108108809D01*
X142680084Y-108050177D01*
X142661366Y-108039370D01*
X142536417Y-107951880D01*
X142519859Y-107937986D01*
X142412013Y-107830140D01*
X142398119Y-107813582D01*
X142310629Y-107688633D01*
X142299822Y-107669916D01*
X142269292Y-107604445D01*
X142241169Y-107544134D01*
X142239009Y-107539224D01*
X142231989Y-107522275D01*
X142226776Y-107506918D01*
X142208829Y-107439938D01*
X142193334Y-107382109D01*
X142191501Y-107374247D01*
X142185665Y-107344907D01*
X142183760Y-107331564D01*
X142170972Y-107185394D01*
X142170500Y-107174588D01*
X142170500Y-102040000D01*
X153402600Y-102040000D01*
X153402600Y-103103920D01*
X153434299Y-103304063D01*
X153496921Y-103496792D01*
X153588919Y-103677348D01*
X153708020Y-103841278D01*
X153708024Y-103841283D01*
X153851316Y-103984575D01*
X153851321Y-103984579D01*
X154015251Y-104103680D01*
X154195805Y-104195678D01*
X154388527Y-104258298D01*
X154440000Y-104266450D01*
X154440000Y-103461579D01*
X154484115Y-103487050D01*
X154619777Y-103523400D01*
X154760223Y-103523400D01*
X154895885Y-103487050D01*
X154940000Y-103461579D01*
X154940000Y-104266449D01*
X154991472Y-104258298D01*
X155184194Y-104195678D01*
X155364748Y-104103680D01*
X155528678Y-103984579D01*
X155528683Y-103984575D01*
X155671975Y-103841283D01*
X155671979Y-103841278D01*
X155791082Y-103677346D01*
X155849234Y-103563216D01*
X155897208Y-103512420D01*
X155965029Y-103495624D01*
X156031164Y-103518161D01*
X156070203Y-103563214D01*
X156128490Y-103677607D01*
X156247639Y-103841604D01*
X156390995Y-103984960D01*
X156544456Y-104096454D01*
X156554994Y-104104110D01*
X156735618Y-104196143D01*
X156928416Y-104258787D01*
X157128640Y-104290500D01*
X157128641Y-104290500D01*
X157331359Y-104290500D01*
X157331360Y-104290500D01*
X157531584Y-104258787D01*
X157724382Y-104196143D01*
X157905006Y-104104110D01*
X157997085Y-104037210D01*
X158069004Y-103984960D01*
X158069006Y-103984957D01*
X158069010Y-103984955D01*
X158212355Y-103841610D01*
X158212357Y-103841606D01*
X158212360Y-103841604D01*
X158273453Y-103757515D01*
X158331510Y-103677606D01*
X158389515Y-103563764D01*
X158437490Y-103512969D01*
X158505311Y-103496174D01*
X158571446Y-103518711D01*
X158610485Y-103563765D01*
X158668492Y-103677609D01*
X158787639Y-103841604D01*
X158930995Y-103984960D01*
X159084456Y-104096454D01*
X159094994Y-104104110D01*
X159275618Y-104196143D01*
X159295599Y-104202635D01*
X159353275Y-104242072D01*
X159380474Y-104306430D01*
X159368560Y-104375277D01*
X159326173Y-104423668D01*
X159227838Y-104489373D01*
X159227834Y-104489376D01*
X159109373Y-104607837D01*
X159016295Y-104747139D01*
X158952184Y-104901917D01*
X158952182Y-104901925D01*
X158919500Y-105066228D01*
X158919500Y-105233771D01*
X158952182Y-105398074D01*
X158952184Y-105398082D01*
X159016295Y-105552860D01*
X159109373Y-105692162D01*
X159227837Y-105810626D01*
X159320494Y-105872537D01*
X159367137Y-105903703D01*
X159521918Y-105967816D01*
X159647824Y-105992860D01*
X159686228Y-106000499D01*
X159686232Y-106000500D01*
X159686233Y-106000500D01*
X159853768Y-106000500D01*
X159853769Y-106000499D01*
X160018082Y-105967816D01*
X160172863Y-105903703D01*
X160312162Y-105810626D01*
X160430626Y-105692162D01*
X160523703Y-105552863D01*
X160587816Y-105398082D01*
X160620500Y-105233767D01*
X160620500Y-105066233D01*
X160587816Y-104901918D01*
X160523703Y-104747137D01*
X160449539Y-104636143D01*
X160430626Y-104607837D01*
X160312165Y-104489376D01*
X160312157Y-104489370D01*
X160213827Y-104423668D01*
X160169021Y-104370056D01*
X160160314Y-104300731D01*
X160190468Y-104237704D01*
X160244397Y-104202636D01*
X160264382Y-104196143D01*
X160445006Y-104104110D01*
X160537085Y-104037210D01*
X160609004Y-103984960D01*
X160609006Y-103984957D01*
X160609010Y-103984955D01*
X160752355Y-103841610D01*
X160752357Y-103841606D01*
X160752360Y-103841604D01*
X160813453Y-103757515D01*
X160871510Y-103677606D01*
X160929515Y-103563764D01*
X160977490Y-103512969D01*
X161045311Y-103496174D01*
X161111446Y-103518711D01*
X161150485Y-103563765D01*
X161208492Y-103677609D01*
X161327639Y-103841604D01*
X161470995Y-103984960D01*
X161624456Y-104096454D01*
X161634994Y-104104110D01*
X161815618Y-104196143D01*
X162008416Y-104258787D01*
X162208640Y-104290500D01*
X162208641Y-104290500D01*
X162411359Y-104290500D01*
X162411360Y-104290500D01*
X162611584Y-104258787D01*
X162804382Y-104196143D01*
X162985006Y-104104110D01*
X163077085Y-104037210D01*
X163149004Y-103984960D01*
X163149006Y-103984957D01*
X163149010Y-103984955D01*
X163292355Y-103841610D01*
X163292357Y-103841606D01*
X163292360Y-103841604D01*
X163353453Y-103757515D01*
X163411510Y-103677606D01*
X163503543Y-103496982D01*
X163566187Y-103304184D01*
X163597900Y-103103960D01*
X163597900Y-102480000D01*
X174242600Y-102480000D01*
X174242600Y-103543920D01*
X174274299Y-103744063D01*
X174336921Y-103936792D01*
X174428919Y-104117348D01*
X174548020Y-104281278D01*
X174548024Y-104281283D01*
X174691316Y-104424575D01*
X174691321Y-104424579D01*
X174855251Y-104543680D01*
X175035805Y-104635678D01*
X175228527Y-104698298D01*
X175280000Y-104706450D01*
X175280000Y-103901579D01*
X175324115Y-103927050D01*
X175459777Y-103963400D01*
X175600223Y-103963400D01*
X175735885Y-103927050D01*
X175780000Y-103901579D01*
X175780000Y-104706449D01*
X175831472Y-104698298D01*
X176024194Y-104635678D01*
X176204748Y-104543680D01*
X176368678Y-104424579D01*
X176368683Y-104424575D01*
X176511975Y-104281283D01*
X176511979Y-104281278D01*
X176631082Y-104117346D01*
X176689234Y-104003216D01*
X176737208Y-103952420D01*
X176805029Y-103935624D01*
X176871164Y-103958161D01*
X176910203Y-104003214D01*
X176968490Y-104117607D01*
X177087639Y-104281604D01*
X177230995Y-104424960D01*
X177384456Y-104536454D01*
X177394994Y-104544110D01*
X177575618Y-104636143D01*
X177768416Y-104698787D01*
X177968640Y-104730500D01*
X177968641Y-104730500D01*
X178171359Y-104730500D01*
X178171360Y-104730500D01*
X178371584Y-104698787D01*
X178564382Y-104636143D01*
X178745006Y-104544110D01*
X178837085Y-104477210D01*
X178909004Y-104424960D01*
X178909006Y-104424957D01*
X178909010Y-104424955D01*
X179052355Y-104281610D01*
X179052357Y-104281606D01*
X179052360Y-104281604D01*
X179114788Y-104195678D01*
X179171510Y-104117606D01*
X179229515Y-104003764D01*
X179277490Y-103952969D01*
X179345311Y-103936174D01*
X179411446Y-103958711D01*
X179450484Y-104003764D01*
X179501613Y-104104110D01*
X179508492Y-104117609D01*
X179627639Y-104281604D01*
X179770995Y-104424960D01*
X179924456Y-104536454D01*
X179934994Y-104544110D01*
X180115618Y-104636143D01*
X180135599Y-104642635D01*
X180193275Y-104682072D01*
X180220474Y-104746430D01*
X180208560Y-104815277D01*
X180166173Y-104863668D01*
X180067838Y-104929373D01*
X180067834Y-104929376D01*
X179949373Y-105047837D01*
X179856295Y-105187139D01*
X179792184Y-105341917D01*
X179792182Y-105341925D01*
X179759500Y-105506228D01*
X179759500Y-105673771D01*
X179792182Y-105838074D01*
X179792184Y-105838082D01*
X179856295Y-105992860D01*
X179949373Y-106132162D01*
X180067837Y-106250626D01*
X180160494Y-106312537D01*
X180207137Y-106343703D01*
X180361918Y-106407816D01*
X180526228Y-106440499D01*
X180526232Y-106440500D01*
X180526233Y-106440500D01*
X180693768Y-106440500D01*
X180693769Y-106440499D01*
X180858082Y-106407816D01*
X181012863Y-106343703D01*
X181152162Y-106250626D01*
X181270626Y-106132162D01*
X181363703Y-105992863D01*
X181427816Y-105838082D01*
X181460500Y-105673767D01*
X181460500Y-105506233D01*
X181427816Y-105341918D01*
X181363703Y-105187137D01*
X181332537Y-105140494D01*
X181270626Y-105047837D01*
X181152165Y-104929376D01*
X181152157Y-104929370D01*
X181053827Y-104863668D01*
X181009021Y-104810056D01*
X181000314Y-104740731D01*
X181030468Y-104677704D01*
X181084397Y-104642636D01*
X181104382Y-104636143D01*
X181285006Y-104544110D01*
X181377085Y-104477210D01*
X181449004Y-104424960D01*
X181449006Y-104424957D01*
X181449010Y-104424955D01*
X181592355Y-104281610D01*
X181592357Y-104281606D01*
X181592360Y-104281604D01*
X181654788Y-104195678D01*
X181711510Y-104117606D01*
X181769515Y-104003764D01*
X181817490Y-103952969D01*
X181885311Y-103936174D01*
X181951446Y-103958711D01*
X181990484Y-104003764D01*
X182041613Y-104104110D01*
X182048492Y-104117609D01*
X182167639Y-104281604D01*
X182310995Y-104424960D01*
X182464456Y-104536454D01*
X182474994Y-104544110D01*
X182655618Y-104636143D01*
X182848416Y-104698787D01*
X183048640Y-104730500D01*
X183048641Y-104730500D01*
X183251359Y-104730500D01*
X183251360Y-104730500D01*
X183451584Y-104698787D01*
X183644382Y-104636143D01*
X183825006Y-104544110D01*
X183917085Y-104477210D01*
X183989004Y-104424960D01*
X183989006Y-104424957D01*
X183989010Y-104424955D01*
X184132355Y-104281610D01*
X184132357Y-104281606D01*
X184132360Y-104281604D01*
X184194788Y-104195678D01*
X184251510Y-104117606D01*
X184343543Y-103936982D01*
X184406187Y-103744184D01*
X184437900Y-103543960D01*
X184437900Y-100916040D01*
X184406187Y-100715816D01*
X184343543Y-100523018D01*
X184251510Y-100342394D01*
X184203139Y-100275816D01*
X184132360Y-100178395D01*
X183989004Y-100035039D01*
X183825009Y-99915892D01*
X183825008Y-99915891D01*
X183825006Y-99915890D01*
X183644382Y-99823857D01*
X183451584Y-99761213D01*
X183451582Y-99761212D01*
X183451580Y-99761212D01*
X183307488Y-99738390D01*
X183251360Y-99729500D01*
X183048640Y-99729500D01*
X183002224Y-99736851D01*
X182848419Y-99761212D01*
X182655615Y-99823858D01*
X182474990Y-99915892D01*
X182310995Y-100035039D01*
X182167639Y-100178395D01*
X182048492Y-100342390D01*
X181990485Y-100456234D01*
X181942510Y-100507030D01*
X181874689Y-100523825D01*
X181808554Y-100501287D01*
X181769515Y-100456234D01*
X181754921Y-100427594D01*
X181711510Y-100342394D01*
X181663139Y-100275816D01*
X181592360Y-100178395D01*
X181449004Y-100035039D01*
X181285009Y-99915892D01*
X181285008Y-99915891D01*
X181285006Y-99915890D01*
X181104382Y-99823857D01*
X180911584Y-99761213D01*
X180911582Y-99761212D01*
X180911580Y-99761212D01*
X180767488Y-99738390D01*
X180711360Y-99729500D01*
X180508640Y-99729500D01*
X180462224Y-99736851D01*
X180308419Y-99761212D01*
X180115615Y-99823858D01*
X179934990Y-99915892D01*
X179770995Y-100035039D01*
X179627639Y-100178395D01*
X179508492Y-100342390D01*
X179450485Y-100456234D01*
X179402510Y-100507030D01*
X179334689Y-100523825D01*
X179268554Y-100501287D01*
X179229515Y-100456234D01*
X179214921Y-100427594D01*
X179171510Y-100342394D01*
X179123139Y-100275816D01*
X179052360Y-100178395D01*
X178909004Y-100035039D01*
X178745009Y-99915892D01*
X178745008Y-99915891D01*
X178745006Y-99915890D01*
X178564382Y-99823857D01*
X178474461Y-99794639D01*
X178371576Y-99761210D01*
X178368205Y-99760401D01*
X178367060Y-99759743D01*
X178366951Y-99759708D01*
X178366958Y-99759685D01*
X178307618Y-99725602D01*
X178275462Y-99663572D01*
X178281947Y-99594004D01*
X178325014Y-99538986D01*
X178349709Y-99525273D01*
X178403653Y-99502929D01*
X178522479Y-99423532D01*
X178623532Y-99322479D01*
X178702929Y-99203653D01*
X178757619Y-99071620D01*
X178773532Y-98991620D01*
X178785500Y-98931457D01*
X178785500Y-98788542D01*
X178757620Y-98648385D01*
X178757619Y-98648384D01*
X178757619Y-98648380D01*
X178702929Y-98516347D01*
X178702928Y-98516346D01*
X178702925Y-98516340D01*
X178623532Y-98397521D01*
X178623529Y-98397517D01*
X178522482Y-98296470D01*
X178522478Y-98296467D01*
X178403659Y-98217074D01*
X178403650Y-98217069D01*
X178271620Y-98162381D01*
X178271614Y-98162379D01*
X178131457Y-98134500D01*
X178131455Y-98134500D01*
X177988545Y-98134500D01*
X177988543Y-98134500D01*
X177848385Y-98162379D01*
X177848379Y-98162381D01*
X177716349Y-98217069D01*
X177716340Y-98217074D01*
X177597521Y-98296467D01*
X177597517Y-98296470D01*
X177496470Y-98397517D01*
X177496467Y-98397521D01*
X177417074Y-98516340D01*
X177417069Y-98516349D01*
X177362381Y-98648379D01*
X177362379Y-98648385D01*
X177334500Y-98788542D01*
X177334500Y-98788545D01*
X177334500Y-98931455D01*
X177334500Y-98931457D01*
X177334499Y-98931457D01*
X177362379Y-99071614D01*
X177362381Y-99071620D01*
X177417069Y-99203650D01*
X177417074Y-99203659D01*
X177496467Y-99322478D01*
X177496470Y-99322482D01*
X177597517Y-99423529D01*
X177597521Y-99423532D01*
X177716340Y-99502925D01*
X177716353Y-99502932D01*
X177778146Y-99528527D01*
X177832550Y-99572367D01*
X177854615Y-99638661D01*
X177837336Y-99706361D01*
X177786199Y-99753972D01*
X177769013Y-99761019D01*
X177575613Y-99823858D01*
X177394990Y-99915892D01*
X177230995Y-100035039D01*
X177087639Y-100178395D01*
X176968490Y-100342392D01*
X176910203Y-100456785D01*
X176862228Y-100507580D01*
X176794407Y-100524375D01*
X176728273Y-100501837D01*
X176689234Y-100456783D01*
X176631082Y-100342653D01*
X176511979Y-100178721D01*
X176511975Y-100178716D01*
X176368683Y-100035424D01*
X176368678Y-100035420D01*
X176204748Y-99916319D01*
X176024192Y-99824321D01*
X175831463Y-99761699D01*
X175780000Y-99753548D01*
X175780000Y-102958420D01*
X175735885Y-102932950D01*
X175600223Y-102896600D01*
X175459777Y-102896600D01*
X175324115Y-102932950D01*
X175280000Y-102958420D01*
X175280000Y-102480000D01*
X174242600Y-102480000D01*
X163597900Y-102480000D01*
X163597900Y-100916079D01*
X174242600Y-100916079D01*
X174242600Y-101980000D01*
X175280000Y-101980000D01*
X175280000Y-99753548D01*
X175279999Y-99753548D01*
X175228536Y-99761699D01*
X175035807Y-99824321D01*
X174855251Y-99916319D01*
X174691321Y-100035420D01*
X174691316Y-100035424D01*
X174548024Y-100178716D01*
X174548020Y-100178721D01*
X174428919Y-100342651D01*
X174336921Y-100523207D01*
X174274299Y-100715936D01*
X174242600Y-100916079D01*
X163597900Y-100916079D01*
X163597900Y-100476040D01*
X163566187Y-100275816D01*
X163503543Y-100083018D01*
X163411510Y-99902394D01*
X163403854Y-99891856D01*
X163292360Y-99738395D01*
X163261146Y-99707181D01*
X163227661Y-99645858D01*
X163232645Y-99576166D01*
X163274517Y-99520233D01*
X163339981Y-99495816D01*
X163348827Y-99495500D01*
X163461457Y-99495500D01*
X163560029Y-99475892D01*
X163601620Y-99467619D01*
X163733653Y-99412929D01*
X163852479Y-99333532D01*
X163953532Y-99232479D01*
X164032929Y-99113653D01*
X164087619Y-98981620D01*
X164109533Y-98871455D01*
X164115500Y-98841457D01*
X164115500Y-98698542D01*
X164087620Y-98558385D01*
X164087619Y-98558384D01*
X164087619Y-98558380D01*
X164032929Y-98426347D01*
X164032928Y-98426346D01*
X164032925Y-98426340D01*
X163953532Y-98307521D01*
X163953529Y-98307517D01*
X163852482Y-98206470D01*
X163852478Y-98206467D01*
X163733659Y-98127074D01*
X163733650Y-98127069D01*
X163601620Y-98072381D01*
X163601614Y-98072379D01*
X163461457Y-98044500D01*
X163461455Y-98044500D01*
X163318545Y-98044500D01*
X163318540Y-98044500D01*
X163224257Y-98063254D01*
X163154665Y-98057027D01*
X163099488Y-98014163D01*
X163076244Y-97948274D01*
X163078449Y-97917445D01*
X163105500Y-97781457D01*
X163105500Y-97651457D01*
X179864499Y-97651457D01*
X179892379Y-97791614D01*
X179892381Y-97791620D01*
X179947069Y-97923650D01*
X179947074Y-97923659D01*
X180026467Y-98042478D01*
X180026470Y-98042482D01*
X180127517Y-98143529D01*
X180127521Y-98143532D01*
X180246340Y-98222925D01*
X180246346Y-98222928D01*
X180246347Y-98222929D01*
X180378380Y-98277619D01*
X180378384Y-98277619D01*
X180378385Y-98277620D01*
X180518542Y-98305500D01*
X180518545Y-98305500D01*
X180661457Y-98305500D01*
X180755751Y-98286742D01*
X180801620Y-98277619D01*
X180873105Y-98248008D01*
X180942572Y-98240539D01*
X181005052Y-98271813D01*
X181040705Y-98331901D01*
X181038212Y-98401727D01*
X181029922Y-98421009D01*
X181027074Y-98426336D01*
X180972381Y-98558379D01*
X180972379Y-98558385D01*
X180944500Y-98698542D01*
X180944500Y-98698545D01*
X180944500Y-98841455D01*
X180944500Y-98841457D01*
X180944499Y-98841457D01*
X180972379Y-98981614D01*
X180972381Y-98981620D01*
X181027069Y-99113650D01*
X181027074Y-99113659D01*
X181106467Y-99232478D01*
X181106470Y-99232482D01*
X181207517Y-99333529D01*
X181207521Y-99333532D01*
X181326340Y-99412925D01*
X181326346Y-99412928D01*
X181326347Y-99412929D01*
X181458380Y-99467619D01*
X181458384Y-99467619D01*
X181458385Y-99467620D01*
X181598542Y-99495500D01*
X181598545Y-99495500D01*
X181741457Y-99495500D01*
X181840029Y-99475892D01*
X181881620Y-99467619D01*
X182013653Y-99412929D01*
X182132479Y-99333532D01*
X182233532Y-99232479D01*
X182312929Y-99113653D01*
X182367619Y-98981620D01*
X182389533Y-98871457D01*
X183484499Y-98871457D01*
X183512379Y-99011614D01*
X183512381Y-99011620D01*
X183567069Y-99143650D01*
X183567074Y-99143659D01*
X183646467Y-99262478D01*
X183646470Y-99262482D01*
X183747517Y-99363529D01*
X183747521Y-99363532D01*
X183866340Y-99442925D01*
X183866346Y-99442928D01*
X183866347Y-99442929D01*
X183998380Y-99497619D01*
X183998384Y-99497619D01*
X183998385Y-99497620D01*
X184138542Y-99525500D01*
X184138545Y-99525500D01*
X184281457Y-99525500D01*
X184375751Y-99506742D01*
X184421620Y-99497619D01*
X184553653Y-99442929D01*
X184672479Y-99363532D01*
X184773532Y-99262479D01*
X184852929Y-99143653D01*
X184907619Y-99011620D01*
X184935500Y-98871455D01*
X184935500Y-98728545D01*
X184935500Y-98728542D01*
X184907620Y-98588385D01*
X184907619Y-98588384D01*
X184907619Y-98588380D01*
X184852929Y-98456347D01*
X184852928Y-98456346D01*
X184852925Y-98456340D01*
X184773532Y-98337521D01*
X184773529Y-98337517D01*
X184672482Y-98236470D01*
X184672478Y-98236467D01*
X184553659Y-98157074D01*
X184553650Y-98157069D01*
X184421620Y-98102381D01*
X184421614Y-98102379D01*
X184281457Y-98074500D01*
X184281455Y-98074500D01*
X184138545Y-98074500D01*
X184138543Y-98074500D01*
X183998385Y-98102379D01*
X183998379Y-98102381D01*
X183866349Y-98157069D01*
X183866340Y-98157074D01*
X183747521Y-98236467D01*
X183747517Y-98236470D01*
X183646470Y-98337517D01*
X183646467Y-98337521D01*
X183567074Y-98456340D01*
X183567069Y-98456349D01*
X183512381Y-98588379D01*
X183512379Y-98588385D01*
X183484500Y-98728542D01*
X183484500Y-98728545D01*
X183484500Y-98871455D01*
X183484500Y-98871457D01*
X183484499Y-98871457D01*
X182389533Y-98871457D01*
X182389533Y-98871455D01*
X182395500Y-98841457D01*
X182395500Y-98698542D01*
X182367620Y-98558385D01*
X182367619Y-98558384D01*
X182367619Y-98558380D01*
X182312929Y-98426347D01*
X182312928Y-98426346D01*
X182312925Y-98426340D01*
X182233532Y-98307521D01*
X182233529Y-98307517D01*
X182132482Y-98206470D01*
X182132478Y-98206467D01*
X182013659Y-98127074D01*
X182013650Y-98127069D01*
X181881620Y-98072381D01*
X181881614Y-98072379D01*
X181741457Y-98044500D01*
X181741455Y-98044500D01*
X181598545Y-98044500D01*
X181598543Y-98044500D01*
X181458385Y-98072379D01*
X181458375Y-98072382D01*
X181386894Y-98101991D01*
X181317425Y-98109460D01*
X181254946Y-98078185D01*
X181219294Y-98018096D01*
X181221788Y-97948271D01*
X181230083Y-97928978D01*
X181232929Y-97923653D01*
X181235500Y-97917445D01*
X181287619Y-97791620D01*
X181315500Y-97651455D01*
X181315500Y-97508545D01*
X181315500Y-97508542D01*
X181287620Y-97368385D01*
X181287619Y-97368384D01*
X181287619Y-97368380D01*
X181245318Y-97266258D01*
X181232930Y-97236349D01*
X181232925Y-97236340D01*
X181153532Y-97117521D01*
X181153529Y-97117517D01*
X181052482Y-97016470D01*
X181052478Y-97016467D01*
X180933659Y-96937074D01*
X180933650Y-96937069D01*
X180801620Y-96882381D01*
X180801614Y-96882379D01*
X180661457Y-96854500D01*
X180661455Y-96854500D01*
X180518545Y-96854500D01*
X180518543Y-96854500D01*
X180378385Y-96882379D01*
X180378379Y-96882381D01*
X180246349Y-96937069D01*
X180246340Y-96937074D01*
X180127521Y-97016467D01*
X180127517Y-97016470D01*
X180026470Y-97117517D01*
X180026467Y-97117521D01*
X179947074Y-97236340D01*
X179947069Y-97236349D01*
X179892381Y-97368379D01*
X179892379Y-97368385D01*
X179864500Y-97508542D01*
X179864500Y-97508545D01*
X179864500Y-97651455D01*
X179864500Y-97651457D01*
X179864499Y-97651457D01*
X163105500Y-97651457D01*
X163105500Y-97638542D01*
X163105499Y-97638540D01*
X163083242Y-97526644D01*
X163077620Y-97498384D01*
X163077619Y-97498382D01*
X163077619Y-97498380D01*
X163022929Y-97366347D01*
X163022928Y-97366346D01*
X163022925Y-97366340D01*
X162943532Y-97247521D01*
X162943529Y-97247517D01*
X162842482Y-97146470D01*
X162842478Y-97146467D01*
X162723659Y-97067074D01*
X162723650Y-97067069D01*
X162591620Y-97012381D01*
X162591614Y-97012379D01*
X162451457Y-96984500D01*
X162451455Y-96984500D01*
X162308545Y-96984500D01*
X162308543Y-96984500D01*
X162168385Y-97012379D01*
X162168379Y-97012381D01*
X162036349Y-97067069D01*
X162036340Y-97067074D01*
X161917521Y-97146467D01*
X161917517Y-97146470D01*
X161816470Y-97247517D01*
X161816467Y-97247521D01*
X161737074Y-97366340D01*
X161737069Y-97366349D01*
X161682381Y-97498379D01*
X161682379Y-97498385D01*
X161654500Y-97638542D01*
X161654500Y-97638545D01*
X161654500Y-97781455D01*
X161654500Y-97781457D01*
X161654499Y-97781457D01*
X161682379Y-97921614D01*
X161682381Y-97921620D01*
X161737069Y-98053650D01*
X161737074Y-98053659D01*
X161816467Y-98172478D01*
X161816470Y-98172482D01*
X161917517Y-98273529D01*
X161917521Y-98273532D01*
X162036340Y-98352925D01*
X162036346Y-98352928D01*
X162036347Y-98352929D01*
X162168380Y-98407619D01*
X162168384Y-98407619D01*
X162168385Y-98407620D01*
X162308542Y-98435500D01*
X162308545Y-98435500D01*
X162451457Y-98435500D01*
X162545741Y-98416745D01*
X162615332Y-98422972D01*
X162670510Y-98465834D01*
X162693755Y-98531724D01*
X162691550Y-98562553D01*
X162664500Y-98698540D01*
X162664500Y-98698545D01*
X162664500Y-98841455D01*
X162664500Y-98841457D01*
X162664499Y-98841457D01*
X162692379Y-98981614D01*
X162692381Y-98981620D01*
X162747069Y-99113650D01*
X162747074Y-99113659D01*
X162763124Y-99137679D01*
X162784002Y-99204357D01*
X162765517Y-99271737D01*
X162713539Y-99318427D01*
X162644569Y-99329603D01*
X162621708Y-99324502D01*
X162611586Y-99321213D01*
X162611580Y-99321212D01*
X162471782Y-99299070D01*
X162411360Y-99289500D01*
X162208640Y-99289500D01*
X162162224Y-99296851D01*
X162008419Y-99321212D01*
X161815615Y-99383858D01*
X161634990Y-99475892D01*
X161470995Y-99595039D01*
X161327639Y-99738395D01*
X161208492Y-99902390D01*
X161150485Y-100016234D01*
X161102510Y-100067030D01*
X161034689Y-100083825D01*
X160968554Y-100061287D01*
X160929515Y-100016234D01*
X160914921Y-99987594D01*
X160871510Y-99902394D01*
X160863854Y-99891856D01*
X160752360Y-99738395D01*
X160731146Y-99717181D01*
X160697661Y-99655858D01*
X160702645Y-99586166D01*
X160744517Y-99530233D01*
X160809981Y-99505816D01*
X160818827Y-99505500D01*
X160841457Y-99505500D01*
X160935751Y-99486742D01*
X160981620Y-99477619D01*
X161113653Y-99422929D01*
X161232479Y-99343532D01*
X161333532Y-99242479D01*
X161412929Y-99123653D01*
X161467619Y-98991620D01*
X161479587Y-98931455D01*
X161495500Y-98851457D01*
X161495500Y-98708542D01*
X161467620Y-98568385D01*
X161467619Y-98568384D01*
X161467619Y-98568380D01*
X161412929Y-98436347D01*
X161412928Y-98436346D01*
X161412925Y-98436340D01*
X161333532Y-98317521D01*
X161333529Y-98317517D01*
X161232482Y-98216470D01*
X161232478Y-98216467D01*
X161113659Y-98137074D01*
X161113650Y-98137069D01*
X160981620Y-98082381D01*
X160981614Y-98082379D01*
X160841457Y-98054500D01*
X160841455Y-98054500D01*
X160698545Y-98054500D01*
X160698543Y-98054500D01*
X160558385Y-98082379D01*
X160558379Y-98082381D01*
X160426349Y-98137069D01*
X160426340Y-98137074D01*
X160307521Y-98216467D01*
X160307517Y-98216470D01*
X160206470Y-98317517D01*
X160206467Y-98317521D01*
X160127074Y-98436340D01*
X160127069Y-98436349D01*
X160072381Y-98568379D01*
X160072379Y-98568385D01*
X160044500Y-98708542D01*
X160044500Y-98708545D01*
X160044500Y-98851455D01*
X160044500Y-98851457D01*
X160044499Y-98851457D01*
X160072379Y-98991614D01*
X160072381Y-98991620D01*
X160127069Y-99123650D01*
X160129944Y-99129028D01*
X160127442Y-99130365D01*
X160144648Y-99185518D01*
X160126093Y-99252879D01*
X160074065Y-99299515D01*
X160005084Y-99310619D01*
X160001269Y-99310075D01*
X159871360Y-99289500D01*
X159668640Y-99289500D01*
X159622224Y-99296851D01*
X159468419Y-99321212D01*
X159275615Y-99383858D01*
X159094990Y-99475892D01*
X158930995Y-99595039D01*
X158787639Y-99738395D01*
X158668492Y-99902390D01*
X158610485Y-100016234D01*
X158562510Y-100067030D01*
X158494689Y-100083825D01*
X158428554Y-100061287D01*
X158389515Y-100016234D01*
X158374921Y-99987594D01*
X158331510Y-99902394D01*
X158323854Y-99891856D01*
X158212360Y-99738395D01*
X158069004Y-99595039D01*
X157905007Y-99475890D01*
X157841851Y-99443710D01*
X157791056Y-99395736D01*
X157774261Y-99327915D01*
X157796799Y-99261780D01*
X157810472Y-99245539D01*
X157813532Y-99242479D01*
X157892929Y-99123653D01*
X157947619Y-98991620D01*
X157959587Y-98931455D01*
X157975500Y-98851457D01*
X157975500Y-98708542D01*
X157947620Y-98568385D01*
X157947619Y-98568384D01*
X157947619Y-98568380D01*
X157892929Y-98436347D01*
X157892928Y-98436346D01*
X157892925Y-98436340D01*
X157813532Y-98317521D01*
X157813529Y-98317517D01*
X157712482Y-98216470D01*
X157712478Y-98216467D01*
X157593659Y-98137074D01*
X157593650Y-98137069D01*
X157461620Y-98082381D01*
X157461614Y-98082379D01*
X157321457Y-98054500D01*
X157321455Y-98054500D01*
X157178545Y-98054500D01*
X157178543Y-98054500D01*
X157038385Y-98082379D01*
X157038379Y-98082381D01*
X156906349Y-98137069D01*
X156906340Y-98137074D01*
X156787521Y-98216467D01*
X156787517Y-98216470D01*
X156686470Y-98317517D01*
X156686467Y-98317521D01*
X156607074Y-98436340D01*
X156607069Y-98436349D01*
X156552381Y-98568379D01*
X156552379Y-98568385D01*
X156524500Y-98708542D01*
X156524500Y-98708545D01*
X156524500Y-98851455D01*
X156524500Y-98851457D01*
X156524499Y-98851457D01*
X156552379Y-98991614D01*
X156552381Y-98991620D01*
X156607069Y-99123650D01*
X156607074Y-99123659D01*
X156689852Y-99247544D01*
X156688331Y-99248560D01*
X156712292Y-99304972D01*
X156700502Y-99373840D01*
X156653352Y-99425401D01*
X156645423Y-99429813D01*
X156580740Y-99462771D01*
X156554990Y-99475892D01*
X156390995Y-99595039D01*
X156247639Y-99738395D01*
X156128490Y-99902392D01*
X156070203Y-100016785D01*
X156022228Y-100067580D01*
X155954407Y-100084375D01*
X155888273Y-100061837D01*
X155849234Y-100016783D01*
X155791082Y-99902653D01*
X155671979Y-99738721D01*
X155671975Y-99738716D01*
X155528683Y-99595424D01*
X155528678Y-99595420D01*
X155364748Y-99476319D01*
X155184192Y-99384321D01*
X154991463Y-99321699D01*
X154940000Y-99313548D01*
X154940000Y-102518420D01*
X154895885Y-102492950D01*
X154760223Y-102456600D01*
X154619777Y-102456600D01*
X154484115Y-102492950D01*
X154440000Y-102518420D01*
X154440000Y-102040000D01*
X153402600Y-102040000D01*
X142170500Y-102040000D01*
X142170500Y-100476079D01*
X153402600Y-100476079D01*
X153402600Y-101540000D01*
X154440000Y-101540000D01*
X154440000Y-99313548D01*
X154439999Y-99313548D01*
X154388536Y-99321699D01*
X154195807Y-99384321D01*
X154015251Y-99476319D01*
X153851321Y-99595420D01*
X153851316Y-99595424D01*
X153708024Y-99738716D01*
X153708020Y-99738721D01*
X153588919Y-99902651D01*
X153496921Y-100083207D01*
X153434299Y-100275936D01*
X153402600Y-100476079D01*
X142170500Y-100476079D01*
X142170500Y-96101457D01*
X163081999Y-96101457D01*
X163109879Y-96241614D01*
X163109881Y-96241620D01*
X163164569Y-96373650D01*
X163164574Y-96373659D01*
X163243967Y-96492478D01*
X163243970Y-96492482D01*
X163345017Y-96593529D01*
X163345021Y-96593532D01*
X163463840Y-96672925D01*
X163463846Y-96672928D01*
X163463847Y-96672929D01*
X163595880Y-96727619D01*
X163595884Y-96727619D01*
X163595885Y-96727620D01*
X163736042Y-96755500D01*
X163736045Y-96755500D01*
X163878957Y-96755500D01*
X163973251Y-96736742D01*
X164019120Y-96727619D01*
X164151153Y-96672929D01*
X164269979Y-96593532D01*
X164371032Y-96492479D01*
X164450429Y-96373653D01*
X164505119Y-96241620D01*
X164533000Y-96101455D01*
X164533000Y-95958545D01*
X164533000Y-95958542D01*
X164505120Y-95818385D01*
X164505119Y-95818384D01*
X164505119Y-95818380D01*
X164450429Y-95686347D01*
X164450428Y-95686346D01*
X164450425Y-95686340D01*
X164371032Y-95567521D01*
X164371029Y-95567517D01*
X164269982Y-95466470D01*
X164269978Y-95466467D01*
X164151159Y-95387074D01*
X164151150Y-95387069D01*
X164019120Y-95332381D01*
X164019114Y-95332379D01*
X163878957Y-95304500D01*
X163878955Y-95304500D01*
X163736045Y-95304500D01*
X163736043Y-95304500D01*
X163595885Y-95332379D01*
X163595879Y-95332381D01*
X163463849Y-95387069D01*
X163463840Y-95387074D01*
X163345021Y-95466467D01*
X163345017Y-95466470D01*
X163243970Y-95567517D01*
X163243967Y-95567521D01*
X163164574Y-95686340D01*
X163164569Y-95686349D01*
X163109881Y-95818379D01*
X163109879Y-95818385D01*
X163082000Y-95958542D01*
X163082000Y-95958545D01*
X163082000Y-96101455D01*
X163082000Y-96101457D01*
X163081999Y-96101457D01*
X142170500Y-96101457D01*
X142170500Y-94131457D01*
X154284499Y-94131457D01*
X154312379Y-94271614D01*
X154312381Y-94271620D01*
X154367069Y-94403650D01*
X154367074Y-94403659D01*
X154446467Y-94522478D01*
X154446470Y-94522482D01*
X154547517Y-94623529D01*
X154547521Y-94623532D01*
X154666340Y-94702925D01*
X154666346Y-94702928D01*
X154666347Y-94702929D01*
X154798380Y-94757619D01*
X154798384Y-94757619D01*
X154798385Y-94757620D01*
X154938542Y-94785500D01*
X154938545Y-94785500D01*
X155081457Y-94785500D01*
X155175751Y-94766742D01*
X155221620Y-94757619D01*
X155353653Y-94702929D01*
X155472479Y-94623532D01*
X155483086Y-94612925D01*
X155577840Y-94518172D01*
X155579261Y-94519593D01*
X155629379Y-94485446D01*
X155699223Y-94483567D01*
X155756870Y-94518461D01*
X155757160Y-94518172D01*
X155758337Y-94519349D01*
X155758996Y-94519748D01*
X155760683Y-94521695D01*
X155862517Y-94623529D01*
X155862521Y-94623532D01*
X155981340Y-94702925D01*
X155981346Y-94702928D01*
X155981347Y-94702929D01*
X156113380Y-94757619D01*
X156113384Y-94757619D01*
X156113385Y-94757620D01*
X156253542Y-94785500D01*
X156253545Y-94785500D01*
X156396457Y-94785500D01*
X156490751Y-94766742D01*
X156536620Y-94757619D01*
X156668653Y-94702929D01*
X156787479Y-94623532D01*
X156798086Y-94612925D01*
X156892840Y-94518172D01*
X156894261Y-94519593D01*
X156944379Y-94485446D01*
X157014223Y-94483567D01*
X157071870Y-94518461D01*
X157072160Y-94518172D01*
X157073337Y-94519349D01*
X157073996Y-94519748D01*
X157075683Y-94521695D01*
X157177517Y-94623529D01*
X157177521Y-94623532D01*
X157296340Y-94702925D01*
X157296346Y-94702928D01*
X157296347Y-94702929D01*
X157428380Y-94757619D01*
X157428384Y-94757619D01*
X157428385Y-94757620D01*
X157568542Y-94785500D01*
X157568545Y-94785500D01*
X157711457Y-94785500D01*
X157805751Y-94766742D01*
X157851620Y-94757619D01*
X157983653Y-94702929D01*
X158102479Y-94623532D01*
X158203532Y-94522479D01*
X158282929Y-94403653D01*
X158337619Y-94271620D01*
X158346742Y-94225751D01*
X158365500Y-94131457D01*
X158365500Y-94041457D01*
X172814499Y-94041457D01*
X172842379Y-94181614D01*
X172842381Y-94181620D01*
X172897069Y-94313650D01*
X172897074Y-94313659D01*
X172976467Y-94432478D01*
X172976470Y-94432482D01*
X173077517Y-94533529D01*
X173077521Y-94533532D01*
X173196340Y-94612925D01*
X173196346Y-94612928D01*
X173196347Y-94612929D01*
X173328380Y-94667619D01*
X173328384Y-94667619D01*
X173328385Y-94667620D01*
X173468542Y-94695500D01*
X173468545Y-94695500D01*
X173611457Y-94695500D01*
X173705751Y-94676742D01*
X173751620Y-94667619D01*
X173883653Y-94612929D01*
X174002479Y-94533532D01*
X174103532Y-94432479D01*
X174182929Y-94313653D01*
X174200407Y-94271457D01*
X174624499Y-94271457D01*
X174652379Y-94411614D01*
X174652381Y-94411620D01*
X174707069Y-94543650D01*
X174707074Y-94543659D01*
X174786467Y-94662478D01*
X174786470Y-94662482D01*
X174887517Y-94763529D01*
X174887521Y-94763532D01*
X175006340Y-94842925D01*
X175006346Y-94842928D01*
X175006347Y-94842929D01*
X175138380Y-94897619D01*
X175138384Y-94897619D01*
X175138385Y-94897620D01*
X175278542Y-94925500D01*
X175278545Y-94925500D01*
X175421457Y-94925500D01*
X175515751Y-94906742D01*
X175561620Y-94897619D01*
X175693653Y-94842929D01*
X175812479Y-94763532D01*
X175818393Y-94757618D01*
X175917840Y-94658172D01*
X175919261Y-94659593D01*
X175969379Y-94625446D01*
X176039223Y-94623567D01*
X176096870Y-94658461D01*
X176097160Y-94658172D01*
X176098337Y-94659349D01*
X176098996Y-94659748D01*
X176100683Y-94661695D01*
X176202517Y-94763529D01*
X176202521Y-94763532D01*
X176321340Y-94842925D01*
X176321346Y-94842928D01*
X176321347Y-94842929D01*
X176453380Y-94897619D01*
X176453384Y-94897619D01*
X176453385Y-94897620D01*
X176593542Y-94925500D01*
X176593545Y-94925500D01*
X176736457Y-94925500D01*
X176830751Y-94906742D01*
X176876620Y-94897619D01*
X177008653Y-94842929D01*
X177127479Y-94763532D01*
X177133393Y-94757618D01*
X177232840Y-94658172D01*
X177234261Y-94659593D01*
X177284379Y-94625446D01*
X177354223Y-94623567D01*
X177411870Y-94658461D01*
X177412160Y-94658172D01*
X177413337Y-94659349D01*
X177413996Y-94659748D01*
X177415683Y-94661695D01*
X177517517Y-94763529D01*
X177517521Y-94763532D01*
X177636340Y-94842925D01*
X177636346Y-94842928D01*
X177636347Y-94842929D01*
X177768380Y-94897619D01*
X177768384Y-94897619D01*
X177768385Y-94897620D01*
X177908542Y-94925500D01*
X177908545Y-94925500D01*
X178051457Y-94925500D01*
X178145751Y-94906742D01*
X178191620Y-94897619D01*
X178323653Y-94842929D01*
X178442479Y-94763532D01*
X178543532Y-94662479D01*
X178622929Y-94543653D01*
X178677619Y-94411620D01*
X178697107Y-94313650D01*
X178705500Y-94271457D01*
X178705500Y-94128542D01*
X178677620Y-93988385D01*
X178677619Y-93988384D01*
X178677619Y-93988380D01*
X178622929Y-93856347D01*
X178622928Y-93856346D01*
X178622925Y-93856340D01*
X178543532Y-93737521D01*
X178543529Y-93737517D01*
X178442482Y-93636470D01*
X178442478Y-93636467D01*
X178323659Y-93557074D01*
X178323650Y-93557069D01*
X178191620Y-93502381D01*
X178191614Y-93502379D01*
X178051457Y-93474500D01*
X178051455Y-93474500D01*
X177908545Y-93474500D01*
X177908543Y-93474500D01*
X177768385Y-93502379D01*
X177768379Y-93502381D01*
X177636349Y-93557069D01*
X177636340Y-93557074D01*
X177517521Y-93636467D01*
X177517517Y-93636470D01*
X177412160Y-93741828D01*
X177410742Y-93740410D01*
X177360597Y-93774560D01*
X177290753Y-93776425D01*
X177233134Y-93741533D01*
X177232840Y-93741828D01*
X177231641Y-93740629D01*
X177230987Y-93740233D01*
X177229313Y-93738301D01*
X177127482Y-93636470D01*
X177127478Y-93636467D01*
X177008659Y-93557074D01*
X177008650Y-93557069D01*
X176876620Y-93502381D01*
X176876614Y-93502379D01*
X176736457Y-93474500D01*
X176736455Y-93474500D01*
X176593545Y-93474500D01*
X176593543Y-93474500D01*
X176453385Y-93502379D01*
X176453379Y-93502381D01*
X176321349Y-93557069D01*
X176321340Y-93557074D01*
X176202521Y-93636467D01*
X176202517Y-93636470D01*
X176097160Y-93741828D01*
X176095742Y-93740410D01*
X176045597Y-93774560D01*
X175975753Y-93776425D01*
X175918134Y-93741533D01*
X175917840Y-93741828D01*
X175916641Y-93740629D01*
X175915987Y-93740233D01*
X175914313Y-93738301D01*
X175812482Y-93636470D01*
X175812478Y-93636467D01*
X175693659Y-93557074D01*
X175693650Y-93557069D01*
X175561620Y-93502381D01*
X175561614Y-93502379D01*
X175421457Y-93474500D01*
X175421455Y-93474500D01*
X175278545Y-93474500D01*
X175278543Y-93474500D01*
X175138385Y-93502379D01*
X175138379Y-93502381D01*
X175006349Y-93557069D01*
X175006340Y-93557074D01*
X174887521Y-93636467D01*
X174887517Y-93636470D01*
X174786470Y-93737517D01*
X174786467Y-93737521D01*
X174707074Y-93856340D01*
X174707069Y-93856349D01*
X174652381Y-93988379D01*
X174652379Y-93988385D01*
X174624500Y-94128542D01*
X174624500Y-94128545D01*
X174624500Y-94271455D01*
X174624500Y-94271457D01*
X174624499Y-94271457D01*
X174200407Y-94271457D01*
X174237619Y-94181620D01*
X174247598Y-94131455D01*
X174254201Y-94098261D01*
X174254201Y-94098260D01*
X174265499Y-94041459D01*
X174265500Y-94041457D01*
X174265500Y-93898542D01*
X174237620Y-93758385D01*
X174237619Y-93758384D01*
X174237619Y-93758380D01*
X174187121Y-93636467D01*
X174182930Y-93626349D01*
X174182925Y-93626340D01*
X174103532Y-93507521D01*
X174103529Y-93507517D01*
X174002482Y-93406470D01*
X174002478Y-93406467D01*
X173883659Y-93327074D01*
X173883650Y-93327069D01*
X173751620Y-93272381D01*
X173751614Y-93272379D01*
X173611457Y-93244500D01*
X173611455Y-93244500D01*
X173468545Y-93244500D01*
X173468543Y-93244500D01*
X173328385Y-93272379D01*
X173328379Y-93272381D01*
X173196349Y-93327069D01*
X173196340Y-93327074D01*
X173077521Y-93406467D01*
X173077517Y-93406470D01*
X172976470Y-93507517D01*
X172976467Y-93507521D01*
X172897074Y-93626340D01*
X172897069Y-93626349D01*
X172842381Y-93758379D01*
X172842379Y-93758385D01*
X172814500Y-93898542D01*
X172814500Y-93898545D01*
X172814500Y-94041455D01*
X172814500Y-94041457D01*
X172814499Y-94041457D01*
X158365500Y-94041457D01*
X158365500Y-93988542D01*
X158351198Y-93916645D01*
X158351198Y-93916644D01*
X158339204Y-93856349D01*
X158337619Y-93848380D01*
X158282929Y-93716347D01*
X158282928Y-93716346D01*
X158282925Y-93716340D01*
X158203532Y-93597521D01*
X158203529Y-93597517D01*
X158102482Y-93496470D01*
X158102478Y-93496467D01*
X157983659Y-93417074D01*
X157983650Y-93417069D01*
X157851620Y-93362381D01*
X157851614Y-93362379D01*
X157711457Y-93334500D01*
X157711455Y-93334500D01*
X157568545Y-93334500D01*
X157568543Y-93334500D01*
X157428385Y-93362379D01*
X157428379Y-93362381D01*
X157296349Y-93417069D01*
X157296340Y-93417074D01*
X157177521Y-93496467D01*
X157177517Y-93496470D01*
X157072160Y-93601828D01*
X157070742Y-93600410D01*
X157020597Y-93634560D01*
X156950753Y-93636425D01*
X156893134Y-93601533D01*
X156892840Y-93601828D01*
X156891641Y-93600629D01*
X156890987Y-93600233D01*
X156889313Y-93598301D01*
X156787482Y-93496470D01*
X156787478Y-93496467D01*
X156668659Y-93417074D01*
X156668650Y-93417069D01*
X156536620Y-93362381D01*
X156536614Y-93362379D01*
X156396457Y-93334500D01*
X156396455Y-93334500D01*
X156253545Y-93334500D01*
X156253543Y-93334500D01*
X156113385Y-93362379D01*
X156113379Y-93362381D01*
X155981349Y-93417069D01*
X155981340Y-93417074D01*
X155862521Y-93496467D01*
X155862517Y-93496470D01*
X155757160Y-93601828D01*
X155755742Y-93600410D01*
X155705597Y-93634560D01*
X155635753Y-93636425D01*
X155578134Y-93601533D01*
X155577840Y-93601828D01*
X155576641Y-93600629D01*
X155575987Y-93600233D01*
X155574313Y-93598301D01*
X155472482Y-93496470D01*
X155472478Y-93496467D01*
X155353659Y-93417074D01*
X155353650Y-93417069D01*
X155221620Y-93362381D01*
X155221614Y-93362379D01*
X155081457Y-93334500D01*
X155081455Y-93334500D01*
X154938545Y-93334500D01*
X154938543Y-93334500D01*
X154798385Y-93362379D01*
X154798379Y-93362381D01*
X154666349Y-93417069D01*
X154666340Y-93417074D01*
X154547521Y-93496467D01*
X154547517Y-93496470D01*
X154446470Y-93597517D01*
X154446467Y-93597521D01*
X154367074Y-93716340D01*
X154367069Y-93716349D01*
X154312381Y-93848379D01*
X154312379Y-93848385D01*
X154284500Y-93988542D01*
X154284500Y-93988545D01*
X154284500Y-94131455D01*
X154284500Y-94131457D01*
X154284499Y-94131457D01*
X142170500Y-94131457D01*
X142170500Y-92641457D01*
X164814499Y-92641457D01*
X164842379Y-92781614D01*
X164842381Y-92781620D01*
X164897069Y-92913650D01*
X164897074Y-92913659D01*
X164976467Y-93032478D01*
X164976470Y-93032482D01*
X165077517Y-93133529D01*
X165077521Y-93133532D01*
X165196340Y-93212925D01*
X165196346Y-93212928D01*
X165196347Y-93212929D01*
X165328380Y-93267619D01*
X165328384Y-93267619D01*
X165328385Y-93267620D01*
X165468542Y-93295500D01*
X165468545Y-93295500D01*
X165611457Y-93295500D01*
X165727690Y-93272379D01*
X165751620Y-93267619D01*
X165883653Y-93212929D01*
X166002479Y-93133532D01*
X166103532Y-93032479D01*
X166182929Y-92913653D01*
X166237619Y-92781620D01*
X166263478Y-92651620D01*
X166265500Y-92641457D01*
X166265500Y-92511457D01*
X184414499Y-92511457D01*
X184442379Y-92651614D01*
X184442381Y-92651620D01*
X184497069Y-92783650D01*
X184497074Y-92783659D01*
X184576467Y-92902478D01*
X184576470Y-92902482D01*
X184677517Y-93003529D01*
X184677521Y-93003532D01*
X184796340Y-93082925D01*
X184796346Y-93082928D01*
X184796347Y-93082929D01*
X184928380Y-93137619D01*
X184928384Y-93137619D01*
X184928385Y-93137620D01*
X185068542Y-93165500D01*
X185068545Y-93165500D01*
X185211457Y-93165500D01*
X185305751Y-93146742D01*
X185351620Y-93137619D01*
X185483653Y-93082929D01*
X185602479Y-93003532D01*
X185703532Y-92902479D01*
X185782929Y-92783653D01*
X185837619Y-92651620D01*
X185865500Y-92511455D01*
X185865500Y-92368545D01*
X185865500Y-92368542D01*
X185837620Y-92228385D01*
X185837619Y-92228384D01*
X185837619Y-92228380D01*
X185795318Y-92126258D01*
X185782930Y-92096349D01*
X185782925Y-92096340D01*
X185703532Y-91977521D01*
X185703529Y-91977517D01*
X185602482Y-91876470D01*
X185602478Y-91876467D01*
X185483659Y-91797074D01*
X185483650Y-91797069D01*
X185351620Y-91742381D01*
X185351614Y-91742379D01*
X185211457Y-91714500D01*
X185211455Y-91714500D01*
X185068545Y-91714500D01*
X185068543Y-91714500D01*
X184928385Y-91742379D01*
X184928379Y-91742381D01*
X184796349Y-91797069D01*
X184796340Y-91797074D01*
X184677521Y-91876467D01*
X184677517Y-91876470D01*
X184576470Y-91977517D01*
X184576467Y-91977521D01*
X184497074Y-92096340D01*
X184497069Y-92096349D01*
X184442381Y-92228379D01*
X184442379Y-92228385D01*
X184414500Y-92368542D01*
X184414500Y-92368545D01*
X184414500Y-92511455D01*
X184414500Y-92511457D01*
X184414499Y-92511457D01*
X166265500Y-92511457D01*
X166265500Y-92498542D01*
X166265499Y-92498540D01*
X166243242Y-92386644D01*
X166237620Y-92358384D01*
X166237619Y-92358382D01*
X166237619Y-92358380D01*
X166182929Y-92226347D01*
X166182928Y-92226346D01*
X166182925Y-92226340D01*
X166103532Y-92107521D01*
X166103529Y-92107517D01*
X166002482Y-92006470D01*
X166002478Y-92006467D01*
X165883659Y-91927074D01*
X165883650Y-91927069D01*
X165751620Y-91872381D01*
X165751614Y-91872379D01*
X165611457Y-91844500D01*
X165611455Y-91844500D01*
X165468545Y-91844500D01*
X165468543Y-91844500D01*
X165328385Y-91872379D01*
X165328379Y-91872381D01*
X165196349Y-91927069D01*
X165196340Y-91927074D01*
X165077521Y-92006467D01*
X165077517Y-92006470D01*
X164976470Y-92107517D01*
X164976467Y-92107521D01*
X164897074Y-92226340D01*
X164897069Y-92226349D01*
X164842381Y-92358379D01*
X164842379Y-92358385D01*
X164814500Y-92498542D01*
X164814500Y-92498545D01*
X164814500Y-92641455D01*
X164814500Y-92641457D01*
X164814499Y-92641457D01*
X142170500Y-92641457D01*
X142170500Y-89281457D01*
X169654499Y-89281457D01*
X169682379Y-89421614D01*
X169682381Y-89421620D01*
X169737069Y-89553650D01*
X169737074Y-89553659D01*
X169816467Y-89672478D01*
X169816470Y-89672482D01*
X169917517Y-89773529D01*
X169917521Y-89773532D01*
X170036340Y-89852925D01*
X170036349Y-89852930D01*
X170060479Y-89862925D01*
X170168380Y-89907619D01*
X170168384Y-89907619D01*
X170168385Y-89907620D01*
X170308542Y-89935500D01*
X170308545Y-89935500D01*
X170451457Y-89935500D01*
X170547320Y-89916431D01*
X170591620Y-89907619D01*
X170723653Y-89852929D01*
X170842479Y-89773532D01*
X170943532Y-89672479D01*
X171022929Y-89553653D01*
X171077619Y-89421620D01*
X171087930Y-89369785D01*
X171103511Y-89291457D01*
X171524499Y-89291457D01*
X171552379Y-89431614D01*
X171552381Y-89431620D01*
X171607069Y-89563650D01*
X171607074Y-89563659D01*
X171686467Y-89682478D01*
X171686470Y-89682482D01*
X171787517Y-89783529D01*
X171787521Y-89783532D01*
X171906340Y-89862925D01*
X171906349Y-89862930D01*
X171936258Y-89875318D01*
X172038380Y-89917619D01*
X172038384Y-89917619D01*
X172038385Y-89917620D01*
X172178542Y-89945500D01*
X172178545Y-89945500D01*
X172321457Y-89945500D01*
X172377826Y-89934286D01*
X172461620Y-89917619D01*
X172461632Y-89917613D01*
X172462459Y-89917364D01*
X172462924Y-89917359D01*
X172467594Y-89916431D01*
X172467770Y-89917316D01*
X172532326Y-89916735D01*
X172591441Y-89953979D01*
X172621037Y-90017271D01*
X172620081Y-90060212D01*
X172606490Y-90128542D01*
X172604500Y-90138545D01*
X172604500Y-90281455D01*
X172604500Y-90281457D01*
X172604499Y-90281457D01*
X172632379Y-90421614D01*
X172632381Y-90421620D01*
X172687069Y-90553650D01*
X172687074Y-90553659D01*
X172766467Y-90672478D01*
X172766470Y-90672482D01*
X172867517Y-90773529D01*
X172867521Y-90773532D01*
X172986340Y-90852925D01*
X172986346Y-90852928D01*
X172986347Y-90852929D01*
X173118380Y-90907619D01*
X173118384Y-90907619D01*
X173118385Y-90907620D01*
X173258542Y-90935500D01*
X173258545Y-90935500D01*
X173401457Y-90935500D01*
X173495751Y-90916742D01*
X173541620Y-90907619D01*
X173673653Y-90852929D01*
X173773593Y-90786150D01*
X173840268Y-90765274D01*
X173907648Y-90783758D01*
X173911373Y-90786152D01*
X173996340Y-90842925D01*
X173996346Y-90842928D01*
X173996347Y-90842929D01*
X174128380Y-90897619D01*
X174128384Y-90897619D01*
X174128385Y-90897620D01*
X174268542Y-90925500D01*
X174268545Y-90925500D01*
X174411457Y-90925500D01*
X174505751Y-90906742D01*
X174551620Y-90897619D01*
X174683653Y-90842929D01*
X174802479Y-90763532D01*
X174903532Y-90662479D01*
X174982929Y-90543653D01*
X175037619Y-90411620D01*
X175046742Y-90365751D01*
X175065500Y-90271457D01*
X175065500Y-90128542D01*
X175037620Y-89988385D01*
X175037619Y-89988384D01*
X175037619Y-89988380D01*
X174982929Y-89856347D01*
X174982928Y-89856346D01*
X174982925Y-89856340D01*
X174903532Y-89737521D01*
X174903529Y-89737517D01*
X174802482Y-89636470D01*
X174802478Y-89636467D01*
X174683659Y-89557074D01*
X174683650Y-89557069D01*
X174551620Y-89502381D01*
X174551614Y-89502379D01*
X174411457Y-89474500D01*
X174411455Y-89474500D01*
X174268545Y-89474500D01*
X174268543Y-89474500D01*
X174128385Y-89502379D01*
X174128379Y-89502381D01*
X173996349Y-89557069D01*
X173996335Y-89557077D01*
X173896407Y-89623847D01*
X173829730Y-89644725D01*
X173762350Y-89626240D01*
X173758627Y-89623847D01*
X173673664Y-89567077D01*
X173673650Y-89567069D01*
X173541620Y-89512381D01*
X173541614Y-89512379D01*
X173401457Y-89484500D01*
X173401455Y-89484500D01*
X173258545Y-89484500D01*
X173258543Y-89484500D01*
X173118372Y-89512382D01*
X173117519Y-89512641D01*
X173117050Y-89512645D01*
X173112406Y-89513569D01*
X173112230Y-89512687D01*
X173047652Y-89513258D01*
X172988543Y-89476003D01*
X172958959Y-89412706D01*
X172959919Y-89369785D01*
X172975500Y-89291457D01*
X172975500Y-89148542D01*
X172947620Y-89008385D01*
X172947619Y-89008384D01*
X172947619Y-89008380D01*
X172892929Y-88876347D01*
X172892928Y-88876346D01*
X172892925Y-88876340D01*
X172813532Y-88757521D01*
X172813529Y-88757517D01*
X172712482Y-88656470D01*
X172712478Y-88656467D01*
X172593659Y-88577074D01*
X172593650Y-88577069D01*
X172461620Y-88522381D01*
X172461614Y-88522379D01*
X172321457Y-88494500D01*
X172321455Y-88494500D01*
X172178545Y-88494500D01*
X172178543Y-88494500D01*
X172038385Y-88522379D01*
X172038379Y-88522381D01*
X171906349Y-88577069D01*
X171906340Y-88577074D01*
X171787521Y-88656467D01*
X171787517Y-88656470D01*
X171686470Y-88757517D01*
X171686467Y-88757521D01*
X171607074Y-88876340D01*
X171607069Y-88876349D01*
X171552381Y-89008379D01*
X171552379Y-89008385D01*
X171524500Y-89148542D01*
X171524500Y-89148545D01*
X171524500Y-89291455D01*
X171524500Y-89291457D01*
X171524499Y-89291457D01*
X171103511Y-89291457D01*
X171105500Y-89281457D01*
X171105500Y-89138542D01*
X171077620Y-88998385D01*
X171077619Y-88998384D01*
X171077619Y-88998380D01*
X171022929Y-88866347D01*
X171022928Y-88866346D01*
X171022925Y-88866340D01*
X170943532Y-88747521D01*
X170943529Y-88747517D01*
X170842482Y-88646470D01*
X170842478Y-88646467D01*
X170723659Y-88567074D01*
X170723650Y-88567069D01*
X170591620Y-88512381D01*
X170591614Y-88512379D01*
X170451457Y-88484500D01*
X170451455Y-88484500D01*
X170308545Y-88484500D01*
X170308543Y-88484500D01*
X170168385Y-88512379D01*
X170168379Y-88512381D01*
X170036349Y-88567069D01*
X170036340Y-88567074D01*
X169917521Y-88646467D01*
X169917517Y-88646470D01*
X169816470Y-88747517D01*
X169816467Y-88747521D01*
X169737074Y-88866340D01*
X169737069Y-88866349D01*
X169682381Y-88998379D01*
X169682379Y-88998385D01*
X169654500Y-89138542D01*
X169654500Y-89138545D01*
X169654500Y-89281455D01*
X169654500Y-89281457D01*
X169654499Y-89281457D01*
X142170500Y-89281457D01*
X142170500Y-85193956D01*
X178100620Y-85193956D01*
X178129461Y-85338943D01*
X178129464Y-85338953D01*
X178186033Y-85475524D01*
X178186040Y-85475537D01*
X178268169Y-85598451D01*
X178268172Y-85598455D01*
X178372701Y-85702984D01*
X178372705Y-85702987D01*
X178495619Y-85785116D01*
X178495632Y-85785123D01*
X178632203Y-85841692D01*
X178632208Y-85841694D01*
X178632212Y-85841694D01*
X178632213Y-85841695D01*
X178777200Y-85870536D01*
X178777203Y-85870536D01*
X178925041Y-85870536D01*
X179022583Y-85851132D01*
X179070034Y-85841694D01*
X179206616Y-85785120D01*
X179329537Y-85702987D01*
X179434072Y-85598452D01*
X179516205Y-85475531D01*
X179572779Y-85338949D01*
X179578111Y-85312145D01*
X179610495Y-85250234D01*
X179656642Y-85223956D01*
X181510216Y-85223956D01*
X181539057Y-85368943D01*
X181539060Y-85368953D01*
X181595629Y-85505524D01*
X181595636Y-85505537D01*
X181677765Y-85628451D01*
X181677768Y-85628455D01*
X181782297Y-85732984D01*
X181782301Y-85732987D01*
X181905215Y-85815116D01*
X181905228Y-85815123D01*
X182039008Y-85870536D01*
X182041804Y-85871694D01*
X182041808Y-85871694D01*
X182041809Y-85871695D01*
X182186796Y-85900536D01*
X182186799Y-85900536D01*
X182334637Y-85900536D01*
X182432179Y-85881132D01*
X182479630Y-85871694D01*
X182616212Y-85815120D01*
X182739133Y-85732987D01*
X182843668Y-85628452D01*
X182925801Y-85505531D01*
X182982375Y-85368949D01*
X182993674Y-85312145D01*
X183011217Y-85223956D01*
X183011217Y-85076115D01*
X182982376Y-84931128D01*
X182982375Y-84931127D01*
X182982375Y-84931123D01*
X182969947Y-84901118D01*
X182925804Y-84794547D01*
X182925797Y-84794534D01*
X182843668Y-84671620D01*
X182843665Y-84671616D01*
X182739136Y-84567087D01*
X182739132Y-84567084D01*
X182616218Y-84484955D01*
X182616205Y-84484948D01*
X182479634Y-84428379D01*
X182479624Y-84428376D01*
X182334637Y-84399536D01*
X182334635Y-84399536D01*
X182186799Y-84399536D01*
X182186797Y-84399536D01*
X182041809Y-84428376D01*
X182041799Y-84428379D01*
X181905228Y-84484948D01*
X181905215Y-84484955D01*
X181782301Y-84567084D01*
X181782297Y-84567087D01*
X181677768Y-84671616D01*
X181677765Y-84671620D01*
X181595636Y-84794534D01*
X181595629Y-84794547D01*
X181539060Y-84931118D01*
X181539057Y-84931128D01*
X181510217Y-85076115D01*
X181510217Y-85076118D01*
X181510217Y-85223954D01*
X181510217Y-85223956D01*
X181510216Y-85223956D01*
X179656642Y-85223956D01*
X179671211Y-85215660D01*
X179699728Y-85212336D01*
X179825061Y-85212336D01*
X179922603Y-85192932D01*
X179970054Y-85183494D01*
X180106636Y-85126920D01*
X180229557Y-85044787D01*
X180229560Y-85044784D01*
X180292000Y-84982345D01*
X180334089Y-84940255D01*
X180334092Y-84940252D01*
X180416225Y-84817331D01*
X180472799Y-84680749D01*
X180482237Y-84633298D01*
X180501641Y-84535756D01*
X180501641Y-84387915D01*
X180472800Y-84242928D01*
X180472799Y-84242925D01*
X180472799Y-84242923D01*
X180472797Y-84242918D01*
X180416228Y-84106347D01*
X180416221Y-84106334D01*
X180334092Y-83983420D01*
X180334089Y-83983416D01*
X180229560Y-83878887D01*
X180229556Y-83878884D01*
X180106642Y-83796755D01*
X180106629Y-83796748D01*
X179970058Y-83740179D01*
X179970048Y-83740176D01*
X179825061Y-83711336D01*
X179825059Y-83711336D01*
X179677223Y-83711336D01*
X179677221Y-83711336D01*
X179532233Y-83740176D01*
X179532223Y-83740179D01*
X179395652Y-83796748D01*
X179395639Y-83796755D01*
X179272725Y-83878884D01*
X179272721Y-83878887D01*
X179168192Y-83983416D01*
X179168189Y-83983420D01*
X179086060Y-84106334D01*
X179086053Y-84106347D01*
X179029483Y-84242920D01*
X179029482Y-84242925D01*
X179024150Y-84269730D01*
X178991764Y-84331640D01*
X178931047Y-84366213D01*
X178902533Y-84369536D01*
X178777201Y-84369536D01*
X178632213Y-84398376D01*
X178632203Y-84398379D01*
X178495632Y-84454948D01*
X178495619Y-84454955D01*
X178372705Y-84537084D01*
X178372701Y-84537087D01*
X178268172Y-84641616D01*
X178268169Y-84641620D01*
X178186040Y-84764534D01*
X178186033Y-84764547D01*
X178129464Y-84901118D01*
X178129461Y-84901128D01*
X178100621Y-85046115D01*
X178100621Y-85046118D01*
X178100621Y-85193954D01*
X178100621Y-85193956D01*
X178100620Y-85193956D01*
X142170500Y-85193956D01*
X142170500Y-83723920D01*
X172469499Y-83723920D01*
X172498340Y-83868907D01*
X172498343Y-83868917D01*
X172554912Y-84005488D01*
X172554919Y-84005501D01*
X172637048Y-84128415D01*
X172637051Y-84128419D01*
X172741580Y-84232948D01*
X172741584Y-84232951D01*
X172864498Y-84315080D01*
X172864511Y-84315087D01*
X172995964Y-84369536D01*
X173001087Y-84371658D01*
X173001091Y-84371658D01*
X173001092Y-84371659D01*
X173146079Y-84400500D01*
X173146082Y-84400500D01*
X173293920Y-84400500D01*
X173391462Y-84381096D01*
X173438913Y-84371658D01*
X173575495Y-84315084D01*
X173698416Y-84232951D01*
X173802951Y-84128416D01*
X173885084Y-84005495D01*
X173941658Y-83868913D01*
X173951096Y-83821462D01*
X173970500Y-83723920D01*
X173970500Y-83576079D01*
X173941659Y-83431092D01*
X173941658Y-83431091D01*
X173941658Y-83431087D01*
X173941656Y-83431082D01*
X173885087Y-83294511D01*
X173885080Y-83294498D01*
X173802951Y-83171584D01*
X173802948Y-83171580D01*
X173698419Y-83067051D01*
X173698415Y-83067048D01*
X173575501Y-82984919D01*
X173575488Y-82984912D01*
X173438917Y-82928343D01*
X173438907Y-82928340D01*
X173293920Y-82899500D01*
X173293918Y-82899500D01*
X173146082Y-82899500D01*
X173146080Y-82899500D01*
X173001092Y-82928340D01*
X173001082Y-82928343D01*
X172864511Y-82984912D01*
X172864498Y-82984919D01*
X172741584Y-83067048D01*
X172741580Y-83067051D01*
X172637051Y-83171580D01*
X172637048Y-83171584D01*
X172554919Y-83294498D01*
X172554912Y-83294511D01*
X172498343Y-83431082D01*
X172498340Y-83431092D01*
X172469500Y-83576079D01*
X172469500Y-83576082D01*
X172469500Y-83723918D01*
X172469500Y-83723920D01*
X172469499Y-83723920D01*
X142170500Y-83723920D01*
X142170500Y-82158956D01*
X176991023Y-82158956D01*
X177019864Y-82303943D01*
X177019867Y-82303953D01*
X177076436Y-82440524D01*
X177076443Y-82440537D01*
X177158572Y-82563451D01*
X177158575Y-82563455D01*
X177263104Y-82667984D01*
X177263108Y-82667987D01*
X177386022Y-82750116D01*
X177386035Y-82750123D01*
X177522606Y-82806692D01*
X177522611Y-82806694D01*
X177522615Y-82806694D01*
X177522616Y-82806695D01*
X177667603Y-82835536D01*
X177667606Y-82835536D01*
X177815444Y-82835536D01*
X177912986Y-82816132D01*
X177960437Y-82806694D01*
X178093219Y-82751694D01*
X178097012Y-82750123D01*
X178097012Y-82750122D01*
X178097019Y-82750120D01*
X178165054Y-82704660D01*
X178231729Y-82683782D01*
X178281397Y-82693201D01*
X178286027Y-82695119D01*
X178286029Y-82695120D01*
X178422611Y-82751694D01*
X178422615Y-82751694D01*
X178422616Y-82751695D01*
X178567603Y-82780536D01*
X178567606Y-82780536D01*
X178715444Y-82780536D01*
X178812986Y-82761132D01*
X178860437Y-82751694D01*
X178887510Y-82740479D01*
X178956975Y-82733010D01*
X179003851Y-82751937D01*
X179033105Y-82771485D01*
X179046030Y-82780121D01*
X179179815Y-82835536D01*
X179182611Y-82836694D01*
X179182615Y-82836694D01*
X179182616Y-82836695D01*
X179327603Y-82865536D01*
X179327606Y-82865536D01*
X179475444Y-82865536D01*
X179572986Y-82846132D01*
X179620437Y-82836694D01*
X179757019Y-82780120D01*
X179879940Y-82697987D01*
X179984475Y-82593452D01*
X180066608Y-82470531D01*
X180123182Y-82333949D01*
X180152024Y-82188954D01*
X180152024Y-82041118D01*
X180152024Y-82041115D01*
X180123183Y-81896128D01*
X180123182Y-81896127D01*
X180123182Y-81896123D01*
X180110754Y-81866118D01*
X180066611Y-81759547D01*
X180066604Y-81759534D01*
X179984475Y-81636620D01*
X179984472Y-81636616D01*
X179879943Y-81532087D01*
X179879939Y-81532084D01*
X179757025Y-81449955D01*
X179757012Y-81449948D01*
X179620441Y-81393379D01*
X179620431Y-81393376D01*
X179475444Y-81364536D01*
X179475442Y-81364536D01*
X179327606Y-81364536D01*
X179327604Y-81364536D01*
X179182617Y-81393376D01*
X179182610Y-81393378D01*
X179155533Y-81404593D01*
X179086063Y-81412059D01*
X179039195Y-81393133D01*
X178997015Y-81364949D01*
X178860441Y-81308379D01*
X178860431Y-81308376D01*
X178715444Y-81279536D01*
X178715442Y-81279536D01*
X178567606Y-81279536D01*
X178567604Y-81279536D01*
X178422616Y-81308376D01*
X178422606Y-81308379D01*
X178286035Y-81364948D01*
X178286022Y-81364955D01*
X178217994Y-81410411D01*
X178151316Y-81431289D01*
X178101651Y-81421870D01*
X177960441Y-81363379D01*
X177960431Y-81363376D01*
X177815444Y-81334536D01*
X177815442Y-81334536D01*
X177667606Y-81334536D01*
X177667604Y-81334536D01*
X177522616Y-81363376D01*
X177522606Y-81363379D01*
X177386035Y-81419948D01*
X177386022Y-81419955D01*
X177263108Y-81502084D01*
X177263104Y-81502087D01*
X177158575Y-81606616D01*
X177158572Y-81606620D01*
X177076443Y-81729534D01*
X177076436Y-81729547D01*
X177019867Y-81866118D01*
X177019864Y-81866128D01*
X176991024Y-82011115D01*
X176991024Y-82011118D01*
X176991024Y-82158954D01*
X176991024Y-82158956D01*
X176991023Y-82158956D01*
X142170500Y-82158956D01*
X142170500Y-80333956D01*
X171021023Y-80333956D01*
X171049864Y-80478943D01*
X171049867Y-80478953D01*
X171106436Y-80615524D01*
X171106443Y-80615537D01*
X171188572Y-80738451D01*
X171188575Y-80738455D01*
X171293104Y-80842984D01*
X171293108Y-80842987D01*
X171416022Y-80925116D01*
X171416035Y-80925123D01*
X171552606Y-80981692D01*
X171552611Y-80981694D01*
X171552615Y-80981694D01*
X171552616Y-80981695D01*
X171697603Y-81010536D01*
X171697606Y-81010536D01*
X171845444Y-81010536D01*
X171942986Y-80991132D01*
X171990437Y-80981694D01*
X172127019Y-80925120D01*
X172249940Y-80842987D01*
X172318971Y-80773956D01*
X181740216Y-80773956D01*
X181769057Y-80918943D01*
X181769060Y-80918953D01*
X181825629Y-81055524D01*
X181825636Y-81055537D01*
X181907765Y-81178451D01*
X181907768Y-81178455D01*
X182012297Y-81282984D01*
X182012301Y-81282987D01*
X182135215Y-81365116D01*
X182135228Y-81365123D01*
X182271799Y-81421692D01*
X182271804Y-81421694D01*
X182271808Y-81421694D01*
X182271809Y-81421695D01*
X182416796Y-81450536D01*
X182416799Y-81450536D01*
X182564637Y-81450536D01*
X182668100Y-81429955D01*
X182709630Y-81421694D01*
X182846212Y-81365120D01*
X182969133Y-81282987D01*
X183073668Y-81178452D01*
X183155801Y-81055531D01*
X183212375Y-80918949D01*
X183241217Y-80773954D01*
X183241217Y-80626118D01*
X183241217Y-80626115D01*
X183212376Y-80481128D01*
X183212375Y-80481127D01*
X183212375Y-80481123D01*
X183211100Y-80478045D01*
X183155804Y-80344547D01*
X183155797Y-80344534D01*
X183073668Y-80221620D01*
X183073665Y-80221616D01*
X182969136Y-80117087D01*
X182969132Y-80117084D01*
X182846218Y-80034955D01*
X182846205Y-80034948D01*
X182709634Y-79978379D01*
X182709624Y-79978376D01*
X182564637Y-79949536D01*
X182564635Y-79949536D01*
X182416799Y-79949536D01*
X182416797Y-79949536D01*
X182271809Y-79978376D01*
X182271799Y-79978379D01*
X182135228Y-80034948D01*
X182135215Y-80034955D01*
X182012301Y-80117084D01*
X182012297Y-80117087D01*
X181907768Y-80221616D01*
X181907765Y-80221620D01*
X181825636Y-80344534D01*
X181825629Y-80344547D01*
X181769060Y-80481118D01*
X181769057Y-80481128D01*
X181740217Y-80626115D01*
X181740217Y-80626118D01*
X181740217Y-80773954D01*
X181740217Y-80773956D01*
X181740216Y-80773956D01*
X172318971Y-80773956D01*
X172354475Y-80738452D01*
X172436608Y-80615531D01*
X172445363Y-80594393D01*
X172454402Y-80572573D01*
X172454402Y-80572572D01*
X172493182Y-80478949D01*
X172519918Y-80344541D01*
X172522024Y-80333956D01*
X172522024Y-80186115D01*
X172493183Y-80041128D01*
X172493182Y-80041127D01*
X172493182Y-80041123D01*
X172467192Y-79978378D01*
X172436611Y-79904547D01*
X172436604Y-79904534D01*
X172354475Y-79781620D01*
X172354472Y-79781616D01*
X172249943Y-79677087D01*
X172249939Y-79677084D01*
X172127025Y-79594955D01*
X172127012Y-79594948D01*
X172118301Y-79591340D01*
X188468917Y-79591340D01*
X188468917Y-79768731D01*
X188503520Y-79942694D01*
X188503523Y-79942703D01*
X188571400Y-80106576D01*
X188571407Y-80106589D01*
X188669952Y-80254070D01*
X188669955Y-80254074D01*
X188795378Y-80379497D01*
X188795382Y-80379500D01*
X188942863Y-80478045D01*
X188942876Y-80478052D01*
X189065780Y-80528959D01*
X189106751Y-80545930D01*
X189106753Y-80545930D01*
X189106758Y-80545932D01*
X189280721Y-80580535D01*
X189280724Y-80580536D01*
X189280726Y-80580536D01*
X189458110Y-80580536D01*
X189458111Y-80580535D01*
X189516099Y-80569000D01*
X189632075Y-80545932D01*
X189632078Y-80545930D01*
X189632083Y-80545930D01*
X189795964Y-80478049D01*
X189943452Y-80379500D01*
X190068881Y-80254071D01*
X190167430Y-80106583D01*
X190235311Y-79942702D01*
X190269917Y-79768727D01*
X190269917Y-79591345D01*
X190269917Y-79591342D01*
X190269916Y-79591340D01*
X190235313Y-79417377D01*
X190235310Y-79417368D01*
X190167433Y-79253495D01*
X190167426Y-79253482D01*
X190068881Y-79106001D01*
X190068878Y-79105997D01*
X189943455Y-78980574D01*
X189943451Y-78980571D01*
X189795970Y-78882026D01*
X189795957Y-78882019D01*
X189632084Y-78814142D01*
X189632075Y-78814139D01*
X189458111Y-78779536D01*
X189458108Y-78779536D01*
X189280726Y-78779536D01*
X189280723Y-78779536D01*
X189106758Y-78814139D01*
X189106749Y-78814142D01*
X188942876Y-78882019D01*
X188942863Y-78882026D01*
X188795382Y-78980571D01*
X188795378Y-78980574D01*
X188669955Y-79105997D01*
X188669952Y-79106001D01*
X188571407Y-79253482D01*
X188571400Y-79253495D01*
X188503523Y-79417368D01*
X188503520Y-79417377D01*
X188468917Y-79591340D01*
X172118301Y-79591340D01*
X171990441Y-79538379D01*
X171990431Y-79538376D01*
X171845444Y-79509536D01*
X171845442Y-79509536D01*
X171697606Y-79509536D01*
X171697604Y-79509536D01*
X171552616Y-79538376D01*
X171552606Y-79538379D01*
X171416035Y-79594948D01*
X171416022Y-79594955D01*
X171293108Y-79677084D01*
X171293104Y-79677087D01*
X171188575Y-79781616D01*
X171188572Y-79781620D01*
X171106443Y-79904534D01*
X171106436Y-79904547D01*
X171049867Y-80041118D01*
X171049864Y-80041128D01*
X171021024Y-80186115D01*
X171021024Y-80186118D01*
X171021024Y-80333954D01*
X171021024Y-80333956D01*
X171021023Y-80333956D01*
X142170500Y-80333956D01*
X142170500Y-78383956D01*
X171580216Y-78383956D01*
X171609057Y-78528943D01*
X171609060Y-78528953D01*
X171665629Y-78665524D01*
X171665636Y-78665537D01*
X171747765Y-78788451D01*
X171747768Y-78788455D01*
X171852297Y-78892984D01*
X171852301Y-78892987D01*
X171975215Y-78975116D01*
X171975228Y-78975123D01*
X172077826Y-79017620D01*
X172111804Y-79031694D01*
X172111808Y-79031694D01*
X172111809Y-79031695D01*
X172256796Y-79060536D01*
X172256799Y-79060536D01*
X172404637Y-79060536D01*
X172502179Y-79041132D01*
X172549630Y-79031694D01*
X172686212Y-78975120D01*
X172736511Y-78941510D01*
X172803187Y-78920632D01*
X172870568Y-78939116D01*
X172874268Y-78941494D01*
X172906347Y-78962929D01*
X173038380Y-79017619D01*
X173038384Y-79017619D01*
X173038385Y-79017620D01*
X173178542Y-79045500D01*
X173178545Y-79045500D01*
X173321457Y-79045500D01*
X173415751Y-79026742D01*
X173461620Y-79017619D01*
X173593653Y-78962929D01*
X173712479Y-78883532D01*
X173813532Y-78782479D01*
X173892929Y-78663653D01*
X173947619Y-78531620D01*
X173975500Y-78391455D01*
X173975500Y-78248545D01*
X173975500Y-78248542D01*
X173947620Y-78108385D01*
X173947619Y-78108384D01*
X173947619Y-78108380D01*
X173892929Y-77976347D01*
X173892928Y-77976346D01*
X173892925Y-77976340D01*
X173813532Y-77857521D01*
X173813529Y-77857517D01*
X173712482Y-77756470D01*
X173712478Y-77756467D01*
X173593659Y-77677074D01*
X173593650Y-77677069D01*
X173461620Y-77622381D01*
X173461614Y-77622379D01*
X173321457Y-77594500D01*
X173321455Y-77594500D01*
X173178545Y-77594500D01*
X173153885Y-77599405D01*
X173084294Y-77593176D01*
X173029117Y-77550313D01*
X173005873Y-77484423D01*
X173021941Y-77416426D01*
X173042010Y-77390109D01*
X173068163Y-77363956D01*
X174571023Y-77363956D01*
X174599864Y-77508943D01*
X174599867Y-77508953D01*
X174656436Y-77645524D01*
X174656443Y-77645537D01*
X174738572Y-77768451D01*
X174738575Y-77768455D01*
X174843104Y-77872984D01*
X174843108Y-77872987D01*
X174966022Y-77955116D01*
X174966035Y-77955123D01*
X175102606Y-78011692D01*
X175102611Y-78011694D01*
X175102615Y-78011694D01*
X175102616Y-78011695D01*
X175247603Y-78040536D01*
X175247606Y-78040536D01*
X175395444Y-78040536D01*
X175492986Y-78021132D01*
X175540437Y-78011694D01*
X175677019Y-77955120D01*
X175677024Y-77955116D01*
X175682394Y-77952247D01*
X175683655Y-77954606D01*
X175739272Y-77937173D01*
X175799840Y-77953768D01*
X175800654Y-77952247D01*
X175806035Y-77955123D01*
X175942606Y-78011692D01*
X175942611Y-78011694D01*
X175942615Y-78011694D01*
X175942616Y-78011695D01*
X176087603Y-78040536D01*
X176087606Y-78040536D01*
X176235444Y-78040536D01*
X176332986Y-78021132D01*
X176380437Y-78011694D01*
X176517019Y-77955120D01*
X176639940Y-77872987D01*
X176671343Y-77841583D01*
X176732662Y-77808100D01*
X176802353Y-77813082D01*
X176846704Y-77841584D01*
X176903104Y-77897984D01*
X176903108Y-77897987D01*
X177026022Y-77980116D01*
X177026035Y-77980123D01*
X177162606Y-78036692D01*
X177162611Y-78036694D01*
X177162615Y-78036694D01*
X177162616Y-78036695D01*
X177307603Y-78065536D01*
X177307606Y-78065536D01*
X177455444Y-78065536D01*
X177581122Y-78040536D01*
X177600437Y-78036694D01*
X177737019Y-77980120D01*
X177859940Y-77897987D01*
X177964475Y-77793452D01*
X178046608Y-77670531D01*
X178103182Y-77533949D01*
X178123959Y-77429500D01*
X178132024Y-77388956D01*
X178571023Y-77388956D01*
X178599864Y-77533943D01*
X178599867Y-77533953D01*
X178656436Y-77670524D01*
X178656443Y-77670537D01*
X178738572Y-77793451D01*
X178738575Y-77793455D01*
X178843104Y-77897984D01*
X178843108Y-77897987D01*
X178966022Y-77980116D01*
X178966035Y-77980123D01*
X179102606Y-78036692D01*
X179102611Y-78036694D01*
X179102615Y-78036694D01*
X179102616Y-78036695D01*
X179247603Y-78065536D01*
X179247606Y-78065536D01*
X179395444Y-78065536D01*
X179521122Y-78040536D01*
X179540437Y-78036694D01*
X179677019Y-77980120D01*
X179799940Y-77897987D01*
X179904475Y-77793452D01*
X179986608Y-77670531D01*
X180043182Y-77533949D01*
X180063959Y-77429500D01*
X180072024Y-77388956D01*
X180072024Y-77241115D01*
X180043183Y-77096128D01*
X180043182Y-77096127D01*
X180043182Y-77096123D01*
X180032825Y-77071118D01*
X179986611Y-76959547D01*
X179986604Y-76959534D01*
X179904475Y-76836620D01*
X179904472Y-76836616D01*
X179799943Y-76732087D01*
X179799939Y-76732084D01*
X179677025Y-76649955D01*
X179677016Y-76649950D01*
X179662545Y-76643956D01*
X181660216Y-76643956D01*
X181689057Y-76788943D01*
X181689060Y-76788953D01*
X181745629Y-76925524D01*
X181745636Y-76925537D01*
X181827765Y-77048451D01*
X181827768Y-77048455D01*
X181932297Y-77152984D01*
X181932301Y-77152987D01*
X182055215Y-77235116D01*
X182055228Y-77235123D01*
X182191799Y-77291692D01*
X182191804Y-77291694D01*
X182191808Y-77291694D01*
X182191809Y-77291695D01*
X182336796Y-77320536D01*
X182336799Y-77320536D01*
X182484637Y-77320536D01*
X182582179Y-77301132D01*
X182629630Y-77291694D01*
X182766212Y-77235120D01*
X182889133Y-77152987D01*
X182993668Y-77048452D01*
X183075801Y-76925531D01*
X183132375Y-76788949D01*
X183148659Y-76707084D01*
X183161217Y-76643956D01*
X183161217Y-76496115D01*
X183132376Y-76351128D01*
X183132375Y-76351127D01*
X183132375Y-76351123D01*
X183112646Y-76303492D01*
X183075804Y-76214547D01*
X183075797Y-76214534D01*
X182993668Y-76091620D01*
X182993665Y-76091616D01*
X182889136Y-75987087D01*
X182889132Y-75987084D01*
X182766218Y-75904955D01*
X182766205Y-75904948D01*
X182629634Y-75848379D01*
X182629624Y-75848376D01*
X182484637Y-75819536D01*
X182484635Y-75819536D01*
X182336799Y-75819536D01*
X182336797Y-75819536D01*
X182191809Y-75848376D01*
X182191799Y-75848379D01*
X182055228Y-75904948D01*
X182055215Y-75904955D01*
X181932301Y-75987084D01*
X181932297Y-75987087D01*
X181827768Y-76091616D01*
X181827765Y-76091620D01*
X181745636Y-76214534D01*
X181745629Y-76214547D01*
X181689060Y-76351118D01*
X181689057Y-76351128D01*
X181660217Y-76496115D01*
X181660217Y-76496118D01*
X181660217Y-76643954D01*
X181660217Y-76643956D01*
X181660216Y-76643956D01*
X179662545Y-76643956D01*
X179567498Y-76604587D01*
X179567496Y-76604586D01*
X179540441Y-76593379D01*
X179540431Y-76593376D01*
X179395444Y-76564536D01*
X179395442Y-76564536D01*
X179247606Y-76564536D01*
X179247604Y-76564536D01*
X179102616Y-76593376D01*
X179102606Y-76593379D01*
X178966035Y-76649948D01*
X178966022Y-76649955D01*
X178843108Y-76732084D01*
X178843104Y-76732087D01*
X178738575Y-76836616D01*
X178738572Y-76836620D01*
X178656443Y-76959534D01*
X178656436Y-76959547D01*
X178599867Y-77096118D01*
X178599864Y-77096128D01*
X178571024Y-77241115D01*
X178571024Y-77241118D01*
X178571024Y-77388954D01*
X178571024Y-77388956D01*
X178571023Y-77388956D01*
X178132024Y-77388956D01*
X178132024Y-77241115D01*
X178103183Y-77096128D01*
X178103182Y-77096127D01*
X178103182Y-77096123D01*
X178092825Y-77071118D01*
X178046611Y-76959547D01*
X178046604Y-76959534D01*
X177964475Y-76836620D01*
X177964472Y-76836616D01*
X177859943Y-76732087D01*
X177859939Y-76732084D01*
X177737025Y-76649955D01*
X177737012Y-76649948D01*
X177600441Y-76593379D01*
X177600431Y-76593376D01*
X177455444Y-76564536D01*
X177455442Y-76564536D01*
X177307606Y-76564536D01*
X177307604Y-76564536D01*
X177162616Y-76593376D01*
X177162606Y-76593379D01*
X177026035Y-76649948D01*
X177026022Y-76649955D01*
X176903108Y-76732084D01*
X176903104Y-76732087D01*
X176871705Y-76763487D01*
X176810382Y-76796972D01*
X176740690Y-76791988D01*
X176696343Y-76763487D01*
X176639943Y-76707087D01*
X176639939Y-76707084D01*
X176517025Y-76624955D01*
X176517012Y-76624948D01*
X176380441Y-76568379D01*
X176380431Y-76568376D01*
X176235444Y-76539536D01*
X176235442Y-76539536D01*
X176087606Y-76539536D01*
X176087604Y-76539536D01*
X175942616Y-76568376D01*
X175942610Y-76568378D01*
X175806032Y-76624950D01*
X175800655Y-76627825D01*
X175799401Y-76625479D01*
X175743692Y-76642900D01*
X175683216Y-76626285D01*
X175682393Y-76627825D01*
X175677015Y-76624950D01*
X175540437Y-76568378D01*
X175540431Y-76568376D01*
X175395444Y-76539536D01*
X175395442Y-76539536D01*
X175247606Y-76539536D01*
X175247604Y-76539536D01*
X175102616Y-76568376D01*
X175102606Y-76568379D01*
X174966035Y-76624948D01*
X174966022Y-76624955D01*
X174843108Y-76707084D01*
X174843104Y-76707087D01*
X174738575Y-76811616D01*
X174738572Y-76811620D01*
X174656443Y-76934534D01*
X174656436Y-76934547D01*
X174599867Y-77071118D01*
X174599864Y-77071128D01*
X174571024Y-77216115D01*
X174571024Y-77216118D01*
X174571024Y-77363954D01*
X174571024Y-77363956D01*
X174571023Y-77363956D01*
X173068163Y-77363956D01*
X173136168Y-77295952D01*
X173218301Y-77173031D01*
X173274875Y-77036449D01*
X173295148Y-76934534D01*
X173303717Y-76891456D01*
X173303717Y-76783342D01*
X173323402Y-76716303D01*
X173358827Y-76680239D01*
X173360042Y-76679426D01*
X173360047Y-76679425D01*
X173482968Y-76597292D01*
X173587503Y-76492757D01*
X173669636Y-76369836D01*
X173726210Y-76233254D01*
X173742283Y-76152452D01*
X173755052Y-76088261D01*
X173755052Y-75940420D01*
X173726211Y-75795433D01*
X173726210Y-75795432D01*
X173726210Y-75795428D01*
X173726208Y-75795423D01*
X173669639Y-75658852D01*
X173669632Y-75658839D01*
X173587503Y-75535925D01*
X173587500Y-75535921D01*
X173482971Y-75431392D01*
X173482967Y-75431389D01*
X173360053Y-75349260D01*
X173360040Y-75349253D01*
X173223469Y-75292684D01*
X173223459Y-75292681D01*
X173078472Y-75263841D01*
X173078470Y-75263841D01*
X172930634Y-75263841D01*
X172930632Y-75263841D01*
X172785644Y-75292681D01*
X172785634Y-75292684D01*
X172649063Y-75349253D01*
X172649050Y-75349260D01*
X172526136Y-75431389D01*
X172526132Y-75431392D01*
X172421603Y-75535921D01*
X172421600Y-75535925D01*
X172339471Y-75658839D01*
X172339464Y-75658852D01*
X172282895Y-75795423D01*
X172282892Y-75795433D01*
X172254052Y-75940420D01*
X172254052Y-76048533D01*
X172234367Y-76115572D01*
X172198943Y-76151635D01*
X172074801Y-76234584D01*
X172074797Y-76234587D01*
X171970268Y-76339116D01*
X171970265Y-76339120D01*
X171888136Y-76462034D01*
X171888129Y-76462047D01*
X171831560Y-76598618D01*
X171831557Y-76598628D01*
X171802717Y-76743615D01*
X171802717Y-76743618D01*
X171802717Y-76891454D01*
X171802717Y-76891456D01*
X171802716Y-76891456D01*
X171831557Y-77036443D01*
X171831560Y-77036453D01*
X171888129Y-77173024D01*
X171888136Y-77173037D01*
X171970265Y-77295951D01*
X171970268Y-77295955D01*
X172074795Y-77400482D01*
X172079440Y-77404294D01*
X172118775Y-77462039D01*
X172120647Y-77531883D01*
X172084462Y-77591653D01*
X172048231Y-77614710D01*
X171975222Y-77644952D01*
X171975215Y-77644955D01*
X171852301Y-77727084D01*
X171852297Y-77727087D01*
X171747768Y-77831616D01*
X171747765Y-77831620D01*
X171665636Y-77954534D01*
X171665629Y-77954547D01*
X171609060Y-78091118D01*
X171609057Y-78091128D01*
X171580217Y-78236115D01*
X171580217Y-78236118D01*
X171580217Y-78383954D01*
X171580217Y-78383956D01*
X171580216Y-78383956D01*
X142170500Y-78383956D01*
X142170500Y-73343872D01*
X146009500Y-73343872D01*
X146009500Y-73606127D01*
X146028836Y-73752987D01*
X146043730Y-73866116D01*
X146111558Y-74119255D01*
X146111602Y-74119418D01*
X146111605Y-74119428D01*
X146211953Y-74361690D01*
X146211958Y-74361700D01*
X146343075Y-74588803D01*
X146502718Y-74796851D01*
X146502726Y-74796860D01*
X146688140Y-74982274D01*
X146688148Y-74982281D01*
X146688149Y-74982282D01*
X146713446Y-75001693D01*
X146896196Y-75141924D01*
X147123299Y-75273041D01*
X147123309Y-75273046D01*
X147365571Y-75373394D01*
X147365581Y-75373398D01*
X147618884Y-75441270D01*
X147867188Y-75473960D01*
X147875074Y-75474999D01*
X147878880Y-75475500D01*
X147878887Y-75475500D01*
X148141113Y-75475500D01*
X148141120Y-75475500D01*
X148401116Y-75441270D01*
X148654419Y-75373398D01*
X148896697Y-75273043D01*
X149123803Y-75141924D01*
X149331851Y-74982282D01*
X149331855Y-74982277D01*
X149331860Y-74982274D01*
X149517274Y-74796860D01*
X149517277Y-74796855D01*
X149517282Y-74796851D01*
X149676924Y-74588803D01*
X149808043Y-74361697D01*
X149811250Y-74353956D01*
X149836774Y-74292335D01*
X149908398Y-74119419D01*
X149976270Y-73866116D01*
X150010500Y-73606120D01*
X150010500Y-73343905D01*
X151010000Y-73343905D01*
X151010000Y-73606094D01*
X151044220Y-73866009D01*
X151044222Y-73866020D01*
X151112075Y-74119255D01*
X151212404Y-74361471D01*
X151212409Y-74361482D01*
X151343488Y-74588516D01*
X151343494Y-74588524D01*
X151430080Y-74701365D01*
X152255884Y-73875561D01*
X152256740Y-73877626D01*
X152349762Y-74016844D01*
X152468156Y-74135238D01*
X152607374Y-74228260D01*
X152609437Y-74229114D01*
X151783633Y-75054917D01*
X151783633Y-75054918D01*
X151896475Y-75141505D01*
X151896483Y-75141511D01*
X152123517Y-75272590D01*
X152123528Y-75272595D01*
X152365744Y-75372924D01*
X152618979Y-75440777D01*
X152618990Y-75440779D01*
X152878905Y-75474999D01*
X152878920Y-75475000D01*
X153141080Y-75475000D01*
X153141094Y-75474999D01*
X153401009Y-75440779D01*
X153401020Y-75440777D01*
X153654255Y-75372924D01*
X153896471Y-75272595D01*
X153896482Y-75272590D01*
X154123516Y-75141511D01*
X154123534Y-75141499D01*
X154236365Y-75054919D01*
X154236365Y-75054917D01*
X153410562Y-74229114D01*
X153412626Y-74228260D01*
X153551844Y-74135238D01*
X153670238Y-74016844D01*
X153763260Y-73877626D01*
X153764114Y-73875562D01*
X154589917Y-74701365D01*
X154589919Y-74701365D01*
X154633971Y-74643956D01*
X165940216Y-74643956D01*
X165969057Y-74788943D01*
X165969060Y-74788953D01*
X166025629Y-74925524D01*
X166025636Y-74925537D01*
X166107765Y-75048451D01*
X166107768Y-75048455D01*
X166212297Y-75152984D01*
X166212301Y-75152987D01*
X166335215Y-75235116D01*
X166335228Y-75235123D01*
X166471799Y-75291692D01*
X166471804Y-75291694D01*
X166471808Y-75291694D01*
X166471809Y-75291695D01*
X166616796Y-75320536D01*
X166616799Y-75320536D01*
X166764637Y-75320536D01*
X166890315Y-75295536D01*
X166909630Y-75291694D01*
X167046212Y-75235120D01*
X167151432Y-75164813D01*
X167218107Y-75143937D01*
X167285487Y-75162421D01*
X167289194Y-75164803D01*
X167384918Y-75228764D01*
X167384920Y-75228765D01*
X167384924Y-75228767D01*
X167491812Y-75273041D01*
X167521500Y-75285338D01*
X167521504Y-75285338D01*
X167521505Y-75285339D01*
X167666492Y-75314180D01*
X167666495Y-75314180D01*
X167814333Y-75314180D01*
X167927383Y-75291692D01*
X167959326Y-75285338D01*
X168095908Y-75228764D01*
X168095913Y-75228760D01*
X168095916Y-75228759D01*
X168161028Y-75185252D01*
X168227705Y-75164373D01*
X168295086Y-75182857D01*
X168298790Y-75185238D01*
X168321959Y-75200719D01*
X168336030Y-75210121D01*
X168465723Y-75263841D01*
X168472611Y-75266694D01*
X168472615Y-75266694D01*
X168472616Y-75266695D01*
X168617603Y-75295536D01*
X168617606Y-75295536D01*
X168765444Y-75295536D01*
X168880771Y-75272595D01*
X168910437Y-75266694D01*
X168953260Y-75248956D01*
X179641023Y-75248956D01*
X179669864Y-75393943D01*
X179669867Y-75393953D01*
X179726436Y-75530524D01*
X179726443Y-75530537D01*
X179808572Y-75653451D01*
X179808575Y-75653455D01*
X179913104Y-75757984D01*
X179913108Y-75757987D01*
X180036022Y-75840116D01*
X180036035Y-75840123D01*
X180172606Y-75896692D01*
X180172611Y-75896694D01*
X180172615Y-75896694D01*
X180172616Y-75896695D01*
X180317603Y-75925536D01*
X180317606Y-75925536D01*
X180465444Y-75925536D01*
X180580233Y-75902702D01*
X180610437Y-75896694D01*
X180747019Y-75840120D01*
X180869940Y-75757987D01*
X180974475Y-75653452D01*
X181042704Y-75551340D01*
X188460217Y-75551340D01*
X188460217Y-75728731D01*
X188494820Y-75902694D01*
X188494823Y-75902703D01*
X188562704Y-76066583D01*
X188562704Y-76066584D01*
X188595820Y-76116146D01*
X188616697Y-76182824D01*
X188598212Y-76250204D01*
X188595820Y-76253926D01*
X188562704Y-76303487D01*
X188562704Y-76303488D01*
X188494823Y-76467368D01*
X188494820Y-76467377D01*
X188460217Y-76641340D01*
X188460217Y-76818731D01*
X188494820Y-76992694D01*
X188494823Y-76992703D01*
X188562700Y-77156576D01*
X188562707Y-77156589D01*
X188661252Y-77304070D01*
X188661255Y-77304074D01*
X188786678Y-77429497D01*
X188786682Y-77429500D01*
X188934163Y-77528045D01*
X188934176Y-77528052D01*
X189010187Y-77559536D01*
X189098051Y-77595930D01*
X189098053Y-77595930D01*
X189098058Y-77595932D01*
X189272021Y-77630535D01*
X189272024Y-77630536D01*
X189272026Y-77630536D01*
X189449410Y-77630536D01*
X189449411Y-77630535D01*
X189507399Y-77619000D01*
X189623375Y-77595932D01*
X189623378Y-77595930D01*
X189623383Y-77595930D01*
X189773020Y-77533949D01*
X189787257Y-77528052D01*
X189787257Y-77528051D01*
X189787264Y-77528049D01*
X189934752Y-77429500D01*
X190060181Y-77304071D01*
X190158730Y-77156583D01*
X190160220Y-77152987D01*
X190194130Y-77071118D01*
X190226611Y-76992702D01*
X190238182Y-76934534D01*
X190257658Y-76836620D01*
X190261217Y-76818727D01*
X190261217Y-76641345D01*
X190261217Y-76641342D01*
X190261216Y-76641340D01*
X190226613Y-76467377D01*
X190226610Y-76467368D01*
X190158732Y-76303493D01*
X190158731Y-76303492D01*
X190158730Y-76303489D01*
X190125612Y-76253926D01*
X190104735Y-76187250D01*
X190123219Y-76119870D01*
X190125607Y-76116153D01*
X190158730Y-76066583D01*
X190226611Y-75902702D01*
X190227807Y-75896692D01*
X190261216Y-75728731D01*
X190261217Y-75728729D01*
X190261217Y-75551342D01*
X190261216Y-75551340D01*
X190226613Y-75377377D01*
X190226610Y-75377368D01*
X190158733Y-75213495D01*
X190158726Y-75213482D01*
X190060181Y-75066001D01*
X190060178Y-75065997D01*
X189934755Y-74940574D01*
X189934751Y-74940571D01*
X189787270Y-74842026D01*
X189787257Y-74842019D01*
X189623384Y-74774142D01*
X189623375Y-74774139D01*
X189449411Y-74739536D01*
X189449408Y-74739536D01*
X189272026Y-74739536D01*
X189272023Y-74739536D01*
X189098058Y-74774139D01*
X189098049Y-74774142D01*
X188934176Y-74842019D01*
X188934163Y-74842026D01*
X188786682Y-74940571D01*
X188786678Y-74940574D01*
X188661255Y-75065997D01*
X188661252Y-75066001D01*
X188562707Y-75213482D01*
X188562700Y-75213495D01*
X188494823Y-75377368D01*
X188494820Y-75377377D01*
X188460217Y-75551340D01*
X181042704Y-75551340D01*
X181056608Y-75530531D01*
X181113182Y-75393949D01*
X181127785Y-75320536D01*
X181142024Y-75248956D01*
X181142024Y-75101115D01*
X181113183Y-74956128D01*
X181113182Y-74956127D01*
X181113182Y-74956123D01*
X181108626Y-74945123D01*
X181056611Y-74819547D01*
X181056604Y-74819534D01*
X180974475Y-74696620D01*
X180974472Y-74696616D01*
X180869943Y-74592087D01*
X180869939Y-74592084D01*
X180747025Y-74509955D01*
X180747012Y-74509948D01*
X180629943Y-74461457D01*
X184054499Y-74461457D01*
X184082379Y-74601614D01*
X184082381Y-74601620D01*
X184137069Y-74733650D01*
X184137074Y-74733659D01*
X184216467Y-74852478D01*
X184216470Y-74852482D01*
X184317517Y-74953529D01*
X184317521Y-74953532D01*
X184436340Y-75032925D01*
X184436346Y-75032928D01*
X184436347Y-75032929D01*
X184568380Y-75087619D01*
X184568384Y-75087619D01*
X184568385Y-75087620D01*
X184708542Y-75115500D01*
X184708545Y-75115500D01*
X184851457Y-75115500D01*
X184945751Y-75096742D01*
X184991620Y-75087619D01*
X185123653Y-75032929D01*
X185242479Y-74953532D01*
X185270487Y-74925524D01*
X185347840Y-74848172D01*
X185349261Y-74849593D01*
X185399379Y-74815446D01*
X185469223Y-74813567D01*
X185526870Y-74848461D01*
X185527160Y-74848172D01*
X185528337Y-74849349D01*
X185528996Y-74849748D01*
X185530683Y-74851695D01*
X185632517Y-74953529D01*
X185632521Y-74953532D01*
X185751340Y-75032925D01*
X185751346Y-75032928D01*
X185751347Y-75032929D01*
X185883380Y-75087619D01*
X185883384Y-75087619D01*
X185883385Y-75087620D01*
X186023542Y-75115500D01*
X186023545Y-75115500D01*
X186166457Y-75115500D01*
X186260751Y-75096742D01*
X186306620Y-75087619D01*
X186438653Y-75032929D01*
X186557479Y-74953532D01*
X186585487Y-74925524D01*
X186662840Y-74848172D01*
X186664261Y-74849593D01*
X186714379Y-74815446D01*
X186784223Y-74813567D01*
X186841870Y-74848461D01*
X186842160Y-74848172D01*
X186843337Y-74849349D01*
X186843996Y-74849748D01*
X186845683Y-74851695D01*
X186947517Y-74953529D01*
X186947521Y-74953532D01*
X187066340Y-75032925D01*
X187066346Y-75032928D01*
X187066347Y-75032929D01*
X187198380Y-75087619D01*
X187198384Y-75087619D01*
X187198385Y-75087620D01*
X187338542Y-75115500D01*
X187338545Y-75115500D01*
X187481457Y-75115500D01*
X187575751Y-75096742D01*
X187621620Y-75087619D01*
X187753653Y-75032929D01*
X187872479Y-74953532D01*
X187973532Y-74852479D01*
X188052929Y-74733653D01*
X188107619Y-74601620D01*
X188133578Y-74471118D01*
X188135500Y-74461457D01*
X188135500Y-74318542D01*
X188107620Y-74178385D01*
X188107619Y-74178384D01*
X188107619Y-74178380D01*
X188059052Y-74061128D01*
X188052930Y-74046349D01*
X188052925Y-74046340D01*
X187973532Y-73927521D01*
X187973529Y-73927517D01*
X187872482Y-73826470D01*
X187849991Y-73811442D01*
X187805187Y-73757829D01*
X187796480Y-73688504D01*
X187826635Y-73625477D01*
X187849989Y-73605240D01*
X187882479Y-73583532D01*
X187983532Y-73482479D01*
X188062929Y-73363653D01*
X188117619Y-73231620D01*
X188135935Y-73139541D01*
X188145500Y-73091457D01*
X188145500Y-72948542D01*
X188117620Y-72808385D01*
X188117619Y-72808384D01*
X188117619Y-72808380D01*
X188062929Y-72676347D01*
X188062928Y-72676346D01*
X188062925Y-72676340D01*
X187983532Y-72557521D01*
X187983529Y-72557517D01*
X187882482Y-72456470D01*
X187882478Y-72456467D01*
X187763659Y-72377074D01*
X187763650Y-72377069D01*
X187631620Y-72322381D01*
X187631614Y-72322379D01*
X187491457Y-72294500D01*
X187491455Y-72294500D01*
X187348545Y-72294500D01*
X187348543Y-72294500D01*
X187208385Y-72322379D01*
X187208379Y-72322381D01*
X187076349Y-72377069D01*
X187076340Y-72377074D01*
X186957521Y-72456467D01*
X186957517Y-72456470D01*
X186852160Y-72561828D01*
X186850742Y-72560410D01*
X186800597Y-72594560D01*
X186730753Y-72596425D01*
X186673134Y-72561533D01*
X186672840Y-72561828D01*
X186671641Y-72560629D01*
X186670987Y-72560233D01*
X186669313Y-72558301D01*
X186567482Y-72456470D01*
X186567478Y-72456467D01*
X186448659Y-72377074D01*
X186448650Y-72377069D01*
X186316620Y-72322381D01*
X186316614Y-72322379D01*
X186176457Y-72294500D01*
X186176455Y-72294500D01*
X186033545Y-72294500D01*
X186033543Y-72294500D01*
X185893385Y-72322379D01*
X185893379Y-72322381D01*
X185761349Y-72377069D01*
X185761340Y-72377074D01*
X185642521Y-72456467D01*
X185642517Y-72456470D01*
X185537160Y-72561828D01*
X185535742Y-72560410D01*
X185485597Y-72594560D01*
X185415753Y-72596425D01*
X185358134Y-72561533D01*
X185357840Y-72561828D01*
X185356641Y-72560629D01*
X185355987Y-72560233D01*
X185354313Y-72558301D01*
X185252482Y-72456470D01*
X185252478Y-72456467D01*
X185133659Y-72377074D01*
X185133650Y-72377069D01*
X185001620Y-72322381D01*
X185001614Y-72322379D01*
X184861457Y-72294500D01*
X184861455Y-72294500D01*
X184718545Y-72294500D01*
X184718543Y-72294500D01*
X184578385Y-72322379D01*
X184578379Y-72322381D01*
X184446349Y-72377069D01*
X184446340Y-72377074D01*
X184327521Y-72456467D01*
X184327517Y-72456470D01*
X184226470Y-72557517D01*
X184226467Y-72557521D01*
X184147074Y-72676340D01*
X184147069Y-72676349D01*
X184092381Y-72808379D01*
X184092379Y-72808385D01*
X184064500Y-72948542D01*
X184064500Y-72948545D01*
X184064500Y-73091455D01*
X184064500Y-73091457D01*
X184064499Y-73091457D01*
X184092379Y-73231614D01*
X184092381Y-73231620D01*
X184147069Y-73363650D01*
X184147074Y-73363659D01*
X184226467Y-73482478D01*
X184226470Y-73482482D01*
X184327517Y-73583529D01*
X184327521Y-73583532D01*
X184350007Y-73598557D01*
X184394812Y-73652169D01*
X184403519Y-73721494D01*
X184373365Y-73784522D01*
X184350007Y-73804761D01*
X184317521Y-73826467D01*
X184317517Y-73826470D01*
X184216470Y-73927517D01*
X184216467Y-73927521D01*
X184137074Y-74046340D01*
X184137069Y-74046349D01*
X184082381Y-74178379D01*
X184082379Y-74178385D01*
X184054500Y-74318542D01*
X184054500Y-74318545D01*
X184054500Y-74461455D01*
X184054500Y-74461457D01*
X184054499Y-74461457D01*
X180629943Y-74461457D01*
X180610441Y-74453379D01*
X180610431Y-74453376D01*
X180513374Y-74434070D01*
X180465444Y-74424536D01*
X180465442Y-74424536D01*
X180317606Y-74424536D01*
X180317604Y-74424536D01*
X180172616Y-74453376D01*
X180172606Y-74453379D01*
X180036035Y-74509948D01*
X180036022Y-74509955D01*
X179913108Y-74592084D01*
X179913104Y-74592087D01*
X179808575Y-74696616D01*
X179808572Y-74696620D01*
X179726443Y-74819534D01*
X179726436Y-74819547D01*
X179669867Y-74956118D01*
X179669864Y-74956128D01*
X179641024Y-75101115D01*
X179641024Y-75101118D01*
X179641024Y-75248954D01*
X179641024Y-75248956D01*
X179641023Y-75248956D01*
X168953260Y-75248956D01*
X169038871Y-75213495D01*
X169047012Y-75210123D01*
X169047012Y-75210122D01*
X169047019Y-75210120D01*
X169169940Y-75127987D01*
X169274475Y-75023452D01*
X169356608Y-74900531D01*
X169413182Y-74763949D01*
X169437051Y-74643954D01*
X169442024Y-74618956D01*
X169442024Y-74471115D01*
X169413183Y-74326128D01*
X169413182Y-74326127D01*
X169413182Y-74326123D01*
X169367856Y-74216695D01*
X169356611Y-74189547D01*
X169356604Y-74189534D01*
X169274475Y-74066620D01*
X169274472Y-74066616D01*
X169169943Y-73962087D01*
X169169939Y-73962084D01*
X169047025Y-73879955D01*
X169047012Y-73879948D01*
X168910441Y-73823379D01*
X168910431Y-73823376D01*
X168765444Y-73794536D01*
X168765442Y-73794536D01*
X168617606Y-73794536D01*
X168617604Y-73794536D01*
X168472616Y-73823376D01*
X168472606Y-73823379D01*
X168336035Y-73879948D01*
X168336024Y-73879954D01*
X168270907Y-73923464D01*
X168204229Y-73944341D01*
X168136849Y-73925856D01*
X168133128Y-73923465D01*
X168105425Y-73904955D01*
X168095908Y-73898596D01*
X168095906Y-73898595D01*
X168095903Y-73898593D01*
X167959330Y-73842023D01*
X167959320Y-73842020D01*
X167814333Y-73813180D01*
X167814331Y-73813180D01*
X167666495Y-73813180D01*
X167666493Y-73813180D01*
X167521505Y-73842020D01*
X167521495Y-73842023D01*
X167384924Y-73898592D01*
X167384906Y-73898602D01*
X167279698Y-73968900D01*
X167213021Y-73989778D01*
X167145641Y-73971293D01*
X167141917Y-73968900D01*
X167046218Y-73904955D01*
X167046205Y-73904948D01*
X166909634Y-73848379D01*
X166909624Y-73848376D01*
X166764637Y-73819536D01*
X166764635Y-73819536D01*
X166616799Y-73819536D01*
X166616797Y-73819536D01*
X166471809Y-73848376D01*
X166471799Y-73848379D01*
X166335228Y-73904948D01*
X166335215Y-73904955D01*
X166212301Y-73987084D01*
X166212297Y-73987087D01*
X166107768Y-74091616D01*
X166107765Y-74091620D01*
X166025636Y-74214534D01*
X166025629Y-74214547D01*
X165969060Y-74351118D01*
X165969057Y-74351128D01*
X165940217Y-74496115D01*
X165940217Y-74496118D01*
X165940217Y-74643954D01*
X165940217Y-74643956D01*
X165940216Y-74643956D01*
X154633971Y-74643956D01*
X154676499Y-74588534D01*
X154676511Y-74588516D01*
X154769171Y-74428026D01*
X154807590Y-74361482D01*
X154807595Y-74361471D01*
X154907924Y-74119255D01*
X154975777Y-73866020D01*
X154975779Y-73866009D01*
X155009999Y-73606094D01*
X155010000Y-73606080D01*
X155010000Y-73568956D01*
X172751023Y-73568956D01*
X172779864Y-73713943D01*
X172779867Y-73713953D01*
X172836436Y-73850524D01*
X172836443Y-73850537D01*
X172918572Y-73973451D01*
X172918575Y-73973455D01*
X173023104Y-74077984D01*
X173023108Y-74077987D01*
X173146022Y-74160116D01*
X173146035Y-74160123D01*
X173282606Y-74216692D01*
X173282611Y-74216694D01*
X173282615Y-74216694D01*
X173282616Y-74216695D01*
X173427603Y-74245536D01*
X173427606Y-74245536D01*
X173575444Y-74245536D01*
X173672986Y-74226132D01*
X173720437Y-74216694D01*
X173857019Y-74160120D01*
X173979940Y-74077987D01*
X174084475Y-73973452D01*
X174166608Y-73850531D01*
X174223182Y-73713949D01*
X174236210Y-73648455D01*
X174252024Y-73568956D01*
X174252024Y-73421115D01*
X174223183Y-73276128D01*
X174223182Y-73276127D01*
X174223182Y-73276123D01*
X174209857Y-73243954D01*
X174166611Y-73139547D01*
X174166604Y-73139534D01*
X174084475Y-73016620D01*
X174084472Y-73016616D01*
X174078286Y-73010430D01*
X176436536Y-73010430D01*
X176465377Y-73155417D01*
X176465380Y-73155427D01*
X176521949Y-73291998D01*
X176521956Y-73292011D01*
X176604085Y-73414925D01*
X176604088Y-73414929D01*
X176708617Y-73519458D01*
X176708621Y-73519461D01*
X176831535Y-73601590D01*
X176831548Y-73601597D01*
X176953641Y-73652169D01*
X176968124Y-73658168D01*
X176968128Y-73658168D01*
X176968129Y-73658169D01*
X177113116Y-73687010D01*
X177113119Y-73687010D01*
X177260954Y-73687010D01*
X177260955Y-73687010D01*
X177272033Y-73684806D01*
X177341622Y-73691029D01*
X177396802Y-73733889D01*
X177420051Y-73799777D01*
X177403987Y-73867775D01*
X177399332Y-73875311D01*
X177366445Y-73924531D01*
X177366436Y-73924547D01*
X177309867Y-74061118D01*
X177309864Y-74061128D01*
X177281024Y-74206115D01*
X177281024Y-74206118D01*
X177281024Y-74353954D01*
X177281024Y-74353956D01*
X177281023Y-74353956D01*
X177309864Y-74498943D01*
X177309867Y-74498953D01*
X177366436Y-74635524D01*
X177366443Y-74635537D01*
X177448572Y-74758451D01*
X177448575Y-74758455D01*
X177553104Y-74862984D01*
X177553108Y-74862987D01*
X177676022Y-74945116D01*
X177676035Y-74945123D01*
X177765746Y-74982282D01*
X177812611Y-75001694D01*
X177812615Y-75001694D01*
X177812616Y-75001695D01*
X177957603Y-75030536D01*
X177957606Y-75030536D01*
X178105444Y-75030536D01*
X178202986Y-75011132D01*
X178250437Y-75001694D01*
X178387019Y-74945120D01*
X178509940Y-74862987D01*
X178614475Y-74758452D01*
X178696608Y-74635531D01*
X178753182Y-74498949D01*
X178767984Y-74424536D01*
X178782024Y-74353956D01*
X178782024Y-74206115D01*
X178753183Y-74061128D01*
X178753182Y-74061127D01*
X178753182Y-74061123D01*
X178753180Y-74061118D01*
X178696611Y-73924547D01*
X178696604Y-73924534D01*
X178614475Y-73801620D01*
X178614472Y-73801616D01*
X178509943Y-73697087D01*
X178509939Y-73697084D01*
X178387025Y-73614955D01*
X178387012Y-73614948D01*
X178250441Y-73558379D01*
X178250431Y-73558376D01*
X178105444Y-73529536D01*
X178105442Y-73529536D01*
X177957606Y-73529536D01*
X177957601Y-73529536D01*
X177946522Y-73531740D01*
X177876930Y-73525513D01*
X177821753Y-73482650D01*
X177798509Y-73416760D01*
X177814577Y-73348763D01*
X177819229Y-73341232D01*
X177852117Y-73292011D01*
X177852117Y-73292010D01*
X177852121Y-73292005D01*
X177858698Y-73276128D01*
X177864939Y-73261057D01*
X177872023Y-73243956D01*
X179390216Y-73243956D01*
X179419057Y-73388943D01*
X179419060Y-73388953D01*
X179475629Y-73525524D01*
X179475636Y-73525537D01*
X179557765Y-73648451D01*
X179557768Y-73648455D01*
X179662297Y-73752984D01*
X179662301Y-73752987D01*
X179785215Y-73835116D01*
X179785228Y-73835123D01*
X179893456Y-73879952D01*
X179921804Y-73891694D01*
X179921808Y-73891694D01*
X179921809Y-73891695D01*
X180066796Y-73920536D01*
X180066799Y-73920536D01*
X180214637Y-73920536D01*
X180324952Y-73898592D01*
X180359630Y-73891694D01*
X180496212Y-73835120D01*
X180619133Y-73752987D01*
X180723668Y-73648452D01*
X180805801Y-73525531D01*
X180805809Y-73525513D01*
X180850855Y-73416760D01*
X180862375Y-73388949D01*
X180891217Y-73243954D01*
X180891217Y-73096118D01*
X180891217Y-73096115D01*
X180862376Y-72951128D01*
X180862375Y-72951127D01*
X180862375Y-72951123D01*
X180854933Y-72933156D01*
X180805804Y-72814547D01*
X180805797Y-72814534D01*
X180723668Y-72691620D01*
X180723665Y-72691616D01*
X180619136Y-72587087D01*
X180619132Y-72587084D01*
X180496218Y-72504955D01*
X180496205Y-72504948D01*
X180359634Y-72448379D01*
X180359624Y-72448376D01*
X180214637Y-72419536D01*
X180214635Y-72419536D01*
X180066799Y-72419536D01*
X180066797Y-72419536D01*
X179921809Y-72448376D01*
X179921799Y-72448379D01*
X179785228Y-72504948D01*
X179785215Y-72504955D01*
X179662301Y-72587084D01*
X179662297Y-72587087D01*
X179557768Y-72691616D01*
X179557765Y-72691620D01*
X179475636Y-72814534D01*
X179475629Y-72814547D01*
X179419060Y-72951118D01*
X179419057Y-72951128D01*
X179390217Y-73096115D01*
X179390217Y-73096118D01*
X179390217Y-73243954D01*
X179390217Y-73243956D01*
X179390216Y-73243956D01*
X177872023Y-73243956D01*
X177908695Y-73155423D01*
X177922904Y-73083990D01*
X177926516Y-73065834D01*
X177937537Y-73010430D01*
X177937537Y-72862589D01*
X177908696Y-72717602D01*
X177908695Y-72717601D01*
X177908695Y-72717597D01*
X177908693Y-72717592D01*
X177852124Y-72581021D01*
X177852117Y-72581008D01*
X177769988Y-72458094D01*
X177769985Y-72458090D01*
X177665456Y-72353561D01*
X177665452Y-72353558D01*
X177542538Y-72271429D01*
X177542525Y-72271422D01*
X177405954Y-72214853D01*
X177405944Y-72214850D01*
X177260957Y-72186010D01*
X177260955Y-72186010D01*
X177113119Y-72186010D01*
X177113117Y-72186010D01*
X176968129Y-72214850D01*
X176968119Y-72214853D01*
X176831548Y-72271422D01*
X176831535Y-72271429D01*
X176708621Y-72353558D01*
X176708617Y-72353561D01*
X176604088Y-72458090D01*
X176604085Y-72458094D01*
X176521956Y-72581008D01*
X176521949Y-72581021D01*
X176465380Y-72717592D01*
X176465377Y-72717602D01*
X176436537Y-72862589D01*
X176436537Y-72862592D01*
X176436537Y-73010428D01*
X176436537Y-73010430D01*
X176436536Y-73010430D01*
X174078286Y-73010430D01*
X173979943Y-72912087D01*
X173979939Y-72912084D01*
X173857025Y-72829955D01*
X173857012Y-72829948D01*
X173720441Y-72773379D01*
X173720431Y-72773376D01*
X173575444Y-72744536D01*
X173575442Y-72744536D01*
X173427606Y-72744536D01*
X173427604Y-72744536D01*
X173282616Y-72773376D01*
X173282606Y-72773379D01*
X173146035Y-72829948D01*
X173146022Y-72829955D01*
X173023108Y-72912084D01*
X173023104Y-72912087D01*
X172918575Y-73016616D01*
X172918572Y-73016620D01*
X172836443Y-73139534D01*
X172836436Y-73139547D01*
X172779867Y-73276118D01*
X172779864Y-73276128D01*
X172751024Y-73421115D01*
X172751024Y-73421118D01*
X172751024Y-73568954D01*
X172751024Y-73568956D01*
X172751023Y-73568956D01*
X155010000Y-73568956D01*
X155010000Y-73343919D01*
X155009999Y-73343905D01*
X154975779Y-73083990D01*
X154975777Y-73083979D01*
X154907924Y-72830744D01*
X154807595Y-72588528D01*
X154807590Y-72588517D01*
X154676511Y-72361483D01*
X154676505Y-72361475D01*
X154655389Y-72333956D01*
X164580216Y-72333956D01*
X164609057Y-72478943D01*
X164609060Y-72478953D01*
X164665629Y-72615524D01*
X164665636Y-72615537D01*
X164747765Y-72738451D01*
X164747768Y-72738455D01*
X164852297Y-72842984D01*
X164852301Y-72842987D01*
X164975215Y-72925116D01*
X164975228Y-72925123D01*
X165111799Y-72981692D01*
X165111804Y-72981694D01*
X165111808Y-72981694D01*
X165111809Y-72981695D01*
X165256796Y-73010536D01*
X165256799Y-73010536D01*
X165404637Y-73010536D01*
X165502179Y-72991132D01*
X165549630Y-72981694D01*
X165686212Y-72925120D01*
X165809133Y-72842987D01*
X165913668Y-72738452D01*
X165995801Y-72615531D01*
X166052375Y-72478949D01*
X166072640Y-72377074D01*
X166081217Y-72333956D01*
X167350216Y-72333956D01*
X167379057Y-72478943D01*
X167379060Y-72478953D01*
X167435629Y-72615524D01*
X167435636Y-72615537D01*
X167517765Y-72738451D01*
X167517768Y-72738455D01*
X167622297Y-72842984D01*
X167622301Y-72842987D01*
X167745215Y-72925116D01*
X167745228Y-72925123D01*
X167881799Y-72981692D01*
X167881804Y-72981694D01*
X167881808Y-72981694D01*
X167881809Y-72981695D01*
X168026796Y-73010536D01*
X168026799Y-73010536D01*
X168174637Y-73010536D01*
X168272179Y-72991132D01*
X168319630Y-72981694D01*
X168456212Y-72925120D01*
X168579133Y-72842987D01*
X168683668Y-72738452D01*
X168765801Y-72615531D01*
X168822375Y-72478949D01*
X168842640Y-72377074D01*
X168851217Y-72333956D01*
X168851217Y-72186115D01*
X168822376Y-72041128D01*
X168822375Y-72041127D01*
X168822375Y-72041123D01*
X168791970Y-71967718D01*
X168765804Y-71904547D01*
X168765797Y-71904534D01*
X168683668Y-71781620D01*
X168683665Y-71781616D01*
X168579136Y-71677087D01*
X168579132Y-71677084D01*
X168456218Y-71594955D01*
X168456205Y-71594948D01*
X168319634Y-71538379D01*
X168319624Y-71538376D01*
X168174637Y-71509536D01*
X168174635Y-71509536D01*
X168026799Y-71509536D01*
X168026797Y-71509536D01*
X167881809Y-71538376D01*
X167881799Y-71538379D01*
X167745228Y-71594948D01*
X167745215Y-71594955D01*
X167622301Y-71677084D01*
X167622297Y-71677087D01*
X167517768Y-71781616D01*
X167517765Y-71781620D01*
X167435636Y-71904534D01*
X167435629Y-71904547D01*
X167379060Y-72041118D01*
X167379057Y-72041128D01*
X167350217Y-72186115D01*
X167350217Y-72186118D01*
X167350217Y-72333954D01*
X167350217Y-72333956D01*
X167350216Y-72333956D01*
X166081217Y-72333956D01*
X166081217Y-72186115D01*
X166052376Y-72041128D01*
X166052375Y-72041127D01*
X166052375Y-72041123D01*
X166021970Y-71967718D01*
X165995804Y-71904547D01*
X165995797Y-71904534D01*
X165913668Y-71781620D01*
X165913665Y-71781616D01*
X165809136Y-71677087D01*
X165809132Y-71677084D01*
X165686218Y-71594955D01*
X165686205Y-71594948D01*
X165549634Y-71538379D01*
X165549624Y-71538376D01*
X165404637Y-71509536D01*
X165404635Y-71509536D01*
X165256799Y-71509536D01*
X165256797Y-71509536D01*
X165111809Y-71538376D01*
X165111799Y-71538379D01*
X164975228Y-71594948D01*
X164975215Y-71594955D01*
X164852301Y-71677084D01*
X164852297Y-71677087D01*
X164747768Y-71781616D01*
X164747765Y-71781620D01*
X164665636Y-71904534D01*
X164665629Y-71904547D01*
X164609060Y-72041118D01*
X164609057Y-72041128D01*
X164580217Y-72186115D01*
X164580217Y-72186118D01*
X164580217Y-72333954D01*
X164580217Y-72333956D01*
X164580216Y-72333956D01*
X154655389Y-72333956D01*
X154595198Y-72255513D01*
X154595196Y-72255510D01*
X154589920Y-72248633D01*
X154589917Y-72248633D01*
X153764114Y-73074436D01*
X153763260Y-73072374D01*
X153670238Y-72933156D01*
X153551844Y-72814762D01*
X153412626Y-72721740D01*
X153410560Y-72720884D01*
X154236365Y-71895080D01*
X154123524Y-71808494D01*
X154123516Y-71808488D01*
X153896482Y-71677409D01*
X153896471Y-71677404D01*
X153654255Y-71577075D01*
X153401020Y-71509222D01*
X153401009Y-71509220D01*
X153141094Y-71475000D01*
X152878905Y-71475000D01*
X152618990Y-71509220D01*
X152618979Y-71509222D01*
X152365744Y-71577075D01*
X152123528Y-71677404D01*
X152123517Y-71677409D01*
X151896471Y-71808496D01*
X151783633Y-71895079D01*
X151783633Y-71895080D01*
X152609438Y-72720885D01*
X152607374Y-72721740D01*
X152468156Y-72814762D01*
X152349762Y-72933156D01*
X152256740Y-73072374D01*
X152255885Y-73074438D01*
X151430080Y-72248633D01*
X151430079Y-72248633D01*
X151343496Y-72361471D01*
X151212409Y-72588517D01*
X151212404Y-72588528D01*
X151112075Y-72830744D01*
X151044222Y-73083979D01*
X151044220Y-73083990D01*
X151010000Y-73343905D01*
X150010500Y-73343905D01*
X150010500Y-73343880D01*
X149976270Y-73083884D01*
X149908398Y-72830581D01*
X149908139Y-72829955D01*
X149808046Y-72588309D01*
X149808041Y-72588299D01*
X149676924Y-72361196D01*
X149517281Y-72153148D01*
X149517274Y-72153140D01*
X149331860Y-71967726D01*
X149331851Y-71967718D01*
X149123803Y-71808075D01*
X148896700Y-71676958D01*
X148896690Y-71676953D01*
X148654428Y-71576605D01*
X148654421Y-71576603D01*
X148654419Y-71576602D01*
X148401116Y-71508730D01*
X148343339Y-71501123D01*
X148141127Y-71474500D01*
X148141120Y-71474500D01*
X147878880Y-71474500D01*
X147878872Y-71474500D01*
X147647772Y-71504926D01*
X147618884Y-71508730D01*
X147508236Y-71538378D01*
X147365581Y-71576602D01*
X147365571Y-71576605D01*
X147123309Y-71676953D01*
X147123299Y-71676958D01*
X146896196Y-71808075D01*
X146688148Y-71967718D01*
X146502718Y-72153148D01*
X146343075Y-72361196D01*
X146211958Y-72588299D01*
X146211953Y-72588309D01*
X146111605Y-72830571D01*
X146111602Y-72830581D01*
X146043730Y-73083884D01*
X146043716Y-73083990D01*
X146009500Y-73343872D01*
X142170500Y-73343872D01*
X142170500Y-70318579D01*
X174018916Y-70318579D01*
X174057364Y-70511865D01*
X174057367Y-70511875D01*
X174132781Y-70693943D01*
X174132788Y-70693956D01*
X174242277Y-70857817D01*
X174242280Y-70857821D01*
X174381631Y-70997172D01*
X174381635Y-70997175D01*
X174545496Y-71106664D01*
X174545509Y-71106671D01*
X174727577Y-71182085D01*
X174727582Y-71182087D01*
X174727586Y-71182087D01*
X174727587Y-71182088D01*
X174920873Y-71220536D01*
X174920876Y-71220536D01*
X175117960Y-71220536D01*
X175247999Y-71194668D01*
X175311252Y-71182087D01*
X175452072Y-71123757D01*
X175493324Y-71106671D01*
X175493324Y-71106670D01*
X175493331Y-71106668D01*
X175657199Y-70997175D01*
X175796556Y-70857818D01*
X175906049Y-70693950D01*
X175981468Y-70511871D01*
X176009391Y-70371495D01*
X176015415Y-70341212D01*
X176015415Y-70341211D01*
X176019917Y-70318579D01*
X176019917Y-70121492D01*
X175981469Y-69928206D01*
X175981468Y-69928205D01*
X175981468Y-69928201D01*
X175960474Y-69877517D01*
X175906052Y-69746128D01*
X175906045Y-69746115D01*
X175796556Y-69582254D01*
X175796553Y-69582250D01*
X175657202Y-69442899D01*
X175657198Y-69442896D01*
X175493337Y-69333407D01*
X175493324Y-69333400D01*
X175311256Y-69257986D01*
X175311246Y-69257983D01*
X175117960Y-69219536D01*
X175117958Y-69219536D01*
X174920876Y-69219536D01*
X174920874Y-69219536D01*
X174727587Y-69257983D01*
X174727577Y-69257986D01*
X174545509Y-69333400D01*
X174545496Y-69333407D01*
X174381635Y-69442896D01*
X174381631Y-69442899D01*
X174242280Y-69582250D01*
X174242277Y-69582254D01*
X174132788Y-69746115D01*
X174132781Y-69746128D01*
X174057367Y-69928196D01*
X174057364Y-69928206D01*
X174018917Y-70121492D01*
X174018917Y-70121495D01*
X174018917Y-70318577D01*
X174018917Y-70318579D01*
X174018916Y-70318579D01*
X142170500Y-70318579D01*
X142170500Y-67546540D01*
X172099417Y-67546540D01*
X172099417Y-67945036D01*
X172799417Y-67945036D01*
X172799417Y-68445036D01*
X172099417Y-68445036D01*
X172099417Y-68843531D01*
X172137844Y-69036717D01*
X172137847Y-69036729D01*
X172213224Y-69218707D01*
X172213231Y-69218720D01*
X172322665Y-69382498D01*
X172322668Y-69382502D01*
X172461950Y-69521784D01*
X172461954Y-69521787D01*
X172625732Y-69631221D01*
X172625745Y-69631228D01*
X172807725Y-69706605D01*
X172849417Y-69714898D01*
X172849417Y-68912024D01*
X172859357Y-68929241D01*
X172915212Y-68985096D01*
X172983621Y-69024592D01*
X173059921Y-69045036D01*
X173138913Y-69045036D01*
X173215213Y-69024592D01*
X173283622Y-68985096D01*
X173339477Y-68929241D01*
X173349417Y-68912024D01*
X173349417Y-69714898D01*
X173391107Y-69706605D01*
X173391109Y-69706605D01*
X173573088Y-69631228D01*
X173573101Y-69631221D01*
X173736879Y-69521787D01*
X173736883Y-69521784D01*
X173876165Y-69382502D01*
X173876168Y-69382498D01*
X173985602Y-69218720D01*
X173985609Y-69218707D01*
X174060986Y-69036729D01*
X174060989Y-69036717D01*
X174099416Y-68843531D01*
X174099417Y-68843528D01*
X174099417Y-68445036D01*
X173399417Y-68445036D01*
X173399417Y-67945036D01*
X173995367Y-67945036D01*
X174062406Y-67964721D01*
X174102754Y-68007035D01*
X174108909Y-68017697D01*
X174108912Y-68017701D01*
X174206752Y-68115541D01*
X174326581Y-68184724D01*
X174460234Y-68220536D01*
X174460236Y-68220536D01*
X174598598Y-68220536D01*
X174598600Y-68220536D01*
X174732253Y-68184724D01*
X174852082Y-68115541D01*
X174949922Y-68017701D01*
X175019105Y-67897872D01*
X175054917Y-67764219D01*
X175054917Y-67625853D01*
X179783917Y-67625853D01*
X179783917Y-67764218D01*
X179819729Y-67897871D01*
X179819730Y-67897874D01*
X179888909Y-68017697D01*
X179888911Y-68017700D01*
X179888912Y-68017701D01*
X179986752Y-68115541D01*
X180106581Y-68184724D01*
X180240234Y-68220536D01*
X180240236Y-68220536D01*
X180378598Y-68220536D01*
X180378600Y-68220536D01*
X180512253Y-68184724D01*
X180632082Y-68115541D01*
X180729922Y-68017701D01*
X180736080Y-68007035D01*
X180786648Y-67958820D01*
X180843467Y-67945036D01*
X181439417Y-67945036D01*
X181439417Y-68445036D01*
X180739417Y-68445036D01*
X180739417Y-68843531D01*
X180777844Y-69036717D01*
X180777847Y-69036729D01*
X180853224Y-69218707D01*
X180853228Y-69218714D01*
X180903800Y-69294399D01*
X180924678Y-69361077D01*
X180906194Y-69428457D01*
X180854215Y-69475148D01*
X180824890Y-69484908D01*
X180708887Y-69507983D01*
X180708877Y-69507986D01*
X180526809Y-69583400D01*
X180526796Y-69583407D01*
X180362935Y-69692896D01*
X180362931Y-69692899D01*
X180223580Y-69832250D01*
X180223577Y-69832254D01*
X180114088Y-69996115D01*
X180114081Y-69996128D01*
X180038667Y-70178196D01*
X180038664Y-70178206D01*
X180000217Y-70371492D01*
X180000217Y-70371495D01*
X180000217Y-70568577D01*
X180000217Y-70568579D01*
X180000216Y-70568579D01*
X180038664Y-70761865D01*
X180038667Y-70761875D01*
X180114081Y-70943943D01*
X180114088Y-70943956D01*
X180223577Y-71107817D01*
X180223580Y-71107821D01*
X180362931Y-71247172D01*
X180362935Y-71247175D01*
X180526796Y-71356664D01*
X180526809Y-71356671D01*
X180708877Y-71432085D01*
X180708882Y-71432087D01*
X180708886Y-71432087D01*
X180708887Y-71432088D01*
X180902173Y-71470536D01*
X180902176Y-71470536D01*
X181099260Y-71470536D01*
X181229299Y-71444668D01*
X181292552Y-71432087D01*
X181474631Y-71356668D01*
X181638499Y-71247175D01*
X181777856Y-71107818D01*
X181887349Y-70943950D01*
X181962768Y-70761871D01*
X182001217Y-70568577D01*
X182001217Y-70411457D01*
X186444499Y-70411457D01*
X186472379Y-70551614D01*
X186472381Y-70551620D01*
X186527069Y-70683650D01*
X186527074Y-70683659D01*
X186606467Y-70802478D01*
X186606470Y-70802482D01*
X186707517Y-70903529D01*
X186707521Y-70903532D01*
X186826340Y-70982925D01*
X186826346Y-70982928D01*
X186826347Y-70982929D01*
X186958380Y-71037619D01*
X186958384Y-71037619D01*
X186958385Y-71037620D01*
X187098542Y-71065500D01*
X187098545Y-71065500D01*
X187241457Y-71065500D01*
X187335751Y-71046742D01*
X187381620Y-71037619D01*
X187513653Y-70982929D01*
X187632479Y-70903532D01*
X187733532Y-70802479D01*
X187812929Y-70683653D01*
X187867619Y-70551620D01*
X187895500Y-70411455D01*
X187895500Y-70268545D01*
X187895500Y-70268542D01*
X187867620Y-70128385D01*
X187867619Y-70128384D01*
X187867619Y-70128380D01*
X187812929Y-69996347D01*
X187812928Y-69996346D01*
X187812925Y-69996340D01*
X187733532Y-69877521D01*
X187733529Y-69877517D01*
X187632482Y-69776470D01*
X187632478Y-69776467D01*
X187513659Y-69697074D01*
X187513650Y-69697069D01*
X187381620Y-69642381D01*
X187381614Y-69642379D01*
X187241457Y-69614500D01*
X187241455Y-69614500D01*
X187098545Y-69614500D01*
X187098543Y-69614500D01*
X186958385Y-69642379D01*
X186958379Y-69642381D01*
X186826349Y-69697069D01*
X186826340Y-69697074D01*
X186707521Y-69776467D01*
X186707517Y-69776470D01*
X186606470Y-69877517D01*
X186606467Y-69877521D01*
X186527074Y-69996340D01*
X186527069Y-69996349D01*
X186472381Y-70128379D01*
X186472379Y-70128385D01*
X186444500Y-70268542D01*
X186444500Y-70268545D01*
X186444500Y-70411455D01*
X186444500Y-70411457D01*
X186444499Y-70411457D01*
X182001217Y-70411457D01*
X182001217Y-70371495D01*
X182001217Y-70371492D01*
X182001216Y-70371490D01*
X181984340Y-70286644D01*
X181962769Y-70178206D01*
X181962768Y-70178205D01*
X181962768Y-70178201D01*
X181939279Y-70121492D01*
X181887352Y-69996128D01*
X181887345Y-69996115D01*
X181836563Y-69920115D01*
X181815685Y-69853438D01*
X181834169Y-69786058D01*
X181886148Y-69739367D01*
X181915475Y-69729606D01*
X182031106Y-69706606D01*
X182031110Y-69706605D01*
X182213088Y-69631228D01*
X182213101Y-69631221D01*
X182376879Y-69521787D01*
X182376883Y-69521784D01*
X182516165Y-69382502D01*
X182516168Y-69382498D01*
X182625602Y-69218720D01*
X182625609Y-69218707D01*
X182700986Y-69036729D01*
X182700989Y-69036717D01*
X182739416Y-68843531D01*
X182739417Y-68843528D01*
X182739417Y-68445036D01*
X182039417Y-68445036D01*
X182039417Y-67945036D01*
X182739417Y-67945036D01*
X182739417Y-67546544D01*
X182739416Y-67546540D01*
X182700989Y-67353354D01*
X182700986Y-67353342D01*
X182625609Y-67171364D01*
X182625602Y-67171351D01*
X182516168Y-67007573D01*
X182516165Y-67007569D01*
X182376883Y-66868287D01*
X182376879Y-66868284D01*
X182213101Y-66758850D01*
X182213088Y-66758843D01*
X182031108Y-66683465D01*
X182031100Y-66683463D01*
X181989417Y-66675171D01*
X181989417Y-67478047D01*
X181979477Y-67460831D01*
X181923622Y-67404976D01*
X181855213Y-67365480D01*
X181778913Y-67345036D01*
X181699921Y-67345036D01*
X181623621Y-67365480D01*
X181555212Y-67404976D01*
X181499357Y-67460831D01*
X181489417Y-67478047D01*
X181489417Y-66675172D01*
X181489416Y-66675171D01*
X181447733Y-66683463D01*
X181447725Y-66683465D01*
X181265745Y-66758843D01*
X181265732Y-66758850D01*
X181101954Y-66868284D01*
X181101950Y-66868287D01*
X180962668Y-67007569D01*
X180962665Y-67007573D01*
X180853231Y-67171351D01*
X180853224Y-67171364D01*
X180829255Y-67229233D01*
X180785414Y-67283637D01*
X180719120Y-67305702D01*
X180651421Y-67288423D01*
X180639041Y-67278806D01*
X180638527Y-67279477D01*
X180632078Y-67274528D01*
X180512255Y-67205349D01*
X180512254Y-67205348D01*
X180512253Y-67205348D01*
X180378600Y-67169536D01*
X180240234Y-67169536D01*
X180106581Y-67205348D01*
X180106578Y-67205349D01*
X179986755Y-67274528D01*
X179986750Y-67274532D01*
X179888913Y-67372369D01*
X179888909Y-67372374D01*
X179819730Y-67492197D01*
X179819729Y-67492200D01*
X179783917Y-67625853D01*
X175054917Y-67625853D01*
X175019105Y-67492200D01*
X174984513Y-67432285D01*
X174949924Y-67372374D01*
X174949920Y-67372369D01*
X174852083Y-67274532D01*
X174852078Y-67274528D01*
X174732255Y-67205349D01*
X174732254Y-67205348D01*
X174732253Y-67205348D01*
X174598600Y-67169536D01*
X174460234Y-67169536D01*
X174326581Y-67205348D01*
X174326578Y-67205349D01*
X174206755Y-67274528D01*
X174200307Y-67279477D01*
X174198300Y-67276861D01*
X174150408Y-67302967D01*
X174080720Y-67297931D01*
X174024817Y-67256018D01*
X174009577Y-67229232D01*
X173985606Y-67171358D01*
X173985602Y-67171351D01*
X173876168Y-67007573D01*
X173876165Y-67007569D01*
X173736883Y-66868287D01*
X173736879Y-66868284D01*
X173573101Y-66758850D01*
X173573088Y-66758843D01*
X173391108Y-66683465D01*
X173391100Y-66683463D01*
X173349417Y-66675171D01*
X173349417Y-67478047D01*
X173339477Y-67460831D01*
X173283622Y-67404976D01*
X173215213Y-67365480D01*
X173138913Y-67345036D01*
X173059921Y-67345036D01*
X172983621Y-67365480D01*
X172915212Y-67404976D01*
X172859357Y-67460831D01*
X172849417Y-67478047D01*
X172849417Y-66675172D01*
X172849416Y-66675171D01*
X172807733Y-66683463D01*
X172807725Y-66683465D01*
X172625745Y-66758843D01*
X172625732Y-66758850D01*
X172461954Y-66868284D01*
X172461950Y-66868287D01*
X172322668Y-67007569D01*
X172322665Y-67007573D01*
X172213231Y-67171351D01*
X172213224Y-67171364D01*
X172137847Y-67353342D01*
X172137844Y-67353354D01*
X172099417Y-67546540D01*
X142170500Y-67546540D01*
X142170500Y-63356902D01*
X143509500Y-63356902D01*
X143509500Y-63593097D01*
X143546446Y-63826368D01*
X143619433Y-64050996D01*
X143726657Y-64261433D01*
X143865483Y-64452510D01*
X144032490Y-64619517D01*
X144223567Y-64758343D01*
X144322991Y-64809002D01*
X144434003Y-64865566D01*
X144434005Y-64865566D01*
X144434008Y-64865568D01*
X144554412Y-64904689D01*
X144658631Y-64938553D01*
X144891903Y-64975500D01*
X144891908Y-64975500D01*
X145128097Y-64975500D01*
X145361368Y-64938553D01*
X145585992Y-64865568D01*
X145796433Y-64758343D01*
X145987510Y-64619517D01*
X146154517Y-64452510D01*
X146293343Y-64261433D01*
X146400568Y-64050992D01*
X146473553Y-63826368D01*
X146484315Y-63758419D01*
X146510500Y-63593097D01*
X146510500Y-63356902D01*
X154509500Y-63356902D01*
X154509500Y-63593097D01*
X154546446Y-63826368D01*
X154619433Y-64050996D01*
X154726657Y-64261433D01*
X154865483Y-64452510D01*
X155032490Y-64619517D01*
X155223567Y-64758343D01*
X155322991Y-64809002D01*
X155434003Y-64865566D01*
X155434005Y-64865566D01*
X155434008Y-64865568D01*
X155554412Y-64904689D01*
X155658631Y-64938553D01*
X155891903Y-64975500D01*
X155891908Y-64975500D01*
X156128097Y-64975500D01*
X156361368Y-64938553D01*
X156585992Y-64865568D01*
X156796433Y-64758343D01*
X156987510Y-64619517D01*
X157154517Y-64452510D01*
X157293343Y-64261433D01*
X157400568Y-64050992D01*
X157473553Y-63826368D01*
X157484315Y-63758419D01*
X157510500Y-63593097D01*
X157510500Y-63516540D01*
X172099417Y-63516540D01*
X172099417Y-63765036D01*
X172799417Y-63765036D01*
X172799417Y-64265036D01*
X172099417Y-64265036D01*
X172099417Y-64513531D01*
X172137844Y-64706717D01*
X172137847Y-64706729D01*
X172213224Y-64888707D01*
X172213231Y-64888720D01*
X172322665Y-65052498D01*
X172322668Y-65052502D01*
X172461950Y-65191784D01*
X172461954Y-65191787D01*
X172625732Y-65301221D01*
X172625745Y-65301228D01*
X172807725Y-65376605D01*
X172849417Y-65384898D01*
X172849417Y-64582024D01*
X172859357Y-64599241D01*
X172915212Y-64655096D01*
X172983621Y-64694592D01*
X173059921Y-64715036D01*
X173138913Y-64715036D01*
X173215213Y-64694592D01*
X173283622Y-64655096D01*
X173339477Y-64599241D01*
X173349417Y-64582024D01*
X173349417Y-65384898D01*
X173391107Y-65376605D01*
X173391109Y-65376605D01*
X173573088Y-65301228D01*
X173573101Y-65301221D01*
X173736879Y-65191787D01*
X173736883Y-65191784D01*
X173876165Y-65052502D01*
X173876168Y-65052498D01*
X173985602Y-64888720D01*
X173985609Y-64888707D01*
X174060986Y-64706729D01*
X174060989Y-64706717D01*
X174099416Y-64513531D01*
X174099417Y-64513528D01*
X174099417Y-64265036D01*
X173399417Y-64265036D01*
X173399417Y-63765036D01*
X174099417Y-63765036D01*
X174099417Y-63516544D01*
X174099416Y-63516540D01*
X180739417Y-63516540D01*
X180739417Y-63765036D01*
X181439417Y-63765036D01*
X181439417Y-64265036D01*
X180739417Y-64265036D01*
X180739417Y-64513531D01*
X180777844Y-64706717D01*
X180777847Y-64706729D01*
X180853224Y-64888707D01*
X180853231Y-64888720D01*
X180962665Y-65052498D01*
X180962668Y-65052502D01*
X181101950Y-65191784D01*
X181101954Y-65191787D01*
X181265732Y-65301221D01*
X181265745Y-65301228D01*
X181447725Y-65376605D01*
X181489417Y-65384898D01*
X181489417Y-64582024D01*
X181499357Y-64599241D01*
X181555212Y-64655096D01*
X181623621Y-64694592D01*
X181699921Y-64715036D01*
X181778913Y-64715036D01*
X181855213Y-64694592D01*
X181923622Y-64655096D01*
X181979477Y-64599241D01*
X181989417Y-64582024D01*
X181989417Y-65384898D01*
X182031107Y-65376605D01*
X182031109Y-65376605D01*
X182213088Y-65301228D01*
X182213101Y-65301221D01*
X182376879Y-65191787D01*
X182376883Y-65191784D01*
X182516165Y-65052502D01*
X182516168Y-65052498D01*
X182625602Y-64888720D01*
X182625609Y-64888707D01*
X182700986Y-64706729D01*
X182700989Y-64706717D01*
X182739416Y-64513531D01*
X182739417Y-64513528D01*
X182739417Y-64265036D01*
X182039417Y-64265036D01*
X182039417Y-63765036D01*
X182739417Y-63765036D01*
X182739417Y-63516544D01*
X182739416Y-63516540D01*
X182707069Y-63353920D01*
X189169499Y-63353920D01*
X189198340Y-63498907D01*
X189198343Y-63498917D01*
X189254912Y-63635488D01*
X189254919Y-63635501D01*
X189337048Y-63758415D01*
X189337051Y-63758419D01*
X189441580Y-63862948D01*
X189441584Y-63862951D01*
X189564498Y-63945080D01*
X189564511Y-63945087D01*
X189701082Y-64001656D01*
X189701087Y-64001658D01*
X189701091Y-64001658D01*
X189701092Y-64001659D01*
X189846079Y-64030500D01*
X189846082Y-64030500D01*
X189993920Y-64030500D01*
X190091462Y-64011096D01*
X190138913Y-64001658D01*
X190275495Y-63945084D01*
X190398416Y-63862951D01*
X190502951Y-63758416D01*
X190585084Y-63635495D01*
X190641658Y-63498913D01*
X190655201Y-63430831D01*
X190670500Y-63353920D01*
X190670500Y-63206079D01*
X190641659Y-63061092D01*
X190641658Y-63061091D01*
X190641658Y-63061087D01*
X190641656Y-63061082D01*
X190585087Y-62924511D01*
X190585080Y-62924498D01*
X190502951Y-62801584D01*
X190502948Y-62801580D01*
X190398419Y-62697051D01*
X190398415Y-62697048D01*
X190275501Y-62614919D01*
X190275488Y-62614912D01*
X190138917Y-62558343D01*
X190138907Y-62558340D01*
X189993920Y-62529500D01*
X189993918Y-62529500D01*
X189846082Y-62529500D01*
X189846080Y-62529500D01*
X189701092Y-62558340D01*
X189701082Y-62558343D01*
X189564511Y-62614912D01*
X189564498Y-62614919D01*
X189441584Y-62697048D01*
X189441580Y-62697051D01*
X189337051Y-62801580D01*
X189337048Y-62801584D01*
X189254919Y-62924498D01*
X189254912Y-62924511D01*
X189198343Y-63061082D01*
X189198340Y-63061092D01*
X189169500Y-63206079D01*
X189169500Y-63206082D01*
X189169500Y-63353918D01*
X189169500Y-63353920D01*
X189169499Y-63353920D01*
X182707069Y-63353920D01*
X182700989Y-63323354D01*
X182700986Y-63323342D01*
X182669548Y-63247442D01*
X182625607Y-63141360D01*
X182625602Y-63141351D01*
X182516168Y-62977573D01*
X182516165Y-62977569D01*
X182376883Y-62838287D01*
X182376879Y-62838284D01*
X182213101Y-62728850D01*
X182213088Y-62728843D01*
X182031108Y-62653465D01*
X182031100Y-62653463D01*
X181989417Y-62645171D01*
X181989417Y-63448047D01*
X181979477Y-63430831D01*
X181923622Y-63374976D01*
X181855213Y-63335480D01*
X181778913Y-63315036D01*
X181699921Y-63315036D01*
X181623621Y-63335480D01*
X181555212Y-63374976D01*
X181499357Y-63430831D01*
X181489417Y-63448047D01*
X181489417Y-62645172D01*
X181489416Y-62645171D01*
X181447733Y-62653463D01*
X181447725Y-62653465D01*
X181265745Y-62728843D01*
X181265732Y-62728850D01*
X181101954Y-62838284D01*
X181101950Y-62838287D01*
X180962668Y-62977569D01*
X180962665Y-62977573D01*
X180853231Y-63141351D01*
X180853224Y-63141364D01*
X180777847Y-63323342D01*
X180777844Y-63323354D01*
X180739417Y-63516540D01*
X174099416Y-63516540D01*
X174060989Y-63323354D01*
X174060986Y-63323342D01*
X173985609Y-63141364D01*
X173985602Y-63141351D01*
X173876168Y-62977573D01*
X173876165Y-62977569D01*
X173736883Y-62838287D01*
X173736879Y-62838284D01*
X173573101Y-62728850D01*
X173573088Y-62728843D01*
X173391108Y-62653465D01*
X173391100Y-62653463D01*
X173349417Y-62645171D01*
X173349417Y-63448047D01*
X173339477Y-63430831D01*
X173283622Y-63374976D01*
X173215213Y-63335480D01*
X173138913Y-63315036D01*
X173059921Y-63315036D01*
X172983621Y-63335480D01*
X172915212Y-63374976D01*
X172859357Y-63430831D01*
X172849417Y-63448047D01*
X172849417Y-62645172D01*
X172849416Y-62645171D01*
X172807733Y-62653463D01*
X172807725Y-62653465D01*
X172625745Y-62728843D01*
X172625732Y-62728850D01*
X172461954Y-62838284D01*
X172461950Y-62838287D01*
X172322668Y-62977569D01*
X172322665Y-62977573D01*
X172213231Y-63141351D01*
X172213224Y-63141364D01*
X172137847Y-63323342D01*
X172137844Y-63323354D01*
X172099417Y-63516540D01*
X157510500Y-63516540D01*
X157510500Y-63356902D01*
X157473553Y-63123631D01*
X157408854Y-62924511D01*
X157400568Y-62899008D01*
X157400566Y-62899005D01*
X157400566Y-62899003D01*
X157313868Y-62728850D01*
X157293343Y-62688567D01*
X157154517Y-62497490D01*
X156987510Y-62330483D01*
X156796433Y-62191657D01*
X156745625Y-62165769D01*
X156585996Y-62084433D01*
X156361368Y-62011446D01*
X156128097Y-61974500D01*
X156128092Y-61974500D01*
X155891908Y-61974500D01*
X155891903Y-61974500D01*
X155658631Y-62011446D01*
X155434003Y-62084433D01*
X155223566Y-62191657D01*
X155200442Y-62208458D01*
X155032490Y-62330483D01*
X155032488Y-62330485D01*
X155032487Y-62330485D01*
X154865485Y-62497487D01*
X154865485Y-62497488D01*
X154865483Y-62497490D01*
X154821273Y-62558340D01*
X154726657Y-62688566D01*
X154619433Y-62899003D01*
X154546446Y-63123631D01*
X154509500Y-63356902D01*
X146510500Y-63356902D01*
X146473553Y-63123631D01*
X146408854Y-62924511D01*
X146400568Y-62899008D01*
X146400566Y-62899005D01*
X146400566Y-62899003D01*
X146313868Y-62728850D01*
X146293343Y-62688567D01*
X146154517Y-62497490D01*
X145987510Y-62330483D01*
X145796433Y-62191657D01*
X145745625Y-62165769D01*
X145585996Y-62084433D01*
X145361368Y-62011446D01*
X145128097Y-61974500D01*
X145128092Y-61974500D01*
X144891908Y-61974500D01*
X144891903Y-61974500D01*
X144658631Y-62011446D01*
X144434003Y-62084433D01*
X144223566Y-62191657D01*
X144200442Y-62208458D01*
X144032490Y-62330483D01*
X144032488Y-62330485D01*
X144032487Y-62330485D01*
X143865485Y-62497487D01*
X143865485Y-62497488D01*
X143865483Y-62497490D01*
X143821273Y-62558340D01*
X143726657Y-62688566D01*
X143619433Y-62899003D01*
X143546446Y-63123631D01*
X143509500Y-63356902D01*
X142170500Y-63356902D01*
X142170500Y-62365411D01*
X142170972Y-62354605D01*
X142173082Y-62330483D01*
X142183760Y-62208430D01*
X142185664Y-62195097D01*
X142191503Y-62165739D01*
X142193330Y-62157903D01*
X142226779Y-62033068D01*
X142231990Y-62017721D01*
X142239010Y-62000773D01*
X142241161Y-61995881D01*
X142299825Y-61870076D01*
X142310629Y-61851366D01*
X142398119Y-61726417D01*
X142412007Y-61709865D01*
X142519865Y-61602007D01*
X142536417Y-61588119D01*
X142661366Y-61500629D01*
X142680076Y-61489825D01*
X142805881Y-61431161D01*
X142810773Y-61429010D01*
X142810776Y-61429009D01*
X142827721Y-61421990D01*
X142843068Y-61416779D01*
X142967903Y-61383330D01*
X142975739Y-61381503D01*
X143005097Y-61375664D01*
X143018430Y-61373760D01*
X143157871Y-61361561D01*
X143164606Y-61360972D01*
X143175412Y-61360500D01*
X193944588Y-61360500D01*
X193955394Y-61360972D01*
G37*
%TD.AperFunction*%
%TD*%
M02*
