M48
; DRILL file {KiCad 9.0.4} date 2025-09-25T11:48:11-0400
; FORMAT={-:-/ absolute / metric / decimal}
; #@! TF.CreationDate,2025-09-25T11:48:11-04:00
; #@! TF.GenerationSoftware,Kicad,Pcbnew,9.0.4
; #@! TF.FileFunction,Plated,1,6,PTH
FMAT,2
METRIC
; #@! TA.AperFunction,Plated,PTH,ViaDrill
T1C0.300
; #@! TA.AperFunction,Plated,PTH,ViaDrill
T2C0.400
; #@! TA.AperFunction,Plated,PTH,ViaDrill
T3C0.600
; #@! TA.AperFunction,Plated,PTH,ComponentDrill
T4C0.600
; #@! TA.AperFunction,Plated,PTH,ComponentDrill
T5C1.000
; #@! TA.AperFunction,Plated,PTH,ComponentDrill
T6C1.067
; #@! TA.AperFunction,Plated,PTH,ComponentDrill
T7C1.300
; #@! TA.AperFunction,Plated,PTH,ComponentDrill
T8C1.700
%
G90
G05
T1
X155.08Y-94.1
X156.395Y-94.1
X156.79Y-99.81
X157.71Y-94.1
X157.75Y-99.8
X160.31Y-99.81
X160.48Y-94.1
X161.795Y-94.1
X161.92Y-98.74
X162.93Y-99.8
X163.11Y-94.1
X163.347Y-97.06
X165.06Y-92.18
X165.838Y-95.16
X166.84Y-63.62
X166.84Y-64.93
X167.74Y-74.564
X168.101Y-72.26
X168.692Y-74.545
X169.09Y-63.62
X169.09Y-64.93
X169.37Y-86.77
X170.38Y-89.21
X170.57Y-75.67
X170.812Y-80.26
X171.59Y-77.12
X171.772Y-80.26
X172.195Y-75.945
X172.25Y-89.22
X172.54Y-78.32
X172.55Y-77.12
X172.561Y-72.25
X173.08Y-95.0
X173.33Y-90.21
X173.502Y-73.495
X174.34Y-90.2
X174.49Y-87.38
X174.792Y-72.47
X175.322Y-77.29
X175.42Y-94.23
X175.842Y-88.035
X176.162Y-77.29
X176.386Y-82.2
X176.735Y-94.23
X176.862Y-80.54
X176.872Y-78.87
X177.187Y-72.937
X177.382Y-77.315
X177.592Y-79.698
X177.6Y-99.89
X177.642Y-85.735
X177.742Y-82.085
X178.032Y-74.28
X178.05Y-94.23
X178.282Y-80.54
X178.292Y-78.87
X178.57Y-99.82
X178.642Y-82.03
X178.851Y-85.12
X178.95Y-86.42
X179.322Y-77.315
X179.402Y-82.115
X179.43Y-91.55
X180.13Y-98.61
X180.141Y-73.17
X180.392Y-75.175
X180.572Y-88.5
X180.78Y-94.21
X180.921Y-86.16
X181.21Y-99.8
X181.28Y-74.05
X182.095Y-94.21
X182.261Y-85.15
X182.261Y-86.11
X182.411Y-76.57
X182.491Y-80.7
X182.794Y-75.1
X182.9Y-72.13
X182.929Y-73.75
X183.371Y-76.57
X183.41Y-94.21
X183.451Y-80.7
X183.75Y-99.83
X183.99Y-72.11
X184.3Y-84.06
X184.37Y-88.88
X184.621Y-72.965
X185.278Y-73.605
X185.37Y-72.1
X185.926Y-74.335
X185.936Y-72.965
X190.191Y-74.515
X190.201Y-73.145
X190.49Y-91.95
X190.5Y-85.06
X190.858Y-73.785
X191.506Y-74.515
X191.516Y-73.145
T2
X187.876Y-75.585
X187.876Y-76.675
X187.885Y-79.625
T3
X175.481Y-68.57
X180.871Y-68.55
T5
X153.52Y-62.095
X164.52Y-62.095
T6
X154.23Y-104.02
X156.77Y-104.02
X159.31Y-104.02
X161.85Y-104.02
X175.07Y-104.02
X177.61Y-104.02
X180.15Y-104.02
X182.69Y-104.02
T7
X159.31Y-101.86
X180.15Y-101.86
T8
X156.52Y-72.095
X161.52Y-72.095
T4
G00X173.65Y-62.525
M15
G01X173.65Y-61.725
M16
G05
G00X173.65Y-66.855
M15
G01X173.65Y-65.755
M16
G05
G00X182.29Y-62.525
M15
G01X182.29Y-61.725
M16
G05
G00X182.29Y-66.855
M15
G01X182.29Y-65.755
M16
G05
M30
