%TF.GenerationSoftware,KiCad,Pcbnew,9.0.4*%
%TF.CreationDate,2025-09-25T10:41:26-04:00*%
%TF.ProjectId,fanboy,66616e62-6f79-42e6-9b69-6361645f7063,rev?*%
%TF.SameCoordinates,Original*%
%TF.FileFunction,Copper,L3,Inr*%
%TF.FilePolarity,Positive*%
%FSLAX46Y46*%
G04 Gerber Fmt 4.6, Leading zero omitted, Abs format (unit mm)*
G04 Created by KiCad (PCBNEW 9.0.4) date 2025-09-25 10:41:26*
%MOMM*%
%LPD*%
G01*
G04 APERTURE LIST*
%TA.AperFunction,ComponentPad*%
%ADD10C,3.000000*%
%TD*%
%TA.AperFunction,ComponentPad*%
%ADD11C,2.000000*%
%TD*%
%TA.AperFunction,ComponentPad*%
%ADD12O,1.574800X4.000000*%
%TD*%
%TA.AperFunction,ComponentPad*%
%ADD13C,1.500000*%
%TD*%
%TA.AperFunction,ComponentPad*%
%ADD14O,1.000000X2.100000*%
%TD*%
%TA.AperFunction,ComponentPad*%
%ADD15O,1.000000X1.800000*%
%TD*%
%TA.AperFunction,ViaPad*%
%ADD16C,0.450000*%
%TD*%
%TA.AperFunction,ViaPad*%
%ADD17C,0.500000*%
%TD*%
%TA.AperFunction,ViaPad*%
%ADD18C,0.800000*%
%TD*%
%TA.AperFunction,ViaPad*%
%ADD19C,1.000000*%
%TD*%
%TA.AperFunction,Conductor*%
%ADD20C,0.200000*%
%TD*%
G04 APERTURE END LIST*
D10*
%TO.N,/12V*%
%TO.C,J1*%
X148010000Y-73475000D03*
%TO.N,GND*%
X153010000Y-73475000D03*
D11*
%TO.N,unconnected-(J1-MNT1-Pad3)*%
X145010000Y-63475000D03*
%TO.N,unconnected-(J1-MNT2-Pad4)*%
X156010000Y-63475000D03*
%TD*%
D12*
%TO.N,/FAN2_PWM*%
%TO.C,J4*%
X183150000Y-102230000D03*
%TO.N,/FAN2_TACH*%
X180610000Y-102230000D03*
D13*
X180610000Y-101270000D03*
D12*
%TO.N,/12V*%
X178070000Y-102230000D03*
%TO.N,GND*%
X175530000Y-102230000D03*
%TD*%
%TO.N,/FAN1_PWM*%
%TO.C,J3*%
X162310000Y-101790000D03*
%TO.N,/FAN1_TACH*%
X159770000Y-101790000D03*
D13*
X159770000Y-100830000D03*
D12*
%TO.N,/12V*%
X157230000Y-101790000D03*
%TO.N,GND*%
X154690000Y-101790000D03*
%TD*%
D14*
%TO.N,GND*%
%TO.C,J6*%
X181739417Y-68195036D03*
D15*
X181739417Y-64015036D03*
D14*
X173099417Y-68195036D03*
D15*
X173099417Y-64015036D03*
%TD*%
D16*
%TO.N,/5V*%
X187170000Y-70340000D03*
%TO.N,GND*%
X191675000Y-74570000D03*
X192990000Y-74570000D03*
X192342500Y-73840000D03*
X191685000Y-73200000D03*
X193000000Y-73200000D03*
%TO.N,/3V3*%
X174340000Y-90200000D03*
%TO.N,/FAN_ALERT*%
X173250000Y-78320000D03*
X173330000Y-90210000D03*
%TO.N,/FAN2_TACH*%
X173540000Y-93970000D03*
%TO.N,/12V*%
X175350000Y-94200000D03*
%TO.N,GND*%
X169370000Y-86770000D03*
%TO.N,/5V*%
X163390000Y-98770000D03*
X184210000Y-98800000D03*
X186105000Y-73020000D03*
X187420000Y-73020000D03*
X184790000Y-73020000D03*
X185447500Y-73660000D03*
X186762500Y-73660000D03*
X186095000Y-74390000D03*
X187410000Y-74390000D03*
X184780000Y-74390000D03*
%TO.N,GND*%
X182025000Y-94180000D03*
X183340000Y-94180000D03*
X180710000Y-94180000D03*
X161725000Y-94060000D03*
X163040000Y-94060000D03*
X160410000Y-94060000D03*
%TO.N,/12V*%
X157250000Y-98780000D03*
%TO.N,GND*%
X158210000Y-98770000D03*
X179030000Y-98790000D03*
%TO.N,/12V*%
X178060000Y-98860000D03*
%TO.N,/3V3*%
X185140000Y-92440000D03*
X181670000Y-98770000D03*
X160770000Y-98780000D03*
%TO.N,/12V*%
X156325000Y-94060000D03*
X157640000Y-94060000D03*
X155010000Y-94060000D03*
X177980000Y-94200000D03*
X176665000Y-94200000D03*
%TO.N,/3V3*%
X172250000Y-89220000D03*
X170380000Y-89210000D03*
%TO.N,GND*%
X166297500Y-94130000D03*
%TO.N,/3V3*%
X165540000Y-92570000D03*
%TO.N,/FAN1_PWM*%
X162380000Y-97710000D03*
X163807500Y-96030000D03*
%TO.N,/FAN2_TACH*%
X180590000Y-97580000D03*
D17*
%TO.N,/SWD*%
X180140717Y-73170036D03*
X179401524Y-82115036D03*
%TO.N,/SWCLK*%
X177187037Y-72936510D03*
X178641524Y-82030036D03*
%TO.N,/QSPI_SS*%
X173004552Y-76014341D03*
X166690717Y-74570036D03*
%TO.N,/QSPI_SD1*%
X175321524Y-77290036D03*
X167740413Y-74563680D03*
%TO.N,/QSPI_SD2*%
X176161524Y-77290036D03*
X168691524Y-74545036D03*
%TO.N,GND*%
X172560717Y-72250036D03*
X182794417Y-75100036D03*
X180920717Y-86160036D03*
X167680717Y-66690036D03*
X186320000Y-63280000D03*
X182260717Y-86110036D03*
X178281524Y-80540036D03*
X174490000Y-87380000D03*
X177591524Y-79697536D03*
X171593217Y-76817536D03*
X174791524Y-72470036D03*
X177641524Y-85735036D03*
X178291524Y-78870036D03*
X183450717Y-80700036D03*
X160790717Y-66680036D03*
X183370717Y-76570036D03*
X176871524Y-78870036D03*
X181669417Y-74025036D03*
X175841524Y-88035036D03*
X178950000Y-86420000D03*
X170811524Y-80260036D03*
X180571524Y-88500036D03*
X176386099Y-82200036D03*
X184059283Y-75079964D03*
X170580717Y-76010836D03*
X176861524Y-80540036D03*
%TO.N,/3V3*%
X182260717Y-85150036D03*
X168100717Y-72260036D03*
X182490717Y-80700036D03*
X171771524Y-80260036D03*
X178851121Y-85120036D03*
X172553217Y-76817536D03*
X182410717Y-76570036D03*
X178031524Y-74280036D03*
D18*
X189360717Y-76730036D03*
X189360717Y-75640036D03*
X189369417Y-79680036D03*
D17*
X173501524Y-73495036D03*
X165330717Y-72260036D03*
X180391524Y-75175036D03*
%TO.N,/1V1*%
X177381524Y-77315036D03*
X179321524Y-77315036D03*
X177741524Y-82085036D03*
D19*
%TO.N,/5V*%
X175019417Y-70220036D03*
X181000717Y-70470036D03*
D17*
%TO.N,Net-(U27-RUN)*%
X179751141Y-84461836D03*
X173220000Y-83650000D03*
%TO.N,Net-(U27-GPIO1)*%
X189920000Y-63280000D03*
X172330717Y-78310036D03*
%TD*%
D20*
%TO.N,/3V3*%
X168100717Y-72260036D02*
X168010717Y-72170036D01*
%TD*%
%TA.AperFunction,Conductor*%
%TO.N,/3V3*%
G36*
X193955394Y-61360972D02*
G01*
X193962947Y-61361632D01*
X194101564Y-61373760D01*
X194114907Y-61375665D01*
X194144247Y-61381501D01*
X194152109Y-61383334D01*
X194276922Y-61416777D01*
X194292275Y-61421989D01*
X194309224Y-61429009D01*
X194314134Y-61431169D01*
X194439918Y-61489823D01*
X194458633Y-61500629D01*
X194583582Y-61588119D01*
X194600140Y-61602013D01*
X194707986Y-61709859D01*
X194721880Y-61726417D01*
X194809370Y-61851366D01*
X194820177Y-61870084D01*
X194878809Y-61995819D01*
X194880989Y-62000774D01*
X194888009Y-62017723D01*
X194893222Y-62033080D01*
X194926659Y-62157869D01*
X194928501Y-62165769D01*
X194934330Y-62195071D01*
X194936241Y-62208456D01*
X194949028Y-62354605D01*
X194949500Y-62365413D01*
X194949500Y-92915738D01*
X194929815Y-92982777D01*
X194877011Y-93028532D01*
X194825285Y-93039738D01*
X164817152Y-92987749D01*
X164750147Y-92967948D01*
X164729635Y-92951379D01*
X162752437Y-90971871D01*
X162718987Y-90910528D01*
X162716169Y-90884311D01*
X162715754Y-90147399D01*
X172854500Y-90147399D01*
X172854500Y-90272601D01*
X172886905Y-90393536D01*
X172949505Y-90501964D01*
X173038036Y-90590495D01*
X173146464Y-90653095D01*
X173267399Y-90685500D01*
X173267401Y-90685500D01*
X173392599Y-90685500D01*
X173392601Y-90685500D01*
X173513536Y-90653095D01*
X173621964Y-90590495D01*
X173710495Y-90501964D01*
X173773095Y-90393536D01*
X173805500Y-90272601D01*
X173805500Y-90147399D01*
X173773095Y-90026464D01*
X173710495Y-89918036D01*
X173621964Y-89829505D01*
X173513536Y-89766905D01*
X173513537Y-89766905D01*
X173473224Y-89756103D01*
X173392601Y-89734500D01*
X173267399Y-89734500D01*
X173186775Y-89756103D01*
X173146463Y-89766905D01*
X173038037Y-89829504D01*
X173038034Y-89829506D01*
X172949506Y-89918034D01*
X172949504Y-89918037D01*
X172886905Y-90026463D01*
X172886905Y-90026464D01*
X172854500Y-90147399D01*
X162715754Y-90147399D01*
X162715749Y-90139341D01*
X162714525Y-87969144D01*
X175341024Y-87969144D01*
X175341024Y-88100927D01*
X175375132Y-88228223D01*
X175408078Y-88285286D01*
X175441024Y-88342350D01*
X175534210Y-88435536D01*
X175648338Y-88501428D01*
X175775632Y-88535536D01*
X175775634Y-88535536D01*
X175907414Y-88535536D01*
X175907416Y-88535536D01*
X176034710Y-88501428D01*
X176148838Y-88435536D01*
X176150230Y-88434144D01*
X180071024Y-88434144D01*
X180071024Y-88565927D01*
X180105132Y-88693223D01*
X180138078Y-88750286D01*
X180171024Y-88807350D01*
X180264210Y-88900536D01*
X180378338Y-88966428D01*
X180505632Y-89000536D01*
X180505634Y-89000536D01*
X180637414Y-89000536D01*
X180637416Y-89000536D01*
X180764710Y-88966428D01*
X180878838Y-88900536D01*
X180972024Y-88807350D01*
X181037916Y-88693222D01*
X181072024Y-88565928D01*
X181072024Y-88434144D01*
X181037916Y-88306850D01*
X180972024Y-88192722D01*
X180878838Y-88099536D01*
X180821774Y-88066590D01*
X180764711Y-88033644D01*
X180701063Y-88016590D01*
X180637416Y-87999536D01*
X180505632Y-87999536D01*
X180378336Y-88033644D01*
X180264210Y-88099536D01*
X180264207Y-88099538D01*
X180171026Y-88192719D01*
X180171024Y-88192722D01*
X180105132Y-88306848D01*
X180071024Y-88434144D01*
X176150230Y-88434144D01*
X176242024Y-88342350D01*
X176307916Y-88228222D01*
X176342024Y-88100928D01*
X176342024Y-87969144D01*
X176307916Y-87841850D01*
X176242024Y-87727722D01*
X176148838Y-87634536D01*
X176091774Y-87601590D01*
X176034711Y-87568644D01*
X175971063Y-87551590D01*
X175907416Y-87534536D01*
X175775632Y-87534536D01*
X175648336Y-87568644D01*
X175534210Y-87634536D01*
X175534207Y-87634538D01*
X175441026Y-87727719D01*
X175441024Y-87727722D01*
X175375132Y-87841848D01*
X175341024Y-87969144D01*
X162714525Y-87969144D01*
X162714155Y-87314108D01*
X173989500Y-87314108D01*
X173989500Y-87445891D01*
X174023608Y-87573187D01*
X174056554Y-87630250D01*
X174089500Y-87687314D01*
X174182686Y-87780500D01*
X174281521Y-87837563D01*
X174296810Y-87846390D01*
X174296814Y-87846392D01*
X174424108Y-87880500D01*
X174424110Y-87880500D01*
X174555890Y-87880500D01*
X174555892Y-87880500D01*
X174683186Y-87846392D01*
X174797314Y-87780500D01*
X174890500Y-87687314D01*
X174956392Y-87573186D01*
X174990500Y-87445892D01*
X174990500Y-87314108D01*
X174956392Y-87186814D01*
X174890500Y-87072686D01*
X174797314Y-86979500D01*
X174740250Y-86946554D01*
X174683187Y-86913608D01*
X174619539Y-86896554D01*
X174555892Y-86879500D01*
X174424108Y-86879500D01*
X174296812Y-86913608D01*
X174182686Y-86979500D01*
X174182683Y-86979502D01*
X174089502Y-87072683D01*
X174089500Y-87072686D01*
X174023608Y-87186812D01*
X173989500Y-87314108D01*
X162714155Y-87314108D01*
X162713813Y-86707399D01*
X168894500Y-86707399D01*
X168894500Y-86832601D01*
X168926905Y-86953536D01*
X168989505Y-87061964D01*
X169078036Y-87150495D01*
X169186464Y-87213095D01*
X169307399Y-87245500D01*
X169307401Y-87245500D01*
X169432599Y-87245500D01*
X169432601Y-87245500D01*
X169553536Y-87213095D01*
X169661964Y-87150495D01*
X169750495Y-87061964D01*
X169813095Y-86953536D01*
X169845500Y-86832601D01*
X169845500Y-86707399D01*
X169813095Y-86586464D01*
X169750495Y-86478036D01*
X169661964Y-86389505D01*
X169600654Y-86354108D01*
X178449500Y-86354108D01*
X178449500Y-86485892D01*
X178456103Y-86510535D01*
X178483608Y-86613187D01*
X178491253Y-86626428D01*
X178549500Y-86727314D01*
X178642686Y-86820500D01*
X178756814Y-86886392D01*
X178884108Y-86920500D01*
X178884110Y-86920500D01*
X179015890Y-86920500D01*
X179015892Y-86920500D01*
X179143186Y-86886392D01*
X179257314Y-86820500D01*
X179350500Y-86727314D01*
X179416392Y-86613186D01*
X179450500Y-86485892D01*
X179450500Y-86354108D01*
X179416392Y-86226814D01*
X179416041Y-86226206D01*
X179370899Y-86148017D01*
X179370898Y-86148015D01*
X179350504Y-86112692D01*
X179350501Y-86112689D01*
X179350500Y-86112686D01*
X179331958Y-86094144D01*
X180420217Y-86094144D01*
X180420217Y-86225928D01*
X180437271Y-86289575D01*
X180454325Y-86353223D01*
X180487271Y-86410286D01*
X180520217Y-86467350D01*
X180613403Y-86560536D01*
X180727531Y-86626428D01*
X180854825Y-86660536D01*
X180854827Y-86660536D01*
X180986607Y-86660536D01*
X180986609Y-86660536D01*
X181113903Y-86626428D01*
X181228031Y-86560536D01*
X181321217Y-86467350D01*
X181387109Y-86353222D01*
X181421217Y-86225928D01*
X181421217Y-86094144D01*
X181407820Y-86044144D01*
X181760217Y-86044144D01*
X181760217Y-86175928D01*
X181776189Y-86235536D01*
X181794325Y-86303223D01*
X181807998Y-86326905D01*
X181860217Y-86417350D01*
X181953403Y-86510536D01*
X182067531Y-86576428D01*
X182194825Y-86610536D01*
X182194827Y-86610536D01*
X182326607Y-86610536D01*
X182326609Y-86610536D01*
X182453903Y-86576428D01*
X182568031Y-86510536D01*
X182661217Y-86417350D01*
X182727109Y-86303222D01*
X182761217Y-86175928D01*
X182761217Y-86044144D01*
X182727109Y-85916850D01*
X182661217Y-85802722D01*
X182568031Y-85709536D01*
X182481429Y-85659536D01*
X182453904Y-85643644D01*
X182390256Y-85626590D01*
X182326609Y-85609536D01*
X182194825Y-85609536D01*
X182067529Y-85643644D01*
X181953403Y-85709536D01*
X181953400Y-85709538D01*
X181860219Y-85802719D01*
X181860217Y-85802722D01*
X181794325Y-85916848D01*
X181766820Y-86019500D01*
X181760217Y-86044144D01*
X181407820Y-86044144D01*
X181387109Y-85966850D01*
X181321217Y-85852722D01*
X181228031Y-85759536D01*
X181170967Y-85726590D01*
X181113904Y-85693644D01*
X181022474Y-85669146D01*
X180986609Y-85659536D01*
X180854825Y-85659536D01*
X180727529Y-85693644D01*
X180613403Y-85759536D01*
X180613400Y-85759538D01*
X180520219Y-85852719D01*
X180520217Y-85852722D01*
X180454325Y-85966848D01*
X180440217Y-86019502D01*
X180420217Y-86094144D01*
X179331958Y-86094144D01*
X179257314Y-86019500D01*
X179166122Y-85966850D01*
X179143187Y-85953608D01*
X179048443Y-85928222D01*
X179015892Y-85919500D01*
X178884108Y-85919500D01*
X178756812Y-85953608D01*
X178642686Y-86019500D01*
X178642683Y-86019502D01*
X178549502Y-86112683D01*
X178549500Y-86112686D01*
X178483608Y-86226812D01*
X178465472Y-86294500D01*
X178449500Y-86354108D01*
X169600654Y-86354108D01*
X169553536Y-86326905D01*
X169553537Y-86326905D01*
X169513224Y-86316103D01*
X169432601Y-86294500D01*
X169307399Y-86294500D01*
X169226775Y-86316103D01*
X169186463Y-86326905D01*
X169078037Y-86389504D01*
X169078034Y-86389506D01*
X168989506Y-86478034D01*
X168989504Y-86478037D01*
X168926905Y-86586463D01*
X168926905Y-86586464D01*
X168894500Y-86707399D01*
X162713813Y-86707399D01*
X162713808Y-86699341D01*
X162713598Y-86326905D01*
X162713227Y-85669144D01*
X177141024Y-85669144D01*
X177141024Y-85800927D01*
X177175132Y-85928223D01*
X177197433Y-85966848D01*
X177241024Y-86042350D01*
X177334210Y-86135536D01*
X177448338Y-86201428D01*
X177575632Y-86235536D01*
X177575634Y-86235536D01*
X177707414Y-86235536D01*
X177707416Y-86235536D01*
X177834710Y-86201428D01*
X177948838Y-86135536D01*
X178042024Y-86042350D01*
X178107916Y-85928222D01*
X178142024Y-85800928D01*
X178142024Y-85669144D01*
X178107916Y-85541850D01*
X178042024Y-85427722D01*
X177948838Y-85334536D01*
X177891774Y-85301590D01*
X177834711Y-85268644D01*
X177771063Y-85251590D01*
X177707416Y-85234536D01*
X177575632Y-85234536D01*
X177448336Y-85268644D01*
X177334210Y-85334536D01*
X177334207Y-85334538D01*
X177241026Y-85427719D01*
X177241024Y-85427722D01*
X177175132Y-85541848D01*
X177141024Y-85669144D01*
X162713227Y-85669144D01*
X162712583Y-84527726D01*
X162712509Y-84395944D01*
X179250641Y-84395944D01*
X179250641Y-84527727D01*
X179284749Y-84655023D01*
X179317695Y-84712086D01*
X179350641Y-84769150D01*
X179443827Y-84862336D01*
X179557955Y-84928228D01*
X179685249Y-84962336D01*
X179685251Y-84962336D01*
X179817031Y-84962336D01*
X179817033Y-84962336D01*
X179944327Y-84928228D01*
X180058455Y-84862336D01*
X180151641Y-84769150D01*
X180217533Y-84655022D01*
X180251641Y-84527728D01*
X180251641Y-84395944D01*
X180217533Y-84268650D01*
X180151641Y-84154522D01*
X180058455Y-84061336D01*
X180001391Y-84028390D01*
X179944328Y-83995444D01*
X179880680Y-83978390D01*
X179817033Y-83961336D01*
X179685249Y-83961336D01*
X179557953Y-83995444D01*
X179443827Y-84061336D01*
X179443824Y-84061338D01*
X179350643Y-84154519D01*
X179350641Y-84154522D01*
X179284749Y-84268648D01*
X179250641Y-84395944D01*
X162712509Y-84395944D01*
X162712504Y-84387887D01*
X162712051Y-83584108D01*
X172719500Y-83584108D01*
X172719500Y-83715891D01*
X172753608Y-83843187D01*
X172786554Y-83900250D01*
X172819500Y-83957314D01*
X172912686Y-84050500D01*
X173026814Y-84116392D01*
X173154108Y-84150500D01*
X173154110Y-84150500D01*
X173285890Y-84150500D01*
X173285892Y-84150500D01*
X173413186Y-84116392D01*
X173527314Y-84050500D01*
X173620500Y-83957314D01*
X173686392Y-83843186D01*
X173720500Y-83715892D01*
X173720500Y-83584108D01*
X173686392Y-83456814D01*
X173620500Y-83342686D01*
X173527314Y-83249500D01*
X173470250Y-83216554D01*
X173413187Y-83183608D01*
X173349539Y-83166554D01*
X173285892Y-83149500D01*
X173154108Y-83149500D01*
X173026812Y-83183608D01*
X172912686Y-83249500D01*
X172912683Y-83249502D01*
X172819502Y-83342683D01*
X172819500Y-83342686D01*
X172753608Y-83456812D01*
X172719500Y-83584108D01*
X162712051Y-83584108D01*
X162712046Y-83576051D01*
X162711233Y-82134144D01*
X175885599Y-82134144D01*
X175885599Y-82265928D01*
X175889132Y-82279113D01*
X175919707Y-82393223D01*
X175941250Y-82430535D01*
X175985599Y-82507350D01*
X176078785Y-82600536D01*
X176192913Y-82666428D01*
X176320207Y-82700536D01*
X176320209Y-82700536D01*
X176451989Y-82700536D01*
X176451991Y-82700536D01*
X176579285Y-82666428D01*
X176693413Y-82600536D01*
X176786599Y-82507350D01*
X176852491Y-82393222D01*
X176886599Y-82265928D01*
X176886599Y-82134144D01*
X176855785Y-82019144D01*
X177241024Y-82019144D01*
X177241024Y-82150928D01*
X177258078Y-82214575D01*
X177275132Y-82278223D01*
X177292453Y-82308223D01*
X177341024Y-82392350D01*
X177434210Y-82485536D01*
X177548338Y-82551428D01*
X177675632Y-82585536D01*
X177675634Y-82585536D01*
X177807414Y-82585536D01*
X177807416Y-82585536D01*
X177934710Y-82551428D01*
X178048838Y-82485536D01*
X178131343Y-82403031D01*
X178192666Y-82369546D01*
X178262358Y-82374530D01*
X178306705Y-82403031D01*
X178334210Y-82430536D01*
X178448338Y-82496428D01*
X178575632Y-82530536D01*
X178575634Y-82530536D01*
X178707414Y-82530536D01*
X178707416Y-82530536D01*
X178834710Y-82496428D01*
X178904711Y-82456012D01*
X178972609Y-82439539D01*
X179038637Y-82462391D01*
X179054392Y-82475718D01*
X179094210Y-82515536D01*
X179208338Y-82581428D01*
X179335632Y-82615536D01*
X179335634Y-82615536D01*
X179467414Y-82615536D01*
X179467416Y-82615536D01*
X179594710Y-82581428D01*
X179708838Y-82515536D01*
X179802024Y-82422350D01*
X179867916Y-82308222D01*
X179902024Y-82180928D01*
X179902024Y-82049144D01*
X179867916Y-81921850D01*
X179802024Y-81807722D01*
X179708838Y-81714536D01*
X179630579Y-81669353D01*
X179594711Y-81648644D01*
X179482747Y-81618644D01*
X179467416Y-81614536D01*
X179335632Y-81614536D01*
X179208338Y-81648644D01*
X179208337Y-81648644D01*
X179208335Y-81648645D01*
X179208334Y-81648645D01*
X179138336Y-81689059D01*
X179070436Y-81705532D01*
X179004409Y-81682679D01*
X178988655Y-81669353D01*
X178948840Y-81629538D01*
X178948838Y-81629536D01*
X178870896Y-81584536D01*
X178834711Y-81563644D01*
X178771063Y-81546590D01*
X178707416Y-81529536D01*
X178575632Y-81529536D01*
X178448336Y-81563644D01*
X178334210Y-81629536D01*
X178334207Y-81629538D01*
X178251705Y-81712041D01*
X178190382Y-81745526D01*
X178120690Y-81740542D01*
X178076343Y-81712041D01*
X178048840Y-81684538D01*
X178048838Y-81684536D01*
X177986671Y-81648644D01*
X177934711Y-81618644D01*
X177871063Y-81601590D01*
X177807416Y-81584536D01*
X177675632Y-81584536D01*
X177548336Y-81618644D01*
X177434210Y-81684536D01*
X177434207Y-81684538D01*
X177341026Y-81777719D01*
X177341024Y-81777722D01*
X177275132Y-81891848D01*
X177244319Y-82006848D01*
X177241024Y-82019144D01*
X176855785Y-82019144D01*
X176852491Y-82006850D01*
X176786599Y-81892722D01*
X176693413Y-81799536D01*
X176636349Y-81766590D01*
X176579286Y-81733644D01*
X176507972Y-81714536D01*
X176451991Y-81699536D01*
X176320207Y-81699536D01*
X176192911Y-81733644D01*
X176078785Y-81799536D01*
X176078782Y-81799538D01*
X175985601Y-81892719D01*
X175985599Y-81892722D01*
X175919707Y-82006848D01*
X175909991Y-82043111D01*
X175885599Y-82134144D01*
X162711233Y-82134144D01*
X162711228Y-82126087D01*
X162710224Y-80346848D01*
X162710138Y-80194144D01*
X170311024Y-80194144D01*
X170311024Y-80325928D01*
X170316630Y-80346850D01*
X170345132Y-80453223D01*
X170376093Y-80506848D01*
X170411024Y-80567350D01*
X170504210Y-80660536D01*
X170618338Y-80726428D01*
X170745632Y-80760536D01*
X170745634Y-80760536D01*
X170877414Y-80760536D01*
X170877416Y-80760536D01*
X171004710Y-80726428D01*
X171118838Y-80660536D01*
X171212024Y-80567350D01*
X171265837Y-80474144D01*
X176361024Y-80474144D01*
X176361024Y-80605928D01*
X176368585Y-80634146D01*
X176395132Y-80733223D01*
X176414014Y-80765927D01*
X176461024Y-80847350D01*
X176554210Y-80940536D01*
X176668338Y-81006428D01*
X176795632Y-81040536D01*
X176795634Y-81040536D01*
X176927414Y-81040536D01*
X176927416Y-81040536D01*
X177054710Y-81006428D01*
X177168838Y-80940536D01*
X177262024Y-80847350D01*
X177327916Y-80733222D01*
X177362024Y-80605928D01*
X177362024Y-80474144D01*
X177327916Y-80346850D01*
X177327915Y-80346848D01*
X177325812Y-80338999D01*
X177328623Y-80338245D01*
X177322650Y-80282708D01*
X177353922Y-80220227D01*
X177414010Y-80184572D01*
X177476771Y-80184943D01*
X177525632Y-80198036D01*
X177525635Y-80198036D01*
X177657414Y-80198036D01*
X177657416Y-80198036D01*
X177662831Y-80196585D01*
X177732679Y-80198244D01*
X177790544Y-80237405D01*
X177818050Y-80301632D01*
X177814702Y-80348451D01*
X177781024Y-80474144D01*
X177781024Y-80605928D01*
X177788585Y-80634146D01*
X177815132Y-80733223D01*
X177834014Y-80765927D01*
X177881024Y-80847350D01*
X177974210Y-80940536D01*
X178088338Y-81006428D01*
X178215632Y-81040536D01*
X178215634Y-81040536D01*
X178347414Y-81040536D01*
X178347416Y-81040536D01*
X178474710Y-81006428D01*
X178588838Y-80940536D01*
X178682024Y-80847350D01*
X178747916Y-80733222D01*
X178774464Y-80634144D01*
X182950217Y-80634144D01*
X182950217Y-80765927D01*
X182984325Y-80893223D01*
X183011640Y-80940533D01*
X183050217Y-81007350D01*
X183143403Y-81100536D01*
X183257531Y-81166428D01*
X183384825Y-81200536D01*
X183384827Y-81200536D01*
X183516607Y-81200536D01*
X183516609Y-81200536D01*
X183643903Y-81166428D01*
X183758031Y-81100536D01*
X183851217Y-81007350D01*
X183917109Y-80893222D01*
X183951217Y-80765928D01*
X183951217Y-80634144D01*
X183917109Y-80506850D01*
X183851217Y-80392722D01*
X183758031Y-80299536D01*
X183700967Y-80266590D01*
X183643904Y-80233644D01*
X183580256Y-80216590D01*
X183516609Y-80199536D01*
X183384825Y-80199536D01*
X183257529Y-80233644D01*
X183143403Y-80299536D01*
X183143400Y-80299538D01*
X183050219Y-80392719D01*
X183050217Y-80392722D01*
X182984325Y-80506848D01*
X182950217Y-80634144D01*
X178774464Y-80634144D01*
X178782024Y-80605928D01*
X178782024Y-80474144D01*
X178747916Y-80346850D01*
X178682024Y-80232722D01*
X178588838Y-80139536D01*
X178516958Y-80098036D01*
X178474711Y-80073644D01*
X178396273Y-80052627D01*
X178347416Y-80039536D01*
X178215632Y-80039536D01*
X178215627Y-80039536D01*
X178210207Y-80040989D01*
X178140357Y-80039323D01*
X178082496Y-80000158D01*
X178054995Y-79935928D01*
X178058343Y-79889126D01*
X178092024Y-79763428D01*
X178092024Y-79631644D01*
X178061901Y-79519222D01*
X178063564Y-79449376D01*
X178102726Y-79391513D01*
X178166955Y-79364009D01*
X178213767Y-79367356D01*
X178225632Y-79370536D01*
X178225634Y-79370536D01*
X178357414Y-79370536D01*
X178357416Y-79370536D01*
X178484710Y-79336428D01*
X178598838Y-79270536D01*
X178692024Y-79177350D01*
X178757916Y-79063222D01*
X178792024Y-78935928D01*
X178792024Y-78804144D01*
X178757916Y-78676850D01*
X178692024Y-78562722D01*
X178598838Y-78469536D01*
X178541774Y-78436590D01*
X178484711Y-78403644D01*
X178421063Y-78386590D01*
X178357416Y-78369536D01*
X178225632Y-78369536D01*
X178098336Y-78403644D01*
X177984210Y-78469536D01*
X177984207Y-78469538D01*
X177891026Y-78562719D01*
X177891024Y-78562722D01*
X177825132Y-78676848D01*
X177791024Y-78804144D01*
X177791024Y-78935927D01*
X177821146Y-79048346D01*
X177819483Y-79118196D01*
X177780320Y-79176058D01*
X177716091Y-79203562D01*
X177704338Y-79204403D01*
X177686503Y-79204829D01*
X177657416Y-79197036D01*
X177525632Y-79197036D01*
X177477912Y-79209822D01*
X177463096Y-79210177D01*
X177443085Y-79204818D01*
X177422371Y-79204325D01*
X177410015Y-79195962D01*
X177395605Y-79192103D01*
X177381665Y-79176773D01*
X177364509Y-79165161D01*
X177358637Y-79151448D01*
X177348599Y-79140409D01*
X177345160Y-79119976D01*
X177337006Y-79100933D01*
X177338482Y-79080291D01*
X177337004Y-79071508D01*
X177339532Y-79065600D01*
X177340353Y-79054124D01*
X177372024Y-78935928D01*
X177372024Y-78804144D01*
X177337916Y-78676850D01*
X177272024Y-78562722D01*
X177178838Y-78469536D01*
X177121774Y-78436590D01*
X177064711Y-78403644D01*
X177001063Y-78386590D01*
X176937416Y-78369536D01*
X176805632Y-78369536D01*
X176678336Y-78403644D01*
X176564210Y-78469536D01*
X176564207Y-78469538D01*
X176471026Y-78562719D01*
X176471024Y-78562722D01*
X176405132Y-78676848D01*
X176371024Y-78804144D01*
X176371024Y-78935927D01*
X176405132Y-79063223D01*
X176436871Y-79118196D01*
X176471024Y-79177350D01*
X176564210Y-79270536D01*
X176678338Y-79336428D01*
X176805632Y-79370536D01*
X176805634Y-79370536D01*
X176937414Y-79370536D01*
X176937416Y-79370536D01*
X176970825Y-79361584D01*
X177040672Y-79363245D01*
X177098536Y-79402407D01*
X177126041Y-79466635D01*
X177122693Y-79513451D01*
X177091024Y-79631644D01*
X177091024Y-79763428D01*
X177124702Y-79889119D01*
X177127236Y-79898573D01*
X177124428Y-79899325D01*
X177130392Y-79954891D01*
X177099105Y-80017365D01*
X177039010Y-80053006D01*
X176976274Y-80052627D01*
X176927417Y-80039536D01*
X176927416Y-80039536D01*
X176795632Y-80039536D01*
X176668336Y-80073644D01*
X176554210Y-80139536D01*
X176554207Y-80139538D01*
X176461026Y-80232719D01*
X176461024Y-80232722D01*
X176395132Y-80346848D01*
X176371801Y-80433923D01*
X176361024Y-80474144D01*
X171265837Y-80474144D01*
X171277916Y-80453222D01*
X171312024Y-80325928D01*
X171312024Y-80194144D01*
X171277916Y-80066850D01*
X171212024Y-79952722D01*
X171118838Y-79859536D01*
X171061774Y-79826590D01*
X171004711Y-79793644D01*
X170891941Y-79763428D01*
X170877416Y-79759536D01*
X170745632Y-79759536D01*
X170618336Y-79793644D01*
X170504210Y-79859536D01*
X170504207Y-79859538D01*
X170411026Y-79952719D01*
X170411024Y-79952722D01*
X170345132Y-80066848D01*
X170325656Y-80139536D01*
X170311024Y-80194144D01*
X162710138Y-80194144D01*
X162709038Y-78244144D01*
X171830217Y-78244144D01*
X171830217Y-78375928D01*
X171847271Y-78439575D01*
X171864325Y-78503223D01*
X171864506Y-78503536D01*
X171930217Y-78617350D01*
X172023403Y-78710536D01*
X172137531Y-78776428D01*
X172264825Y-78810536D01*
X172264827Y-78810536D01*
X172396607Y-78810536D01*
X172396609Y-78810536D01*
X172523903Y-78776428D01*
X172638031Y-78710536D01*
X172715373Y-78633194D01*
X172776696Y-78599709D01*
X172846388Y-78604693D01*
X172890735Y-78633194D01*
X172958036Y-78700495D01*
X173066464Y-78763095D01*
X173187399Y-78795500D01*
X173187401Y-78795500D01*
X173312599Y-78795500D01*
X173312601Y-78795500D01*
X173433536Y-78763095D01*
X173541964Y-78700495D01*
X173630495Y-78611964D01*
X173693095Y-78503536D01*
X173725500Y-78382601D01*
X173725500Y-78257399D01*
X173693095Y-78136464D01*
X173630495Y-78028036D01*
X173541964Y-77939505D01*
X173433536Y-77876905D01*
X173433537Y-77876905D01*
X173393224Y-77866103D01*
X173312601Y-77844500D01*
X173187399Y-77844500D01*
X173106775Y-77866103D01*
X173066463Y-77876905D01*
X172958037Y-77939504D01*
X172958034Y-77939506D01*
X172900699Y-77996842D01*
X172839376Y-78030327D01*
X172769684Y-78025343D01*
X172725337Y-77996842D01*
X172638033Y-77909538D01*
X172638031Y-77909536D01*
X172580967Y-77876590D01*
X172523904Y-77843644D01*
X172460256Y-77826590D01*
X172396609Y-77809536D01*
X172264825Y-77809536D01*
X172137529Y-77843644D01*
X172023403Y-77909536D01*
X172023400Y-77909538D01*
X171930219Y-78002719D01*
X171930217Y-78002722D01*
X171864325Y-78116848D01*
X171859069Y-78136464D01*
X171830217Y-78244144D01*
X162709038Y-78244144D01*
X162708196Y-76751644D01*
X171092717Y-76751644D01*
X171092717Y-76883427D01*
X171126825Y-77010723D01*
X171141666Y-77036427D01*
X171192717Y-77124850D01*
X171285903Y-77218036D01*
X171400031Y-77283928D01*
X171527325Y-77318036D01*
X171527327Y-77318036D01*
X171659107Y-77318036D01*
X171659109Y-77318036D01*
X171786403Y-77283928D01*
X171889952Y-77224144D01*
X174821024Y-77224144D01*
X174821024Y-77355928D01*
X174834648Y-77406774D01*
X174855132Y-77483223D01*
X174869566Y-77508223D01*
X174921024Y-77597350D01*
X175014210Y-77690536D01*
X175128338Y-77756428D01*
X175255632Y-77790536D01*
X175255634Y-77790536D01*
X175387414Y-77790536D01*
X175387416Y-77790536D01*
X175514710Y-77756428D01*
X175628838Y-77690536D01*
X175653843Y-77665531D01*
X175715166Y-77632046D01*
X175784858Y-77637030D01*
X175829205Y-77665531D01*
X175854210Y-77690536D01*
X175968338Y-77756428D01*
X176095632Y-77790536D01*
X176095634Y-77790536D01*
X176227414Y-77790536D01*
X176227416Y-77790536D01*
X176354710Y-77756428D01*
X176468838Y-77690536D01*
X176562024Y-77597350D01*
X176627916Y-77483222D01*
X176648400Y-77406771D01*
X176684763Y-77347113D01*
X176747610Y-77316583D01*
X176816985Y-77324877D01*
X176870864Y-77369362D01*
X176887948Y-77406771D01*
X176915132Y-77508222D01*
X176981024Y-77622350D01*
X177074210Y-77715536D01*
X177188338Y-77781428D01*
X177315632Y-77815536D01*
X177315634Y-77815536D01*
X177447414Y-77815536D01*
X177447416Y-77815536D01*
X177574710Y-77781428D01*
X177688838Y-77715536D01*
X177782024Y-77622350D01*
X177847916Y-77508222D01*
X177882024Y-77380928D01*
X177882024Y-77249144D01*
X178821024Y-77249144D01*
X178821024Y-77380928D01*
X178838078Y-77444575D01*
X178855132Y-77508223D01*
X178887090Y-77563575D01*
X178921024Y-77622350D01*
X179014210Y-77715536D01*
X179128338Y-77781428D01*
X179255632Y-77815536D01*
X179255634Y-77815536D01*
X179387414Y-77815536D01*
X179387416Y-77815536D01*
X179514710Y-77781428D01*
X179628838Y-77715536D01*
X179722024Y-77622350D01*
X179787916Y-77508222D01*
X179822024Y-77380928D01*
X179822024Y-77249144D01*
X179787916Y-77121850D01*
X179722024Y-77007722D01*
X179628838Y-76914536D01*
X179564430Y-76877350D01*
X179514711Y-76848644D01*
X179451063Y-76831590D01*
X179387416Y-76814536D01*
X179255632Y-76814536D01*
X179128336Y-76848644D01*
X179014210Y-76914536D01*
X179014207Y-76914538D01*
X178921026Y-77007719D01*
X178921024Y-77007722D01*
X178855132Y-77121848D01*
X178829359Y-77218036D01*
X178821024Y-77249144D01*
X177882024Y-77249144D01*
X177847916Y-77121850D01*
X177782024Y-77007722D01*
X177688838Y-76914536D01*
X177624430Y-76877350D01*
X177574711Y-76848644D01*
X177511063Y-76831590D01*
X177447416Y-76814536D01*
X177315632Y-76814536D01*
X177188336Y-76848644D01*
X177074210Y-76914536D01*
X177074207Y-76914538D01*
X176981026Y-77007719D01*
X176981024Y-77007722D01*
X176915132Y-77121850D01*
X176894648Y-77198298D01*
X176894648Y-77198299D01*
X176858283Y-77257959D01*
X176795436Y-77288488D01*
X176726060Y-77280193D01*
X176672182Y-77235708D01*
X176655099Y-77198301D01*
X176627916Y-77096850D01*
X176562024Y-76982722D01*
X176468838Y-76889536D01*
X176398011Y-76848644D01*
X176354711Y-76823644D01*
X176291063Y-76806590D01*
X176227416Y-76789536D01*
X176095632Y-76789536D01*
X175968336Y-76823644D01*
X175854210Y-76889536D01*
X175829204Y-76914542D01*
X175767880Y-76948026D01*
X175698189Y-76943040D01*
X175653844Y-76914542D01*
X175653838Y-76914536D01*
X175628838Y-76889536D01*
X175558011Y-76848644D01*
X175514711Y-76823644D01*
X175451063Y-76806590D01*
X175387416Y-76789536D01*
X175255632Y-76789536D01*
X175128336Y-76823644D01*
X175014210Y-76889536D01*
X175014207Y-76889538D01*
X174921026Y-76982719D01*
X174921024Y-76982722D01*
X174855132Y-77096848D01*
X174847629Y-77124850D01*
X174821024Y-77224144D01*
X171889952Y-77224144D01*
X171900531Y-77218036D01*
X171993717Y-77124850D01*
X172059609Y-77010722D01*
X172093717Y-76883428D01*
X172093717Y-76751644D01*
X172059609Y-76624350D01*
X171993717Y-76510222D01*
X171900531Y-76417036D01*
X171830924Y-76376848D01*
X171786404Y-76351144D01*
X171722756Y-76334090D01*
X171659109Y-76317036D01*
X171527325Y-76317036D01*
X171400029Y-76351144D01*
X171285903Y-76417036D01*
X171285900Y-76417038D01*
X171192719Y-76510219D01*
X171192717Y-76510222D01*
X171126825Y-76624348D01*
X171092717Y-76751644D01*
X162708196Y-76751644D01*
X162707741Y-75944944D01*
X170080217Y-75944944D01*
X170080217Y-76076727D01*
X170114325Y-76204023D01*
X170116349Y-76207528D01*
X170180217Y-76318150D01*
X170273403Y-76411336D01*
X170387531Y-76477228D01*
X170514825Y-76511336D01*
X170514827Y-76511336D01*
X170646607Y-76511336D01*
X170646609Y-76511336D01*
X170773903Y-76477228D01*
X170888031Y-76411336D01*
X170981217Y-76318150D01*
X171047109Y-76204022D01*
X171081217Y-76076728D01*
X171081217Y-75948449D01*
X172504052Y-75948449D01*
X172504052Y-76080232D01*
X172538160Y-76207528D01*
X172570025Y-76262719D01*
X172604052Y-76321655D01*
X172697238Y-76414841D01*
X172811366Y-76480733D01*
X172938660Y-76514841D01*
X172938662Y-76514841D01*
X173070442Y-76514841D01*
X173070444Y-76514841D01*
X173110366Y-76504144D01*
X182870217Y-76504144D01*
X182870217Y-76635927D01*
X182904325Y-76763223D01*
X182919517Y-76789536D01*
X182970217Y-76877350D01*
X183063403Y-76970536D01*
X183177531Y-77036428D01*
X183304825Y-77070536D01*
X183304827Y-77070536D01*
X183436607Y-77070536D01*
X183436609Y-77070536D01*
X183563903Y-77036428D01*
X183678031Y-76970536D01*
X183771217Y-76877350D01*
X183837109Y-76763222D01*
X183871217Y-76635928D01*
X183871217Y-76504144D01*
X183837109Y-76376850D01*
X183771217Y-76262722D01*
X183678031Y-76169536D01*
X183620967Y-76136590D01*
X183563904Y-76103644D01*
X183476527Y-76080232D01*
X183436609Y-76069536D01*
X183304825Y-76069536D01*
X183177529Y-76103644D01*
X183063403Y-76169536D01*
X183063400Y-76169538D01*
X182970219Y-76262719D01*
X182970217Y-76262722D01*
X182904325Y-76376848D01*
X182870217Y-76504144D01*
X173110366Y-76504144D01*
X173197738Y-76480733D01*
X173311866Y-76414841D01*
X173405052Y-76321655D01*
X173470944Y-76207527D01*
X173505052Y-76080233D01*
X173505052Y-75948449D01*
X173470944Y-75821155D01*
X173468920Y-75817650D01*
X173462115Y-75805862D01*
X173405052Y-75707027D01*
X173311866Y-75613841D01*
X173254802Y-75580895D01*
X173197739Y-75547949D01*
X173134091Y-75530895D01*
X173070444Y-75513841D01*
X172938660Y-75513841D01*
X172811364Y-75547949D01*
X172697238Y-75613841D01*
X172697235Y-75613843D01*
X172604054Y-75707024D01*
X172604052Y-75707027D01*
X172538160Y-75821153D01*
X172504052Y-75948449D01*
X171081217Y-75948449D01*
X171081217Y-75944944D01*
X171047109Y-75817650D01*
X170981217Y-75703522D01*
X170888031Y-75610336D01*
X170830967Y-75577390D01*
X170773904Y-75544444D01*
X170710256Y-75527390D01*
X170646609Y-75510336D01*
X170514825Y-75510336D01*
X170387529Y-75544444D01*
X170273403Y-75610336D01*
X170273400Y-75610338D01*
X170180219Y-75703519D01*
X170180217Y-75703522D01*
X170114325Y-75817648D01*
X170080217Y-75944944D01*
X162707741Y-75944944D01*
X162706928Y-74504144D01*
X166190217Y-74504144D01*
X166190217Y-74635928D01*
X166207261Y-74699536D01*
X166224325Y-74763223D01*
X166229768Y-74772650D01*
X166290217Y-74877350D01*
X166383403Y-74970536D01*
X166497531Y-75036428D01*
X166624825Y-75070536D01*
X166624827Y-75070536D01*
X166756607Y-75070536D01*
X166756609Y-75070536D01*
X166883903Y-75036428D01*
X166998031Y-74970536D01*
X167091217Y-74877350D01*
X167110013Y-74844793D01*
X167160578Y-74796580D01*
X167229185Y-74783356D01*
X167294050Y-74809324D01*
X167324785Y-74844792D01*
X167325365Y-74845796D01*
X167339913Y-74870994D01*
X167433099Y-74964180D01*
X167547227Y-75030072D01*
X167674521Y-75064180D01*
X167674523Y-75064180D01*
X167806303Y-75064180D01*
X167806305Y-75064180D01*
X167933599Y-75030072D01*
X168047727Y-74964180D01*
X168137612Y-74874294D01*
X168198931Y-74840812D01*
X168268623Y-74845796D01*
X168312971Y-74874297D01*
X168384210Y-74945536D01*
X168498338Y-75011428D01*
X168625632Y-75045536D01*
X168625634Y-75045536D01*
X168757414Y-75045536D01*
X168757416Y-75045536D01*
X168799932Y-75034144D01*
X182293917Y-75034144D01*
X182293917Y-75165927D01*
X182328025Y-75293223D01*
X182360971Y-75350286D01*
X182393917Y-75407350D01*
X182487103Y-75500536D01*
X182601231Y-75566428D01*
X182728525Y-75600536D01*
X182728527Y-75600536D01*
X182860307Y-75600536D01*
X182860309Y-75600536D01*
X182987603Y-75566428D01*
X183101731Y-75500536D01*
X183194917Y-75407350D01*
X183260809Y-75293222D01*
X183294917Y-75165928D01*
X183294917Y-75034144D01*
X183289539Y-75014072D01*
X183558783Y-75014072D01*
X183558783Y-75145855D01*
X183592891Y-75273151D01*
X183604480Y-75293223D01*
X183658783Y-75387278D01*
X183751969Y-75480464D01*
X183866097Y-75546356D01*
X183993391Y-75580464D01*
X183993393Y-75580464D01*
X184125173Y-75580464D01*
X184125175Y-75580464D01*
X184252469Y-75546356D01*
X184366597Y-75480464D01*
X184459783Y-75387278D01*
X184525675Y-75273150D01*
X184559783Y-75145856D01*
X184559783Y-75014072D01*
X184559782Y-75014070D01*
X184558722Y-75006016D01*
X184560533Y-75005777D01*
X184561950Y-74946119D01*
X184601110Y-74888255D01*
X184665337Y-74860748D01*
X184712159Y-74864095D01*
X184717399Y-74865500D01*
X184717400Y-74865500D01*
X184842599Y-74865500D01*
X184842601Y-74865500D01*
X184963536Y-74833095D01*
X185071964Y-74770495D01*
X185160495Y-74681964D01*
X185223095Y-74573536D01*
X185255500Y-74452601D01*
X185255500Y-74327399D01*
X185245500Y-74290079D01*
X185246109Y-74264460D01*
X185242728Y-74239050D01*
X185246926Y-74230107D01*
X185247161Y-74220232D01*
X185261528Y-74199003D01*
X185272420Y-74175803D01*
X185280784Y-74170550D01*
X185286322Y-74162369D01*
X185309885Y-74152277D01*
X185331592Y-74138648D01*
X185343764Y-74137769D01*
X185350550Y-74134863D01*
X185366577Y-74133993D01*
X185379793Y-74134131D01*
X185384899Y-74135500D01*
X185509957Y-74135500D01*
X185510623Y-74135507D01*
X185543449Y-74145521D01*
X185576359Y-74155185D01*
X185576802Y-74155696D01*
X185577452Y-74155895D01*
X185599687Y-74182107D01*
X185622114Y-74207989D01*
X185622210Y-74208658D01*
X185622650Y-74209177D01*
X185627182Y-74243239D01*
X185632058Y-74277147D01*
X185631837Y-74278221D01*
X185631866Y-74278436D01*
X185631737Y-74278710D01*
X185629094Y-74291595D01*
X185619500Y-74327396D01*
X185619500Y-74327398D01*
X185619500Y-74327399D01*
X185619500Y-74452601D01*
X185651905Y-74573536D01*
X185714505Y-74681964D01*
X185803036Y-74770495D01*
X185911464Y-74833095D01*
X186032399Y-74865500D01*
X186032401Y-74865500D01*
X186157599Y-74865500D01*
X186157601Y-74865500D01*
X186278536Y-74833095D01*
X186386964Y-74770495D01*
X186475495Y-74681964D01*
X186538095Y-74573536D01*
X186570500Y-74452601D01*
X186570500Y-74327399D01*
X186560500Y-74290079D01*
X186561109Y-74264460D01*
X186557728Y-74239050D01*
X186561926Y-74230107D01*
X186562161Y-74220232D01*
X186576528Y-74199003D01*
X186587420Y-74175803D01*
X186595784Y-74170550D01*
X186601322Y-74162369D01*
X186624885Y-74152277D01*
X186646592Y-74138648D01*
X186658764Y-74137769D01*
X186665550Y-74134863D01*
X186681577Y-74133993D01*
X186694793Y-74134131D01*
X186699899Y-74135500D01*
X186824957Y-74135500D01*
X186825623Y-74135507D01*
X186858449Y-74145521D01*
X186891359Y-74155185D01*
X186891802Y-74155696D01*
X186892452Y-74155895D01*
X186914687Y-74182107D01*
X186937114Y-74207989D01*
X186937210Y-74208658D01*
X186937650Y-74209177D01*
X186942182Y-74243239D01*
X186947058Y-74277147D01*
X186946837Y-74278221D01*
X186946866Y-74278436D01*
X186946737Y-74278710D01*
X186944094Y-74291595D01*
X186934500Y-74327396D01*
X186934500Y-74327398D01*
X186934500Y-74327399D01*
X186934500Y-74452601D01*
X186966905Y-74573536D01*
X187029505Y-74681964D01*
X187118036Y-74770495D01*
X187226464Y-74833095D01*
X187347399Y-74865500D01*
X187347401Y-74865500D01*
X187472599Y-74865500D01*
X187472601Y-74865500D01*
X187593536Y-74833095D01*
X187701964Y-74770495D01*
X187790495Y-74681964D01*
X187853095Y-74573536D01*
X187870817Y-74507399D01*
X191199500Y-74507399D01*
X191199500Y-74632601D01*
X191231905Y-74753536D01*
X191294505Y-74861964D01*
X191383036Y-74950495D01*
X191491464Y-75013095D01*
X191612399Y-75045500D01*
X191612401Y-75045500D01*
X191737599Y-75045500D01*
X191737601Y-75045500D01*
X191858536Y-75013095D01*
X191966964Y-74950495D01*
X192055495Y-74861964D01*
X192118095Y-74753536D01*
X192150500Y-74632601D01*
X192150500Y-74507399D01*
X192140500Y-74470079D01*
X192141109Y-74444460D01*
X192137728Y-74419050D01*
X192141926Y-74410107D01*
X192142161Y-74400232D01*
X192156528Y-74379003D01*
X192167420Y-74355803D01*
X192175784Y-74350550D01*
X192181322Y-74342369D01*
X192204885Y-74332277D01*
X192226592Y-74318648D01*
X192238764Y-74317769D01*
X192245550Y-74314863D01*
X192261577Y-74313993D01*
X192274793Y-74314131D01*
X192279899Y-74315500D01*
X192404957Y-74315500D01*
X192405623Y-74315507D01*
X192438449Y-74325521D01*
X192471359Y-74335185D01*
X192471802Y-74335696D01*
X192472452Y-74335895D01*
X192494687Y-74362107D01*
X192517114Y-74387989D01*
X192517210Y-74388658D01*
X192517650Y-74389177D01*
X192522182Y-74423239D01*
X192527058Y-74457147D01*
X192526837Y-74458221D01*
X192526866Y-74458436D01*
X192526737Y-74458710D01*
X192524094Y-74471595D01*
X192514500Y-74507396D01*
X192514500Y-74507398D01*
X192514500Y-74507399D01*
X192514500Y-74632601D01*
X192546905Y-74753536D01*
X192609505Y-74861964D01*
X192698036Y-74950495D01*
X192806464Y-75013095D01*
X192927399Y-75045500D01*
X192927401Y-75045500D01*
X193052599Y-75045500D01*
X193052601Y-75045500D01*
X193173536Y-75013095D01*
X193281964Y-74950495D01*
X193370495Y-74861964D01*
X193433095Y-74753536D01*
X193465500Y-74632601D01*
X193465500Y-74507399D01*
X193433095Y-74386464D01*
X193370495Y-74278036D01*
X193281964Y-74189505D01*
X193173536Y-74126905D01*
X193173537Y-74126905D01*
X193133224Y-74116103D01*
X193052601Y-74094500D01*
X192928180Y-74094500D01*
X192861141Y-74074815D01*
X192815386Y-74022011D01*
X192804583Y-73960511D01*
X192805490Y-73949288D01*
X192818000Y-73902601D01*
X192818000Y-73794497D01*
X192818403Y-73789511D01*
X192829196Y-73761370D01*
X192837685Y-73732461D01*
X192841578Y-73729087D01*
X192843424Y-73724275D01*
X192867720Y-73706435D01*
X192890489Y-73686706D01*
X192896316Y-73685438D01*
X192899742Y-73682923D01*
X192911138Y-73682213D01*
X192942000Y-73675500D01*
X193062599Y-73675500D01*
X193062601Y-73675500D01*
X193183536Y-73643095D01*
X193291964Y-73580495D01*
X193380495Y-73491964D01*
X193443095Y-73383536D01*
X193475500Y-73262601D01*
X193475500Y-73137399D01*
X193443095Y-73016464D01*
X193380495Y-72908036D01*
X193291964Y-72819505D01*
X193183536Y-72756905D01*
X193183537Y-72756905D01*
X193132844Y-72743322D01*
X193062601Y-72724500D01*
X192937399Y-72724500D01*
X192867156Y-72743322D01*
X192816463Y-72756905D01*
X192708037Y-72819504D01*
X192708034Y-72819506D01*
X192619506Y-72908034D01*
X192619504Y-72908037D01*
X192556905Y-73016463D01*
X192524500Y-73137400D01*
X192524500Y-73240500D01*
X192521949Y-73249185D01*
X192523238Y-73258147D01*
X192512259Y-73282187D01*
X192504815Y-73307539D01*
X192497974Y-73313466D01*
X192494213Y-73321703D01*
X192471978Y-73335992D01*
X192452011Y-73353294D01*
X192441496Y-73355581D01*
X192435435Y-73359477D01*
X192400500Y-73364500D01*
X192284500Y-73364500D01*
X192217461Y-73344815D01*
X192171706Y-73292011D01*
X192160500Y-73240500D01*
X192160500Y-73137400D01*
X192153697Y-73112011D01*
X192128095Y-73016464D01*
X192065495Y-72908036D01*
X191976964Y-72819505D01*
X191868536Y-72756905D01*
X191868537Y-72756905D01*
X191817844Y-72743322D01*
X191747601Y-72724500D01*
X191622399Y-72724500D01*
X191552156Y-72743322D01*
X191501463Y-72756905D01*
X191393037Y-72819504D01*
X191393034Y-72819506D01*
X191304506Y-72908034D01*
X191304504Y-72908037D01*
X191241905Y-73016463D01*
X191241905Y-73016464D01*
X191209500Y-73137399D01*
X191209500Y-73262601D01*
X191241905Y-73383536D01*
X191304505Y-73491964D01*
X191393036Y-73580495D01*
X191501464Y-73643095D01*
X191622399Y-73675500D01*
X191622401Y-73675500D01*
X191743000Y-73675500D01*
X191746720Y-73676592D01*
X191750501Y-73675727D01*
X191779980Y-73686358D01*
X191810039Y-73695185D01*
X191812577Y-73698114D01*
X191816227Y-73699431D01*
X191835282Y-73724317D01*
X191855794Y-73747989D01*
X191857028Y-73752717D01*
X191858704Y-73754906D01*
X191861442Y-73769626D01*
X191866581Y-73789310D01*
X191867000Y-73794391D01*
X191867000Y-73902601D01*
X191879889Y-73950702D01*
X191880806Y-73961823D01*
X191875913Y-73985551D01*
X191875337Y-74009769D01*
X191868985Y-74019153D01*
X191866697Y-74030253D01*
X191849752Y-74047570D01*
X191836175Y-74067631D01*
X191825759Y-74072091D01*
X191817832Y-74080193D01*
X191794214Y-74085600D01*
X191771947Y-74095136D01*
X191753051Y-74095024D01*
X191749724Y-74095786D01*
X191747520Y-74094991D01*
X191741045Y-74094953D01*
X191737603Y-74094500D01*
X191737601Y-74094500D01*
X191612399Y-74094500D01*
X191531775Y-74116103D01*
X191491463Y-74126905D01*
X191383037Y-74189504D01*
X191383034Y-74189506D01*
X191294506Y-74278034D01*
X191294504Y-74278037D01*
X191231905Y-74386463D01*
X191216365Y-74444460D01*
X191199500Y-74507399D01*
X187870817Y-74507399D01*
X187885500Y-74452601D01*
X187885500Y-74327399D01*
X187853095Y-74206464D01*
X187790495Y-74098036D01*
X187701964Y-74009505D01*
X187593536Y-73946905D01*
X187593537Y-73946905D01*
X187553224Y-73936103D01*
X187472601Y-73914500D01*
X187348180Y-73914500D01*
X187281141Y-73894815D01*
X187235386Y-73842011D01*
X187224583Y-73780511D01*
X187225490Y-73769288D01*
X187238000Y-73722601D01*
X187238000Y-73614497D01*
X187238403Y-73609511D01*
X187249196Y-73581370D01*
X187257685Y-73552461D01*
X187261578Y-73549087D01*
X187263424Y-73544275D01*
X187287720Y-73526435D01*
X187310489Y-73506706D01*
X187316316Y-73505438D01*
X187319742Y-73502923D01*
X187331138Y-73502213D01*
X187362000Y-73495500D01*
X187482599Y-73495500D01*
X187482601Y-73495500D01*
X187603536Y-73463095D01*
X187711964Y-73400495D01*
X187800495Y-73311964D01*
X187863095Y-73203536D01*
X187895500Y-73082601D01*
X187895500Y-72957399D01*
X187863095Y-72836464D01*
X187800495Y-72728036D01*
X187711964Y-72639505D01*
X187603536Y-72576905D01*
X187603537Y-72576905D01*
X187530564Y-72557352D01*
X187482601Y-72544500D01*
X187357399Y-72544500D01*
X187309436Y-72557352D01*
X187236463Y-72576905D01*
X187128037Y-72639504D01*
X187128034Y-72639506D01*
X187039506Y-72728034D01*
X187039504Y-72728037D01*
X186976905Y-72836463D01*
X186944500Y-72957400D01*
X186944500Y-73060500D01*
X186941949Y-73069185D01*
X186943238Y-73078147D01*
X186932259Y-73102187D01*
X186924815Y-73127539D01*
X186917974Y-73133466D01*
X186914213Y-73141703D01*
X186891978Y-73155992D01*
X186872011Y-73173294D01*
X186861496Y-73175581D01*
X186855435Y-73179477D01*
X186820500Y-73184500D01*
X186704500Y-73184500D01*
X186637461Y-73164815D01*
X186591706Y-73112011D01*
X186580500Y-73060500D01*
X186580500Y-72957400D01*
X186580500Y-72957399D01*
X186548095Y-72836464D01*
X186485495Y-72728036D01*
X186396964Y-72639505D01*
X186288536Y-72576905D01*
X186288537Y-72576905D01*
X186215564Y-72557352D01*
X186167601Y-72544500D01*
X186042399Y-72544500D01*
X185994436Y-72557352D01*
X185921463Y-72576905D01*
X185813037Y-72639504D01*
X185813034Y-72639506D01*
X185724506Y-72728034D01*
X185724504Y-72728037D01*
X185661905Y-72836463D01*
X185629500Y-72957400D01*
X185629500Y-73060500D01*
X185626949Y-73069185D01*
X185628238Y-73078147D01*
X185617259Y-73102187D01*
X185609815Y-73127539D01*
X185602974Y-73133466D01*
X185599213Y-73141703D01*
X185576978Y-73155992D01*
X185557011Y-73173294D01*
X185546496Y-73175581D01*
X185540435Y-73179477D01*
X185505500Y-73184500D01*
X185389500Y-73184500D01*
X185322461Y-73164815D01*
X185276706Y-73112011D01*
X185265500Y-73060500D01*
X185265500Y-72957400D01*
X185265500Y-72957399D01*
X185233095Y-72836464D01*
X185170495Y-72728036D01*
X185081964Y-72639505D01*
X184973536Y-72576905D01*
X184973537Y-72576905D01*
X184900564Y-72557352D01*
X184852601Y-72544500D01*
X184727399Y-72544500D01*
X184679436Y-72557352D01*
X184606463Y-72576905D01*
X184498037Y-72639504D01*
X184498034Y-72639506D01*
X184409506Y-72728034D01*
X184409504Y-72728037D01*
X184346905Y-72836463D01*
X184337775Y-72870536D01*
X184314500Y-72957399D01*
X184314500Y-73082601D01*
X184346905Y-73203536D01*
X184409505Y-73311964D01*
X184498036Y-73400495D01*
X184606464Y-73463095D01*
X184727399Y-73495500D01*
X184727401Y-73495500D01*
X184848000Y-73495500D01*
X184851720Y-73496592D01*
X184855501Y-73495727D01*
X184884980Y-73506358D01*
X184915039Y-73515185D01*
X184917577Y-73518114D01*
X184921227Y-73519431D01*
X184940282Y-73544317D01*
X184960794Y-73567989D01*
X184962028Y-73572717D01*
X184963704Y-73574906D01*
X184966442Y-73589626D01*
X184971581Y-73609310D01*
X184972000Y-73614391D01*
X184972000Y-73722601D01*
X184984889Y-73770702D01*
X184985806Y-73781823D01*
X184980913Y-73805551D01*
X184980337Y-73829769D01*
X184973985Y-73839153D01*
X184971697Y-73850253D01*
X184954752Y-73867570D01*
X184941175Y-73887631D01*
X184930759Y-73892091D01*
X184922832Y-73900193D01*
X184899214Y-73905600D01*
X184876947Y-73915136D01*
X184858051Y-73915024D01*
X184854724Y-73915786D01*
X184852520Y-73914991D01*
X184846045Y-73914953D01*
X184842603Y-73914500D01*
X184842601Y-73914500D01*
X184717399Y-73914500D01*
X184636775Y-73936103D01*
X184596463Y-73946905D01*
X184488037Y-74009504D01*
X184488034Y-74009506D01*
X184399506Y-74098034D01*
X184399504Y-74098037D01*
X184336905Y-74206463D01*
X184329414Y-74234419D01*
X184304501Y-74327398D01*
X184304500Y-74327400D01*
X184304500Y-74460729D01*
X184302463Y-74460729D01*
X184293376Y-74518963D01*
X184246991Y-74571215D01*
X184179720Y-74590094D01*
X184149116Y-74585879D01*
X184125175Y-74579464D01*
X183993391Y-74579464D01*
X183866095Y-74613572D01*
X183751969Y-74679464D01*
X183751966Y-74679466D01*
X183658785Y-74772647D01*
X183658783Y-74772650D01*
X183592891Y-74886776D01*
X183558783Y-75014072D01*
X183289539Y-75014072D01*
X183260809Y-74906850D01*
X183194917Y-74792722D01*
X183101731Y-74699536D01*
X183044667Y-74666590D01*
X182987604Y-74633644D01*
X182923956Y-74616590D01*
X182860309Y-74599536D01*
X182728525Y-74599536D01*
X182601229Y-74633644D01*
X182487103Y-74699536D01*
X182487100Y-74699538D01*
X182393919Y-74792719D01*
X182393917Y-74792722D01*
X182328025Y-74906848D01*
X182293917Y-75034144D01*
X168799932Y-75034144D01*
X168884710Y-75011428D01*
X168998838Y-74945536D01*
X169092024Y-74852350D01*
X169157916Y-74738222D01*
X169192024Y-74610928D01*
X169192024Y-74479144D01*
X169157916Y-74351850D01*
X169157165Y-74350550D01*
X169136059Y-74313993D01*
X169092024Y-74237722D01*
X168998838Y-74144536D01*
X168928011Y-74103644D01*
X168884711Y-74078644D01*
X168870420Y-74074815D01*
X168757416Y-74044536D01*
X168625632Y-74044536D01*
X168498336Y-74078644D01*
X168384210Y-74144536D01*
X168294327Y-74234419D01*
X168233003Y-74267903D01*
X168163312Y-74262919D01*
X168118965Y-74234418D01*
X168047729Y-74163182D01*
X168047727Y-74163180D01*
X167984897Y-74126905D01*
X167933600Y-74097288D01*
X167849728Y-74074815D01*
X167806305Y-74063180D01*
X167674521Y-74063180D01*
X167547225Y-74097288D01*
X167433099Y-74163180D01*
X167433096Y-74163182D01*
X167339915Y-74256363D01*
X167339911Y-74256369D01*
X167321116Y-74288922D01*
X167270548Y-74337137D01*
X167201941Y-74350358D01*
X167137076Y-74324389D01*
X167106344Y-74288921D01*
X167091221Y-74262728D01*
X167091218Y-74262725D01*
X167091217Y-74262722D01*
X166998031Y-74169536D01*
X166924192Y-74126905D01*
X166883904Y-74103644D01*
X166816561Y-74085600D01*
X166756609Y-74069536D01*
X166624825Y-74069536D01*
X166497529Y-74103644D01*
X166383403Y-74169536D01*
X166383400Y-74169538D01*
X166290219Y-74262719D01*
X166290217Y-74262722D01*
X166224325Y-74376848D01*
X166202522Y-74458221D01*
X166190217Y-74504144D01*
X162706928Y-74504144D01*
X162706620Y-73959144D01*
X181168917Y-73959144D01*
X181168917Y-74090928D01*
X181180456Y-74133993D01*
X181203025Y-74218223D01*
X181231708Y-74267903D01*
X181268917Y-74332350D01*
X181362103Y-74425536D01*
X181476231Y-74491428D01*
X181603525Y-74525536D01*
X181603527Y-74525536D01*
X181735307Y-74525536D01*
X181735309Y-74525536D01*
X181862603Y-74491428D01*
X181976731Y-74425536D01*
X182069917Y-74332350D01*
X182135809Y-74218222D01*
X182169917Y-74090928D01*
X182169917Y-73959144D01*
X182135809Y-73831850D01*
X182069917Y-73717722D01*
X181976731Y-73624536D01*
X181916265Y-73589626D01*
X181862604Y-73558644D01*
X181798956Y-73541590D01*
X181735309Y-73524536D01*
X181603525Y-73524536D01*
X181476229Y-73558644D01*
X181362103Y-73624536D01*
X181362100Y-73624538D01*
X181268919Y-73717719D01*
X181268917Y-73717722D01*
X181203025Y-73831848D01*
X181172196Y-73946905D01*
X181168917Y-73959144D01*
X162706620Y-73959144D01*
X162705619Y-72184144D01*
X172060217Y-72184144D01*
X172060217Y-72315927D01*
X172094325Y-72443223D01*
X172109853Y-72470118D01*
X172160217Y-72557350D01*
X172253403Y-72650536D01*
X172367531Y-72716428D01*
X172494825Y-72750536D01*
X172494827Y-72750536D01*
X172626607Y-72750536D01*
X172626609Y-72750536D01*
X172753903Y-72716428D01*
X172868031Y-72650536D01*
X172961217Y-72557350D01*
X173027109Y-72443222D01*
X173037580Y-72404144D01*
X174291024Y-72404144D01*
X174291024Y-72535928D01*
X174302004Y-72576905D01*
X174325132Y-72663223D01*
X174328777Y-72669536D01*
X174391024Y-72777350D01*
X174484210Y-72870536D01*
X174598338Y-72936428D01*
X174725632Y-72970536D01*
X174725634Y-72970536D01*
X174857414Y-72970536D01*
X174857416Y-72970536D01*
X174984710Y-72936428D01*
X175098696Y-72870618D01*
X176686537Y-72870618D01*
X176686537Y-73002401D01*
X176720645Y-73129697D01*
X176727577Y-73141703D01*
X176786537Y-73243824D01*
X176879723Y-73337010D01*
X176978558Y-73394073D01*
X176989678Y-73400493D01*
X176993851Y-73402902D01*
X177121145Y-73437010D01*
X177121147Y-73437010D01*
X177252927Y-73437010D01*
X177252929Y-73437010D01*
X177380223Y-73402902D01*
X177494351Y-73337010D01*
X177587537Y-73243824D01*
X177653429Y-73129696D01*
X177660276Y-73104144D01*
X179640217Y-73104144D01*
X179640217Y-73235928D01*
X179647364Y-73262601D01*
X179674325Y-73363223D01*
X179697234Y-73402901D01*
X179740217Y-73477350D01*
X179833403Y-73570536D01*
X179947531Y-73636428D01*
X180074825Y-73670536D01*
X180074827Y-73670536D01*
X180206607Y-73670536D01*
X180206609Y-73670536D01*
X180333903Y-73636428D01*
X180448031Y-73570536D01*
X180541217Y-73477350D01*
X180607109Y-73363222D01*
X180641217Y-73235928D01*
X180641217Y-73104144D01*
X180607109Y-72976850D01*
X180541217Y-72862722D01*
X180448031Y-72769536D01*
X180370027Y-72724500D01*
X180333904Y-72703644D01*
X180270256Y-72686590D01*
X180206609Y-72669536D01*
X180074825Y-72669536D01*
X179947529Y-72703644D01*
X179833403Y-72769536D01*
X179833400Y-72769538D01*
X179740219Y-72862719D01*
X179740217Y-72862722D01*
X179674325Y-72976848D01*
X179651911Y-73060500D01*
X179640217Y-73104144D01*
X177660276Y-73104144D01*
X177687537Y-73002402D01*
X177687537Y-72870618D01*
X177653429Y-72743324D01*
X177587537Y-72629196D01*
X177494351Y-72536010D01*
X177437287Y-72503064D01*
X177380224Y-72470118D01*
X177316576Y-72453064D01*
X177252929Y-72436010D01*
X177121145Y-72436010D01*
X176993849Y-72470118D01*
X176879723Y-72536010D01*
X176879720Y-72536012D01*
X176786539Y-72629193D01*
X176786537Y-72629196D01*
X176720645Y-72743322D01*
X176686537Y-72870618D01*
X175098696Y-72870618D01*
X175098838Y-72870536D01*
X175192024Y-72777350D01*
X175257916Y-72663222D01*
X175292024Y-72535928D01*
X175292024Y-72404144D01*
X175257916Y-72276850D01*
X175192024Y-72162722D01*
X175098838Y-72069536D01*
X175041774Y-72036590D01*
X174984711Y-72003644D01*
X174921063Y-71986590D01*
X174857416Y-71969536D01*
X174725632Y-71969536D01*
X174598336Y-72003644D01*
X174484210Y-72069536D01*
X174484207Y-72069538D01*
X174391026Y-72162719D01*
X174391024Y-72162722D01*
X174325132Y-72276848D01*
X174314662Y-72315925D01*
X174291024Y-72404144D01*
X173037580Y-72404144D01*
X173061217Y-72315928D01*
X173061217Y-72184144D01*
X173027109Y-72056850D01*
X172961217Y-71942722D01*
X172868031Y-71849536D01*
X172810967Y-71816590D01*
X172753904Y-71783644D01*
X172690256Y-71766590D01*
X172626609Y-71749536D01*
X172494825Y-71749536D01*
X172367529Y-71783644D01*
X172253403Y-71849536D01*
X172253400Y-71849538D01*
X172160219Y-71942719D01*
X172160217Y-71942722D01*
X172094325Y-72056848D01*
X172060217Y-72184144D01*
X162705619Y-72184144D01*
X162704552Y-70293956D01*
X174268916Y-70293956D01*
X174297757Y-70438943D01*
X174297760Y-70438953D01*
X174354329Y-70575524D01*
X174354336Y-70575537D01*
X174436465Y-70698451D01*
X174436468Y-70698455D01*
X174540997Y-70802984D01*
X174541001Y-70802987D01*
X174663915Y-70885116D01*
X174663928Y-70885123D01*
X174800499Y-70941692D01*
X174800504Y-70941694D01*
X174800508Y-70941694D01*
X174800509Y-70941695D01*
X174945496Y-70970536D01*
X174945499Y-70970536D01*
X175093337Y-70970536D01*
X175204361Y-70948451D01*
X175238330Y-70941694D01*
X175374912Y-70885120D01*
X175497833Y-70802987D01*
X175602368Y-70698452D01*
X175684501Y-70575531D01*
X175697580Y-70543956D01*
X180250216Y-70543956D01*
X180279057Y-70688943D01*
X180279060Y-70688953D01*
X180335629Y-70825524D01*
X180335636Y-70825537D01*
X180417765Y-70948451D01*
X180417768Y-70948455D01*
X180522297Y-71052984D01*
X180522301Y-71052987D01*
X180645215Y-71135116D01*
X180645228Y-71135123D01*
X180781799Y-71191692D01*
X180781804Y-71191694D01*
X180781808Y-71191694D01*
X180781809Y-71191695D01*
X180926796Y-71220536D01*
X180926799Y-71220536D01*
X181074637Y-71220536D01*
X181172179Y-71201132D01*
X181219630Y-71191694D01*
X181356212Y-71135120D01*
X181479133Y-71052987D01*
X181583668Y-70948452D01*
X181665801Y-70825531D01*
X181722375Y-70688949D01*
X181751217Y-70543954D01*
X181751217Y-70396118D01*
X181751217Y-70396115D01*
X181751216Y-70396113D01*
X181730798Y-70293462D01*
X181727602Y-70277399D01*
X186694500Y-70277399D01*
X186694500Y-70402601D01*
X186726905Y-70523536D01*
X186789505Y-70631964D01*
X186878036Y-70720495D01*
X186986464Y-70783095D01*
X187107399Y-70815500D01*
X187107401Y-70815500D01*
X187232599Y-70815500D01*
X187232601Y-70815500D01*
X187353536Y-70783095D01*
X187461964Y-70720495D01*
X187550495Y-70631964D01*
X187613095Y-70523536D01*
X187645500Y-70402601D01*
X187645500Y-70277399D01*
X187613095Y-70156464D01*
X187550495Y-70048036D01*
X187461964Y-69959505D01*
X187353536Y-69896905D01*
X187353537Y-69896905D01*
X187313224Y-69886103D01*
X187232601Y-69864500D01*
X187107399Y-69864500D01*
X187026775Y-69886103D01*
X186986463Y-69896905D01*
X186878037Y-69959504D01*
X186878034Y-69959506D01*
X186789506Y-70048034D01*
X186789504Y-70048037D01*
X186726905Y-70156463D01*
X186726905Y-70156464D01*
X186694500Y-70277399D01*
X181727602Y-70277399D01*
X181722376Y-70251127D01*
X181722373Y-70251118D01*
X181665804Y-70114547D01*
X181665797Y-70114534D01*
X181583668Y-69991620D01*
X181583665Y-69991616D01*
X181479136Y-69887087D01*
X181479132Y-69887084D01*
X181356218Y-69804955D01*
X181356205Y-69804948D01*
X181219634Y-69748379D01*
X181219624Y-69748376D01*
X181074637Y-69719536D01*
X181074635Y-69719536D01*
X180926799Y-69719536D01*
X180926797Y-69719536D01*
X180781809Y-69748376D01*
X180781799Y-69748379D01*
X180645228Y-69804948D01*
X180645215Y-69804955D01*
X180522301Y-69887084D01*
X180522297Y-69887087D01*
X180417768Y-69991616D01*
X180417765Y-69991620D01*
X180335636Y-70114534D01*
X180335629Y-70114547D01*
X180279060Y-70251118D01*
X180279057Y-70251128D01*
X180250217Y-70396115D01*
X180250217Y-70396118D01*
X180250217Y-70543954D01*
X180250217Y-70543956D01*
X180250216Y-70543956D01*
X175697580Y-70543956D01*
X175741075Y-70438949D01*
X175769917Y-70293954D01*
X175769917Y-70146118D01*
X175769917Y-70146115D01*
X175741076Y-70001128D01*
X175741075Y-70001127D01*
X175741075Y-70001123D01*
X175723837Y-69959506D01*
X175684504Y-69864547D01*
X175684497Y-69864534D01*
X175602368Y-69741620D01*
X175602365Y-69741616D01*
X175497836Y-69637087D01*
X175497832Y-69637084D01*
X175374918Y-69554955D01*
X175374905Y-69554948D01*
X175238334Y-69498379D01*
X175238324Y-69498376D01*
X175093337Y-69469536D01*
X175093335Y-69469536D01*
X174945499Y-69469536D01*
X174945497Y-69469536D01*
X174800509Y-69498376D01*
X174800499Y-69498379D01*
X174663928Y-69554948D01*
X174663915Y-69554955D01*
X174541001Y-69637084D01*
X174540997Y-69637087D01*
X174436468Y-69741616D01*
X174436465Y-69741620D01*
X174354336Y-69864534D01*
X174354329Y-69864547D01*
X174297760Y-70001118D01*
X174297757Y-70001128D01*
X174268917Y-70146115D01*
X174268917Y-70146118D01*
X174268917Y-70293954D01*
X174268917Y-70293956D01*
X174268916Y-70293956D01*
X162704552Y-70293956D01*
X162703720Y-68818956D01*
X172348916Y-68818956D01*
X172377757Y-68963943D01*
X172377760Y-68963953D01*
X172434329Y-69100524D01*
X172434336Y-69100537D01*
X172516465Y-69223451D01*
X172516468Y-69223455D01*
X172620997Y-69327984D01*
X172621001Y-69327987D01*
X172743915Y-69410116D01*
X172743928Y-69410123D01*
X172880499Y-69466692D01*
X172880504Y-69466694D01*
X172880508Y-69466694D01*
X172880509Y-69466695D01*
X173025496Y-69495536D01*
X173025499Y-69495536D01*
X173173337Y-69495536D01*
X173270879Y-69476132D01*
X173318330Y-69466694D01*
X173454912Y-69410120D01*
X173577833Y-69327987D01*
X173682368Y-69223452D01*
X173764501Y-69100531D01*
X173821075Y-68963949D01*
X173849917Y-68818954D01*
X173849917Y-68031882D01*
X173869602Y-67964843D01*
X173922406Y-67919088D01*
X173991564Y-67909144D01*
X174055120Y-67938169D01*
X174081302Y-67969880D01*
X174093683Y-67991324D01*
X174108909Y-68017697D01*
X174108912Y-68017701D01*
X174206752Y-68115541D01*
X174326581Y-68184724D01*
X174460234Y-68220536D01*
X174460236Y-68220536D01*
X174598598Y-68220536D01*
X174598600Y-68220536D01*
X174732253Y-68184724D01*
X174852082Y-68115541D01*
X174949922Y-68017701D01*
X175019105Y-67897872D01*
X175054917Y-67764219D01*
X175054917Y-67625853D01*
X179783917Y-67625853D01*
X179783917Y-67764218D01*
X179819729Y-67897871D01*
X179819730Y-67897874D01*
X179888909Y-68017697D01*
X179888911Y-68017700D01*
X179888912Y-68017701D01*
X179986752Y-68115541D01*
X180106581Y-68184724D01*
X180240234Y-68220536D01*
X180240236Y-68220536D01*
X180378598Y-68220536D01*
X180378600Y-68220536D01*
X180512253Y-68184724D01*
X180632082Y-68115541D01*
X180729922Y-68017701D01*
X180757530Y-67969881D01*
X180808096Y-67921667D01*
X180876703Y-67908443D01*
X180941568Y-67934411D01*
X180982097Y-67991324D01*
X180988917Y-68031882D01*
X180988917Y-68818954D01*
X180988917Y-68818956D01*
X180988916Y-68818956D01*
X181017757Y-68963943D01*
X181017760Y-68963953D01*
X181074329Y-69100524D01*
X181074336Y-69100537D01*
X181156465Y-69223451D01*
X181156468Y-69223455D01*
X181260997Y-69327984D01*
X181261001Y-69327987D01*
X181383915Y-69410116D01*
X181383928Y-69410123D01*
X181520499Y-69466692D01*
X181520504Y-69466694D01*
X181520508Y-69466694D01*
X181520509Y-69466695D01*
X181665496Y-69495536D01*
X181665499Y-69495536D01*
X181813337Y-69495536D01*
X181910879Y-69476132D01*
X181958330Y-69466694D01*
X182094912Y-69410120D01*
X182217833Y-69327987D01*
X182322368Y-69223452D01*
X182404501Y-69100531D01*
X182461075Y-68963949D01*
X182489917Y-68818954D01*
X182489917Y-67571118D01*
X182489917Y-67571115D01*
X182461076Y-67426128D01*
X182461075Y-67426127D01*
X182461075Y-67426123D01*
X182461073Y-67426118D01*
X182404504Y-67289547D01*
X182404497Y-67289534D01*
X182322368Y-67166620D01*
X182322365Y-67166616D01*
X182217836Y-67062087D01*
X182217832Y-67062084D01*
X182094918Y-66979955D01*
X182094905Y-66979948D01*
X181958334Y-66923379D01*
X181958324Y-66923376D01*
X181813337Y-66894536D01*
X181813335Y-66894536D01*
X181665499Y-66894536D01*
X181665497Y-66894536D01*
X181520509Y-66923376D01*
X181520499Y-66923379D01*
X181383928Y-66979948D01*
X181383915Y-66979955D01*
X181261001Y-67062084D01*
X181260997Y-67062087D01*
X181156468Y-67166616D01*
X181156465Y-67166620D01*
X181074336Y-67289534D01*
X181074329Y-67289547D01*
X181017760Y-67426118D01*
X181017757Y-67426128D01*
X181016227Y-67433821D01*
X180983838Y-67495730D01*
X180923120Y-67530300D01*
X180853351Y-67526556D01*
X180796681Y-67485686D01*
X180787224Y-67471622D01*
X180729922Y-67372371D01*
X180632082Y-67274531D01*
X180632081Y-67274530D01*
X180632078Y-67274528D01*
X180512255Y-67205349D01*
X180512254Y-67205348D01*
X180512253Y-67205348D01*
X180378600Y-67169536D01*
X180240234Y-67169536D01*
X180106581Y-67205348D01*
X180106578Y-67205349D01*
X179986755Y-67274528D01*
X179986750Y-67274532D01*
X179888913Y-67372369D01*
X179888909Y-67372374D01*
X179819730Y-67492197D01*
X179819729Y-67492200D01*
X179783917Y-67625853D01*
X175054917Y-67625853D01*
X175019105Y-67492200D01*
X174984513Y-67432285D01*
X174949924Y-67372374D01*
X174949923Y-67372372D01*
X174949922Y-67372371D01*
X174852082Y-67274531D01*
X174852081Y-67274530D01*
X174852078Y-67274528D01*
X174732255Y-67205349D01*
X174732254Y-67205348D01*
X174732253Y-67205348D01*
X174598600Y-67169536D01*
X174460234Y-67169536D01*
X174326581Y-67205348D01*
X174326578Y-67205349D01*
X174206755Y-67274528D01*
X174206750Y-67274532D01*
X174108913Y-67372369D01*
X174108909Y-67372374D01*
X174051609Y-67471622D01*
X174001042Y-67519838D01*
X173932435Y-67533061D01*
X173867570Y-67507093D01*
X173827042Y-67450178D01*
X173822604Y-67433812D01*
X173821075Y-67426123D01*
X173821073Y-67426118D01*
X173764504Y-67289547D01*
X173764497Y-67289534D01*
X173682368Y-67166620D01*
X173682365Y-67166616D01*
X173577836Y-67062087D01*
X173577832Y-67062084D01*
X173454918Y-66979955D01*
X173454905Y-66979948D01*
X173318334Y-66923379D01*
X173318324Y-66923376D01*
X173173337Y-66894536D01*
X173173335Y-66894536D01*
X173025499Y-66894536D01*
X173025497Y-66894536D01*
X172880509Y-66923376D01*
X172880499Y-66923379D01*
X172743928Y-66979948D01*
X172743915Y-66979955D01*
X172621001Y-67062084D01*
X172620997Y-67062087D01*
X172516468Y-67166616D01*
X172516465Y-67166620D01*
X172434336Y-67289534D01*
X172434329Y-67289547D01*
X172377760Y-67426118D01*
X172377757Y-67426128D01*
X172348917Y-67571115D01*
X172348917Y-67571118D01*
X172348917Y-68818954D01*
X172348917Y-68818956D01*
X172348916Y-68818956D01*
X162703720Y-68818956D01*
X162702482Y-66624144D01*
X167180217Y-66624144D01*
X167180217Y-66755927D01*
X167214325Y-66883223D01*
X167220857Y-66894536D01*
X167280217Y-66997350D01*
X167373403Y-67090536D01*
X167487531Y-67156428D01*
X167614825Y-67190536D01*
X167614827Y-67190536D01*
X167746607Y-67190536D01*
X167746609Y-67190536D01*
X167873903Y-67156428D01*
X167988031Y-67090536D01*
X168081217Y-66997350D01*
X168147109Y-66883222D01*
X168181217Y-66755928D01*
X168181217Y-66624144D01*
X168147109Y-66496850D01*
X168081217Y-66382722D01*
X167988031Y-66289536D01*
X167930967Y-66256590D01*
X167873904Y-66223644D01*
X167810256Y-66206590D01*
X167746609Y-66189536D01*
X167614825Y-66189536D01*
X167487529Y-66223644D01*
X167373403Y-66289536D01*
X167373400Y-66289538D01*
X167280219Y-66382719D01*
X167280217Y-66382722D01*
X167214325Y-66496848D01*
X167180217Y-66624144D01*
X162702482Y-66624144D01*
X162701277Y-64488956D01*
X172348916Y-64488956D01*
X172377757Y-64633943D01*
X172377760Y-64633953D01*
X172434329Y-64770524D01*
X172434336Y-64770537D01*
X172516465Y-64893451D01*
X172516468Y-64893455D01*
X172620997Y-64997984D01*
X172621001Y-64997987D01*
X172743915Y-65080116D01*
X172743928Y-65080123D01*
X172880499Y-65136692D01*
X172880504Y-65136694D01*
X172880508Y-65136694D01*
X172880509Y-65136695D01*
X173025496Y-65165536D01*
X173025499Y-65165536D01*
X173173337Y-65165536D01*
X173270879Y-65146132D01*
X173318330Y-65136694D01*
X173454912Y-65080120D01*
X173577833Y-64997987D01*
X173682368Y-64893452D01*
X173764501Y-64770531D01*
X173821075Y-64633949D01*
X173849917Y-64488956D01*
X180988916Y-64488956D01*
X181017757Y-64633943D01*
X181017760Y-64633953D01*
X181074329Y-64770524D01*
X181074336Y-64770537D01*
X181156465Y-64893451D01*
X181156468Y-64893455D01*
X181260997Y-64997984D01*
X181261001Y-64997987D01*
X181383915Y-65080116D01*
X181383928Y-65080123D01*
X181520499Y-65136692D01*
X181520504Y-65136694D01*
X181520508Y-65136694D01*
X181520509Y-65136695D01*
X181665496Y-65165536D01*
X181665499Y-65165536D01*
X181813337Y-65165536D01*
X181910879Y-65146132D01*
X181958330Y-65136694D01*
X182094912Y-65080120D01*
X182217833Y-64997987D01*
X182322368Y-64893452D01*
X182404501Y-64770531D01*
X182461075Y-64633949D01*
X182489917Y-64488954D01*
X182489917Y-63541118D01*
X182489917Y-63541115D01*
X182461076Y-63396128D01*
X182461075Y-63396127D01*
X182461075Y-63396123D01*
X182440269Y-63345892D01*
X182404504Y-63259547D01*
X182404497Y-63259534D01*
X182374144Y-63214108D01*
X185819500Y-63214108D01*
X185819500Y-63345891D01*
X185853608Y-63473187D01*
X185886554Y-63530250D01*
X185919500Y-63587314D01*
X186012686Y-63680500D01*
X186126814Y-63746392D01*
X186254108Y-63780500D01*
X186254110Y-63780500D01*
X186385890Y-63780500D01*
X186385892Y-63780500D01*
X186513186Y-63746392D01*
X186627314Y-63680500D01*
X186720500Y-63587314D01*
X186786392Y-63473186D01*
X186820500Y-63345892D01*
X186820500Y-63214108D01*
X189419500Y-63214108D01*
X189419500Y-63345891D01*
X189453608Y-63473187D01*
X189486554Y-63530250D01*
X189519500Y-63587314D01*
X189612686Y-63680500D01*
X189726814Y-63746392D01*
X189854108Y-63780500D01*
X189854110Y-63780500D01*
X189985890Y-63780500D01*
X189985892Y-63780500D01*
X190113186Y-63746392D01*
X190227314Y-63680500D01*
X190320500Y-63587314D01*
X190386392Y-63473186D01*
X190420500Y-63345892D01*
X190420500Y-63214108D01*
X190386392Y-63086814D01*
X190320500Y-62972686D01*
X190227314Y-62879500D01*
X190170250Y-62846554D01*
X190113187Y-62813608D01*
X190049539Y-62796554D01*
X189985892Y-62779500D01*
X189854108Y-62779500D01*
X189726812Y-62813608D01*
X189612686Y-62879500D01*
X189612683Y-62879502D01*
X189519502Y-62972683D01*
X189519500Y-62972686D01*
X189453608Y-63086812D01*
X189419500Y-63214108D01*
X186820500Y-63214108D01*
X186786392Y-63086814D01*
X186720500Y-62972686D01*
X186627314Y-62879500D01*
X186570250Y-62846554D01*
X186513187Y-62813608D01*
X186449539Y-62796554D01*
X186385892Y-62779500D01*
X186254108Y-62779500D01*
X186126812Y-62813608D01*
X186012686Y-62879500D01*
X186012683Y-62879502D01*
X185919502Y-62972683D01*
X185919500Y-62972686D01*
X185853608Y-63086812D01*
X185819500Y-63214108D01*
X182374144Y-63214108D01*
X182322368Y-63136620D01*
X182322365Y-63136616D01*
X182217836Y-63032087D01*
X182217832Y-63032084D01*
X182094918Y-62949955D01*
X182094905Y-62949948D01*
X181958334Y-62893379D01*
X181958324Y-62893376D01*
X181813337Y-62864536D01*
X181813335Y-62864536D01*
X181665499Y-62864536D01*
X181665497Y-62864536D01*
X181520509Y-62893376D01*
X181520499Y-62893379D01*
X181383928Y-62949948D01*
X181383915Y-62949955D01*
X181261001Y-63032084D01*
X181260997Y-63032087D01*
X181156468Y-63136616D01*
X181156465Y-63136620D01*
X181074336Y-63259534D01*
X181074329Y-63259547D01*
X181017760Y-63396118D01*
X181017757Y-63396128D01*
X180988917Y-63541115D01*
X180988917Y-63541118D01*
X180988917Y-64488954D01*
X180988917Y-64488956D01*
X180988916Y-64488956D01*
X173849917Y-64488956D01*
X173849917Y-64488954D01*
X173849917Y-63541118D01*
X173849917Y-63541115D01*
X173821076Y-63396128D01*
X173821075Y-63396127D01*
X173821075Y-63396123D01*
X173800269Y-63345892D01*
X173764504Y-63259547D01*
X173764497Y-63259534D01*
X173682368Y-63136620D01*
X173682365Y-63136616D01*
X173577836Y-63032087D01*
X173577832Y-63032084D01*
X173454918Y-62949955D01*
X173454905Y-62949948D01*
X173318334Y-62893379D01*
X173318324Y-62893376D01*
X173173337Y-62864536D01*
X173173335Y-62864536D01*
X173025499Y-62864536D01*
X173025497Y-62864536D01*
X172880509Y-62893376D01*
X172880499Y-62893379D01*
X172743928Y-62949948D01*
X172743915Y-62949955D01*
X172621001Y-63032084D01*
X172620997Y-63032087D01*
X172516468Y-63136616D01*
X172516465Y-63136620D01*
X172434336Y-63259534D01*
X172434329Y-63259547D01*
X172377760Y-63396118D01*
X172377757Y-63396128D01*
X172348917Y-63541115D01*
X172348917Y-63541118D01*
X172348917Y-64488954D01*
X172348917Y-64488956D01*
X172348916Y-64488956D01*
X162701277Y-64488956D01*
X162699582Y-61484569D01*
X162719229Y-61417519D01*
X162772007Y-61371735D01*
X162823582Y-61360500D01*
X193944588Y-61360500D01*
X193955394Y-61360972D01*
G37*
%TD.AperFunction*%
%TD*%
%TA.AperFunction,Conductor*%
%TO.N,/12V*%
G36*
X161613994Y-61380185D02*
G01*
X161659749Y-61432989D01*
X161670954Y-61484453D01*
X161671157Y-62033080D01*
X161681984Y-91414236D01*
X161681985Y-91414237D01*
X164074941Y-93811937D01*
X165728103Y-93815820D01*
X165795095Y-93835662D01*
X165840726Y-93888574D01*
X165850507Y-93957755D01*
X165847587Y-93971907D01*
X165822000Y-94067399D01*
X165822000Y-94192601D01*
X165854405Y-94313536D01*
X165917005Y-94421964D01*
X166005536Y-94510495D01*
X166113964Y-94573095D01*
X166234899Y-94605500D01*
X166234901Y-94605500D01*
X166360099Y-94605500D01*
X166360101Y-94605500D01*
X166481036Y-94573095D01*
X166589464Y-94510495D01*
X166677995Y-94421964D01*
X166740595Y-94313536D01*
X166773000Y-94192601D01*
X166773000Y-94067399D01*
X166748131Y-93974588D01*
X166749794Y-93904742D01*
X166788956Y-93846879D01*
X166853184Y-93819374D01*
X166868173Y-93818498D01*
X172940794Y-93832763D01*
X173007784Y-93852604D01*
X173053415Y-93905516D01*
X173064500Y-93956762D01*
X173064500Y-94032601D01*
X173096905Y-94153536D01*
X173159505Y-94261964D01*
X173248036Y-94350495D01*
X173356464Y-94413095D01*
X173477399Y-94445500D01*
X173477401Y-94445500D01*
X173602599Y-94445500D01*
X173602601Y-94445500D01*
X173723536Y-94413095D01*
X173831964Y-94350495D01*
X173920495Y-94261964D01*
X173983095Y-94153536D01*
X174015500Y-94032601D01*
X174015500Y-93959579D01*
X174035185Y-93892540D01*
X174087989Y-93846785D01*
X174139788Y-93835579D01*
X180144927Y-93849685D01*
X180211918Y-93869527D01*
X180257549Y-93922439D01*
X180267330Y-93991620D01*
X180264408Y-94005779D01*
X180234500Y-94117399D01*
X180234500Y-94242601D01*
X180266905Y-94363536D01*
X180329505Y-94471964D01*
X180418036Y-94560495D01*
X180526464Y-94623095D01*
X180647399Y-94655500D01*
X180647401Y-94655500D01*
X180772599Y-94655500D01*
X180772601Y-94655500D01*
X180893536Y-94623095D01*
X181001964Y-94560495D01*
X181090495Y-94471964D01*
X181153095Y-94363536D01*
X181185500Y-94242601D01*
X181185500Y-94117399D01*
X181156302Y-94008432D01*
X181156900Y-93983300D01*
X181153381Y-93958407D01*
X181157717Y-93948969D01*
X181157965Y-93938587D01*
X181172055Y-93917767D01*
X181182555Y-93894919D01*
X181191306Y-93889323D01*
X181197127Y-93880724D01*
X181220237Y-93870827D01*
X181241422Y-93857283D01*
X181257012Y-93855078D01*
X181261355Y-93853219D01*
X181276344Y-93852343D01*
X181459103Y-93852772D01*
X181526091Y-93872613D01*
X181571722Y-93925524D01*
X181581503Y-93994706D01*
X181578582Y-94008865D01*
X181577755Y-94011952D01*
X181549500Y-94117399D01*
X181549500Y-94242601D01*
X181581905Y-94363536D01*
X181644505Y-94471964D01*
X181733036Y-94560495D01*
X181841464Y-94623095D01*
X181962399Y-94655500D01*
X181962401Y-94655500D01*
X182087599Y-94655500D01*
X182087601Y-94655500D01*
X182208536Y-94623095D01*
X182316964Y-94560495D01*
X182405495Y-94471964D01*
X182468095Y-94363536D01*
X182500500Y-94242601D01*
X182500500Y-94117399D01*
X182472131Y-94011526D01*
X182472729Y-93986395D01*
X182469209Y-93961498D01*
X182473545Y-93952060D01*
X182473793Y-93941678D01*
X182487885Y-93920855D01*
X182498383Y-93898011D01*
X182507132Y-93892417D01*
X182512954Y-93883815D01*
X182536068Y-93873916D01*
X182557250Y-93860374D01*
X182572840Y-93858169D01*
X182577183Y-93856310D01*
X182592174Y-93855434D01*
X182773276Y-93855859D01*
X182840264Y-93875700D01*
X182885895Y-93928611D01*
X182895676Y-93997793D01*
X182892755Y-94011950D01*
X182864500Y-94117399D01*
X182864500Y-94242601D01*
X182896905Y-94363536D01*
X182959505Y-94471964D01*
X183048036Y-94560495D01*
X183156464Y-94623095D01*
X183277399Y-94655500D01*
X183277401Y-94655500D01*
X183402599Y-94655500D01*
X183402601Y-94655500D01*
X183523536Y-94623095D01*
X183631964Y-94560495D01*
X183720495Y-94471964D01*
X183783095Y-94363536D01*
X183815500Y-94242601D01*
X183815500Y-94117399D01*
X183787959Y-94014616D01*
X183789622Y-93944769D01*
X183828784Y-93886907D01*
X183893012Y-93859402D01*
X183908021Y-93858525D01*
X194825795Y-93884171D01*
X194892784Y-93904012D01*
X194938415Y-93956924D01*
X194949500Y-94008170D01*
X194949500Y-107174586D01*
X194949028Y-107185394D01*
X194936241Y-107331542D01*
X194934330Y-107344927D01*
X194928501Y-107374229D01*
X194926659Y-107382129D01*
X194893222Y-107506918D01*
X194888009Y-107522275D01*
X194880989Y-107539224D01*
X194878809Y-107544179D01*
X194820177Y-107669915D01*
X194809370Y-107688633D01*
X194721880Y-107813582D01*
X194707986Y-107830140D01*
X194600140Y-107937986D01*
X194583582Y-107951880D01*
X194458633Y-108039370D01*
X194439915Y-108050177D01*
X194314179Y-108108809D01*
X194309224Y-108110989D01*
X194292275Y-108118009D01*
X194276918Y-108123222D01*
X194152129Y-108156659D01*
X194144229Y-108158501D01*
X194114927Y-108164330D01*
X194101542Y-108166241D01*
X193955395Y-108179028D01*
X193944587Y-108179500D01*
X143175413Y-108179500D01*
X143164605Y-108179028D01*
X143018456Y-108166241D01*
X143005071Y-108164330D01*
X142975769Y-108158501D01*
X142967869Y-108156659D01*
X142843080Y-108123222D01*
X142827723Y-108118009D01*
X142810774Y-108110989D01*
X142805819Y-108108809D01*
X142680084Y-108050177D01*
X142661366Y-108039370D01*
X142536417Y-107951880D01*
X142519859Y-107937986D01*
X142412013Y-107830140D01*
X142398119Y-107813582D01*
X142310629Y-107688633D01*
X142299822Y-107669916D01*
X142269292Y-107604445D01*
X142241169Y-107544134D01*
X142239009Y-107539224D01*
X142231989Y-107522275D01*
X142226776Y-107506918D01*
X142208829Y-107439938D01*
X142193334Y-107382109D01*
X142191501Y-107374247D01*
X142185665Y-107344907D01*
X142183760Y-107331564D01*
X142170972Y-107185394D01*
X142170500Y-107174588D01*
X142170500Y-105066228D01*
X158919500Y-105066228D01*
X158919500Y-105233771D01*
X158952182Y-105398074D01*
X158952184Y-105398082D01*
X159016295Y-105552860D01*
X159109373Y-105692162D01*
X159227837Y-105810626D01*
X159320494Y-105872537D01*
X159367137Y-105903703D01*
X159521918Y-105967816D01*
X159647824Y-105992860D01*
X159686228Y-106000499D01*
X159686232Y-106000500D01*
X159686233Y-106000500D01*
X159853768Y-106000500D01*
X159853769Y-106000499D01*
X160018082Y-105967816D01*
X160172863Y-105903703D01*
X160312162Y-105810626D01*
X160430626Y-105692162D01*
X160523703Y-105552863D01*
X160543020Y-105506228D01*
X179759500Y-105506228D01*
X179759500Y-105673771D01*
X179792182Y-105838074D01*
X179792184Y-105838082D01*
X179856295Y-105992860D01*
X179949373Y-106132162D01*
X180067837Y-106250626D01*
X180160494Y-106312537D01*
X180207137Y-106343703D01*
X180361918Y-106407816D01*
X180526228Y-106440499D01*
X180526232Y-106440500D01*
X180526233Y-106440500D01*
X180693768Y-106440500D01*
X180693769Y-106440499D01*
X180858082Y-106407816D01*
X181012863Y-106343703D01*
X181152162Y-106250626D01*
X181270626Y-106132162D01*
X181363703Y-105992863D01*
X181427816Y-105838082D01*
X181460500Y-105673767D01*
X181460500Y-105506233D01*
X181427816Y-105341918D01*
X181363703Y-105187137D01*
X181332537Y-105140494D01*
X181270626Y-105047837D01*
X181152162Y-104929373D01*
X181012860Y-104836295D01*
X180858082Y-104772184D01*
X180858074Y-104772182D01*
X180693771Y-104739500D01*
X180693767Y-104739500D01*
X180526233Y-104739500D01*
X180526228Y-104739500D01*
X180361925Y-104772182D01*
X180361917Y-104772184D01*
X180207139Y-104836295D01*
X180067837Y-104929373D01*
X179949373Y-105047837D01*
X179856295Y-105187139D01*
X179792184Y-105341917D01*
X179792182Y-105341925D01*
X179759500Y-105506228D01*
X160543020Y-105506228D01*
X160587816Y-105398082D01*
X160620500Y-105233767D01*
X160620500Y-105066233D01*
X160587816Y-104901918D01*
X160523703Y-104747137D01*
X160491070Y-104698298D01*
X160430626Y-104607837D01*
X160312162Y-104489373D01*
X160172860Y-104396295D01*
X160018082Y-104332184D01*
X160018074Y-104332182D01*
X159853771Y-104299500D01*
X159853767Y-104299500D01*
X159686233Y-104299500D01*
X159686228Y-104299500D01*
X159521925Y-104332182D01*
X159521917Y-104332184D01*
X159367139Y-104396295D01*
X159227837Y-104489373D01*
X159109373Y-104607837D01*
X159016295Y-104747139D01*
X158952184Y-104901917D01*
X158952182Y-104901925D01*
X158919500Y-105066228D01*
X142170500Y-105066228D01*
X142170500Y-100475171D01*
X153652100Y-100475171D01*
X153652100Y-103104828D01*
X153691984Y-103305336D01*
X153691987Y-103305348D01*
X153770223Y-103494228D01*
X153770225Y-103494232D01*
X153883806Y-103664218D01*
X153883812Y-103664226D01*
X154028373Y-103808787D01*
X154028381Y-103808793D01*
X154198367Y-103922374D01*
X154198371Y-103922376D01*
X154297413Y-103963400D01*
X154387256Y-104000614D01*
X154587771Y-104040499D01*
X154587774Y-104040500D01*
X154587776Y-104040500D01*
X154792226Y-104040500D01*
X154792227Y-104040499D01*
X154992744Y-104000614D01*
X155153005Y-103934232D01*
X155181628Y-103922376D01*
X155181632Y-103922374D01*
X155303001Y-103841278D01*
X155351623Y-103808790D01*
X155496190Y-103664223D01*
X155575968Y-103544826D01*
X155609774Y-103494232D01*
X155609776Y-103494228D01*
X155665467Y-103359777D01*
X155688014Y-103305344D01*
X155712040Y-103184556D01*
X155744424Y-103122646D01*
X155805140Y-103088072D01*
X155874909Y-103091811D01*
X155931582Y-103132677D01*
X155956130Y-103189350D01*
X155974299Y-103304063D01*
X156036921Y-103496792D01*
X156128919Y-103677348D01*
X156248020Y-103841278D01*
X156248024Y-103841283D01*
X156391316Y-103984575D01*
X156391321Y-103984579D01*
X156555251Y-104103680D01*
X156735805Y-104195678D01*
X156928527Y-104258298D01*
X156980000Y-104266450D01*
X156980000Y-103461579D01*
X157024115Y-103487050D01*
X157159777Y-103523400D01*
X157300223Y-103523400D01*
X157435885Y-103487050D01*
X157480000Y-103461579D01*
X157480000Y-104266449D01*
X157531472Y-104258298D01*
X157724194Y-104195678D01*
X157904748Y-104103680D01*
X158068678Y-103984579D01*
X158068683Y-103984575D01*
X158211975Y-103841283D01*
X158211979Y-103841278D01*
X158331080Y-103677348D01*
X158423078Y-103496792D01*
X158485700Y-103304063D01*
X158485701Y-103304062D01*
X158503869Y-103189351D01*
X158533798Y-103126216D01*
X158593109Y-103089284D01*
X158662972Y-103090282D01*
X158721205Y-103128891D01*
X158747959Y-103184556D01*
X158771984Y-103305338D01*
X158771987Y-103305348D01*
X158850223Y-103494228D01*
X158850225Y-103494232D01*
X158963806Y-103664218D01*
X158963812Y-103664226D01*
X159108373Y-103808787D01*
X159108381Y-103808793D01*
X159278367Y-103922374D01*
X159278371Y-103922376D01*
X159377413Y-103963400D01*
X159467256Y-104000614D01*
X159667771Y-104040499D01*
X159667774Y-104040500D01*
X159667776Y-104040500D01*
X159872226Y-104040500D01*
X159872227Y-104040499D01*
X160072744Y-104000614D01*
X160233005Y-103934232D01*
X160261628Y-103922376D01*
X160261632Y-103922374D01*
X160383001Y-103841278D01*
X160431623Y-103808790D01*
X160576190Y-103664223D01*
X160655968Y-103544826D01*
X160689774Y-103494232D01*
X160689776Y-103494228D01*
X160745467Y-103359777D01*
X160768014Y-103305344D01*
X160807900Y-103104824D01*
X160807900Y-100475176D01*
X160807900Y-100475173D01*
X160807899Y-100475171D01*
X161272100Y-100475171D01*
X161272100Y-103104828D01*
X161311984Y-103305336D01*
X161311987Y-103305348D01*
X161390223Y-103494228D01*
X161390225Y-103494232D01*
X161503806Y-103664218D01*
X161503812Y-103664226D01*
X161648373Y-103808787D01*
X161648381Y-103808793D01*
X161818367Y-103922374D01*
X161818371Y-103922376D01*
X161917413Y-103963400D01*
X162007256Y-104000614D01*
X162207771Y-104040499D01*
X162207774Y-104040500D01*
X162207776Y-104040500D01*
X162412226Y-104040500D01*
X162412227Y-104040499D01*
X162612744Y-104000614D01*
X162773005Y-103934232D01*
X162801628Y-103922376D01*
X162801632Y-103922374D01*
X162923001Y-103841278D01*
X162971623Y-103808790D01*
X163116190Y-103664223D01*
X163195968Y-103544826D01*
X163229774Y-103494232D01*
X163229776Y-103494228D01*
X163285467Y-103359777D01*
X163308014Y-103305344D01*
X163347900Y-103104824D01*
X163347900Y-100915171D01*
X174492100Y-100915171D01*
X174492100Y-103544828D01*
X174531984Y-103745336D01*
X174531987Y-103745348D01*
X174610223Y-103934228D01*
X174610225Y-103934232D01*
X174723806Y-104104218D01*
X174723812Y-104104226D01*
X174868373Y-104248787D01*
X174868381Y-104248793D01*
X175038367Y-104362374D01*
X175038371Y-104362376D01*
X175188534Y-104424575D01*
X175227256Y-104440614D01*
X175427771Y-104480499D01*
X175427774Y-104480500D01*
X175427776Y-104480500D01*
X175632226Y-104480500D01*
X175632227Y-104480499D01*
X175832744Y-104440614D01*
X176021630Y-104362375D01*
X176021632Y-104362374D01*
X176143001Y-104281278D01*
X176191623Y-104248790D01*
X176336190Y-104104223D01*
X176416136Y-103984575D01*
X176449774Y-103934232D01*
X176449776Y-103934228D01*
X176488277Y-103841278D01*
X176528014Y-103745344D01*
X176552040Y-103624556D01*
X176584424Y-103562646D01*
X176645140Y-103528072D01*
X176714909Y-103531811D01*
X176771582Y-103572677D01*
X176796130Y-103629350D01*
X176814299Y-103744063D01*
X176876921Y-103936792D01*
X176968919Y-104117348D01*
X177088020Y-104281278D01*
X177088024Y-104281283D01*
X177231316Y-104424575D01*
X177231321Y-104424579D01*
X177395251Y-104543680D01*
X177575805Y-104635678D01*
X177768527Y-104698298D01*
X177820000Y-104706450D01*
X177820000Y-103901579D01*
X177864115Y-103927050D01*
X177999777Y-103963400D01*
X178140223Y-103963400D01*
X178275885Y-103927050D01*
X178320000Y-103901579D01*
X178320000Y-104706449D01*
X178371472Y-104698298D01*
X178564194Y-104635678D01*
X178744748Y-104543680D01*
X178908678Y-104424579D01*
X178908683Y-104424575D01*
X179051975Y-104281283D01*
X179051979Y-104281278D01*
X179171080Y-104117348D01*
X179263078Y-103936792D01*
X179325700Y-103744063D01*
X179325701Y-103744062D01*
X179343869Y-103629351D01*
X179373798Y-103566216D01*
X179433109Y-103529284D01*
X179502972Y-103530282D01*
X179561205Y-103568891D01*
X179587959Y-103624556D01*
X179611984Y-103745338D01*
X179611987Y-103745348D01*
X179690223Y-103934228D01*
X179690225Y-103934232D01*
X179803806Y-104104218D01*
X179803812Y-104104226D01*
X179948373Y-104248787D01*
X179948381Y-104248793D01*
X180118367Y-104362374D01*
X180118371Y-104362376D01*
X180268534Y-104424575D01*
X180307256Y-104440614D01*
X180507771Y-104480499D01*
X180507774Y-104480500D01*
X180507776Y-104480500D01*
X180712226Y-104480500D01*
X180712227Y-104480499D01*
X180912744Y-104440614D01*
X181101630Y-104362375D01*
X181101632Y-104362374D01*
X181223001Y-104281278D01*
X181271623Y-104248790D01*
X181416190Y-104104223D01*
X181496136Y-103984575D01*
X181529774Y-103934232D01*
X181529776Y-103934228D01*
X181568277Y-103841278D01*
X181608014Y-103745344D01*
X181647900Y-103544824D01*
X181647900Y-100915176D01*
X181647900Y-100915173D01*
X181647899Y-100915171D01*
X182112100Y-100915171D01*
X182112100Y-103544828D01*
X182151984Y-103745336D01*
X182151987Y-103745348D01*
X182230223Y-103934228D01*
X182230225Y-103934232D01*
X182343806Y-104104218D01*
X182343812Y-104104226D01*
X182488373Y-104248787D01*
X182488381Y-104248793D01*
X182658367Y-104362374D01*
X182658371Y-104362376D01*
X182808534Y-104424575D01*
X182847256Y-104440614D01*
X183047771Y-104480499D01*
X183047774Y-104480500D01*
X183047776Y-104480500D01*
X183252226Y-104480500D01*
X183252227Y-104480499D01*
X183452744Y-104440614D01*
X183641630Y-104362375D01*
X183641632Y-104362374D01*
X183763001Y-104281278D01*
X183811623Y-104248790D01*
X183956190Y-104104223D01*
X184036136Y-103984575D01*
X184069774Y-103934232D01*
X184069776Y-103934228D01*
X184108277Y-103841278D01*
X184148014Y-103745344D01*
X184187900Y-103544824D01*
X184187900Y-100915176D01*
X184187900Y-100915173D01*
X184187899Y-100915171D01*
X184171086Y-100830648D01*
X184148014Y-100714656D01*
X184148012Y-100714651D01*
X184069776Y-100525771D01*
X184069774Y-100525767D01*
X183956193Y-100355781D01*
X183956187Y-100355773D01*
X183811626Y-100211212D01*
X183811618Y-100211206D01*
X183641632Y-100097625D01*
X183641628Y-100097623D01*
X183452748Y-100019387D01*
X183452736Y-100019384D01*
X183252227Y-99979500D01*
X183252224Y-99979500D01*
X183047776Y-99979500D01*
X183047773Y-99979500D01*
X182847263Y-100019384D01*
X182847251Y-100019387D01*
X182658371Y-100097623D01*
X182658367Y-100097625D01*
X182488381Y-100211206D01*
X182488373Y-100211212D01*
X182343812Y-100355773D01*
X182343806Y-100355781D01*
X182230225Y-100525767D01*
X182230223Y-100525771D01*
X182151987Y-100714651D01*
X182151984Y-100714663D01*
X182112100Y-100915171D01*
X181647899Y-100915171D01*
X181631086Y-100830648D01*
X181608014Y-100714656D01*
X181608012Y-100714651D01*
X181529776Y-100525771D01*
X181529774Y-100525767D01*
X181416193Y-100355781D01*
X181416187Y-100355773D01*
X181271626Y-100211212D01*
X181271618Y-100211206D01*
X181101632Y-100097625D01*
X181101628Y-100097623D01*
X180912748Y-100019387D01*
X180912736Y-100019384D01*
X180712227Y-99979500D01*
X180712224Y-99979500D01*
X180507776Y-99979500D01*
X180507773Y-99979500D01*
X180307263Y-100019384D01*
X180307251Y-100019387D01*
X180118371Y-100097623D01*
X180118367Y-100097625D01*
X179948381Y-100211206D01*
X179948373Y-100211212D01*
X179803812Y-100355773D01*
X179803806Y-100355781D01*
X179690225Y-100525767D01*
X179690223Y-100525771D01*
X179611987Y-100714651D01*
X179611984Y-100714661D01*
X179587959Y-100835443D01*
X179555574Y-100897354D01*
X179494858Y-100931928D01*
X179425088Y-100928188D01*
X179368417Y-100887321D01*
X179343869Y-100830648D01*
X179325701Y-100715937D01*
X179325700Y-100715936D01*
X179263078Y-100523207D01*
X179171080Y-100342651D01*
X179051979Y-100178721D01*
X179051975Y-100178716D01*
X178908683Y-100035424D01*
X178908678Y-100035420D01*
X178744748Y-99916319D01*
X178564192Y-99824321D01*
X178371463Y-99761699D01*
X178320000Y-99753548D01*
X178320000Y-102958420D01*
X178275885Y-102932950D01*
X178140223Y-102896600D01*
X177999777Y-102896600D01*
X177864115Y-102932950D01*
X177820000Y-102958420D01*
X177820000Y-99753548D01*
X177819999Y-99753548D01*
X177768536Y-99761699D01*
X177575807Y-99824321D01*
X177395251Y-99916319D01*
X177231321Y-100035420D01*
X177231316Y-100035424D01*
X177088024Y-100178716D01*
X177088020Y-100178721D01*
X176968919Y-100342651D01*
X176876921Y-100523207D01*
X176814299Y-100715936D01*
X176796130Y-100830649D01*
X176766200Y-100893784D01*
X176706889Y-100930715D01*
X176637026Y-100929717D01*
X176578794Y-100891107D01*
X176552040Y-100835442D01*
X176546583Y-100808008D01*
X176528014Y-100714656D01*
X176528012Y-100714651D01*
X176449776Y-100525771D01*
X176449774Y-100525767D01*
X176336193Y-100355781D01*
X176336187Y-100355773D01*
X176191626Y-100211212D01*
X176191618Y-100211206D01*
X176021632Y-100097625D01*
X176021628Y-100097623D01*
X175832748Y-100019387D01*
X175832736Y-100019384D01*
X175632227Y-99979500D01*
X175632224Y-99979500D01*
X175427776Y-99979500D01*
X175427773Y-99979500D01*
X175227263Y-100019384D01*
X175227251Y-100019387D01*
X175038371Y-100097623D01*
X175038367Y-100097625D01*
X174868381Y-100211206D01*
X174868373Y-100211212D01*
X174723812Y-100355773D01*
X174723806Y-100355781D01*
X174610225Y-100525767D01*
X174610223Y-100525771D01*
X174531987Y-100714651D01*
X174531984Y-100714663D01*
X174492100Y-100915171D01*
X163347900Y-100915171D01*
X163347900Y-100475176D01*
X163347900Y-100475173D01*
X163347899Y-100475171D01*
X163321539Y-100342651D01*
X163308014Y-100274656D01*
X163281732Y-100211206D01*
X163229776Y-100085771D01*
X163229774Y-100085767D01*
X163116193Y-99915781D01*
X163116187Y-99915773D01*
X162971626Y-99771212D01*
X162971618Y-99771206D01*
X162801632Y-99657625D01*
X162801628Y-99657623D01*
X162612748Y-99579387D01*
X162612736Y-99579384D01*
X162412227Y-99539500D01*
X162412224Y-99539500D01*
X162207776Y-99539500D01*
X162207773Y-99539500D01*
X162007263Y-99579384D01*
X162007251Y-99579387D01*
X161818371Y-99657623D01*
X161818367Y-99657625D01*
X161648381Y-99771206D01*
X161648373Y-99771212D01*
X161503812Y-99915773D01*
X161503806Y-99915781D01*
X161390225Y-100085767D01*
X161390223Y-100085771D01*
X161311987Y-100274651D01*
X161311984Y-100274663D01*
X161272100Y-100475171D01*
X160807899Y-100475171D01*
X160781539Y-100342651D01*
X160768014Y-100274656D01*
X160741732Y-100211206D01*
X160689776Y-100085771D01*
X160689774Y-100085767D01*
X160576193Y-99915781D01*
X160576187Y-99915773D01*
X160431626Y-99771212D01*
X160431618Y-99771206D01*
X160261632Y-99657625D01*
X160261628Y-99657623D01*
X160072748Y-99579387D01*
X160072736Y-99579384D01*
X159872227Y-99539500D01*
X159872224Y-99539500D01*
X159667776Y-99539500D01*
X159667773Y-99539500D01*
X159467263Y-99579384D01*
X159467251Y-99579387D01*
X159278371Y-99657623D01*
X159278367Y-99657625D01*
X159108381Y-99771206D01*
X159108373Y-99771212D01*
X158963812Y-99915773D01*
X158963806Y-99915781D01*
X158850225Y-100085767D01*
X158850223Y-100085771D01*
X158771987Y-100274651D01*
X158771984Y-100274661D01*
X158747959Y-100395443D01*
X158715574Y-100457354D01*
X158654858Y-100491928D01*
X158585088Y-100488188D01*
X158528417Y-100447321D01*
X158503869Y-100390648D01*
X158485701Y-100275937D01*
X158485700Y-100275936D01*
X158423078Y-100083207D01*
X158331080Y-99902651D01*
X158211979Y-99738721D01*
X158211975Y-99738716D01*
X158068683Y-99595424D01*
X158068678Y-99595420D01*
X157904748Y-99476319D01*
X157724192Y-99384321D01*
X157531463Y-99321699D01*
X157480000Y-99313548D01*
X157480000Y-102518420D01*
X157435885Y-102492950D01*
X157300223Y-102456600D01*
X157159777Y-102456600D01*
X157024115Y-102492950D01*
X156980000Y-102518420D01*
X156980000Y-99313548D01*
X156979999Y-99313548D01*
X156928536Y-99321699D01*
X156735807Y-99384321D01*
X156555251Y-99476319D01*
X156391321Y-99595420D01*
X156391316Y-99595424D01*
X156248024Y-99738716D01*
X156248020Y-99738721D01*
X156128919Y-99902651D01*
X156036921Y-100083207D01*
X155974299Y-100275936D01*
X155956130Y-100390649D01*
X155926200Y-100453784D01*
X155866889Y-100490715D01*
X155797026Y-100489717D01*
X155738794Y-100451107D01*
X155712040Y-100395442D01*
X155701539Y-100342651D01*
X155688014Y-100274656D01*
X155661732Y-100211206D01*
X155609776Y-100085771D01*
X155609774Y-100085767D01*
X155496193Y-99915781D01*
X155496187Y-99915773D01*
X155351626Y-99771212D01*
X155351618Y-99771206D01*
X155181632Y-99657625D01*
X155181628Y-99657623D01*
X154992748Y-99579387D01*
X154992736Y-99579384D01*
X154792227Y-99539500D01*
X154792224Y-99539500D01*
X154587776Y-99539500D01*
X154587773Y-99539500D01*
X154387263Y-99579384D01*
X154387251Y-99579387D01*
X154198371Y-99657623D01*
X154198367Y-99657625D01*
X154028381Y-99771206D01*
X154028373Y-99771212D01*
X153883812Y-99915773D01*
X153883806Y-99915781D01*
X153770225Y-100085767D01*
X153770223Y-100085771D01*
X153691987Y-100274651D01*
X153691984Y-100274663D01*
X153652100Y-100475171D01*
X142170500Y-100475171D01*
X142170500Y-98707399D01*
X157734500Y-98707399D01*
X157734500Y-98832601D01*
X157766905Y-98953536D01*
X157829505Y-99061964D01*
X157918036Y-99150495D01*
X158026464Y-99213095D01*
X158147399Y-99245500D01*
X158147401Y-99245500D01*
X158272599Y-99245500D01*
X158272601Y-99245500D01*
X158393536Y-99213095D01*
X158501964Y-99150495D01*
X158590495Y-99061964D01*
X158653095Y-98953536D01*
X158685500Y-98832601D01*
X158685500Y-98717399D01*
X160294500Y-98717399D01*
X160294500Y-98842601D01*
X160326905Y-98963536D01*
X160389505Y-99071964D01*
X160478036Y-99160495D01*
X160586464Y-99223095D01*
X160707399Y-99255500D01*
X160707401Y-99255500D01*
X160832599Y-99255500D01*
X160832601Y-99255500D01*
X160953536Y-99223095D01*
X161061964Y-99160495D01*
X161150495Y-99071964D01*
X161213095Y-98963536D01*
X161245500Y-98842601D01*
X161245500Y-98717399D01*
X161242820Y-98707399D01*
X162914500Y-98707399D01*
X162914500Y-98832601D01*
X162946905Y-98953536D01*
X163009505Y-99061964D01*
X163098036Y-99150495D01*
X163206464Y-99213095D01*
X163327399Y-99245500D01*
X163327401Y-99245500D01*
X163452599Y-99245500D01*
X163452601Y-99245500D01*
X163573536Y-99213095D01*
X163681964Y-99150495D01*
X163770495Y-99061964D01*
X163833095Y-98953536D01*
X163865500Y-98832601D01*
X163865500Y-98727399D01*
X178554500Y-98727399D01*
X178554500Y-98852601D01*
X178586905Y-98973536D01*
X178649505Y-99081964D01*
X178738036Y-99170495D01*
X178846464Y-99233095D01*
X178967399Y-99265500D01*
X178967401Y-99265500D01*
X179092599Y-99265500D01*
X179092601Y-99265500D01*
X179213536Y-99233095D01*
X179321964Y-99170495D01*
X179410495Y-99081964D01*
X179473095Y-98973536D01*
X179505500Y-98852601D01*
X179505500Y-98727399D01*
X179500141Y-98707399D01*
X181194500Y-98707399D01*
X181194500Y-98832601D01*
X181226905Y-98953536D01*
X181289505Y-99061964D01*
X181378036Y-99150495D01*
X181486464Y-99213095D01*
X181607399Y-99245500D01*
X181607401Y-99245500D01*
X181732599Y-99245500D01*
X181732601Y-99245500D01*
X181853536Y-99213095D01*
X181961964Y-99150495D01*
X182050495Y-99061964D01*
X182113095Y-98953536D01*
X182145500Y-98832601D01*
X182145500Y-98737399D01*
X183734500Y-98737399D01*
X183734500Y-98862601D01*
X183766905Y-98983536D01*
X183829505Y-99091964D01*
X183918036Y-99180495D01*
X184026464Y-99243095D01*
X184147399Y-99275500D01*
X184147401Y-99275500D01*
X184272599Y-99275500D01*
X184272601Y-99275500D01*
X184393536Y-99243095D01*
X184501964Y-99180495D01*
X184590495Y-99091964D01*
X184653095Y-98983536D01*
X184685500Y-98862601D01*
X184685500Y-98737399D01*
X184653095Y-98616464D01*
X184590495Y-98508036D01*
X184501964Y-98419505D01*
X184393536Y-98356905D01*
X184393537Y-98356905D01*
X184353224Y-98346103D01*
X184272601Y-98324500D01*
X184147399Y-98324500D01*
X184066775Y-98346103D01*
X184026463Y-98356905D01*
X183918037Y-98419504D01*
X183918034Y-98419506D01*
X183829506Y-98508034D01*
X183829504Y-98508037D01*
X183766905Y-98616463D01*
X183766905Y-98616464D01*
X183734500Y-98737399D01*
X182145500Y-98737399D01*
X182145500Y-98707399D01*
X182113095Y-98586464D01*
X182050495Y-98478036D01*
X181961964Y-98389505D01*
X181853536Y-98326905D01*
X181853537Y-98326905D01*
X181807241Y-98314500D01*
X181732601Y-98294500D01*
X181607399Y-98294500D01*
X181532759Y-98314500D01*
X181486463Y-98326905D01*
X181378037Y-98389504D01*
X181378034Y-98389506D01*
X181289506Y-98478034D01*
X181289504Y-98478037D01*
X181226905Y-98586463D01*
X181226905Y-98586464D01*
X181194500Y-98707399D01*
X179500141Y-98707399D01*
X179473095Y-98606464D01*
X179410495Y-98498036D01*
X179321964Y-98409505D01*
X179213536Y-98346905D01*
X179213537Y-98346905D01*
X179173224Y-98336103D01*
X179092601Y-98314500D01*
X178967399Y-98314500D01*
X178886775Y-98336103D01*
X178846463Y-98346905D01*
X178738037Y-98409504D01*
X178738034Y-98409506D01*
X178649506Y-98498034D01*
X178649504Y-98498037D01*
X178586905Y-98606463D01*
X178586905Y-98606464D01*
X178554500Y-98727399D01*
X163865500Y-98727399D01*
X163865500Y-98707399D01*
X163833095Y-98586464D01*
X163770495Y-98478036D01*
X163681964Y-98389505D01*
X163573536Y-98326905D01*
X163573537Y-98326905D01*
X163527241Y-98314500D01*
X163452601Y-98294500D01*
X163327399Y-98294500D01*
X163252759Y-98314500D01*
X163206463Y-98326905D01*
X163098037Y-98389504D01*
X163098034Y-98389506D01*
X163009506Y-98478034D01*
X163009504Y-98478037D01*
X162946905Y-98586463D01*
X162946905Y-98586464D01*
X162914500Y-98707399D01*
X161242820Y-98707399D01*
X161213095Y-98596464D01*
X161150495Y-98488036D01*
X161061964Y-98399505D01*
X160953536Y-98336905D01*
X160953537Y-98336905D01*
X160907241Y-98324500D01*
X160832601Y-98304500D01*
X160707399Y-98304500D01*
X160632759Y-98324500D01*
X160586463Y-98336905D01*
X160478037Y-98399504D01*
X160478034Y-98399506D01*
X160389506Y-98488034D01*
X160389504Y-98488037D01*
X160326905Y-98596463D01*
X160326905Y-98596464D01*
X160294500Y-98717399D01*
X158685500Y-98717399D01*
X158685500Y-98707399D01*
X158653095Y-98586464D01*
X158590495Y-98478036D01*
X158501964Y-98389505D01*
X158393536Y-98326905D01*
X158393537Y-98326905D01*
X158347241Y-98314500D01*
X158272601Y-98294500D01*
X158147399Y-98294500D01*
X158072759Y-98314500D01*
X158026463Y-98326905D01*
X157918037Y-98389504D01*
X157918034Y-98389506D01*
X157829506Y-98478034D01*
X157829504Y-98478037D01*
X157766905Y-98586463D01*
X157766905Y-98586464D01*
X157734500Y-98707399D01*
X142170500Y-98707399D01*
X142170500Y-97647399D01*
X161904500Y-97647399D01*
X161904500Y-97772601D01*
X161936905Y-97893536D01*
X161999505Y-98001964D01*
X162088036Y-98090495D01*
X162196464Y-98153095D01*
X162317399Y-98185500D01*
X162317401Y-98185500D01*
X162442599Y-98185500D01*
X162442601Y-98185500D01*
X162563536Y-98153095D01*
X162671964Y-98090495D01*
X162760495Y-98001964D01*
X162823095Y-97893536D01*
X162855500Y-97772601D01*
X162855500Y-97647399D01*
X162823095Y-97526464D01*
X162817861Y-97517399D01*
X180114500Y-97517399D01*
X180114500Y-97642601D01*
X180146905Y-97763536D01*
X180209505Y-97871964D01*
X180298036Y-97960495D01*
X180406464Y-98023095D01*
X180527399Y-98055500D01*
X180527401Y-98055500D01*
X180652599Y-98055500D01*
X180652601Y-98055500D01*
X180773536Y-98023095D01*
X180881964Y-97960495D01*
X180970495Y-97871964D01*
X181033095Y-97763536D01*
X181065500Y-97642601D01*
X181065500Y-97517399D01*
X181033095Y-97396464D01*
X180970495Y-97288036D01*
X180881964Y-97199505D01*
X180773536Y-97136905D01*
X180773537Y-97136905D01*
X180733224Y-97126103D01*
X180652601Y-97104500D01*
X180527399Y-97104500D01*
X180446775Y-97126103D01*
X180406463Y-97136905D01*
X180298037Y-97199504D01*
X180298034Y-97199506D01*
X180209506Y-97288034D01*
X180209504Y-97288037D01*
X180146905Y-97396463D01*
X180146905Y-97396464D01*
X180114500Y-97517399D01*
X162817861Y-97517399D01*
X162760495Y-97418036D01*
X162671964Y-97329505D01*
X162563536Y-97266905D01*
X162563537Y-97266905D01*
X162523224Y-97256103D01*
X162442601Y-97234500D01*
X162317399Y-97234500D01*
X162236775Y-97256103D01*
X162196463Y-97266905D01*
X162088037Y-97329504D01*
X162088034Y-97329506D01*
X161999506Y-97418034D01*
X161999504Y-97418037D01*
X161936905Y-97526463D01*
X161936905Y-97526464D01*
X161904500Y-97647399D01*
X142170500Y-97647399D01*
X142170500Y-95967399D01*
X163332000Y-95967399D01*
X163332000Y-96092601D01*
X163364405Y-96213536D01*
X163427005Y-96321964D01*
X163515536Y-96410495D01*
X163623964Y-96473095D01*
X163744899Y-96505500D01*
X163744901Y-96505500D01*
X163870099Y-96505500D01*
X163870101Y-96505500D01*
X163991036Y-96473095D01*
X164099464Y-96410495D01*
X164187995Y-96321964D01*
X164250595Y-96213536D01*
X164283000Y-96092601D01*
X164283000Y-95967399D01*
X164250595Y-95846464D01*
X164187995Y-95738036D01*
X164099464Y-95649505D01*
X163991036Y-95586905D01*
X163991037Y-95586905D01*
X163950724Y-95576103D01*
X163870101Y-95554500D01*
X163744899Y-95554500D01*
X163664275Y-95576103D01*
X163623963Y-95586905D01*
X163515537Y-95649504D01*
X163515534Y-95649506D01*
X163427006Y-95738034D01*
X163427004Y-95738037D01*
X163364405Y-95846463D01*
X163364405Y-95846464D01*
X163332000Y-95967399D01*
X142170500Y-95967399D01*
X142170500Y-93997399D01*
X159934500Y-93997399D01*
X159934500Y-94122601D01*
X159966905Y-94243536D01*
X160029505Y-94351964D01*
X160118036Y-94440495D01*
X160226464Y-94503095D01*
X160347399Y-94535500D01*
X160347401Y-94535500D01*
X160472599Y-94535500D01*
X160472601Y-94535500D01*
X160593536Y-94503095D01*
X160701964Y-94440495D01*
X160790495Y-94351964D01*
X160853095Y-94243536D01*
X160885500Y-94122601D01*
X160885500Y-93997399D01*
X161249500Y-93997399D01*
X161249500Y-94122601D01*
X161281905Y-94243536D01*
X161344505Y-94351964D01*
X161433036Y-94440495D01*
X161541464Y-94503095D01*
X161662399Y-94535500D01*
X161662401Y-94535500D01*
X161787599Y-94535500D01*
X161787601Y-94535500D01*
X161908536Y-94503095D01*
X162016964Y-94440495D01*
X162105495Y-94351964D01*
X162168095Y-94243536D01*
X162200500Y-94122601D01*
X162200500Y-93997399D01*
X162564500Y-93997399D01*
X162564500Y-94122601D01*
X162596905Y-94243536D01*
X162659505Y-94351964D01*
X162748036Y-94440495D01*
X162856464Y-94503095D01*
X162977399Y-94535500D01*
X162977401Y-94535500D01*
X163102599Y-94535500D01*
X163102601Y-94535500D01*
X163223536Y-94503095D01*
X163331964Y-94440495D01*
X163420495Y-94351964D01*
X163483095Y-94243536D01*
X163515500Y-94122601D01*
X163515500Y-93997399D01*
X163483095Y-93876464D01*
X163420495Y-93768036D01*
X163331964Y-93679505D01*
X163223536Y-93616905D01*
X163223537Y-93616905D01*
X163183224Y-93606103D01*
X163102601Y-93584500D01*
X162977399Y-93584500D01*
X162896775Y-93606103D01*
X162856463Y-93616905D01*
X162748037Y-93679504D01*
X162748034Y-93679506D01*
X162659506Y-93768034D01*
X162659504Y-93768037D01*
X162596905Y-93876463D01*
X162594935Y-93883815D01*
X162564500Y-93997399D01*
X162200500Y-93997399D01*
X162168095Y-93876464D01*
X162105495Y-93768036D01*
X162016964Y-93679505D01*
X161908536Y-93616905D01*
X161908537Y-93616905D01*
X161868224Y-93606103D01*
X161787601Y-93584500D01*
X161662399Y-93584500D01*
X161581775Y-93606103D01*
X161541463Y-93616905D01*
X161433037Y-93679504D01*
X161433034Y-93679506D01*
X161344506Y-93768034D01*
X161344504Y-93768037D01*
X161281905Y-93876463D01*
X161279935Y-93883815D01*
X161249500Y-93997399D01*
X160885500Y-93997399D01*
X160853095Y-93876464D01*
X160790495Y-93768036D01*
X160701964Y-93679505D01*
X160593536Y-93616905D01*
X160593537Y-93616905D01*
X160553224Y-93606103D01*
X160472601Y-93584500D01*
X160347399Y-93584500D01*
X160266775Y-93606103D01*
X160226463Y-93616905D01*
X160118037Y-93679504D01*
X160118034Y-93679506D01*
X160029506Y-93768034D01*
X160029504Y-93768037D01*
X159966905Y-93876463D01*
X159964935Y-93883815D01*
X159934500Y-93997399D01*
X142170500Y-93997399D01*
X142170500Y-73343905D01*
X146010000Y-73343905D01*
X146010000Y-73606094D01*
X146044220Y-73866009D01*
X146044222Y-73866020D01*
X146112075Y-74119255D01*
X146212404Y-74361471D01*
X146212409Y-74361482D01*
X146343488Y-74588516D01*
X146343494Y-74588524D01*
X146430080Y-74701365D01*
X147255884Y-73875561D01*
X147256740Y-73877626D01*
X147349762Y-74016844D01*
X147468156Y-74135238D01*
X147607374Y-74228260D01*
X147609437Y-74229114D01*
X146783633Y-75054917D01*
X146783633Y-75054918D01*
X146896475Y-75141505D01*
X146896483Y-75141511D01*
X147123517Y-75272590D01*
X147123528Y-75272595D01*
X147365744Y-75372924D01*
X147618979Y-75440777D01*
X147618990Y-75440779D01*
X147878905Y-75474999D01*
X147878920Y-75475000D01*
X148141080Y-75475000D01*
X148141094Y-75474999D01*
X148401009Y-75440779D01*
X148401020Y-75440777D01*
X148654255Y-75372924D01*
X148896471Y-75272595D01*
X148896482Y-75272590D01*
X149123516Y-75141511D01*
X149123534Y-75141499D01*
X149236365Y-75054919D01*
X149236365Y-75054917D01*
X148410562Y-74229114D01*
X148412626Y-74228260D01*
X148551844Y-74135238D01*
X148670238Y-74016844D01*
X148763260Y-73877626D01*
X148764114Y-73875562D01*
X149589917Y-74701365D01*
X149589919Y-74701365D01*
X149676499Y-74588534D01*
X149676511Y-74588516D01*
X149807590Y-74361482D01*
X149807595Y-74361471D01*
X149907924Y-74119255D01*
X149975777Y-73866020D01*
X149975779Y-73866009D01*
X150009999Y-73606094D01*
X150010000Y-73606080D01*
X150010000Y-73360258D01*
X151259500Y-73360258D01*
X151259500Y-73589741D01*
X151284207Y-73777399D01*
X151289452Y-73817238D01*
X151302520Y-73866009D01*
X151348842Y-74038887D01*
X151436650Y-74250876D01*
X151436657Y-74250890D01*
X151483688Y-74332350D01*
X151520072Y-74395370D01*
X151551392Y-74449617D01*
X151691081Y-74631661D01*
X151691089Y-74631670D01*
X151853330Y-74793911D01*
X151853338Y-74793918D01*
X152035382Y-74933607D01*
X152035385Y-74933608D01*
X152035388Y-74933611D01*
X152234112Y-75048344D01*
X152234117Y-75048346D01*
X152234123Y-75048349D01*
X152272343Y-75064180D01*
X152446113Y-75136158D01*
X152667762Y-75195548D01*
X152884312Y-75224057D01*
X152894255Y-75225367D01*
X152895266Y-75225500D01*
X152895273Y-75225500D01*
X153124727Y-75225500D01*
X153124734Y-75225500D01*
X153352238Y-75195548D01*
X153573887Y-75136158D01*
X153785888Y-75048344D01*
X153984612Y-74933611D01*
X154166661Y-74793919D01*
X154166665Y-74793914D01*
X154166670Y-74793911D01*
X154328911Y-74631670D01*
X154328914Y-74631665D01*
X154328919Y-74631661D01*
X154468611Y-74449612D01*
X154583344Y-74250888D01*
X154671158Y-74038887D01*
X154730548Y-73817238D01*
X154760500Y-73589734D01*
X154760500Y-73360266D01*
X154730548Y-73132762D01*
X154671158Y-72911113D01*
X154604645Y-72750536D01*
X154583349Y-72699123D01*
X154583346Y-72699117D01*
X154583344Y-72699112D01*
X154468611Y-72500388D01*
X154468608Y-72500385D01*
X154468607Y-72500382D01*
X154328918Y-72318338D01*
X154328911Y-72318330D01*
X154166670Y-72156089D01*
X154166661Y-72156081D01*
X153984617Y-72016392D01*
X153785890Y-71901657D01*
X153785876Y-71901650D01*
X153573887Y-71813842D01*
X153498506Y-71793644D01*
X153352238Y-71754452D01*
X153314215Y-71749446D01*
X153124741Y-71724500D01*
X153124734Y-71724500D01*
X152895266Y-71724500D01*
X152895258Y-71724500D01*
X152678715Y-71753009D01*
X152667762Y-71754452D01*
X152574076Y-71779554D01*
X152446112Y-71813842D01*
X152234123Y-71901650D01*
X152234109Y-71901657D01*
X152035382Y-72016392D01*
X151853338Y-72156081D01*
X151691081Y-72318338D01*
X151551392Y-72500382D01*
X151436657Y-72699109D01*
X151436650Y-72699123D01*
X151348842Y-72911112D01*
X151342059Y-72936428D01*
X151302893Y-73082601D01*
X151289453Y-73132759D01*
X151289451Y-73132770D01*
X151259500Y-73360258D01*
X150010000Y-73360258D01*
X150010000Y-73343919D01*
X150009999Y-73343905D01*
X149975779Y-73083990D01*
X149975777Y-73083979D01*
X149907924Y-72830744D01*
X149807595Y-72588528D01*
X149807590Y-72588517D01*
X149676511Y-72361483D01*
X149676505Y-72361475D01*
X149589918Y-72248633D01*
X149589917Y-72248633D01*
X148764114Y-73074436D01*
X148763260Y-73072374D01*
X148670238Y-72933156D01*
X148551844Y-72814762D01*
X148412626Y-72721740D01*
X148410560Y-72720884D01*
X149236365Y-71895080D01*
X149123524Y-71808494D01*
X149123516Y-71808488D01*
X148896482Y-71677409D01*
X148896471Y-71677404D01*
X148654255Y-71577075D01*
X148401020Y-71509222D01*
X148401009Y-71509220D01*
X148141094Y-71475000D01*
X147878905Y-71475000D01*
X147618990Y-71509220D01*
X147618979Y-71509222D01*
X147365744Y-71577075D01*
X147123528Y-71677404D01*
X147123517Y-71677409D01*
X146896471Y-71808496D01*
X146783633Y-71895079D01*
X146783633Y-71895080D01*
X147609438Y-72720885D01*
X147607374Y-72721740D01*
X147468156Y-72814762D01*
X147349762Y-72933156D01*
X147256740Y-73072374D01*
X147255885Y-73074438D01*
X146430080Y-72248633D01*
X146430079Y-72248633D01*
X146343496Y-72361471D01*
X146212409Y-72588517D01*
X146212404Y-72588528D01*
X146112075Y-72830744D01*
X146044222Y-73083979D01*
X146044220Y-73083990D01*
X146010000Y-73343905D01*
X142170500Y-73343905D01*
X142170500Y-66614144D01*
X160290217Y-66614144D01*
X160290217Y-66745928D01*
X160307271Y-66809575D01*
X160324325Y-66873223D01*
X160353283Y-66923378D01*
X160390217Y-66987350D01*
X160483403Y-67080536D01*
X160597531Y-67146428D01*
X160724825Y-67180536D01*
X160724827Y-67180536D01*
X160856607Y-67180536D01*
X160856609Y-67180536D01*
X160983903Y-67146428D01*
X161098031Y-67080536D01*
X161191217Y-66987350D01*
X161257109Y-66873222D01*
X161291217Y-66745928D01*
X161291217Y-66614144D01*
X161257109Y-66486850D01*
X161191217Y-66372722D01*
X161098031Y-66279536D01*
X161040967Y-66246590D01*
X160983904Y-66213644D01*
X160920256Y-66196590D01*
X160856609Y-66179536D01*
X160724825Y-66179536D01*
X160597529Y-66213644D01*
X160483403Y-66279536D01*
X160483400Y-66279538D01*
X160390219Y-66372719D01*
X160390217Y-66372722D01*
X160324325Y-66486848D01*
X160290217Y-66614144D01*
X142170500Y-66614144D01*
X142170500Y-63376577D01*
X143759500Y-63376577D01*
X143759500Y-63573422D01*
X143790290Y-63767826D01*
X143851117Y-63955029D01*
X143940476Y-64130405D01*
X144056172Y-64289646D01*
X144195354Y-64428828D01*
X144354595Y-64544524D01*
X144437455Y-64586743D01*
X144529970Y-64633882D01*
X144529972Y-64633882D01*
X144529975Y-64633884D01*
X144630317Y-64666487D01*
X144717173Y-64694709D01*
X144911578Y-64725500D01*
X144911583Y-64725500D01*
X145108422Y-64725500D01*
X145302826Y-64694709D01*
X145490025Y-64633884D01*
X145665405Y-64544524D01*
X145824646Y-64428828D01*
X145963828Y-64289646D01*
X146079524Y-64130405D01*
X146168884Y-63955025D01*
X146229709Y-63767826D01*
X146243540Y-63680500D01*
X146260500Y-63573422D01*
X146260500Y-63376577D01*
X154759500Y-63376577D01*
X154759500Y-63573422D01*
X154790290Y-63767826D01*
X154851117Y-63955029D01*
X154940476Y-64130405D01*
X155056172Y-64289646D01*
X155195354Y-64428828D01*
X155354595Y-64544524D01*
X155437455Y-64586743D01*
X155529970Y-64633882D01*
X155529972Y-64633882D01*
X155529975Y-64633884D01*
X155630317Y-64666487D01*
X155717173Y-64694709D01*
X155911578Y-64725500D01*
X155911583Y-64725500D01*
X156108422Y-64725500D01*
X156302826Y-64694709D01*
X156490025Y-64633884D01*
X156665405Y-64544524D01*
X156824646Y-64428828D01*
X156963828Y-64289646D01*
X157079524Y-64130405D01*
X157168884Y-63955025D01*
X157229709Y-63767826D01*
X157243540Y-63680500D01*
X157260500Y-63573422D01*
X157260500Y-63376577D01*
X157229709Y-63182173D01*
X157168882Y-62994970D01*
X157079523Y-62819594D01*
X157050393Y-62779500D01*
X156963828Y-62660354D01*
X156824646Y-62521172D01*
X156665405Y-62405476D01*
X156586773Y-62365411D01*
X156490029Y-62316117D01*
X156302826Y-62255290D01*
X156108422Y-62224500D01*
X156108417Y-62224500D01*
X155911583Y-62224500D01*
X155911578Y-62224500D01*
X155717173Y-62255290D01*
X155529970Y-62316117D01*
X155354594Y-62405476D01*
X155263741Y-62471485D01*
X155195354Y-62521172D01*
X155195352Y-62521174D01*
X155195351Y-62521174D01*
X155056174Y-62660351D01*
X155056174Y-62660352D01*
X155056172Y-62660354D01*
X155006485Y-62728741D01*
X154940476Y-62819594D01*
X154851117Y-62994970D01*
X154790290Y-63182173D01*
X154759500Y-63376577D01*
X146260500Y-63376577D01*
X146229709Y-63182173D01*
X146168882Y-62994970D01*
X146079523Y-62819594D01*
X146050393Y-62779500D01*
X145963828Y-62660354D01*
X145824646Y-62521172D01*
X145665405Y-62405476D01*
X145586773Y-62365411D01*
X145490029Y-62316117D01*
X145302826Y-62255290D01*
X145108422Y-62224500D01*
X145108417Y-62224500D01*
X144911583Y-62224500D01*
X144911578Y-62224500D01*
X144717173Y-62255290D01*
X144529970Y-62316117D01*
X144354594Y-62405476D01*
X144263741Y-62471485D01*
X144195354Y-62521172D01*
X144195352Y-62521174D01*
X144195351Y-62521174D01*
X144056174Y-62660351D01*
X144056174Y-62660352D01*
X144056172Y-62660354D01*
X144006485Y-62728741D01*
X143940476Y-62819594D01*
X143851117Y-62994970D01*
X143790290Y-63182173D01*
X143759500Y-63376577D01*
X142170500Y-63376577D01*
X142170500Y-62365411D01*
X142170972Y-62354605D01*
X142174339Y-62316116D01*
X142183760Y-62208430D01*
X142185664Y-62195097D01*
X142191503Y-62165739D01*
X142193330Y-62157903D01*
X142226779Y-62033068D01*
X142231990Y-62017721D01*
X142239010Y-62000773D01*
X142241161Y-61995881D01*
X142299825Y-61870076D01*
X142310629Y-61851366D01*
X142398119Y-61726417D01*
X142412007Y-61709865D01*
X142519865Y-61602007D01*
X142536417Y-61588119D01*
X142661366Y-61500629D01*
X142680076Y-61489825D01*
X142805881Y-61431161D01*
X142810773Y-61429010D01*
X142827721Y-61421990D01*
X142843068Y-61416779D01*
X142967903Y-61383330D01*
X142975739Y-61381503D01*
X143005097Y-61375664D01*
X143018430Y-61373760D01*
X143157871Y-61361561D01*
X143164606Y-61360972D01*
X143175412Y-61360500D01*
X161546955Y-61360500D01*
X161613994Y-61380185D01*
G37*
%TD.AperFunction*%
%TD*%
M02*
