%TF.GenerationSoftware,KiCad,Pcbnew,9.0.4*%
%TF.CreationDate,2025-09-25T11:48:03-04:00*%
%TF.ProjectId,fanboy,66616e62-6f79-42e6-9b69-6361645f7063,rev?*%
%TF.SameCoordinates,Original*%
%TF.FileFunction,Copper,L3,Inr*%
%TF.FilePolarity,Positive*%
%FSLAX46Y46*%
G04 Gerber Fmt 4.6, Leading zero omitted, Abs format (unit mm)*
G04 Created by KiCad (PCBNEW 9.0.4) date 2025-09-25 11:48:03*
%MOMM*%
%LPD*%
G01*
G04 APERTURE LIST*
%TA.AperFunction,ComponentPad*%
%ADD10C,3.000000*%
%TD*%
%TA.AperFunction,ComponentPad*%
%ADD11C,2.000000*%
%TD*%
%TA.AperFunction,ComponentPad*%
%ADD12O,1.574800X4.000000*%
%TD*%
%TA.AperFunction,ComponentPad*%
%ADD13C,1.500000*%
%TD*%
%TA.AperFunction,ComponentPad*%
%ADD14O,1.000000X1.800000*%
%TD*%
%TA.AperFunction,ComponentPad*%
%ADD15O,1.000000X2.100000*%
%TD*%
%TA.AperFunction,ViaPad*%
%ADD16C,0.450000*%
%TD*%
%TA.AperFunction,ViaPad*%
%ADD17C,0.500000*%
%TD*%
%TA.AperFunction,ViaPad*%
%ADD18C,0.800000*%
%TD*%
%TA.AperFunction,ViaPad*%
%ADD19C,1.000000*%
%TD*%
%TA.AperFunction,Conductor*%
%ADD20C,0.200000*%
%TD*%
G04 APERTURE END LIST*
D10*
%TO.N,/12V*%
%TO.C,J1*%
X156520000Y-72095000D03*
%TO.N,GND*%
X161520000Y-72095000D03*
D11*
%TO.N,unconnected-(J1-MNT1-Pad3)*%
X153520000Y-62095000D03*
%TO.N,unconnected-(J1-MNT2-Pad4)*%
X164520000Y-62095000D03*
%TD*%
D12*
%TO.N,GND*%
%TO.C,J4*%
X175070000Y-102820000D03*
%TO.N,/12V*%
X177610000Y-102820000D03*
D13*
%TO.N,/FAN2_TACH*%
X180150000Y-101860000D03*
D12*
X180150000Y-102820000D03*
%TO.N,/FAN2_PWM*%
X182690000Y-102820000D03*
%TD*%
%TO.N,GND*%
%TO.C,J3*%
X154230000Y-102820000D03*
%TO.N,/12V*%
X156770000Y-102820000D03*
D13*
%TO.N,/FAN1_TACH*%
X159310000Y-101860000D03*
D12*
X159310000Y-102820000D03*
%TO.N,/FAN1_PWM*%
X161850000Y-102820000D03*
%TD*%
D14*
%TO.N,GND*%
%TO.C,J6*%
X173650000Y-62125000D03*
D15*
X173650000Y-66305000D03*
D14*
X182290000Y-62125000D03*
D15*
X182290000Y-66305000D03*
%TD*%
D16*
%TO.N,/5V*%
X169090000Y-63620000D03*
%TO.N,/QSPI_SS*%
X172195000Y-75945000D03*
%TO.N,GND*%
X166840000Y-64930000D03*
%TO.N,/QSPI_SS*%
X184370000Y-88880000D03*
%TO.N,/3V3*%
X184300000Y-84060000D03*
%TO.N,GND*%
X166840000Y-63620000D03*
%TO.N,/5V*%
X169090000Y-64930000D03*
%TO.N,GND*%
X190190583Y-74514964D03*
X191505583Y-74514964D03*
X190858083Y-73784964D03*
X190200583Y-73144964D03*
X191515583Y-73144964D03*
%TO.N,/3V3*%
X174340000Y-90200000D03*
%TO.N,/FAN_ALERT*%
X172540000Y-78320000D03*
X173330000Y-90210000D03*
%TO.N,/FAN2_TACH*%
X173080000Y-95000000D03*
%TO.N,/12V*%
X175420000Y-94230000D03*
%TO.N,GND*%
X169370000Y-86770000D03*
%TO.N,/5V*%
X162930000Y-99800000D03*
X183750000Y-99830000D03*
X184620583Y-72964964D03*
X185935583Y-72964964D03*
X182900000Y-72130000D03*
X183990000Y-72110000D03*
X185278083Y-73604964D03*
X185925583Y-74334964D03*
X185370000Y-72100000D03*
%TO.N,GND*%
X182095000Y-94210000D03*
X183410000Y-94210000D03*
X180780000Y-94210000D03*
X161795000Y-94100000D03*
X163110000Y-94100000D03*
X160480000Y-94100000D03*
%TO.N,/12V*%
X156790000Y-99810000D03*
%TO.N,GND*%
X157750000Y-99800000D03*
X178570000Y-99820000D03*
%TO.N,/12V*%
X177600000Y-99890000D03*
%TO.N,/3V3*%
X179430000Y-91550000D03*
X181210000Y-99800000D03*
X160310000Y-99810000D03*
%TO.N,/12V*%
X156395000Y-94100000D03*
X157710000Y-94100000D03*
X155080000Y-94100000D03*
X178050000Y-94230000D03*
X176735000Y-94230000D03*
%TO.N,/3V3*%
X172250000Y-89220000D03*
X170380000Y-89210000D03*
%TO.N,GND*%
X165837500Y-95160000D03*
%TO.N,/3V3*%
X165060000Y-92180000D03*
%TO.N,/FAN1_PWM*%
X161920000Y-98740000D03*
X163347500Y-97060000D03*
%TO.N,/FAN2_TACH*%
X180130000Y-98610000D03*
D17*
%TO.N,/SWD*%
X180140717Y-73170036D03*
X179401524Y-82115036D03*
%TO.N,/SWCLK*%
X177187037Y-72936510D03*
X178641524Y-82030036D03*
%TO.N,/QSPI_SD1*%
X175321524Y-77290036D03*
X167740413Y-74563680D03*
%TO.N,/QSPI_SD2*%
X176161524Y-77290036D03*
X168691524Y-74545036D03*
%TO.N,GND*%
X172560717Y-72250036D03*
X182794417Y-75100036D03*
X180920717Y-86160036D03*
X190490000Y-91950000D03*
X182260717Y-86110036D03*
X178281524Y-80540036D03*
X174490000Y-87380000D03*
X177591524Y-79697536D03*
X171590000Y-77120000D03*
X174791524Y-72470036D03*
X177641524Y-85735036D03*
X178291524Y-78870036D03*
X183450717Y-80700036D03*
X190500000Y-85060000D03*
X183370717Y-76570036D03*
X176871524Y-78870036D03*
X181280000Y-74050000D03*
X175841524Y-88035036D03*
X178950000Y-86420000D03*
X170811524Y-80260036D03*
X180571524Y-88500036D03*
X176386099Y-82200036D03*
X182929283Y-73749964D03*
X170570000Y-75670000D03*
X176861524Y-80540036D03*
%TO.N,/3V3*%
X182260717Y-85150036D03*
X168100717Y-72260036D03*
X182490717Y-80700036D03*
X171771524Y-80260036D03*
X178851121Y-85120036D03*
X172550000Y-77120000D03*
X182410717Y-76570036D03*
X178031524Y-74280036D03*
D18*
X187876300Y-76675000D03*
X187876300Y-75585000D03*
X187885000Y-79625000D03*
D17*
X173501524Y-73495036D03*
X180391524Y-75175036D03*
%TO.N,/1V1*%
X177381524Y-77315036D03*
X179321524Y-77315036D03*
X177741524Y-82085036D03*
D19*
%TO.N,/5V*%
X175480583Y-68569964D03*
X180870583Y-68549964D03*
%TD*%
D20*
%TO.N,/3V3*%
X168100717Y-72260036D02*
X168010717Y-72170036D01*
%TD*%
%TA.AperFunction,Conductor*%
%TO.N,/12V*%
G36*
X161613308Y-59520185D02*
G01*
X161659063Y-59572989D01*
X161670268Y-59624453D01*
X161670484Y-60209013D01*
X161671235Y-62246894D01*
X161674173Y-70220454D01*
X161654513Y-70287501D01*
X161601726Y-70333275D01*
X161550173Y-70344500D01*
X161405258Y-70344500D01*
X161188715Y-70373009D01*
X161177762Y-70374452D01*
X161084076Y-70399554D01*
X160956112Y-70433842D01*
X160744123Y-70521650D01*
X160744109Y-70521657D01*
X160545382Y-70636392D01*
X160363338Y-70776081D01*
X160201081Y-70938338D01*
X160061392Y-71120382D01*
X159946657Y-71319109D01*
X159946650Y-71319123D01*
X159858842Y-71531112D01*
X159833819Y-71624500D01*
X159800317Y-71749536D01*
X159799453Y-71752759D01*
X159799451Y-71752770D01*
X159769500Y-71980258D01*
X159769500Y-72209741D01*
X159793491Y-72391964D01*
X159799452Y-72437238D01*
X159836499Y-72575500D01*
X159858842Y-72658887D01*
X159946650Y-72870876D01*
X159946657Y-72870890D01*
X160061392Y-73069617D01*
X160201081Y-73251661D01*
X160201089Y-73251670D01*
X160363330Y-73413911D01*
X160363338Y-73413918D01*
X160363339Y-73413919D01*
X160393325Y-73436928D01*
X160545382Y-73553607D01*
X160545385Y-73553608D01*
X160545388Y-73553611D01*
X160744112Y-73668344D01*
X160744117Y-73668346D01*
X160744123Y-73668349D01*
X160835480Y-73706190D01*
X160956113Y-73756158D01*
X161177762Y-73815548D01*
X161405266Y-73845500D01*
X161405273Y-73845500D01*
X161551556Y-73845500D01*
X161618595Y-73865185D01*
X161664350Y-73917989D01*
X161675555Y-73969451D01*
X161675602Y-74094999D01*
X161681984Y-91414236D01*
X161681985Y-91414237D01*
X163631184Y-93367300D01*
X193375795Y-93437170D01*
X193442784Y-93457011D01*
X193488415Y-93509923D01*
X193499500Y-93561169D01*
X193499500Y-108494586D01*
X193499028Y-108505394D01*
X193486241Y-108651542D01*
X193484330Y-108664927D01*
X193478501Y-108694229D01*
X193476659Y-108702129D01*
X193443222Y-108826918D01*
X193438009Y-108842275D01*
X193430989Y-108859224D01*
X193428809Y-108864179D01*
X193370177Y-108989915D01*
X193359370Y-109008633D01*
X193271880Y-109133582D01*
X193257986Y-109150140D01*
X193150140Y-109257986D01*
X193133582Y-109271880D01*
X193008633Y-109359370D01*
X192989915Y-109370177D01*
X192864179Y-109428809D01*
X192859224Y-109430989D01*
X192842275Y-109438009D01*
X192826918Y-109443222D01*
X192702129Y-109476659D01*
X192694229Y-109478501D01*
X192664927Y-109484330D01*
X192651542Y-109486241D01*
X192505395Y-109499028D01*
X192494587Y-109499500D01*
X144505413Y-109499500D01*
X144494605Y-109499028D01*
X144348456Y-109486241D01*
X144335071Y-109484330D01*
X144305769Y-109478501D01*
X144297869Y-109476659D01*
X144173080Y-109443222D01*
X144157723Y-109438009D01*
X144140774Y-109430989D01*
X144135819Y-109428809D01*
X144010084Y-109370177D01*
X143991366Y-109359370D01*
X143866417Y-109271880D01*
X143849859Y-109257986D01*
X143742013Y-109150140D01*
X143728119Y-109133582D01*
X143640629Y-109008633D01*
X143629822Y-108989916D01*
X143599292Y-108924445D01*
X143571169Y-108864134D01*
X143569009Y-108859224D01*
X143561989Y-108842275D01*
X143556776Y-108826918D01*
X143538829Y-108759938D01*
X143523334Y-108702109D01*
X143521501Y-108694247D01*
X143515665Y-108664907D01*
X143513760Y-108651564D01*
X143500972Y-108505394D01*
X143500500Y-108494588D01*
X143500500Y-104872149D01*
X146049500Y-104872149D01*
X146049500Y-105127850D01*
X146071698Y-105296449D01*
X146082874Y-105381340D01*
X146119860Y-105519373D01*
X146149050Y-105628312D01*
X146149053Y-105628322D01*
X146246894Y-105864531D01*
X146246899Y-105864542D01*
X146374734Y-106085957D01*
X146374745Y-106085973D01*
X146530388Y-106288811D01*
X146530394Y-106288818D01*
X146711181Y-106469605D01*
X146711187Y-106469610D01*
X146914035Y-106625261D01*
X146914042Y-106625265D01*
X147135457Y-106753100D01*
X147135462Y-106753102D01*
X147135465Y-106753104D01*
X147284426Y-106814805D01*
X147346762Y-106840626D01*
X147371687Y-106850950D01*
X147618660Y-106917126D01*
X147872157Y-106950500D01*
X147872164Y-106950500D01*
X148127836Y-106950500D01*
X148127843Y-106950500D01*
X148381340Y-106917126D01*
X148628313Y-106850950D01*
X148864535Y-106753104D01*
X149085965Y-106625261D01*
X149288813Y-106469610D01*
X149469610Y-106288813D01*
X149617386Y-106096228D01*
X158459500Y-106096228D01*
X158459500Y-106263771D01*
X158492182Y-106428074D01*
X158492184Y-106428082D01*
X158556295Y-106582860D01*
X158649373Y-106722162D01*
X158767837Y-106840626D01*
X158860494Y-106902537D01*
X158907137Y-106933703D01*
X159061918Y-106997816D01*
X159226228Y-107030499D01*
X159226232Y-107030500D01*
X159226233Y-107030500D01*
X159393768Y-107030500D01*
X159393769Y-107030499D01*
X159558082Y-106997816D01*
X159712863Y-106933703D01*
X159852162Y-106840626D01*
X159970626Y-106722162D01*
X160063703Y-106582863D01*
X160127816Y-106428082D01*
X160160500Y-106263767D01*
X160160500Y-106096233D01*
X160160499Y-106096228D01*
X179299500Y-106096228D01*
X179299500Y-106263771D01*
X179332182Y-106428074D01*
X179332184Y-106428082D01*
X179396295Y-106582860D01*
X179489373Y-106722162D01*
X179607837Y-106840626D01*
X179700494Y-106902537D01*
X179747137Y-106933703D01*
X179901918Y-106997816D01*
X180066228Y-107030499D01*
X180066232Y-107030500D01*
X180066233Y-107030500D01*
X180233768Y-107030500D01*
X180233769Y-107030499D01*
X180398082Y-106997816D01*
X180552863Y-106933703D01*
X180692162Y-106840626D01*
X180810626Y-106722162D01*
X180903703Y-106582863D01*
X180967816Y-106428082D01*
X181000500Y-106263767D01*
X181000500Y-106096233D01*
X180967816Y-105931918D01*
X180903703Y-105777137D01*
X180872537Y-105730494D01*
X180810626Y-105637837D01*
X180692162Y-105519373D01*
X180552860Y-105426295D01*
X180398082Y-105362184D01*
X180398074Y-105362182D01*
X180233771Y-105329500D01*
X180233767Y-105329500D01*
X180066233Y-105329500D01*
X180066228Y-105329500D01*
X179901925Y-105362182D01*
X179901917Y-105362184D01*
X179747139Y-105426295D01*
X179607837Y-105519373D01*
X179489373Y-105637837D01*
X179396295Y-105777139D01*
X179332184Y-105931917D01*
X179332182Y-105931925D01*
X179299500Y-106096228D01*
X160160499Y-106096228D01*
X160127816Y-105931918D01*
X160063703Y-105777137D01*
X160032537Y-105730494D01*
X159970626Y-105637837D01*
X159852162Y-105519373D01*
X159712860Y-105426295D01*
X159558082Y-105362184D01*
X159558074Y-105362182D01*
X159393771Y-105329500D01*
X159393767Y-105329500D01*
X159226233Y-105329500D01*
X159226228Y-105329500D01*
X159061925Y-105362182D01*
X159061917Y-105362184D01*
X158907139Y-105426295D01*
X158767837Y-105519373D01*
X158649373Y-105637837D01*
X158556295Y-105777139D01*
X158492184Y-105931917D01*
X158492182Y-105931925D01*
X158459500Y-106096228D01*
X149617386Y-106096228D01*
X149625261Y-106085965D01*
X149753104Y-105864535D01*
X149850950Y-105628313D01*
X149917126Y-105381340D01*
X149950500Y-105127843D01*
X149950500Y-104872157D01*
X149917126Y-104618660D01*
X149850950Y-104371687D01*
X149753104Y-104135465D01*
X149753102Y-104135462D01*
X149753100Y-104135457D01*
X149625265Y-103914042D01*
X149625261Y-103914035D01*
X149469610Y-103711187D01*
X149469605Y-103711181D01*
X149288818Y-103530394D01*
X149288811Y-103530388D01*
X149085973Y-103374745D01*
X149085971Y-103374743D01*
X149085965Y-103374739D01*
X149085960Y-103374736D01*
X149085957Y-103374734D01*
X148864542Y-103246899D01*
X148864531Y-103246894D01*
X148628322Y-103149053D01*
X148628315Y-103149051D01*
X148628313Y-103149050D01*
X148381340Y-103082874D01*
X148325007Y-103075457D01*
X148127850Y-103049500D01*
X148127843Y-103049500D01*
X147872157Y-103049500D01*
X147872149Y-103049500D01*
X147646826Y-103079165D01*
X147618660Y-103082874D01*
X147371687Y-103149050D01*
X147371677Y-103149053D01*
X147135468Y-103246894D01*
X147135457Y-103246899D01*
X146914042Y-103374734D01*
X146914026Y-103374745D01*
X146711188Y-103530388D01*
X146711181Y-103530394D01*
X146530394Y-103711181D01*
X146530388Y-103711188D01*
X146374745Y-103914026D01*
X146374734Y-103914042D01*
X146246899Y-104135457D01*
X146246894Y-104135468D01*
X146149053Y-104371677D01*
X146149050Y-104371687D01*
X146100361Y-104553400D01*
X146082874Y-104618661D01*
X146049500Y-104872149D01*
X143500500Y-104872149D01*
X143500500Y-101505171D01*
X153192100Y-101505171D01*
X153192100Y-104134828D01*
X153231984Y-104335336D01*
X153231987Y-104335348D01*
X153310223Y-104524228D01*
X153310225Y-104524232D01*
X153423806Y-104694218D01*
X153423812Y-104694226D01*
X153568373Y-104838787D01*
X153568381Y-104838793D01*
X153738367Y-104952374D01*
X153738371Y-104952376D01*
X153888534Y-105014575D01*
X153927256Y-105030614D01*
X154127771Y-105070499D01*
X154127774Y-105070500D01*
X154127776Y-105070500D01*
X154332226Y-105070500D01*
X154332227Y-105070499D01*
X154532744Y-105030614D01*
X154721630Y-104952375D01*
X154721632Y-104952374D01*
X154843001Y-104871278D01*
X154891623Y-104838790D01*
X155036190Y-104694223D01*
X155093362Y-104608657D01*
X155149774Y-104524232D01*
X155149776Y-104524228D01*
X155212964Y-104371677D01*
X155228014Y-104335344D01*
X155252040Y-104214556D01*
X155284424Y-104152646D01*
X155345140Y-104118072D01*
X155414909Y-104121811D01*
X155471582Y-104162677D01*
X155496130Y-104219350D01*
X155514299Y-104334063D01*
X155576921Y-104526792D01*
X155668919Y-104707348D01*
X155788020Y-104871278D01*
X155788024Y-104871283D01*
X155931316Y-105014575D01*
X155931321Y-105014579D01*
X156095251Y-105133680D01*
X156275805Y-105225678D01*
X156468527Y-105288298D01*
X156520000Y-105296450D01*
X156520000Y-104491579D01*
X156564115Y-104517050D01*
X156699777Y-104553400D01*
X156840223Y-104553400D01*
X156975885Y-104517050D01*
X157020000Y-104491579D01*
X157020000Y-105296449D01*
X157071472Y-105288298D01*
X157264194Y-105225678D01*
X157444748Y-105133680D01*
X157608678Y-105014579D01*
X157608683Y-105014575D01*
X157751975Y-104871283D01*
X157751979Y-104871278D01*
X157871080Y-104707348D01*
X157963078Y-104526792D01*
X158025700Y-104334063D01*
X158025701Y-104334062D01*
X158043869Y-104219351D01*
X158073798Y-104156216D01*
X158133109Y-104119284D01*
X158202972Y-104120282D01*
X158261205Y-104158891D01*
X158287959Y-104214556D01*
X158311984Y-104335338D01*
X158311987Y-104335348D01*
X158390223Y-104524228D01*
X158390225Y-104524232D01*
X158503806Y-104694218D01*
X158503812Y-104694226D01*
X158648373Y-104838787D01*
X158648381Y-104838793D01*
X158818367Y-104952374D01*
X158818371Y-104952376D01*
X158968534Y-105014575D01*
X159007256Y-105030614D01*
X159207771Y-105070499D01*
X159207774Y-105070500D01*
X159207776Y-105070500D01*
X159412226Y-105070500D01*
X159412227Y-105070499D01*
X159612744Y-105030614D01*
X159801630Y-104952375D01*
X159801632Y-104952374D01*
X159923001Y-104871278D01*
X159971623Y-104838790D01*
X160116190Y-104694223D01*
X160173362Y-104608657D01*
X160229774Y-104524232D01*
X160229776Y-104524228D01*
X160292964Y-104371677D01*
X160308014Y-104335344D01*
X160347900Y-104134824D01*
X160347900Y-101505176D01*
X160347900Y-101505173D01*
X160347899Y-101505171D01*
X160812100Y-101505171D01*
X160812100Y-104134828D01*
X160851984Y-104335336D01*
X160851987Y-104335348D01*
X160930223Y-104524228D01*
X160930225Y-104524232D01*
X161043806Y-104694218D01*
X161043812Y-104694226D01*
X161188373Y-104838787D01*
X161188381Y-104838793D01*
X161358367Y-104952374D01*
X161358371Y-104952376D01*
X161508534Y-105014575D01*
X161547256Y-105030614D01*
X161747771Y-105070499D01*
X161747774Y-105070500D01*
X161747776Y-105070500D01*
X161952226Y-105070500D01*
X161952227Y-105070499D01*
X162152744Y-105030614D01*
X162341630Y-104952375D01*
X162341632Y-104952374D01*
X162463001Y-104871278D01*
X162511623Y-104838790D01*
X162656190Y-104694223D01*
X162713362Y-104608657D01*
X162769774Y-104524232D01*
X162769776Y-104524228D01*
X162832964Y-104371677D01*
X162848014Y-104335344D01*
X162887900Y-104134824D01*
X162887900Y-101505176D01*
X162887900Y-101505173D01*
X162887899Y-101505171D01*
X174032100Y-101505171D01*
X174032100Y-104134828D01*
X174071984Y-104335336D01*
X174071987Y-104335348D01*
X174150223Y-104524228D01*
X174150225Y-104524232D01*
X174263806Y-104694218D01*
X174263812Y-104694226D01*
X174408373Y-104838787D01*
X174408381Y-104838793D01*
X174578367Y-104952374D01*
X174578371Y-104952376D01*
X174728534Y-105014575D01*
X174767256Y-105030614D01*
X174967771Y-105070499D01*
X174967774Y-105070500D01*
X174967776Y-105070500D01*
X175172226Y-105070500D01*
X175172227Y-105070499D01*
X175372744Y-105030614D01*
X175561630Y-104952375D01*
X175561632Y-104952374D01*
X175683001Y-104871278D01*
X175731623Y-104838790D01*
X175876190Y-104694223D01*
X175933362Y-104608657D01*
X175989774Y-104524232D01*
X175989776Y-104524228D01*
X176052964Y-104371677D01*
X176068014Y-104335344D01*
X176092040Y-104214556D01*
X176124424Y-104152646D01*
X176185140Y-104118072D01*
X176254909Y-104121811D01*
X176311582Y-104162677D01*
X176336130Y-104219350D01*
X176354299Y-104334063D01*
X176416921Y-104526792D01*
X176508919Y-104707348D01*
X176628020Y-104871278D01*
X176628024Y-104871283D01*
X176771316Y-105014575D01*
X176771321Y-105014579D01*
X176935251Y-105133680D01*
X177115805Y-105225678D01*
X177308527Y-105288298D01*
X177360000Y-105296450D01*
X177360000Y-104491579D01*
X177404115Y-104517050D01*
X177539777Y-104553400D01*
X177680223Y-104553400D01*
X177815885Y-104517050D01*
X177860000Y-104491579D01*
X177860000Y-105296449D01*
X177911472Y-105288298D01*
X178104194Y-105225678D01*
X178284748Y-105133680D01*
X178448678Y-105014579D01*
X178448683Y-105014575D01*
X178591975Y-104871283D01*
X178591979Y-104871278D01*
X178711080Y-104707348D01*
X178803078Y-104526792D01*
X178865700Y-104334063D01*
X178865701Y-104334062D01*
X178883869Y-104219351D01*
X178913798Y-104156216D01*
X178973109Y-104119284D01*
X179042972Y-104120282D01*
X179101205Y-104158891D01*
X179127959Y-104214556D01*
X179151984Y-104335338D01*
X179151987Y-104335348D01*
X179230223Y-104524228D01*
X179230225Y-104524232D01*
X179343806Y-104694218D01*
X179343812Y-104694226D01*
X179488373Y-104838787D01*
X179488381Y-104838793D01*
X179658367Y-104952374D01*
X179658371Y-104952376D01*
X179808534Y-105014575D01*
X179847256Y-105030614D01*
X180047771Y-105070499D01*
X180047774Y-105070500D01*
X180047776Y-105070500D01*
X180252226Y-105070500D01*
X180252227Y-105070499D01*
X180452744Y-105030614D01*
X180641630Y-104952375D01*
X180641632Y-104952374D01*
X180763001Y-104871278D01*
X180811623Y-104838790D01*
X180956190Y-104694223D01*
X181013362Y-104608657D01*
X181069774Y-104524232D01*
X181069776Y-104524228D01*
X181132964Y-104371677D01*
X181148014Y-104335344D01*
X181187900Y-104134824D01*
X181187900Y-101505176D01*
X181187900Y-101505173D01*
X181187899Y-101505171D01*
X181652100Y-101505171D01*
X181652100Y-104134828D01*
X181691984Y-104335336D01*
X181691987Y-104335348D01*
X181770223Y-104524228D01*
X181770225Y-104524232D01*
X181883806Y-104694218D01*
X181883812Y-104694226D01*
X182028373Y-104838787D01*
X182028381Y-104838793D01*
X182198367Y-104952374D01*
X182198371Y-104952376D01*
X182348534Y-105014575D01*
X182387256Y-105030614D01*
X182587771Y-105070499D01*
X182587774Y-105070500D01*
X182587776Y-105070500D01*
X182792226Y-105070500D01*
X182792227Y-105070499D01*
X182992744Y-105030614D01*
X183181630Y-104952375D01*
X183181632Y-104952374D01*
X183301697Y-104872149D01*
X187049500Y-104872149D01*
X187049500Y-105127850D01*
X187071698Y-105296449D01*
X187082874Y-105381340D01*
X187119860Y-105519373D01*
X187149050Y-105628312D01*
X187149053Y-105628322D01*
X187246894Y-105864531D01*
X187246899Y-105864542D01*
X187374734Y-106085957D01*
X187374745Y-106085973D01*
X187530388Y-106288811D01*
X187530394Y-106288818D01*
X187711181Y-106469605D01*
X187711187Y-106469610D01*
X187914035Y-106625261D01*
X187914042Y-106625265D01*
X188135457Y-106753100D01*
X188135462Y-106753102D01*
X188135465Y-106753104D01*
X188284426Y-106814805D01*
X188346762Y-106840626D01*
X188371687Y-106850950D01*
X188618660Y-106917126D01*
X188872157Y-106950500D01*
X188872164Y-106950500D01*
X189127836Y-106950500D01*
X189127843Y-106950500D01*
X189381340Y-106917126D01*
X189628313Y-106850950D01*
X189864535Y-106753104D01*
X190085965Y-106625261D01*
X190288813Y-106469610D01*
X190469610Y-106288813D01*
X190625261Y-106085965D01*
X190753104Y-105864535D01*
X190850950Y-105628313D01*
X190917126Y-105381340D01*
X190950500Y-105127843D01*
X190950500Y-104872157D01*
X190917126Y-104618660D01*
X190850950Y-104371687D01*
X190753104Y-104135465D01*
X190753102Y-104135462D01*
X190753100Y-104135457D01*
X190625265Y-103914042D01*
X190625261Y-103914035D01*
X190469610Y-103711187D01*
X190469605Y-103711181D01*
X190288818Y-103530394D01*
X190288811Y-103530388D01*
X190085973Y-103374745D01*
X190085971Y-103374743D01*
X190085965Y-103374739D01*
X190085960Y-103374736D01*
X190085957Y-103374734D01*
X189864542Y-103246899D01*
X189864531Y-103246894D01*
X189628322Y-103149053D01*
X189628315Y-103149051D01*
X189628313Y-103149050D01*
X189381340Y-103082874D01*
X189325007Y-103075457D01*
X189127850Y-103049500D01*
X189127843Y-103049500D01*
X188872157Y-103049500D01*
X188872149Y-103049500D01*
X188646826Y-103079165D01*
X188618660Y-103082874D01*
X188371687Y-103149050D01*
X188371677Y-103149053D01*
X188135468Y-103246894D01*
X188135457Y-103246899D01*
X187914042Y-103374734D01*
X187914026Y-103374745D01*
X187711188Y-103530388D01*
X187711181Y-103530394D01*
X187530394Y-103711181D01*
X187530388Y-103711188D01*
X187374745Y-103914026D01*
X187374734Y-103914042D01*
X187246899Y-104135457D01*
X187246894Y-104135468D01*
X187149053Y-104371677D01*
X187149050Y-104371687D01*
X187100361Y-104553400D01*
X187082874Y-104618661D01*
X187049500Y-104872149D01*
X183301697Y-104872149D01*
X183303001Y-104871278D01*
X183351623Y-104838790D01*
X183351626Y-104838787D01*
X183409997Y-104780417D01*
X183496187Y-104694226D01*
X183496190Y-104694223D01*
X183553362Y-104608657D01*
X183609774Y-104524232D01*
X183609776Y-104524228D01*
X183672964Y-104371677D01*
X183688014Y-104335344D01*
X183727900Y-104134824D01*
X183727900Y-101505176D01*
X183727900Y-101505173D01*
X183727899Y-101505171D01*
X183711086Y-101420648D01*
X183688014Y-101304656D01*
X183688012Y-101304651D01*
X183609776Y-101115771D01*
X183609774Y-101115767D01*
X183496193Y-100945781D01*
X183496187Y-100945773D01*
X183351626Y-100801212D01*
X183351618Y-100801206D01*
X183181632Y-100687625D01*
X183181628Y-100687623D01*
X182992748Y-100609387D01*
X182992736Y-100609384D01*
X182792227Y-100569500D01*
X182792224Y-100569500D01*
X182587776Y-100569500D01*
X182587773Y-100569500D01*
X182387263Y-100609384D01*
X182387251Y-100609387D01*
X182198371Y-100687623D01*
X182198367Y-100687625D01*
X182028381Y-100801206D01*
X182028373Y-100801212D01*
X181883812Y-100945773D01*
X181883806Y-100945781D01*
X181770225Y-101115767D01*
X181770223Y-101115771D01*
X181691987Y-101304651D01*
X181691984Y-101304663D01*
X181652100Y-101505171D01*
X181187899Y-101505171D01*
X181171086Y-101420648D01*
X181148014Y-101304656D01*
X181148012Y-101304651D01*
X181069776Y-101115771D01*
X181069774Y-101115767D01*
X180956193Y-100945781D01*
X180956187Y-100945773D01*
X180811626Y-100801212D01*
X180811618Y-100801206D01*
X180641632Y-100687625D01*
X180641628Y-100687623D01*
X180452748Y-100609387D01*
X180452736Y-100609384D01*
X180252227Y-100569500D01*
X180252224Y-100569500D01*
X180047776Y-100569500D01*
X180047773Y-100569500D01*
X179847263Y-100609384D01*
X179847251Y-100609387D01*
X179658371Y-100687623D01*
X179658367Y-100687625D01*
X179488381Y-100801206D01*
X179488373Y-100801212D01*
X179343812Y-100945773D01*
X179343806Y-100945781D01*
X179230225Y-101115767D01*
X179230223Y-101115771D01*
X179151987Y-101304651D01*
X179151984Y-101304661D01*
X179127959Y-101425443D01*
X179095574Y-101487354D01*
X179034858Y-101521928D01*
X178965088Y-101518188D01*
X178908417Y-101477321D01*
X178883869Y-101420648D01*
X178865701Y-101305937D01*
X178865700Y-101305936D01*
X178803078Y-101113207D01*
X178711080Y-100932651D01*
X178591979Y-100768721D01*
X178591975Y-100768716D01*
X178448683Y-100625424D01*
X178448678Y-100625420D01*
X178284748Y-100506319D01*
X178104192Y-100414321D01*
X177911463Y-100351699D01*
X177860000Y-100343548D01*
X177860000Y-103548420D01*
X177815885Y-103522950D01*
X177680223Y-103486600D01*
X177539777Y-103486600D01*
X177404115Y-103522950D01*
X177360000Y-103548420D01*
X177360000Y-100343548D01*
X177359999Y-100343548D01*
X177308536Y-100351699D01*
X177115807Y-100414321D01*
X176935251Y-100506319D01*
X176771321Y-100625420D01*
X176771316Y-100625424D01*
X176628024Y-100768716D01*
X176628020Y-100768721D01*
X176508919Y-100932651D01*
X176416921Y-101113207D01*
X176354299Y-101305936D01*
X176336130Y-101420649D01*
X176306200Y-101483784D01*
X176246889Y-101520715D01*
X176177026Y-101519717D01*
X176118794Y-101481107D01*
X176092040Y-101425442D01*
X176086583Y-101398008D01*
X176068014Y-101304656D01*
X176068012Y-101304651D01*
X175989776Y-101115771D01*
X175989774Y-101115767D01*
X175876193Y-100945781D01*
X175876187Y-100945773D01*
X175731626Y-100801212D01*
X175731618Y-100801206D01*
X175561632Y-100687625D01*
X175561628Y-100687623D01*
X175372748Y-100609387D01*
X175372736Y-100609384D01*
X175172227Y-100569500D01*
X175172224Y-100569500D01*
X174967776Y-100569500D01*
X174967773Y-100569500D01*
X174767263Y-100609384D01*
X174767251Y-100609387D01*
X174578371Y-100687623D01*
X174578367Y-100687625D01*
X174408381Y-100801206D01*
X174408373Y-100801212D01*
X174263812Y-100945773D01*
X174263806Y-100945781D01*
X174150225Y-101115767D01*
X174150223Y-101115771D01*
X174071987Y-101304651D01*
X174071984Y-101304663D01*
X174032100Y-101505171D01*
X162887899Y-101505171D01*
X162871086Y-101420648D01*
X162848014Y-101304656D01*
X162848012Y-101304651D01*
X162769776Y-101115771D01*
X162769774Y-101115767D01*
X162656193Y-100945781D01*
X162656187Y-100945773D01*
X162511626Y-100801212D01*
X162511618Y-100801206D01*
X162341632Y-100687625D01*
X162341628Y-100687623D01*
X162152748Y-100609387D01*
X162152736Y-100609384D01*
X161952227Y-100569500D01*
X161952224Y-100569500D01*
X161747776Y-100569500D01*
X161747773Y-100569500D01*
X161547263Y-100609384D01*
X161547251Y-100609387D01*
X161358371Y-100687623D01*
X161358367Y-100687625D01*
X161188381Y-100801206D01*
X161188373Y-100801212D01*
X161043812Y-100945773D01*
X161043806Y-100945781D01*
X160930225Y-101115767D01*
X160930223Y-101115771D01*
X160851987Y-101304651D01*
X160851984Y-101304663D01*
X160812100Y-101505171D01*
X160347899Y-101505171D01*
X160331086Y-101420648D01*
X160308014Y-101304656D01*
X160308012Y-101304651D01*
X160229776Y-101115771D01*
X160229774Y-101115767D01*
X160116193Y-100945781D01*
X160116187Y-100945773D01*
X159971626Y-100801212D01*
X159971618Y-100801206D01*
X159801632Y-100687625D01*
X159801628Y-100687623D01*
X159612748Y-100609387D01*
X159612736Y-100609384D01*
X159412227Y-100569500D01*
X159412224Y-100569500D01*
X159207776Y-100569500D01*
X159207773Y-100569500D01*
X159007263Y-100609384D01*
X159007251Y-100609387D01*
X158818371Y-100687623D01*
X158818367Y-100687625D01*
X158648381Y-100801206D01*
X158648373Y-100801212D01*
X158503812Y-100945773D01*
X158503806Y-100945781D01*
X158390225Y-101115767D01*
X158390223Y-101115771D01*
X158311987Y-101304651D01*
X158311984Y-101304661D01*
X158287959Y-101425443D01*
X158255574Y-101487354D01*
X158194858Y-101521928D01*
X158125088Y-101518188D01*
X158068417Y-101477321D01*
X158043869Y-101420648D01*
X158025701Y-101305937D01*
X158025700Y-101305936D01*
X157963078Y-101113207D01*
X157871080Y-100932651D01*
X157751979Y-100768721D01*
X157751975Y-100768716D01*
X157608683Y-100625424D01*
X157608678Y-100625420D01*
X157444748Y-100506319D01*
X157264192Y-100414321D01*
X157071463Y-100351699D01*
X157020000Y-100343548D01*
X157020000Y-103548420D01*
X156975885Y-103522950D01*
X156840223Y-103486600D01*
X156699777Y-103486600D01*
X156564115Y-103522950D01*
X156520000Y-103548420D01*
X156520000Y-100343548D01*
X156519999Y-100343548D01*
X156468536Y-100351699D01*
X156275807Y-100414321D01*
X156095251Y-100506319D01*
X155931321Y-100625420D01*
X155931316Y-100625424D01*
X155788024Y-100768716D01*
X155788020Y-100768721D01*
X155668919Y-100932651D01*
X155576921Y-101113207D01*
X155514299Y-101305936D01*
X155496130Y-101420649D01*
X155466200Y-101483784D01*
X155406889Y-101520715D01*
X155337026Y-101519717D01*
X155278794Y-101481107D01*
X155252040Y-101425442D01*
X155246583Y-101398008D01*
X155228014Y-101304656D01*
X155228012Y-101304651D01*
X155149776Y-101115771D01*
X155149774Y-101115767D01*
X155036193Y-100945781D01*
X155036187Y-100945773D01*
X154891626Y-100801212D01*
X154891618Y-100801206D01*
X154721632Y-100687625D01*
X154721628Y-100687623D01*
X154532748Y-100609387D01*
X154532736Y-100609384D01*
X154332227Y-100569500D01*
X154332224Y-100569500D01*
X154127776Y-100569500D01*
X154127773Y-100569500D01*
X153927263Y-100609384D01*
X153927251Y-100609387D01*
X153738371Y-100687623D01*
X153738367Y-100687625D01*
X153568381Y-100801206D01*
X153568373Y-100801212D01*
X153423812Y-100945773D01*
X153423806Y-100945781D01*
X153310225Y-101115767D01*
X153310223Y-101115771D01*
X153231987Y-101304651D01*
X153231984Y-101304663D01*
X153192100Y-101505171D01*
X143500500Y-101505171D01*
X143500500Y-99737399D01*
X157274500Y-99737399D01*
X157274500Y-99862601D01*
X157306905Y-99983536D01*
X157369505Y-100091964D01*
X157458036Y-100180495D01*
X157566464Y-100243095D01*
X157687399Y-100275500D01*
X157687401Y-100275500D01*
X157812599Y-100275500D01*
X157812601Y-100275500D01*
X157933536Y-100243095D01*
X158041964Y-100180495D01*
X158130495Y-100091964D01*
X158193095Y-99983536D01*
X158225500Y-99862601D01*
X158225500Y-99747399D01*
X159834500Y-99747399D01*
X159834500Y-99872601D01*
X159866905Y-99993536D01*
X159929505Y-100101964D01*
X160018036Y-100190495D01*
X160126464Y-100253095D01*
X160247399Y-100285500D01*
X160247401Y-100285500D01*
X160372599Y-100285500D01*
X160372601Y-100285500D01*
X160493536Y-100253095D01*
X160601964Y-100190495D01*
X160690495Y-100101964D01*
X160753095Y-99993536D01*
X160785500Y-99872601D01*
X160785500Y-99747399D01*
X160782820Y-99737399D01*
X162454500Y-99737399D01*
X162454500Y-99862601D01*
X162486905Y-99983536D01*
X162549505Y-100091964D01*
X162638036Y-100180495D01*
X162746464Y-100243095D01*
X162867399Y-100275500D01*
X162867401Y-100275500D01*
X162992599Y-100275500D01*
X162992601Y-100275500D01*
X163113536Y-100243095D01*
X163221964Y-100180495D01*
X163310495Y-100091964D01*
X163373095Y-99983536D01*
X163405500Y-99862601D01*
X163405500Y-99757399D01*
X178094500Y-99757399D01*
X178094500Y-99882601D01*
X178126905Y-100003536D01*
X178189505Y-100111964D01*
X178278036Y-100200495D01*
X178386464Y-100263095D01*
X178507399Y-100295500D01*
X178507401Y-100295500D01*
X178632599Y-100295500D01*
X178632601Y-100295500D01*
X178753536Y-100263095D01*
X178861964Y-100200495D01*
X178950495Y-100111964D01*
X179013095Y-100003536D01*
X179045500Y-99882601D01*
X179045500Y-99757399D01*
X179040141Y-99737399D01*
X180734500Y-99737399D01*
X180734500Y-99862601D01*
X180766905Y-99983536D01*
X180829505Y-100091964D01*
X180918036Y-100180495D01*
X181026464Y-100243095D01*
X181147399Y-100275500D01*
X181147401Y-100275500D01*
X181272599Y-100275500D01*
X181272601Y-100275500D01*
X181393536Y-100243095D01*
X181501964Y-100180495D01*
X181590495Y-100091964D01*
X181653095Y-99983536D01*
X181685500Y-99862601D01*
X181685500Y-99767399D01*
X183274500Y-99767399D01*
X183274500Y-99892601D01*
X183306905Y-100013536D01*
X183369505Y-100121964D01*
X183458036Y-100210495D01*
X183566464Y-100273095D01*
X183687399Y-100305500D01*
X183687401Y-100305500D01*
X183812599Y-100305500D01*
X183812601Y-100305500D01*
X183933536Y-100273095D01*
X184041964Y-100210495D01*
X184130495Y-100121964D01*
X184193095Y-100013536D01*
X184225500Y-99892601D01*
X184225500Y-99767399D01*
X184193095Y-99646464D01*
X184130495Y-99538036D01*
X184041964Y-99449505D01*
X183933536Y-99386905D01*
X183933537Y-99386905D01*
X183893224Y-99376103D01*
X183812601Y-99354500D01*
X183687399Y-99354500D01*
X183606775Y-99376103D01*
X183566463Y-99386905D01*
X183458037Y-99449504D01*
X183458034Y-99449506D01*
X183369506Y-99538034D01*
X183369504Y-99538037D01*
X183306905Y-99646463D01*
X183306905Y-99646464D01*
X183274500Y-99767399D01*
X181685500Y-99767399D01*
X181685500Y-99737399D01*
X181653095Y-99616464D01*
X181590495Y-99508036D01*
X181501964Y-99419505D01*
X181393536Y-99356905D01*
X181393537Y-99356905D01*
X181347241Y-99344500D01*
X181272601Y-99324500D01*
X181147399Y-99324500D01*
X181072759Y-99344500D01*
X181026463Y-99356905D01*
X180918037Y-99419504D01*
X180918034Y-99419506D01*
X180829506Y-99508034D01*
X180829504Y-99508037D01*
X180766905Y-99616463D01*
X180766905Y-99616464D01*
X180734500Y-99737399D01*
X179040141Y-99737399D01*
X179013095Y-99636464D01*
X178950495Y-99528036D01*
X178861964Y-99439505D01*
X178753536Y-99376905D01*
X178753537Y-99376905D01*
X178713224Y-99366103D01*
X178632601Y-99344500D01*
X178507399Y-99344500D01*
X178426775Y-99366103D01*
X178386463Y-99376905D01*
X178278037Y-99439504D01*
X178278034Y-99439506D01*
X178189506Y-99528034D01*
X178189504Y-99528037D01*
X178126905Y-99636463D01*
X178126905Y-99636464D01*
X178094500Y-99757399D01*
X163405500Y-99757399D01*
X163405500Y-99737399D01*
X163373095Y-99616464D01*
X163310495Y-99508036D01*
X163221964Y-99419505D01*
X163113536Y-99356905D01*
X163113537Y-99356905D01*
X163067241Y-99344500D01*
X162992601Y-99324500D01*
X162867399Y-99324500D01*
X162792759Y-99344500D01*
X162746463Y-99356905D01*
X162638037Y-99419504D01*
X162638034Y-99419506D01*
X162549506Y-99508034D01*
X162549504Y-99508037D01*
X162486905Y-99616463D01*
X162486905Y-99616464D01*
X162454500Y-99737399D01*
X160782820Y-99737399D01*
X160753095Y-99626464D01*
X160690495Y-99518036D01*
X160601964Y-99429505D01*
X160493536Y-99366905D01*
X160493537Y-99366905D01*
X160447241Y-99354500D01*
X160372601Y-99334500D01*
X160247399Y-99334500D01*
X160172759Y-99354500D01*
X160126463Y-99366905D01*
X160018037Y-99429504D01*
X160018034Y-99429506D01*
X159929506Y-99518034D01*
X159929504Y-99518037D01*
X159866905Y-99626463D01*
X159866905Y-99626464D01*
X159834500Y-99747399D01*
X158225500Y-99747399D01*
X158225500Y-99737399D01*
X158193095Y-99616464D01*
X158130495Y-99508036D01*
X158041964Y-99419505D01*
X157933536Y-99356905D01*
X157933537Y-99356905D01*
X157887241Y-99344500D01*
X157812601Y-99324500D01*
X157687399Y-99324500D01*
X157612759Y-99344500D01*
X157566463Y-99356905D01*
X157458037Y-99419504D01*
X157458034Y-99419506D01*
X157369506Y-99508034D01*
X157369504Y-99508037D01*
X157306905Y-99616463D01*
X157306905Y-99616464D01*
X157274500Y-99737399D01*
X143500500Y-99737399D01*
X143500500Y-98677399D01*
X161444500Y-98677399D01*
X161444500Y-98802601D01*
X161476905Y-98923536D01*
X161539505Y-99031964D01*
X161628036Y-99120495D01*
X161736464Y-99183095D01*
X161857399Y-99215500D01*
X161857401Y-99215500D01*
X161982599Y-99215500D01*
X161982601Y-99215500D01*
X162103536Y-99183095D01*
X162211964Y-99120495D01*
X162300495Y-99031964D01*
X162363095Y-98923536D01*
X162395500Y-98802601D01*
X162395500Y-98677399D01*
X162363095Y-98556464D01*
X162357861Y-98547399D01*
X179654500Y-98547399D01*
X179654500Y-98672601D01*
X179686905Y-98793536D01*
X179749505Y-98901964D01*
X179838036Y-98990495D01*
X179946464Y-99053095D01*
X180067399Y-99085500D01*
X180067401Y-99085500D01*
X180192599Y-99085500D01*
X180192601Y-99085500D01*
X180313536Y-99053095D01*
X180421964Y-98990495D01*
X180510495Y-98901964D01*
X180573095Y-98793536D01*
X180605500Y-98672601D01*
X180605500Y-98547399D01*
X180573095Y-98426464D01*
X180510495Y-98318036D01*
X180421964Y-98229505D01*
X180313536Y-98166905D01*
X180313537Y-98166905D01*
X180273224Y-98156103D01*
X180192601Y-98134500D01*
X180067399Y-98134500D01*
X179986775Y-98156103D01*
X179946463Y-98166905D01*
X179838037Y-98229504D01*
X179838034Y-98229506D01*
X179749506Y-98318034D01*
X179749504Y-98318037D01*
X179686905Y-98426463D01*
X179686905Y-98426464D01*
X179654500Y-98547399D01*
X162357861Y-98547399D01*
X162300495Y-98448036D01*
X162211964Y-98359505D01*
X162103536Y-98296905D01*
X162103537Y-98296905D01*
X162063224Y-98286103D01*
X161982601Y-98264500D01*
X161857399Y-98264500D01*
X161776775Y-98286103D01*
X161736463Y-98296905D01*
X161628037Y-98359504D01*
X161628034Y-98359506D01*
X161539506Y-98448034D01*
X161539504Y-98448037D01*
X161476905Y-98556463D01*
X161476905Y-98556464D01*
X161444500Y-98677399D01*
X143500500Y-98677399D01*
X143500500Y-96997399D01*
X162872000Y-96997399D01*
X162872000Y-97122601D01*
X162904405Y-97243536D01*
X162967005Y-97351964D01*
X163055536Y-97440495D01*
X163163964Y-97503095D01*
X163284899Y-97535500D01*
X163284901Y-97535500D01*
X163410099Y-97535500D01*
X163410101Y-97535500D01*
X163531036Y-97503095D01*
X163639464Y-97440495D01*
X163727995Y-97351964D01*
X163790595Y-97243536D01*
X163823000Y-97122601D01*
X163823000Y-96997399D01*
X163790595Y-96876464D01*
X163727995Y-96768036D01*
X163639464Y-96679505D01*
X163531036Y-96616905D01*
X163531037Y-96616905D01*
X163490724Y-96606103D01*
X163410101Y-96584500D01*
X163284899Y-96584500D01*
X163204275Y-96606103D01*
X163163963Y-96616905D01*
X163055537Y-96679504D01*
X163055534Y-96679506D01*
X162967006Y-96768034D01*
X162967004Y-96768037D01*
X162904405Y-96876463D01*
X162904405Y-96876464D01*
X162872000Y-96997399D01*
X143500500Y-96997399D01*
X143500500Y-95097399D01*
X165362000Y-95097399D01*
X165362000Y-95222601D01*
X165394405Y-95343536D01*
X165457005Y-95451964D01*
X165545536Y-95540495D01*
X165653964Y-95603095D01*
X165774899Y-95635500D01*
X165774901Y-95635500D01*
X165900099Y-95635500D01*
X165900101Y-95635500D01*
X166021036Y-95603095D01*
X166129464Y-95540495D01*
X166217995Y-95451964D01*
X166280595Y-95343536D01*
X166313000Y-95222601D01*
X166313000Y-95097399D01*
X166280595Y-94976464D01*
X166258041Y-94937399D01*
X172604500Y-94937399D01*
X172604500Y-95062601D01*
X172636905Y-95183536D01*
X172699505Y-95291964D01*
X172788036Y-95380495D01*
X172896464Y-95443095D01*
X173017399Y-95475500D01*
X173017401Y-95475500D01*
X173142599Y-95475500D01*
X173142601Y-95475500D01*
X173263536Y-95443095D01*
X173371964Y-95380495D01*
X173460495Y-95291964D01*
X173523095Y-95183536D01*
X173555500Y-95062601D01*
X173555500Y-94937399D01*
X173523095Y-94816464D01*
X173460495Y-94708036D01*
X173371964Y-94619505D01*
X173263536Y-94556905D01*
X173263537Y-94556905D01*
X173211997Y-94543095D01*
X173142601Y-94524500D01*
X173017399Y-94524500D01*
X172948003Y-94543095D01*
X172896463Y-94556905D01*
X172788037Y-94619504D01*
X172788034Y-94619506D01*
X172699506Y-94708034D01*
X172699504Y-94708037D01*
X172636905Y-94816463D01*
X172636905Y-94816464D01*
X172604500Y-94937399D01*
X166258041Y-94937399D01*
X166217995Y-94868036D01*
X166129464Y-94779505D01*
X166021036Y-94716905D01*
X166021037Y-94716905D01*
X165980724Y-94706103D01*
X165900101Y-94684500D01*
X165774899Y-94684500D01*
X165694275Y-94706103D01*
X165653963Y-94716905D01*
X165545537Y-94779504D01*
X165545534Y-94779506D01*
X165457006Y-94868034D01*
X165457004Y-94868037D01*
X165394405Y-94976463D01*
X165394405Y-94976464D01*
X165362000Y-95097399D01*
X143500500Y-95097399D01*
X143500500Y-94037399D01*
X160004500Y-94037399D01*
X160004500Y-94162601D01*
X160036905Y-94283536D01*
X160099505Y-94391964D01*
X160188036Y-94480495D01*
X160296464Y-94543095D01*
X160417399Y-94575500D01*
X160417401Y-94575500D01*
X160542599Y-94575500D01*
X160542601Y-94575500D01*
X160663536Y-94543095D01*
X160771964Y-94480495D01*
X160860495Y-94391964D01*
X160923095Y-94283536D01*
X160955500Y-94162601D01*
X160955500Y-94037399D01*
X161319500Y-94037399D01*
X161319500Y-94162601D01*
X161351905Y-94283536D01*
X161414505Y-94391964D01*
X161503036Y-94480495D01*
X161611464Y-94543095D01*
X161732399Y-94575500D01*
X161732401Y-94575500D01*
X161857599Y-94575500D01*
X161857601Y-94575500D01*
X161978536Y-94543095D01*
X162086964Y-94480495D01*
X162175495Y-94391964D01*
X162238095Y-94283536D01*
X162270500Y-94162601D01*
X162270500Y-94037399D01*
X162634500Y-94037399D01*
X162634500Y-94162601D01*
X162666905Y-94283536D01*
X162729505Y-94391964D01*
X162818036Y-94480495D01*
X162926464Y-94543095D01*
X163047399Y-94575500D01*
X163047401Y-94575500D01*
X163172599Y-94575500D01*
X163172601Y-94575500D01*
X163293536Y-94543095D01*
X163401964Y-94480495D01*
X163490495Y-94391964D01*
X163553095Y-94283536D01*
X163585500Y-94162601D01*
X163585500Y-94147399D01*
X180304500Y-94147399D01*
X180304500Y-94272601D01*
X180336905Y-94393536D01*
X180399505Y-94501964D01*
X180488036Y-94590495D01*
X180596464Y-94653095D01*
X180717399Y-94685500D01*
X180717401Y-94685500D01*
X180842599Y-94685500D01*
X180842601Y-94685500D01*
X180963536Y-94653095D01*
X181071964Y-94590495D01*
X181160495Y-94501964D01*
X181223095Y-94393536D01*
X181255500Y-94272601D01*
X181255500Y-94147399D01*
X181619500Y-94147399D01*
X181619500Y-94272601D01*
X181651905Y-94393536D01*
X181714505Y-94501964D01*
X181803036Y-94590495D01*
X181911464Y-94653095D01*
X182032399Y-94685500D01*
X182032401Y-94685500D01*
X182157599Y-94685500D01*
X182157601Y-94685500D01*
X182278536Y-94653095D01*
X182386964Y-94590495D01*
X182475495Y-94501964D01*
X182538095Y-94393536D01*
X182570500Y-94272601D01*
X182570500Y-94147399D01*
X182934500Y-94147399D01*
X182934500Y-94272601D01*
X182966905Y-94393536D01*
X183029505Y-94501964D01*
X183118036Y-94590495D01*
X183226464Y-94653095D01*
X183347399Y-94685500D01*
X183347401Y-94685500D01*
X183472599Y-94685500D01*
X183472601Y-94685500D01*
X183593536Y-94653095D01*
X183701964Y-94590495D01*
X183790495Y-94501964D01*
X183853095Y-94393536D01*
X183885500Y-94272601D01*
X183885500Y-94147399D01*
X183853095Y-94026464D01*
X183790495Y-93918036D01*
X183701964Y-93829505D01*
X183593536Y-93766905D01*
X183593537Y-93766905D01*
X183553224Y-93756103D01*
X183472601Y-93734500D01*
X183347399Y-93734500D01*
X183266775Y-93756103D01*
X183226463Y-93766905D01*
X183118037Y-93829504D01*
X183118034Y-93829506D01*
X183029506Y-93918034D01*
X183029504Y-93918037D01*
X182966905Y-94026463D01*
X182950702Y-94086931D01*
X182934500Y-94147399D01*
X182570500Y-94147399D01*
X182538095Y-94026464D01*
X182475495Y-93918036D01*
X182386964Y-93829505D01*
X182278536Y-93766905D01*
X182278537Y-93766905D01*
X182238224Y-93756103D01*
X182157601Y-93734500D01*
X182032399Y-93734500D01*
X181951775Y-93756103D01*
X181911463Y-93766905D01*
X181803037Y-93829504D01*
X181803034Y-93829506D01*
X181714506Y-93918034D01*
X181714504Y-93918037D01*
X181651905Y-94026463D01*
X181635702Y-94086931D01*
X181619500Y-94147399D01*
X181255500Y-94147399D01*
X181223095Y-94026464D01*
X181160495Y-93918036D01*
X181071964Y-93829505D01*
X180963536Y-93766905D01*
X180963537Y-93766905D01*
X180923224Y-93756103D01*
X180842601Y-93734500D01*
X180717399Y-93734500D01*
X180636775Y-93756103D01*
X180596463Y-93766905D01*
X180488037Y-93829504D01*
X180488034Y-93829506D01*
X180399506Y-93918034D01*
X180399504Y-93918037D01*
X180336905Y-94026463D01*
X180320702Y-94086931D01*
X180304500Y-94147399D01*
X163585500Y-94147399D01*
X163585500Y-94037399D01*
X163553095Y-93916464D01*
X163490495Y-93808036D01*
X163401964Y-93719505D01*
X163293536Y-93656905D01*
X163293537Y-93656905D01*
X163253224Y-93646103D01*
X163172601Y-93624500D01*
X163047399Y-93624500D01*
X162966775Y-93646103D01*
X162926463Y-93656905D01*
X162818037Y-93719504D01*
X162818034Y-93719506D01*
X162729506Y-93808034D01*
X162729504Y-93808037D01*
X162666905Y-93916463D01*
X162650702Y-93976931D01*
X162634500Y-94037399D01*
X162270500Y-94037399D01*
X162238095Y-93916464D01*
X162175495Y-93808036D01*
X162086964Y-93719505D01*
X161978536Y-93656905D01*
X161978537Y-93656905D01*
X161938224Y-93646103D01*
X161857601Y-93624500D01*
X161732399Y-93624500D01*
X161651775Y-93646103D01*
X161611463Y-93656905D01*
X161503037Y-93719504D01*
X161503034Y-93719506D01*
X161414506Y-93808034D01*
X161414504Y-93808037D01*
X161351905Y-93916463D01*
X161335702Y-93976931D01*
X161319500Y-94037399D01*
X160955500Y-94037399D01*
X160923095Y-93916464D01*
X160860495Y-93808036D01*
X160771964Y-93719505D01*
X160663536Y-93656905D01*
X160663537Y-93656905D01*
X160623224Y-93646103D01*
X160542601Y-93624500D01*
X160417399Y-93624500D01*
X160336775Y-93646103D01*
X160296463Y-93656905D01*
X160188037Y-93719504D01*
X160188034Y-93719506D01*
X160099506Y-93808034D01*
X160099504Y-93808037D01*
X160036905Y-93916463D01*
X160020702Y-93976931D01*
X160004500Y-94037399D01*
X143500500Y-94037399D01*
X143500500Y-71963905D01*
X154520000Y-71963905D01*
X154520000Y-72226094D01*
X154554220Y-72486009D01*
X154554222Y-72486020D01*
X154622075Y-72739255D01*
X154722404Y-72981471D01*
X154722409Y-72981482D01*
X154853488Y-73208516D01*
X154853494Y-73208524D01*
X154940080Y-73321365D01*
X155765884Y-72495561D01*
X155766740Y-72497626D01*
X155859762Y-72636844D01*
X155978156Y-72755238D01*
X156117374Y-72848260D01*
X156119437Y-72849114D01*
X155293633Y-73674917D01*
X155293633Y-73674918D01*
X155406475Y-73761505D01*
X155406483Y-73761511D01*
X155633517Y-73892590D01*
X155633528Y-73892595D01*
X155875744Y-73992924D01*
X156128979Y-74060777D01*
X156128990Y-74060779D01*
X156388905Y-74094999D01*
X156388920Y-74095000D01*
X156651080Y-74095000D01*
X156651094Y-74094999D01*
X156911009Y-74060779D01*
X156911020Y-74060777D01*
X157164255Y-73992924D01*
X157406471Y-73892595D01*
X157406482Y-73892590D01*
X157633516Y-73761511D01*
X157633534Y-73761499D01*
X157746365Y-73674919D01*
X157746365Y-73674917D01*
X156920562Y-72849114D01*
X156922626Y-72848260D01*
X157061844Y-72755238D01*
X157180238Y-72636844D01*
X157273260Y-72497626D01*
X157274114Y-72495562D01*
X158099917Y-73321365D01*
X158099919Y-73321365D01*
X158186499Y-73208534D01*
X158186511Y-73208516D01*
X158317590Y-72981482D01*
X158317595Y-72981471D01*
X158417924Y-72739255D01*
X158485777Y-72486020D01*
X158485779Y-72486009D01*
X158519999Y-72226094D01*
X158520000Y-72226080D01*
X158520000Y-71963919D01*
X158519999Y-71963905D01*
X158485779Y-71703990D01*
X158485777Y-71703979D01*
X158417924Y-71450744D01*
X158317595Y-71208528D01*
X158317590Y-71208517D01*
X158186511Y-70981483D01*
X158186505Y-70981475D01*
X158099918Y-70868633D01*
X158099917Y-70868633D01*
X157274114Y-71694436D01*
X157273260Y-71692374D01*
X157180238Y-71553156D01*
X157061844Y-71434762D01*
X156922626Y-71341740D01*
X156920560Y-71340884D01*
X157746365Y-70515080D01*
X157633524Y-70428494D01*
X157633516Y-70428488D01*
X157406482Y-70297409D01*
X157406471Y-70297404D01*
X157164255Y-70197075D01*
X156911020Y-70129222D01*
X156911009Y-70129220D01*
X156651094Y-70095000D01*
X156388905Y-70095000D01*
X156128990Y-70129220D01*
X156128979Y-70129222D01*
X155875744Y-70197075D01*
X155633528Y-70297404D01*
X155633517Y-70297409D01*
X155406471Y-70428496D01*
X155293633Y-70515079D01*
X155293633Y-70515080D01*
X156119438Y-71340885D01*
X156117374Y-71341740D01*
X155978156Y-71434762D01*
X155859762Y-71553156D01*
X155766740Y-71692374D01*
X155765885Y-71694438D01*
X154940080Y-70868633D01*
X154940079Y-70868633D01*
X154853496Y-70981471D01*
X154722409Y-71208517D01*
X154722404Y-71208528D01*
X154622075Y-71450744D01*
X154554222Y-71703979D01*
X154554220Y-71703990D01*
X154520000Y-71963905D01*
X143500500Y-71963905D01*
X143500500Y-63872149D01*
X146049500Y-63872149D01*
X146049500Y-64127850D01*
X146075457Y-64325007D01*
X146082874Y-64381340D01*
X146111160Y-64486905D01*
X146149050Y-64628312D01*
X146149053Y-64628322D01*
X146246894Y-64864531D01*
X146246899Y-64864542D01*
X146374734Y-65085957D01*
X146374745Y-65085973D01*
X146530388Y-65288811D01*
X146530394Y-65288818D01*
X146711181Y-65469605D01*
X146711188Y-65469611D01*
X146797821Y-65536087D01*
X146914035Y-65625261D01*
X146914042Y-65625265D01*
X147135457Y-65753100D01*
X147135462Y-65753102D01*
X147135465Y-65753104D01*
X147371687Y-65850950D01*
X147618660Y-65917126D01*
X147872157Y-65950500D01*
X147872164Y-65950500D01*
X148127836Y-65950500D01*
X148127843Y-65950500D01*
X148381340Y-65917126D01*
X148628313Y-65850950D01*
X148864535Y-65753104D01*
X149085965Y-65625261D01*
X149288813Y-65469610D01*
X149469610Y-65288813D01*
X149625261Y-65085965D01*
X149753104Y-64864535D01*
X149850950Y-64628313D01*
X149917126Y-64381340D01*
X149950500Y-64127843D01*
X149950500Y-63872157D01*
X149917126Y-63618660D01*
X149850950Y-63371687D01*
X149753104Y-63135465D01*
X149753102Y-63135462D01*
X149753100Y-63135457D01*
X149625265Y-62914042D01*
X149625261Y-62914035D01*
X149469610Y-62711187D01*
X149469605Y-62711181D01*
X149288818Y-62530394D01*
X149288811Y-62530388D01*
X149085973Y-62374745D01*
X149085971Y-62374743D01*
X149085965Y-62374739D01*
X149085960Y-62374736D01*
X149085957Y-62374734D01*
X148864542Y-62246899D01*
X148864531Y-62246894D01*
X148628322Y-62149053D01*
X148628315Y-62149051D01*
X148628313Y-62149050D01*
X148381340Y-62082874D01*
X148381339Y-62082873D01*
X148381336Y-62082873D01*
X148127850Y-62049500D01*
X148127843Y-62049500D01*
X147872157Y-62049500D01*
X147872149Y-62049500D01*
X147646826Y-62079165D01*
X147618660Y-62082874D01*
X147371687Y-62149050D01*
X147371677Y-62149053D01*
X147135468Y-62246894D01*
X147135457Y-62246899D01*
X146914042Y-62374734D01*
X146914026Y-62374745D01*
X146711188Y-62530388D01*
X146711181Y-62530394D01*
X146530394Y-62711181D01*
X146530388Y-62711188D01*
X146374745Y-62914026D01*
X146374734Y-62914042D01*
X146246899Y-63135457D01*
X146246894Y-63135468D01*
X146149053Y-63371677D01*
X146149050Y-63371687D01*
X146082874Y-63618661D01*
X146049500Y-63872149D01*
X143500500Y-63872149D01*
X143500500Y-61996577D01*
X152269500Y-61996577D01*
X152269500Y-62193422D01*
X152300290Y-62387826D01*
X152361117Y-62575029D01*
X152430494Y-62711188D01*
X152450476Y-62750405D01*
X152566172Y-62909646D01*
X152705354Y-63048828D01*
X152864595Y-63164524D01*
X152914760Y-63190084D01*
X153039970Y-63253882D01*
X153039972Y-63253882D01*
X153039975Y-63253884D01*
X153106502Y-63275500D01*
X153227173Y-63314709D01*
X153421578Y-63345500D01*
X153421583Y-63345500D01*
X153618422Y-63345500D01*
X153812826Y-63314709D01*
X154000025Y-63253884D01*
X154175405Y-63164524D01*
X154334646Y-63048828D01*
X154473828Y-62909646D01*
X154589524Y-62750405D01*
X154678884Y-62575025D01*
X154739709Y-62387826D01*
X154741783Y-62374734D01*
X154770500Y-62193422D01*
X154770500Y-61996577D01*
X154739709Y-61802173D01*
X154678882Y-61614970D01*
X154589523Y-61439594D01*
X154538600Y-61369505D01*
X154473828Y-61280354D01*
X154334646Y-61141172D01*
X154175405Y-61025476D01*
X154000029Y-60936117D01*
X153812826Y-60875290D01*
X153618422Y-60844500D01*
X153618417Y-60844500D01*
X153421583Y-60844500D01*
X153421578Y-60844500D01*
X153227173Y-60875290D01*
X153039970Y-60936117D01*
X152864594Y-61025476D01*
X152773741Y-61091485D01*
X152705354Y-61141172D01*
X152705352Y-61141174D01*
X152705351Y-61141174D01*
X152566174Y-61280351D01*
X152566174Y-61280352D01*
X152566172Y-61280354D01*
X152516485Y-61348741D01*
X152450476Y-61439594D01*
X152361117Y-61614970D01*
X152300290Y-61802173D01*
X152269500Y-61996577D01*
X143500500Y-61996577D01*
X143500500Y-60505411D01*
X143500972Y-60494605D01*
X143513760Y-60348430D01*
X143515664Y-60335097D01*
X143521503Y-60305739D01*
X143523330Y-60297903D01*
X143556779Y-60173068D01*
X143561990Y-60157721D01*
X143569010Y-60140773D01*
X143571161Y-60135881D01*
X143629825Y-60010076D01*
X143640629Y-59991366D01*
X143728119Y-59866417D01*
X143742007Y-59849865D01*
X143849865Y-59742007D01*
X143866417Y-59728119D01*
X143991366Y-59640629D01*
X144010076Y-59629825D01*
X144135881Y-59571161D01*
X144140773Y-59569010D01*
X144157721Y-59561990D01*
X144173068Y-59556779D01*
X144297903Y-59523330D01*
X144305739Y-59521503D01*
X144335097Y-59515664D01*
X144348430Y-59513760D01*
X144487871Y-59501561D01*
X144494606Y-59500972D01*
X144505412Y-59500500D01*
X161546269Y-59500500D01*
X161613308Y-59520185D01*
G37*
%TD.AperFunction*%
%TD*%
%TA.AperFunction,Conductor*%
%TO.N,/3V3*%
G36*
X192505394Y-59500972D02*
G01*
X192512947Y-59501632D01*
X192651564Y-59513760D01*
X192664907Y-59515665D01*
X192694247Y-59521501D01*
X192702109Y-59523334D01*
X192826922Y-59556777D01*
X192842275Y-59561989D01*
X192859224Y-59569009D01*
X192864134Y-59571169D01*
X192989918Y-59629823D01*
X193008633Y-59640629D01*
X193133582Y-59728119D01*
X193150140Y-59742013D01*
X193257986Y-59849859D01*
X193271880Y-59866417D01*
X193359370Y-59991366D01*
X193370177Y-60010084D01*
X193428809Y-60135819D01*
X193430989Y-60140774D01*
X193438009Y-60157723D01*
X193443222Y-60173080D01*
X193476659Y-60297869D01*
X193478501Y-60305769D01*
X193484330Y-60335071D01*
X193486241Y-60348456D01*
X193499028Y-60494605D01*
X193499500Y-60505413D01*
X193499500Y-92389639D01*
X193479815Y-92456678D01*
X193427011Y-92502433D01*
X193375285Y-92513639D01*
X190937544Y-92509416D01*
X190870539Y-92489615D01*
X190824876Y-92436732D01*
X190815052Y-92367556D01*
X190844187Y-92304051D01*
X190850065Y-92297748D01*
X190890500Y-92257314D01*
X190956392Y-92143186D01*
X190990500Y-92015892D01*
X190990500Y-91884108D01*
X190956392Y-91756814D01*
X190890500Y-91642686D01*
X190797314Y-91549500D01*
X190740250Y-91516554D01*
X190683187Y-91483608D01*
X190619539Y-91466554D01*
X190555892Y-91449500D01*
X190424108Y-91449500D01*
X190296812Y-91483608D01*
X190182686Y-91549500D01*
X190182683Y-91549502D01*
X190089502Y-91642683D01*
X190089500Y-91642686D01*
X190023608Y-91756812D01*
X189989500Y-91884108D01*
X189989500Y-92015891D01*
X190023608Y-92143187D01*
X190056554Y-92200250D01*
X190089500Y-92257314D01*
X190089502Y-92257316D01*
X190128367Y-92296181D01*
X190161852Y-92357504D01*
X190156868Y-92427196D01*
X190114996Y-92483129D01*
X190049532Y-92507546D01*
X190040471Y-92507862D01*
X164293270Y-92463255D01*
X164226265Y-92443454D01*
X164205753Y-92426885D01*
X162752437Y-90971871D01*
X162718987Y-90910528D01*
X162716169Y-90884311D01*
X162715754Y-90147399D01*
X172854500Y-90147399D01*
X172854500Y-90272601D01*
X172886905Y-90393536D01*
X172949505Y-90501964D01*
X173038036Y-90590495D01*
X173146464Y-90653095D01*
X173267399Y-90685500D01*
X173267401Y-90685500D01*
X173392599Y-90685500D01*
X173392601Y-90685500D01*
X173513536Y-90653095D01*
X173621964Y-90590495D01*
X173710495Y-90501964D01*
X173773095Y-90393536D01*
X173805500Y-90272601D01*
X173805500Y-90147399D01*
X173773095Y-90026464D01*
X173710495Y-89918036D01*
X173621964Y-89829505D01*
X173513536Y-89766905D01*
X173513537Y-89766905D01*
X173473224Y-89756103D01*
X173392601Y-89734500D01*
X173267399Y-89734500D01*
X173186775Y-89756103D01*
X173146463Y-89766905D01*
X173038037Y-89829504D01*
X173038034Y-89829506D01*
X172949506Y-89918034D01*
X172949504Y-89918037D01*
X172886905Y-90026463D01*
X172886905Y-90026464D01*
X172854500Y-90147399D01*
X162715754Y-90147399D01*
X162715749Y-90139341D01*
X162714525Y-87969144D01*
X175341024Y-87969144D01*
X175341024Y-88100927D01*
X175375132Y-88228223D01*
X175408078Y-88285286D01*
X175441024Y-88342350D01*
X175534210Y-88435536D01*
X175633045Y-88492599D01*
X175645005Y-88499504D01*
X175648338Y-88501428D01*
X175775632Y-88535536D01*
X175775634Y-88535536D01*
X175907414Y-88535536D01*
X175907416Y-88535536D01*
X176034710Y-88501428D01*
X176148838Y-88435536D01*
X176150230Y-88434144D01*
X180071024Y-88434144D01*
X180071024Y-88565927D01*
X180105132Y-88693223D01*
X180136337Y-88747270D01*
X180171024Y-88807350D01*
X180264210Y-88900536D01*
X180378338Y-88966428D01*
X180505632Y-89000536D01*
X180505634Y-89000536D01*
X180637414Y-89000536D01*
X180637416Y-89000536D01*
X180764710Y-88966428D01*
X180878838Y-88900536D01*
X180961975Y-88817399D01*
X183894500Y-88817399D01*
X183894500Y-88942601D01*
X183926905Y-89063536D01*
X183989505Y-89171964D01*
X184078036Y-89260495D01*
X184186464Y-89323095D01*
X184307399Y-89355500D01*
X184307401Y-89355500D01*
X184432599Y-89355500D01*
X184432601Y-89355500D01*
X184553536Y-89323095D01*
X184661964Y-89260495D01*
X184750495Y-89171964D01*
X184813095Y-89063536D01*
X184845500Y-88942601D01*
X184845500Y-88817399D01*
X184813095Y-88696464D01*
X184750495Y-88588036D01*
X184661964Y-88499505D01*
X184553536Y-88436905D01*
X184553537Y-88436905D01*
X184513224Y-88426103D01*
X184432601Y-88404500D01*
X184307399Y-88404500D01*
X184226775Y-88426103D01*
X184186463Y-88436905D01*
X184078037Y-88499504D01*
X184078034Y-88499506D01*
X183989506Y-88588034D01*
X183989504Y-88588037D01*
X183926905Y-88696463D01*
X183926905Y-88696464D01*
X183894500Y-88817399D01*
X180961975Y-88817399D01*
X180972024Y-88807350D01*
X181037916Y-88693222D01*
X181072024Y-88565928D01*
X181072024Y-88434144D01*
X181037916Y-88306850D01*
X180972024Y-88192722D01*
X180878838Y-88099536D01*
X180821774Y-88066590D01*
X180764711Y-88033644D01*
X180701063Y-88016590D01*
X180637416Y-87999536D01*
X180505632Y-87999536D01*
X180378336Y-88033644D01*
X180264210Y-88099536D01*
X180264207Y-88099538D01*
X180171026Y-88192719D01*
X180171024Y-88192722D01*
X180105132Y-88306848D01*
X180071024Y-88434144D01*
X176150230Y-88434144D01*
X176242024Y-88342350D01*
X176307916Y-88228222D01*
X176342024Y-88100928D01*
X176342024Y-87969144D01*
X176307916Y-87841850D01*
X176242024Y-87727722D01*
X176148838Y-87634536D01*
X176091774Y-87601590D01*
X176034711Y-87568644D01*
X175971063Y-87551590D01*
X175907416Y-87534536D01*
X175775632Y-87534536D01*
X175648336Y-87568644D01*
X175534210Y-87634536D01*
X175534207Y-87634538D01*
X175441026Y-87727719D01*
X175441024Y-87727722D01*
X175375132Y-87841848D01*
X175341024Y-87969144D01*
X162714525Y-87969144D01*
X162714155Y-87314108D01*
X173989500Y-87314108D01*
X173989500Y-87445891D01*
X174023608Y-87573187D01*
X174056554Y-87630250D01*
X174089500Y-87687314D01*
X174182686Y-87780500D01*
X174281521Y-87837563D01*
X174296810Y-87846390D01*
X174296814Y-87846392D01*
X174424108Y-87880500D01*
X174424110Y-87880500D01*
X174555890Y-87880500D01*
X174555892Y-87880500D01*
X174683186Y-87846392D01*
X174797314Y-87780500D01*
X174890500Y-87687314D01*
X174956392Y-87573186D01*
X174990500Y-87445892D01*
X174990500Y-87314108D01*
X174956392Y-87186814D01*
X174890500Y-87072686D01*
X174797314Y-86979500D01*
X174740250Y-86946554D01*
X174683187Y-86913608D01*
X174619539Y-86896554D01*
X174555892Y-86879500D01*
X174424108Y-86879500D01*
X174296812Y-86913608D01*
X174182686Y-86979500D01*
X174182683Y-86979502D01*
X174089502Y-87072683D01*
X174089500Y-87072686D01*
X174023608Y-87186812D01*
X173989500Y-87314108D01*
X162714155Y-87314108D01*
X162713813Y-86707399D01*
X168894500Y-86707399D01*
X168894500Y-86832601D01*
X168926905Y-86953536D01*
X168989505Y-87061964D01*
X169078036Y-87150495D01*
X169186464Y-87213095D01*
X169307399Y-87245500D01*
X169307401Y-87245500D01*
X169432599Y-87245500D01*
X169432601Y-87245500D01*
X169553536Y-87213095D01*
X169661964Y-87150495D01*
X169750495Y-87061964D01*
X169813095Y-86953536D01*
X169845500Y-86832601D01*
X169845500Y-86707399D01*
X169813095Y-86586464D01*
X169750495Y-86478036D01*
X169661964Y-86389505D01*
X169600654Y-86354108D01*
X178449500Y-86354108D01*
X178449500Y-86485892D01*
X178456103Y-86510535D01*
X178483608Y-86613187D01*
X178491253Y-86626428D01*
X178549500Y-86727314D01*
X178642686Y-86820500D01*
X178756814Y-86886392D01*
X178884108Y-86920500D01*
X178884110Y-86920500D01*
X179015890Y-86920500D01*
X179015892Y-86920500D01*
X179143186Y-86886392D01*
X179257314Y-86820500D01*
X179350500Y-86727314D01*
X179416392Y-86613186D01*
X179450500Y-86485892D01*
X179450500Y-86354108D01*
X179416392Y-86226814D01*
X179416041Y-86226206D01*
X179370899Y-86148017D01*
X179370898Y-86148015D01*
X179350504Y-86112692D01*
X179350501Y-86112689D01*
X179350500Y-86112686D01*
X179331958Y-86094144D01*
X180420217Y-86094144D01*
X180420217Y-86225928D01*
X180437271Y-86289575D01*
X180454325Y-86353223D01*
X180487271Y-86410286D01*
X180520217Y-86467350D01*
X180613403Y-86560536D01*
X180727531Y-86626428D01*
X180854825Y-86660536D01*
X180854827Y-86660536D01*
X180986607Y-86660536D01*
X180986609Y-86660536D01*
X181113903Y-86626428D01*
X181228031Y-86560536D01*
X181321217Y-86467350D01*
X181387109Y-86353222D01*
X181421217Y-86225928D01*
X181421217Y-86094144D01*
X181407820Y-86044144D01*
X181760217Y-86044144D01*
X181760217Y-86175928D01*
X181776189Y-86235536D01*
X181794325Y-86303223D01*
X181807998Y-86326905D01*
X181860217Y-86417350D01*
X181953403Y-86510536D01*
X182067531Y-86576428D01*
X182194825Y-86610536D01*
X182194827Y-86610536D01*
X182326607Y-86610536D01*
X182326609Y-86610536D01*
X182453903Y-86576428D01*
X182568031Y-86510536D01*
X182661217Y-86417350D01*
X182727109Y-86303222D01*
X182761217Y-86175928D01*
X182761217Y-86044144D01*
X182727109Y-85916850D01*
X182661217Y-85802722D01*
X182568031Y-85709536D01*
X182481429Y-85659536D01*
X182453904Y-85643644D01*
X182390256Y-85626590D01*
X182326609Y-85609536D01*
X182194825Y-85609536D01*
X182067529Y-85643644D01*
X181953403Y-85709536D01*
X181953400Y-85709538D01*
X181860219Y-85802719D01*
X181860217Y-85802722D01*
X181794325Y-85916848D01*
X181766820Y-86019500D01*
X181760217Y-86044144D01*
X181407820Y-86044144D01*
X181387109Y-85966850D01*
X181321217Y-85852722D01*
X181228031Y-85759536D01*
X181170967Y-85726590D01*
X181113904Y-85693644D01*
X181022474Y-85669146D01*
X180986609Y-85659536D01*
X180854825Y-85659536D01*
X180727529Y-85693644D01*
X180613403Y-85759536D01*
X180613400Y-85759538D01*
X180520219Y-85852719D01*
X180520217Y-85852722D01*
X180454325Y-85966848D01*
X180440217Y-86019502D01*
X180420217Y-86094144D01*
X179331958Y-86094144D01*
X179257314Y-86019500D01*
X179166122Y-85966850D01*
X179143187Y-85953608D01*
X179048443Y-85928222D01*
X179015892Y-85919500D01*
X178884108Y-85919500D01*
X178756812Y-85953608D01*
X178642686Y-86019500D01*
X178642683Y-86019502D01*
X178549502Y-86112683D01*
X178549500Y-86112686D01*
X178483608Y-86226812D01*
X178465472Y-86294500D01*
X178449500Y-86354108D01*
X169600654Y-86354108D01*
X169553536Y-86326905D01*
X169553537Y-86326905D01*
X169513224Y-86316103D01*
X169432601Y-86294500D01*
X169307399Y-86294500D01*
X169226775Y-86316103D01*
X169186463Y-86326905D01*
X169078037Y-86389504D01*
X169078034Y-86389506D01*
X168989506Y-86478034D01*
X168989504Y-86478037D01*
X168926905Y-86586463D01*
X168926905Y-86586464D01*
X168894500Y-86707399D01*
X162713813Y-86707399D01*
X162713808Y-86699341D01*
X162713730Y-86560533D01*
X162713227Y-85669144D01*
X177141024Y-85669144D01*
X177141024Y-85800927D01*
X177175132Y-85928223D01*
X177197433Y-85966848D01*
X177241024Y-86042350D01*
X177334210Y-86135536D01*
X177448338Y-86201428D01*
X177575632Y-86235536D01*
X177575634Y-86235536D01*
X177707414Y-86235536D01*
X177707416Y-86235536D01*
X177834710Y-86201428D01*
X177948838Y-86135536D01*
X178042024Y-86042350D01*
X178107916Y-85928222D01*
X178142024Y-85800928D01*
X178142024Y-85669144D01*
X178107916Y-85541850D01*
X178042024Y-85427722D01*
X177948838Y-85334536D01*
X177891774Y-85301590D01*
X177834711Y-85268644D01*
X177771063Y-85251590D01*
X177707416Y-85234536D01*
X177575632Y-85234536D01*
X177448336Y-85268644D01*
X177334210Y-85334536D01*
X177334207Y-85334538D01*
X177241026Y-85427719D01*
X177241024Y-85427722D01*
X177175132Y-85541848D01*
X177141024Y-85669144D01*
X162713227Y-85669144D01*
X162712846Y-84994108D01*
X189999500Y-84994108D01*
X189999500Y-85125891D01*
X190033608Y-85253187D01*
X190066554Y-85310250D01*
X190099500Y-85367314D01*
X190192686Y-85460500D01*
X190306814Y-85526392D01*
X190434108Y-85560500D01*
X190434110Y-85560500D01*
X190565890Y-85560500D01*
X190565892Y-85560500D01*
X190693186Y-85526392D01*
X190807314Y-85460500D01*
X190900500Y-85367314D01*
X190966392Y-85253186D01*
X191000500Y-85125892D01*
X191000500Y-84994108D01*
X190966392Y-84866814D01*
X190900500Y-84752686D01*
X190807314Y-84659500D01*
X190750250Y-84626554D01*
X190693187Y-84593608D01*
X190629539Y-84576554D01*
X190565892Y-84559500D01*
X190434108Y-84559500D01*
X190306812Y-84593608D01*
X190192686Y-84659500D01*
X190192683Y-84659502D01*
X190099502Y-84752683D01*
X190099500Y-84752686D01*
X190033608Y-84866812D01*
X189999500Y-84994108D01*
X162712846Y-84994108D01*
X162711242Y-82150927D01*
X162711233Y-82134144D01*
X175885599Y-82134144D01*
X175885599Y-82265928D01*
X175889132Y-82279113D01*
X175919707Y-82393223D01*
X175941250Y-82430535D01*
X175985599Y-82507350D01*
X176078785Y-82600536D01*
X176192913Y-82666428D01*
X176320207Y-82700536D01*
X176320209Y-82700536D01*
X176451989Y-82700536D01*
X176451991Y-82700536D01*
X176579285Y-82666428D01*
X176693413Y-82600536D01*
X176786599Y-82507350D01*
X176852491Y-82393222D01*
X176886599Y-82265928D01*
X176886599Y-82134144D01*
X176855785Y-82019144D01*
X177241024Y-82019144D01*
X177241024Y-82150928D01*
X177258078Y-82214575D01*
X177275132Y-82278223D01*
X177292453Y-82308223D01*
X177341024Y-82392350D01*
X177434210Y-82485536D01*
X177548338Y-82551428D01*
X177675632Y-82585536D01*
X177675634Y-82585536D01*
X177807414Y-82585536D01*
X177807416Y-82585536D01*
X177934710Y-82551428D01*
X178048838Y-82485536D01*
X178131343Y-82403031D01*
X178192666Y-82369546D01*
X178262358Y-82374530D01*
X178306705Y-82403031D01*
X178334210Y-82430536D01*
X178448338Y-82496428D01*
X178575632Y-82530536D01*
X178575634Y-82530536D01*
X178707414Y-82530536D01*
X178707416Y-82530536D01*
X178834710Y-82496428D01*
X178904711Y-82456012D01*
X178972609Y-82439539D01*
X179038637Y-82462391D01*
X179054392Y-82475718D01*
X179094210Y-82515536D01*
X179208338Y-82581428D01*
X179335632Y-82615536D01*
X179335634Y-82615536D01*
X179467414Y-82615536D01*
X179467416Y-82615536D01*
X179594710Y-82581428D01*
X179708838Y-82515536D01*
X179802024Y-82422350D01*
X179867916Y-82308222D01*
X179902024Y-82180928D01*
X179902024Y-82049144D01*
X179867916Y-81921850D01*
X179802024Y-81807722D01*
X179708838Y-81714536D01*
X179630579Y-81669353D01*
X179594711Y-81648644D01*
X179482747Y-81618644D01*
X179467416Y-81614536D01*
X179335632Y-81614536D01*
X179208338Y-81648644D01*
X179208337Y-81648644D01*
X179208335Y-81648645D01*
X179208334Y-81648645D01*
X179138336Y-81689059D01*
X179070436Y-81705532D01*
X179004409Y-81682679D01*
X178988655Y-81669353D01*
X178948840Y-81629538D01*
X178948838Y-81629536D01*
X178870896Y-81584536D01*
X178834711Y-81563644D01*
X178771063Y-81546590D01*
X178707416Y-81529536D01*
X178575632Y-81529536D01*
X178448336Y-81563644D01*
X178334210Y-81629536D01*
X178334207Y-81629538D01*
X178251705Y-81712041D01*
X178190382Y-81745526D01*
X178120690Y-81740542D01*
X178076343Y-81712041D01*
X178048840Y-81684538D01*
X178048838Y-81684536D01*
X177986671Y-81648644D01*
X177934711Y-81618644D01*
X177871063Y-81601590D01*
X177807416Y-81584536D01*
X177675632Y-81584536D01*
X177548336Y-81618644D01*
X177434210Y-81684536D01*
X177434207Y-81684538D01*
X177341026Y-81777719D01*
X177341024Y-81777722D01*
X177275132Y-81891848D01*
X177244319Y-82006848D01*
X177241024Y-82019144D01*
X176855785Y-82019144D01*
X176852491Y-82006850D01*
X176786599Y-81892722D01*
X176693413Y-81799536D01*
X176636349Y-81766590D01*
X176579286Y-81733644D01*
X176507972Y-81714536D01*
X176451991Y-81699536D01*
X176320207Y-81699536D01*
X176192911Y-81733644D01*
X176078785Y-81799536D01*
X176078782Y-81799538D01*
X175985601Y-81892719D01*
X175985599Y-81892722D01*
X175919707Y-82006848D01*
X175909991Y-82043111D01*
X175885599Y-82134144D01*
X162711233Y-82134144D01*
X162711228Y-82126087D01*
X162710139Y-80194144D01*
X170311024Y-80194144D01*
X170311024Y-80325928D01*
X170316630Y-80346850D01*
X170345132Y-80453223D01*
X170376093Y-80506848D01*
X170411024Y-80567350D01*
X170504210Y-80660536D01*
X170618338Y-80726428D01*
X170745632Y-80760536D01*
X170745634Y-80760536D01*
X170877414Y-80760536D01*
X170877416Y-80760536D01*
X171004710Y-80726428D01*
X171118838Y-80660536D01*
X171212024Y-80567350D01*
X171265837Y-80474144D01*
X176361024Y-80474144D01*
X176361024Y-80605928D01*
X176368585Y-80634146D01*
X176395132Y-80733223D01*
X176414014Y-80765927D01*
X176461024Y-80847350D01*
X176554210Y-80940536D01*
X176668338Y-81006428D01*
X176795632Y-81040536D01*
X176795634Y-81040536D01*
X176927414Y-81040536D01*
X176927416Y-81040536D01*
X177054710Y-81006428D01*
X177168838Y-80940536D01*
X177262024Y-80847350D01*
X177327916Y-80733222D01*
X177362024Y-80605928D01*
X177362024Y-80474144D01*
X177327916Y-80346850D01*
X177327915Y-80346848D01*
X177325812Y-80338999D01*
X177328623Y-80338245D01*
X177322650Y-80282708D01*
X177353922Y-80220227D01*
X177414010Y-80184572D01*
X177476771Y-80184943D01*
X177525632Y-80198036D01*
X177525635Y-80198036D01*
X177657414Y-80198036D01*
X177657416Y-80198036D01*
X177662831Y-80196585D01*
X177732679Y-80198244D01*
X177790544Y-80237405D01*
X177818050Y-80301632D01*
X177814702Y-80348451D01*
X177781024Y-80474144D01*
X177781024Y-80605928D01*
X177788585Y-80634146D01*
X177815132Y-80733223D01*
X177834014Y-80765927D01*
X177881024Y-80847350D01*
X177974210Y-80940536D01*
X178088338Y-81006428D01*
X178215632Y-81040536D01*
X178215634Y-81040536D01*
X178347414Y-81040536D01*
X178347416Y-81040536D01*
X178474710Y-81006428D01*
X178588838Y-80940536D01*
X178682024Y-80847350D01*
X178747916Y-80733222D01*
X178774464Y-80634144D01*
X182950217Y-80634144D01*
X182950217Y-80765927D01*
X182984325Y-80893223D01*
X183011640Y-80940533D01*
X183050217Y-81007350D01*
X183143403Y-81100536D01*
X183257531Y-81166428D01*
X183384825Y-81200536D01*
X183384827Y-81200536D01*
X183516607Y-81200536D01*
X183516609Y-81200536D01*
X183643903Y-81166428D01*
X183758031Y-81100536D01*
X183851217Y-81007350D01*
X183917109Y-80893222D01*
X183951217Y-80765928D01*
X183951217Y-80634144D01*
X183917109Y-80506850D01*
X183851217Y-80392722D01*
X183758031Y-80299536D01*
X183700967Y-80266590D01*
X183643904Y-80233644D01*
X183580256Y-80216590D01*
X183516609Y-80199536D01*
X183384825Y-80199536D01*
X183257529Y-80233644D01*
X183143403Y-80299536D01*
X183143400Y-80299538D01*
X183050219Y-80392719D01*
X183050217Y-80392722D01*
X182984325Y-80506848D01*
X182950217Y-80634144D01*
X178774464Y-80634144D01*
X178782024Y-80605928D01*
X178782024Y-80474144D01*
X178747916Y-80346850D01*
X178682024Y-80232722D01*
X178588838Y-80139536D01*
X178516958Y-80098036D01*
X178474711Y-80073644D01*
X178396273Y-80052627D01*
X178347416Y-80039536D01*
X178215632Y-80039536D01*
X178215627Y-80039536D01*
X178210207Y-80040989D01*
X178140357Y-80039323D01*
X178082496Y-80000158D01*
X178054995Y-79935928D01*
X178058343Y-79889126D01*
X178092024Y-79763428D01*
X178092024Y-79631644D01*
X178061901Y-79519222D01*
X178063564Y-79449376D01*
X178102726Y-79391513D01*
X178166955Y-79364009D01*
X178213767Y-79367356D01*
X178225632Y-79370536D01*
X178225634Y-79370536D01*
X178357414Y-79370536D01*
X178357416Y-79370536D01*
X178484710Y-79336428D01*
X178598838Y-79270536D01*
X178692024Y-79177350D01*
X178757916Y-79063222D01*
X178792024Y-78935928D01*
X178792024Y-78804144D01*
X178757916Y-78676850D01*
X178692024Y-78562722D01*
X178598838Y-78469536D01*
X178541774Y-78436590D01*
X178484711Y-78403644D01*
X178421063Y-78386590D01*
X178357416Y-78369536D01*
X178225632Y-78369536D01*
X178098336Y-78403644D01*
X177984210Y-78469536D01*
X177984207Y-78469538D01*
X177891026Y-78562719D01*
X177891024Y-78562722D01*
X177825132Y-78676848D01*
X177791024Y-78804144D01*
X177791024Y-78935927D01*
X177821146Y-79048346D01*
X177819483Y-79118196D01*
X177780320Y-79176058D01*
X177716091Y-79203562D01*
X177704338Y-79204403D01*
X177686503Y-79204829D01*
X177657416Y-79197036D01*
X177525632Y-79197036D01*
X177477912Y-79209822D01*
X177463096Y-79210177D01*
X177443085Y-79204818D01*
X177422371Y-79204325D01*
X177410015Y-79195962D01*
X177395605Y-79192103D01*
X177381665Y-79176773D01*
X177364509Y-79165161D01*
X177358637Y-79151448D01*
X177348599Y-79140409D01*
X177345160Y-79119976D01*
X177337006Y-79100933D01*
X177338482Y-79080291D01*
X177337004Y-79071508D01*
X177339532Y-79065600D01*
X177340353Y-79054124D01*
X177372024Y-78935928D01*
X177372024Y-78804144D01*
X177337916Y-78676850D01*
X177272024Y-78562722D01*
X177178838Y-78469536D01*
X177121774Y-78436590D01*
X177064711Y-78403644D01*
X177001063Y-78386590D01*
X176937416Y-78369536D01*
X176805632Y-78369536D01*
X176678336Y-78403644D01*
X176564210Y-78469536D01*
X176564207Y-78469538D01*
X176471026Y-78562719D01*
X176471024Y-78562722D01*
X176405132Y-78676848D01*
X176371024Y-78804144D01*
X176371024Y-78935927D01*
X176405132Y-79063223D01*
X176436871Y-79118196D01*
X176471024Y-79177350D01*
X176564210Y-79270536D01*
X176678338Y-79336428D01*
X176805632Y-79370536D01*
X176805634Y-79370536D01*
X176937414Y-79370536D01*
X176937416Y-79370536D01*
X176970825Y-79361584D01*
X177040672Y-79363245D01*
X177098536Y-79402407D01*
X177126041Y-79466635D01*
X177122693Y-79513451D01*
X177091024Y-79631644D01*
X177091024Y-79763428D01*
X177124702Y-79889119D01*
X177127236Y-79898573D01*
X177124428Y-79899325D01*
X177130392Y-79954891D01*
X177099105Y-80017365D01*
X177039010Y-80053006D01*
X176976274Y-80052627D01*
X176927417Y-80039536D01*
X176927416Y-80039536D01*
X176795632Y-80039536D01*
X176668336Y-80073644D01*
X176554210Y-80139536D01*
X176554207Y-80139538D01*
X176461026Y-80232719D01*
X176461024Y-80232722D01*
X176395132Y-80346848D01*
X176371801Y-80433923D01*
X176361024Y-80474144D01*
X171265837Y-80474144D01*
X171277916Y-80453222D01*
X171312024Y-80325928D01*
X171312024Y-80194144D01*
X171277916Y-80066850D01*
X171212024Y-79952722D01*
X171118838Y-79859536D01*
X171061774Y-79826590D01*
X171004711Y-79793644D01*
X170891941Y-79763428D01*
X170877416Y-79759536D01*
X170745632Y-79759536D01*
X170618336Y-79793644D01*
X170504210Y-79859536D01*
X170504207Y-79859538D01*
X170411026Y-79952719D01*
X170411024Y-79952722D01*
X170345132Y-80066848D01*
X170325656Y-80139536D01*
X170311024Y-80194144D01*
X162710139Y-80194144D01*
X162710134Y-80186087D01*
X162709046Y-78257399D01*
X172064500Y-78257399D01*
X172064500Y-78382601D01*
X172096905Y-78503536D01*
X172159505Y-78611964D01*
X172248036Y-78700495D01*
X172356464Y-78763095D01*
X172477399Y-78795500D01*
X172477401Y-78795500D01*
X172602599Y-78795500D01*
X172602601Y-78795500D01*
X172723536Y-78763095D01*
X172831964Y-78700495D01*
X172920495Y-78611964D01*
X172983095Y-78503536D01*
X173015500Y-78382601D01*
X173015500Y-78257399D01*
X172983095Y-78136464D01*
X172920495Y-78028036D01*
X172831964Y-77939505D01*
X172723536Y-77876905D01*
X172723537Y-77876905D01*
X172683224Y-77866103D01*
X172602601Y-77844500D01*
X172477399Y-77844500D01*
X172396775Y-77866103D01*
X172356463Y-77876905D01*
X172248037Y-77939504D01*
X172248034Y-77939506D01*
X172159506Y-78028034D01*
X172159504Y-78028037D01*
X172096905Y-78136463D01*
X172096905Y-78136464D01*
X172064500Y-78257399D01*
X162709046Y-78257399D01*
X162709041Y-78249341D01*
X162708367Y-77054108D01*
X171089500Y-77054108D01*
X171089500Y-77185892D01*
X171102848Y-77235708D01*
X171123608Y-77313187D01*
X171148285Y-77355928D01*
X171189500Y-77427314D01*
X171282686Y-77520500D01*
X171396814Y-77586392D01*
X171524108Y-77620500D01*
X171524110Y-77620500D01*
X171655890Y-77620500D01*
X171655892Y-77620500D01*
X171783186Y-77586392D01*
X171897314Y-77520500D01*
X171990500Y-77427314D01*
X172056392Y-77313186D01*
X172080251Y-77224144D01*
X174821024Y-77224144D01*
X174821024Y-77355928D01*
X174834648Y-77406774D01*
X174855132Y-77483223D01*
X174888078Y-77540286D01*
X174921024Y-77597350D01*
X175014210Y-77690536D01*
X175128338Y-77756428D01*
X175255632Y-77790536D01*
X175255634Y-77790536D01*
X175387414Y-77790536D01*
X175387416Y-77790536D01*
X175514710Y-77756428D01*
X175628838Y-77690536D01*
X175653843Y-77665531D01*
X175715166Y-77632046D01*
X175784858Y-77637030D01*
X175829205Y-77665531D01*
X175854210Y-77690536D01*
X175968338Y-77756428D01*
X176095632Y-77790536D01*
X176095634Y-77790536D01*
X176227414Y-77790536D01*
X176227416Y-77790536D01*
X176354710Y-77756428D01*
X176468838Y-77690536D01*
X176562024Y-77597350D01*
X176627916Y-77483222D01*
X176648400Y-77406771D01*
X176684763Y-77347113D01*
X176747610Y-77316583D01*
X176816985Y-77324877D01*
X176870864Y-77369362D01*
X176887948Y-77406771D01*
X176915132Y-77508222D01*
X176981024Y-77622350D01*
X177074210Y-77715536D01*
X177188338Y-77781428D01*
X177315632Y-77815536D01*
X177315634Y-77815536D01*
X177447414Y-77815536D01*
X177447416Y-77815536D01*
X177574710Y-77781428D01*
X177688838Y-77715536D01*
X177782024Y-77622350D01*
X177847916Y-77508222D01*
X177882024Y-77380928D01*
X177882024Y-77249144D01*
X178821024Y-77249144D01*
X178821024Y-77380928D01*
X178833453Y-77427313D01*
X178855132Y-77508223D01*
X178887090Y-77563575D01*
X178921024Y-77622350D01*
X179014210Y-77715536D01*
X179128338Y-77781428D01*
X179255632Y-77815536D01*
X179255634Y-77815536D01*
X179387414Y-77815536D01*
X179387416Y-77815536D01*
X179514710Y-77781428D01*
X179628838Y-77715536D01*
X179722024Y-77622350D01*
X179787916Y-77508222D01*
X179822024Y-77380928D01*
X179822024Y-77249144D01*
X179787916Y-77121850D01*
X179722024Y-77007722D01*
X179628838Y-76914536D01*
X179564430Y-76877350D01*
X179514711Y-76848644D01*
X179451063Y-76831590D01*
X179387416Y-76814536D01*
X179255632Y-76814536D01*
X179128336Y-76848644D01*
X179014210Y-76914536D01*
X179014207Y-76914538D01*
X178921026Y-77007719D01*
X178921024Y-77007722D01*
X178855132Y-77121848D01*
X178837972Y-77185891D01*
X178821024Y-77249144D01*
X177882024Y-77249144D01*
X177847916Y-77121850D01*
X177782024Y-77007722D01*
X177688838Y-76914536D01*
X177624430Y-76877350D01*
X177574711Y-76848644D01*
X177511063Y-76831590D01*
X177447416Y-76814536D01*
X177315632Y-76814536D01*
X177188336Y-76848644D01*
X177074210Y-76914536D01*
X177074207Y-76914538D01*
X176981026Y-77007719D01*
X176981024Y-77007722D01*
X176915132Y-77121850D01*
X176897972Y-77185892D01*
X176894648Y-77198299D01*
X176858283Y-77257959D01*
X176795436Y-77288488D01*
X176726060Y-77280193D01*
X176672182Y-77235708D01*
X176655099Y-77198301D01*
X176627916Y-77096850D01*
X176562024Y-76982722D01*
X176468838Y-76889536D01*
X176398011Y-76848644D01*
X176354711Y-76823644D01*
X176291063Y-76806590D01*
X176227416Y-76789536D01*
X176095632Y-76789536D01*
X175968336Y-76823644D01*
X175854210Y-76889536D01*
X175829204Y-76914542D01*
X175767880Y-76948026D01*
X175698189Y-76943040D01*
X175653844Y-76914542D01*
X175653838Y-76914536D01*
X175628838Y-76889536D01*
X175558011Y-76848644D01*
X175514711Y-76823644D01*
X175451063Y-76806590D01*
X175387416Y-76789536D01*
X175255632Y-76789536D01*
X175128336Y-76823644D01*
X175014210Y-76889536D01*
X175014207Y-76889538D01*
X174921026Y-76982719D01*
X174921024Y-76982722D01*
X174855132Y-77096848D01*
X174848433Y-77121850D01*
X174821024Y-77224144D01*
X172080251Y-77224144D01*
X172090500Y-77185892D01*
X172090500Y-77054108D01*
X172056392Y-76926814D01*
X171990500Y-76812686D01*
X171897314Y-76719500D01*
X171840250Y-76686554D01*
X171783187Y-76653608D01*
X171717195Y-76635926D01*
X171655892Y-76619500D01*
X171524108Y-76619500D01*
X171396812Y-76653608D01*
X171282686Y-76719500D01*
X171282683Y-76719502D01*
X171189502Y-76812683D01*
X171189500Y-76812686D01*
X171123608Y-76926812D01*
X171094237Y-77036428D01*
X171089500Y-77054108D01*
X162708367Y-77054108D01*
X162708362Y-77046051D01*
X162708056Y-76504144D01*
X182870217Y-76504144D01*
X182870217Y-76635927D01*
X182904325Y-76763223D01*
X182919517Y-76789536D01*
X182970217Y-76877350D01*
X183063403Y-76970536D01*
X183177531Y-77036428D01*
X183304825Y-77070536D01*
X183304827Y-77070536D01*
X183436607Y-77070536D01*
X183436609Y-77070536D01*
X183563903Y-77036428D01*
X183678031Y-76970536D01*
X183771217Y-76877350D01*
X183837109Y-76763222D01*
X183871217Y-76635928D01*
X183871217Y-76504144D01*
X183837109Y-76376850D01*
X183771217Y-76262722D01*
X183678031Y-76169536D01*
X183607017Y-76128536D01*
X183563904Y-76103644D01*
X183500256Y-76086590D01*
X183436609Y-76069536D01*
X183304825Y-76069536D01*
X183177529Y-76103644D01*
X183063403Y-76169536D01*
X183063400Y-76169538D01*
X182970219Y-76262719D01*
X182970217Y-76262722D01*
X182904325Y-76376848D01*
X182870217Y-76504144D01*
X162708056Y-76504144D01*
X162707549Y-75604108D01*
X170069500Y-75604108D01*
X170069500Y-75735891D01*
X170103608Y-75863187D01*
X170114701Y-75882400D01*
X170169500Y-75977314D01*
X170262686Y-76070500D01*
X170376814Y-76136392D01*
X170504108Y-76170500D01*
X170504110Y-76170500D01*
X170635890Y-76170500D01*
X170635892Y-76170500D01*
X170763186Y-76136392D01*
X170877314Y-76070500D01*
X170970500Y-75977314D01*
X171025299Y-75882399D01*
X171719500Y-75882399D01*
X171719500Y-76007601D01*
X171751905Y-76128536D01*
X171814505Y-76236964D01*
X171903036Y-76325495D01*
X172011464Y-76388095D01*
X172132399Y-76420500D01*
X172132401Y-76420500D01*
X172257599Y-76420500D01*
X172257601Y-76420500D01*
X172378536Y-76388095D01*
X172486964Y-76325495D01*
X172575495Y-76236964D01*
X172638095Y-76128536D01*
X172670500Y-76007601D01*
X172670500Y-75882399D01*
X172638095Y-75761464D01*
X172575495Y-75653036D01*
X172486964Y-75564505D01*
X172378536Y-75501905D01*
X172378537Y-75501905D01*
X172338224Y-75491103D01*
X172257601Y-75469500D01*
X172132399Y-75469500D01*
X172051775Y-75491103D01*
X172011463Y-75501905D01*
X171903037Y-75564504D01*
X171903034Y-75564506D01*
X171814506Y-75653034D01*
X171814504Y-75653037D01*
X171751905Y-75761463D01*
X171751905Y-75761464D01*
X171719500Y-75882399D01*
X171025299Y-75882399D01*
X171036392Y-75863186D01*
X171070500Y-75735892D01*
X171070500Y-75604108D01*
X171036392Y-75476814D01*
X170970500Y-75362686D01*
X170877314Y-75269500D01*
X170820250Y-75236554D01*
X170763187Y-75203608D01*
X170699539Y-75186554D01*
X170635892Y-75169500D01*
X170504108Y-75169500D01*
X170376812Y-75203608D01*
X170262686Y-75269500D01*
X170262683Y-75269502D01*
X170169502Y-75362683D01*
X170169500Y-75362686D01*
X170103608Y-75476812D01*
X170069500Y-75604108D01*
X162707549Y-75604108D01*
X162707544Y-75596051D01*
X162706925Y-74497788D01*
X167239913Y-74497788D01*
X167239913Y-74629571D01*
X167274021Y-74756867D01*
X167302923Y-74806926D01*
X167339913Y-74870994D01*
X167433099Y-74964180D01*
X167547227Y-75030072D01*
X167674521Y-75064180D01*
X167674523Y-75064180D01*
X167806303Y-75064180D01*
X167806305Y-75064180D01*
X167933599Y-75030072D01*
X168047727Y-74964180D01*
X168137612Y-74874294D01*
X168198931Y-74840812D01*
X168268623Y-74845796D01*
X168312971Y-74874297D01*
X168384210Y-74945536D01*
X168498338Y-75011428D01*
X168625632Y-75045536D01*
X168625634Y-75045536D01*
X168757414Y-75045536D01*
X168757416Y-75045536D01*
X168799932Y-75034144D01*
X182293917Y-75034144D01*
X182293917Y-75165927D01*
X182328025Y-75293223D01*
X182360971Y-75350286D01*
X182393917Y-75407350D01*
X182487103Y-75500536D01*
X182585938Y-75557599D01*
X182597898Y-75564504D01*
X182601231Y-75566428D01*
X182728525Y-75600536D01*
X182728527Y-75600536D01*
X182860307Y-75600536D01*
X182860309Y-75600536D01*
X182987603Y-75566428D01*
X183101731Y-75500536D01*
X183194917Y-75407350D01*
X183260809Y-75293222D01*
X183294917Y-75165928D01*
X183294917Y-75034144D01*
X183260809Y-74906850D01*
X183194917Y-74792722D01*
X183101731Y-74699536D01*
X183044667Y-74666590D01*
X182987604Y-74633644D01*
X182902817Y-74610926D01*
X182860309Y-74599536D01*
X182728525Y-74599536D01*
X182601229Y-74633644D01*
X182487103Y-74699536D01*
X182487100Y-74699538D01*
X182393919Y-74792719D01*
X182393917Y-74792722D01*
X182328025Y-74906848D01*
X182293917Y-75034144D01*
X168799932Y-75034144D01*
X168884710Y-75011428D01*
X168998838Y-74945536D01*
X169092024Y-74852350D01*
X169157916Y-74738222D01*
X169192024Y-74610928D01*
X169192024Y-74479144D01*
X169157916Y-74351850D01*
X169092024Y-74237722D01*
X168998838Y-74144536D01*
X168998836Y-74144535D01*
X168998834Y-74144533D01*
X168892893Y-74083368D01*
X168892892Y-74083368D01*
X168884711Y-74078644D01*
X168821063Y-74061590D01*
X168757416Y-74044536D01*
X168625632Y-74044536D01*
X168498336Y-74078644D01*
X168384210Y-74144536D01*
X168294327Y-74234419D01*
X168233003Y-74267903D01*
X168163312Y-74262919D01*
X168118965Y-74234418D01*
X168047729Y-74163182D01*
X168047727Y-74163180D01*
X167965822Y-74115892D01*
X167933600Y-74097288D01*
X167838733Y-74071869D01*
X167806305Y-74063180D01*
X167674521Y-74063180D01*
X167547225Y-74097288D01*
X167433099Y-74163180D01*
X167433096Y-74163182D01*
X167339915Y-74256363D01*
X167339913Y-74256366D01*
X167274021Y-74370492D01*
X167239913Y-74497788D01*
X162706925Y-74497788D01*
X162706920Y-74489731D01*
X162706635Y-73984108D01*
X180779500Y-73984108D01*
X180779500Y-74115892D01*
X180789022Y-74151428D01*
X180813608Y-74243187D01*
X180839096Y-74287333D01*
X180879500Y-74357314D01*
X180972686Y-74450500D01*
X181086814Y-74516392D01*
X181214108Y-74550500D01*
X181214110Y-74550500D01*
X181345890Y-74550500D01*
X181345892Y-74550500D01*
X181473186Y-74516392D01*
X181587314Y-74450500D01*
X181680500Y-74357314D01*
X181746392Y-74243186D01*
X181780500Y-74115892D01*
X181780500Y-73984108D01*
X181746392Y-73856814D01*
X181680500Y-73742686D01*
X181621886Y-73684072D01*
X182428783Y-73684072D01*
X182428783Y-73815856D01*
X182439757Y-73856811D01*
X182462891Y-73943151D01*
X182469578Y-73954733D01*
X182528783Y-74057278D01*
X182621969Y-74150464D01*
X182736097Y-74216356D01*
X182863391Y-74250464D01*
X182863393Y-74250464D01*
X182995173Y-74250464D01*
X182995175Y-74250464D01*
X183122469Y-74216356D01*
X183236597Y-74150464D01*
X183329783Y-74057278D01*
X183395675Y-73943150D01*
X183429783Y-73815856D01*
X183429783Y-73684072D01*
X183395675Y-73556778D01*
X183329783Y-73442650D01*
X183236597Y-73349464D01*
X183158615Y-73304441D01*
X183122470Y-73283572D01*
X183058822Y-73266518D01*
X182995175Y-73249464D01*
X182863391Y-73249464D01*
X182736095Y-73283572D01*
X182621969Y-73349464D01*
X182621966Y-73349466D01*
X182528785Y-73442647D01*
X182528783Y-73442650D01*
X182462891Y-73556776D01*
X182433206Y-73667565D01*
X182428783Y-73684072D01*
X181621886Y-73684072D01*
X181587314Y-73649500D01*
X181530250Y-73616554D01*
X181473187Y-73583608D01*
X181373054Y-73556778D01*
X181345892Y-73549500D01*
X181214108Y-73549500D01*
X181086812Y-73583608D01*
X180972686Y-73649500D01*
X180972683Y-73649502D01*
X180879502Y-73742683D01*
X180879500Y-73742686D01*
X180813608Y-73856812D01*
X180784091Y-73966975D01*
X180779500Y-73984108D01*
X162706635Y-73984108D01*
X162706435Y-73630402D01*
X162706325Y-73435685D01*
X162725972Y-73368635D01*
X162742635Y-73347944D01*
X162838919Y-73251661D01*
X162978611Y-73069612D01*
X163093344Y-72870888D01*
X163181158Y-72658887D01*
X163240548Y-72437238D01*
X163270500Y-72209734D01*
X163270500Y-72184144D01*
X172060217Y-72184144D01*
X172060217Y-72315927D01*
X172094325Y-72443223D01*
X172116253Y-72481202D01*
X172160217Y-72557350D01*
X172253403Y-72650536D01*
X172367531Y-72716428D01*
X172494825Y-72750536D01*
X172494827Y-72750536D01*
X172626607Y-72750536D01*
X172626609Y-72750536D01*
X172753903Y-72716428D01*
X172868031Y-72650536D01*
X172961217Y-72557350D01*
X173027109Y-72443222D01*
X173037580Y-72404144D01*
X174291024Y-72404144D01*
X174291024Y-72535928D01*
X174305270Y-72589094D01*
X174325132Y-72663223D01*
X174341890Y-72692248D01*
X174391024Y-72777350D01*
X174484210Y-72870536D01*
X174598338Y-72936428D01*
X174725632Y-72970536D01*
X174725634Y-72970536D01*
X174857414Y-72970536D01*
X174857416Y-72970536D01*
X174984710Y-72936428D01*
X175098696Y-72870618D01*
X176686537Y-72870618D01*
X176686537Y-73002402D01*
X176698527Y-73047151D01*
X176720645Y-73129697D01*
X176739220Y-73161869D01*
X176786537Y-73243824D01*
X176879723Y-73337010D01*
X176993851Y-73402902D01*
X177121145Y-73437010D01*
X177121147Y-73437010D01*
X177252927Y-73437010D01*
X177252929Y-73437010D01*
X177380223Y-73402902D01*
X177494351Y-73337010D01*
X177587537Y-73243824D01*
X177653429Y-73129696D01*
X177660276Y-73104144D01*
X179640217Y-73104144D01*
X179640217Y-73235928D01*
X179652282Y-73280956D01*
X179674325Y-73363223D01*
X179697234Y-73402901D01*
X179740217Y-73477350D01*
X179833403Y-73570536D01*
X179947531Y-73636428D01*
X180074825Y-73670536D01*
X180074827Y-73670536D01*
X180206607Y-73670536D01*
X180206609Y-73670536D01*
X180333903Y-73636428D01*
X180448031Y-73570536D01*
X180541217Y-73477350D01*
X180607109Y-73363222D01*
X180641217Y-73235928D01*
X180641217Y-73104144D01*
X180607109Y-72976850D01*
X180541217Y-72862722D01*
X180448031Y-72769536D01*
X180357291Y-72717147D01*
X180333904Y-72703644D01*
X180270256Y-72686590D01*
X180206609Y-72669536D01*
X180074825Y-72669536D01*
X179947529Y-72703644D01*
X179833403Y-72769536D01*
X179833400Y-72769538D01*
X179740219Y-72862719D01*
X179740217Y-72862722D01*
X179674325Y-72976848D01*
X179660736Y-73027565D01*
X179640217Y-73104144D01*
X177660276Y-73104144D01*
X177687537Y-73002402D01*
X177687537Y-72870618D01*
X177653429Y-72743324D01*
X177587537Y-72629196D01*
X177494351Y-72536010D01*
X177415517Y-72490495D01*
X177380224Y-72470118D01*
X177316576Y-72453064D01*
X177252929Y-72436010D01*
X177121145Y-72436010D01*
X176993849Y-72470118D01*
X176879723Y-72536010D01*
X176879720Y-72536012D01*
X176786539Y-72629193D01*
X176786537Y-72629196D01*
X176720645Y-72743322D01*
X176688653Y-72862722D01*
X176686537Y-72870618D01*
X175098696Y-72870618D01*
X175098838Y-72870536D01*
X175192024Y-72777350D01*
X175257916Y-72663222D01*
X175292024Y-72535928D01*
X175292024Y-72404144D01*
X175257916Y-72276850D01*
X175192024Y-72162722D01*
X175098838Y-72069536D01*
X175095137Y-72067399D01*
X182424500Y-72067399D01*
X182424500Y-72192601D01*
X182456905Y-72313536D01*
X182519505Y-72421964D01*
X182608036Y-72510495D01*
X182716464Y-72573095D01*
X182837399Y-72605500D01*
X182837401Y-72605500D01*
X182962599Y-72605500D01*
X182962601Y-72605500D01*
X183083536Y-72573095D01*
X183191964Y-72510495D01*
X183280495Y-72421964D01*
X183343095Y-72313536D01*
X183343095Y-72313532D01*
X183343385Y-72313032D01*
X183393952Y-72264816D01*
X183462558Y-72251592D01*
X183527424Y-72277559D01*
X183558160Y-72313031D01*
X183609505Y-72401964D01*
X183698036Y-72490495D01*
X183806464Y-72553095D01*
X183927399Y-72585500D01*
X183927401Y-72585500D01*
X184052600Y-72585500D01*
X184052601Y-72585500D01*
X184052601Y-72585499D01*
X184060658Y-72584439D01*
X184061122Y-72587970D01*
X184114525Y-72589094D01*
X184172496Y-72628096D01*
X184200178Y-72692248D01*
X184188782Y-72761182D01*
X184184486Y-72769305D01*
X184177490Y-72781423D01*
X184177488Y-72781426D01*
X184158310Y-72853000D01*
X184145083Y-72902363D01*
X184145083Y-73027565D01*
X184177488Y-73148500D01*
X184240088Y-73256928D01*
X184328619Y-73345459D01*
X184437047Y-73408059D01*
X184557982Y-73440464D01*
X184557984Y-73440464D01*
X184678583Y-73440464D01*
X184745622Y-73460149D01*
X184791377Y-73512953D01*
X184802583Y-73564464D01*
X184802583Y-73667565D01*
X184834988Y-73788500D01*
X184897588Y-73896928D01*
X184986119Y-73985459D01*
X185094547Y-74048059D01*
X185215482Y-74080464D01*
X185215484Y-74080464D01*
X185339903Y-74080464D01*
X185406942Y-74100149D01*
X185452697Y-74152953D01*
X185462641Y-74222111D01*
X185459677Y-74236559D01*
X185450083Y-74272360D01*
X185450083Y-74272363D01*
X185450083Y-74397565D01*
X185482488Y-74518500D01*
X185545088Y-74626928D01*
X185633619Y-74715459D01*
X185742047Y-74778059D01*
X185862982Y-74810464D01*
X185862984Y-74810464D01*
X185988182Y-74810464D01*
X185988184Y-74810464D01*
X186109119Y-74778059D01*
X186217547Y-74715459D01*
X186306078Y-74626928D01*
X186368678Y-74518500D01*
X186386400Y-74452363D01*
X189715083Y-74452363D01*
X189715083Y-74577565D01*
X189747488Y-74698500D01*
X189810088Y-74806928D01*
X189898619Y-74895459D01*
X190007047Y-74958059D01*
X190127982Y-74990464D01*
X190127984Y-74990464D01*
X190253182Y-74990464D01*
X190253184Y-74990464D01*
X190374119Y-74958059D01*
X190482547Y-74895459D01*
X190571078Y-74806928D01*
X190633678Y-74698500D01*
X190666083Y-74577565D01*
X190666083Y-74452363D01*
X190656083Y-74415043D01*
X190656692Y-74389424D01*
X190653311Y-74364014D01*
X190657509Y-74355071D01*
X190657744Y-74345196D01*
X190672111Y-74323967D01*
X190683003Y-74300767D01*
X190691367Y-74295514D01*
X190696905Y-74287333D01*
X190720468Y-74277241D01*
X190742175Y-74263612D01*
X190754347Y-74262733D01*
X190761133Y-74259827D01*
X190777160Y-74258957D01*
X190790376Y-74259095D01*
X190795482Y-74260464D01*
X190920540Y-74260464D01*
X190921206Y-74260471D01*
X190954032Y-74270485D01*
X190986942Y-74280149D01*
X190987385Y-74280660D01*
X190988035Y-74280859D01*
X191010270Y-74307071D01*
X191032697Y-74332953D01*
X191032793Y-74333622D01*
X191033233Y-74334141D01*
X191037765Y-74368203D01*
X191042641Y-74402111D01*
X191042420Y-74403185D01*
X191042449Y-74403400D01*
X191042320Y-74403674D01*
X191039677Y-74416559D01*
X191030083Y-74452360D01*
X191030083Y-74452362D01*
X191030083Y-74452363D01*
X191030083Y-74577565D01*
X191062488Y-74698500D01*
X191125088Y-74806928D01*
X191213619Y-74895459D01*
X191322047Y-74958059D01*
X191442982Y-74990464D01*
X191442984Y-74990464D01*
X191568182Y-74990464D01*
X191568184Y-74990464D01*
X191689119Y-74958059D01*
X191797547Y-74895459D01*
X191886078Y-74806928D01*
X191948678Y-74698500D01*
X191981083Y-74577565D01*
X191981083Y-74452363D01*
X191948678Y-74331428D01*
X191886078Y-74223000D01*
X191797547Y-74134469D01*
X191689119Y-74071869D01*
X191689120Y-74071869D01*
X191634673Y-74057280D01*
X191568184Y-74039464D01*
X191443763Y-74039464D01*
X191376724Y-74019779D01*
X191330969Y-73966975D01*
X191320166Y-73905475D01*
X191321073Y-73894252D01*
X191333583Y-73847565D01*
X191333583Y-73739461D01*
X191333986Y-73734475D01*
X191344779Y-73706334D01*
X191353268Y-73677425D01*
X191357161Y-73674051D01*
X191359007Y-73669239D01*
X191383303Y-73651399D01*
X191406072Y-73631670D01*
X191411899Y-73630402D01*
X191415325Y-73627887D01*
X191426721Y-73627177D01*
X191457583Y-73620464D01*
X191578182Y-73620464D01*
X191578184Y-73620464D01*
X191699119Y-73588059D01*
X191807547Y-73525459D01*
X191896078Y-73436928D01*
X191958678Y-73328500D01*
X191991083Y-73207565D01*
X191991083Y-73082363D01*
X191958678Y-72961428D01*
X191896078Y-72853000D01*
X191807547Y-72764469D01*
X191699119Y-72701869D01*
X191699120Y-72701869D01*
X191658807Y-72691067D01*
X191578184Y-72669464D01*
X191452982Y-72669464D01*
X191372358Y-72691067D01*
X191332046Y-72701869D01*
X191223620Y-72764468D01*
X191223617Y-72764470D01*
X191135089Y-72852998D01*
X191135087Y-72853001D01*
X191072488Y-72961427D01*
X191061509Y-73002400D01*
X191043499Y-73069617D01*
X191040083Y-73082364D01*
X191040083Y-73185464D01*
X191037532Y-73194149D01*
X191038821Y-73203111D01*
X191027842Y-73227151D01*
X191020398Y-73252503D01*
X191013557Y-73258430D01*
X191009796Y-73266667D01*
X190987561Y-73280956D01*
X190967594Y-73298258D01*
X190957079Y-73300545D01*
X190951018Y-73304441D01*
X190916083Y-73309464D01*
X190800083Y-73309464D01*
X190733044Y-73289779D01*
X190687289Y-73236975D01*
X190676083Y-73185464D01*
X190676083Y-73082364D01*
X190673441Y-73072503D01*
X190643678Y-72961428D01*
X190581078Y-72853000D01*
X190492547Y-72764469D01*
X190384119Y-72701869D01*
X190384120Y-72701869D01*
X190343807Y-72691067D01*
X190263184Y-72669464D01*
X190137982Y-72669464D01*
X190057358Y-72691067D01*
X190017046Y-72701869D01*
X189908620Y-72764468D01*
X189908617Y-72764470D01*
X189820089Y-72852998D01*
X189820087Y-72853001D01*
X189757488Y-72961427D01*
X189746509Y-73002400D01*
X189725083Y-73082363D01*
X189725083Y-73207565D01*
X189757488Y-73328500D01*
X189820088Y-73436928D01*
X189908619Y-73525459D01*
X190017047Y-73588059D01*
X190137982Y-73620464D01*
X190137984Y-73620464D01*
X190258583Y-73620464D01*
X190262303Y-73621556D01*
X190266084Y-73620691D01*
X190295563Y-73631322D01*
X190325622Y-73640149D01*
X190328160Y-73643078D01*
X190331810Y-73644395D01*
X190350865Y-73669281D01*
X190371377Y-73692953D01*
X190372611Y-73697681D01*
X190374287Y-73699870D01*
X190377025Y-73714590D01*
X190382164Y-73734274D01*
X190382583Y-73739355D01*
X190382583Y-73847565D01*
X190395472Y-73895666D01*
X190396389Y-73906787D01*
X190391496Y-73930515D01*
X190390920Y-73954733D01*
X190384568Y-73964117D01*
X190382280Y-73975217D01*
X190365335Y-73992534D01*
X190351758Y-74012595D01*
X190341342Y-74017055D01*
X190333415Y-74025157D01*
X190309797Y-74030564D01*
X190287530Y-74040100D01*
X190268634Y-74039988D01*
X190265307Y-74040750D01*
X190263103Y-74039955D01*
X190256628Y-74039917D01*
X190253186Y-74039464D01*
X190253184Y-74039464D01*
X190127982Y-74039464D01*
X190061493Y-74057280D01*
X190007046Y-74071869D01*
X189898620Y-74134468D01*
X189898617Y-74134470D01*
X189810089Y-74222998D01*
X189810087Y-74223001D01*
X189747488Y-74331427D01*
X189747488Y-74331428D01*
X189715083Y-74452363D01*
X186386400Y-74452363D01*
X186401083Y-74397565D01*
X186401083Y-74272363D01*
X186368678Y-74151428D01*
X186306078Y-74043000D01*
X186217547Y-73954469D01*
X186109119Y-73891869D01*
X186109120Y-73891869D01*
X186068807Y-73881067D01*
X185988184Y-73859464D01*
X185863763Y-73859464D01*
X185796724Y-73839779D01*
X185750969Y-73786975D01*
X185740166Y-73725475D01*
X185741073Y-73714252D01*
X185753583Y-73667565D01*
X185753583Y-73559461D01*
X185753986Y-73554475D01*
X185764779Y-73526334D01*
X185773268Y-73497425D01*
X185777161Y-73494051D01*
X185779007Y-73489239D01*
X185803303Y-73471399D01*
X185826072Y-73451670D01*
X185831899Y-73450402D01*
X185835325Y-73447887D01*
X185846721Y-73447177D01*
X185877583Y-73440464D01*
X185998182Y-73440464D01*
X185998184Y-73440464D01*
X186119119Y-73408059D01*
X186227547Y-73345459D01*
X186316078Y-73256928D01*
X186378678Y-73148500D01*
X186411083Y-73027565D01*
X186411083Y-72902363D01*
X186378678Y-72781428D01*
X186316078Y-72673000D01*
X186227547Y-72584469D01*
X186119119Y-72521869D01*
X186119120Y-72521869D01*
X186076664Y-72510493D01*
X185998184Y-72489464D01*
X185908977Y-72489464D01*
X185841938Y-72469779D01*
X185796183Y-72416975D01*
X185786239Y-72347817D01*
X185801589Y-72303465D01*
X185807319Y-72293540D01*
X185813095Y-72283536D01*
X185845500Y-72162601D01*
X185845500Y-72037399D01*
X185813095Y-71916464D01*
X185750495Y-71808036D01*
X185661964Y-71719505D01*
X185553536Y-71656905D01*
X185553537Y-71656905D01*
X185513224Y-71646103D01*
X185432601Y-71624500D01*
X185307399Y-71624500D01*
X185226775Y-71646103D01*
X185186463Y-71656905D01*
X185078037Y-71719504D01*
X185078034Y-71719506D01*
X184989506Y-71808034D01*
X184989504Y-71808037D01*
X184926905Y-71916463D01*
X184924090Y-71926968D01*
X184894500Y-72037399D01*
X184894500Y-72162601D01*
X184916103Y-72243224D01*
X184926905Y-72283537D01*
X184926907Y-72283540D01*
X184963703Y-72347275D01*
X184980174Y-72415175D01*
X184957321Y-72481202D01*
X184902399Y-72524391D01*
X184832846Y-72531032D01*
X184808862Y-72523834D01*
X184804120Y-72521869D01*
X184761664Y-72510493D01*
X184683184Y-72489464D01*
X184557982Y-72489464D01*
X184557981Y-72489464D01*
X184549925Y-72490525D01*
X184549471Y-72487081D01*
X184495501Y-72485692D01*
X184437714Y-72446417D01*
X184410335Y-72382136D01*
X184422055Y-72313256D01*
X184426100Y-72305652D01*
X184427363Y-72303465D01*
X184433095Y-72293536D01*
X184465500Y-72172601D01*
X184465500Y-72047399D01*
X184433095Y-71926464D01*
X184370495Y-71818036D01*
X184281964Y-71729505D01*
X184173536Y-71666905D01*
X184173537Y-71666905D01*
X184127241Y-71654500D01*
X184052601Y-71634500D01*
X183927399Y-71634500D01*
X183852759Y-71654500D01*
X183806463Y-71666905D01*
X183698037Y-71729504D01*
X183698034Y-71729506D01*
X183609506Y-71818034D01*
X183609502Y-71818039D01*
X183546613Y-71926968D01*
X183496046Y-71975183D01*
X183427439Y-71988407D01*
X183362574Y-71962439D01*
X183331839Y-71926968D01*
X183280495Y-71838036D01*
X183191964Y-71749505D01*
X183083536Y-71686905D01*
X183083537Y-71686905D01*
X183043224Y-71676103D01*
X182962601Y-71654500D01*
X182837399Y-71654500D01*
X182756775Y-71676103D01*
X182716463Y-71686905D01*
X182608037Y-71749504D01*
X182608034Y-71749506D01*
X182519506Y-71838034D01*
X182519504Y-71838037D01*
X182456905Y-71946463D01*
X182447850Y-71980258D01*
X182424500Y-72067399D01*
X175095137Y-72067399D01*
X175041774Y-72036590D01*
X174984711Y-72003644D01*
X174921063Y-71986590D01*
X174857416Y-71969536D01*
X174725632Y-71969536D01*
X174598336Y-72003644D01*
X174484210Y-72069536D01*
X174484207Y-72069538D01*
X174391026Y-72162719D01*
X174391024Y-72162722D01*
X174325132Y-72276848D01*
X174301801Y-72363923D01*
X174291024Y-72404144D01*
X173037580Y-72404144D01*
X173061217Y-72315928D01*
X173061217Y-72184144D01*
X173027109Y-72056850D01*
X173021652Y-72047399D01*
X173018280Y-72041557D01*
X172961217Y-71942722D01*
X172868031Y-71849536D01*
X172796148Y-71808034D01*
X172753904Y-71783644D01*
X172690256Y-71766590D01*
X172626609Y-71749536D01*
X172494825Y-71749536D01*
X172367529Y-71783644D01*
X172253403Y-71849536D01*
X172253400Y-71849538D01*
X172160219Y-71942719D01*
X172160217Y-71942722D01*
X172094325Y-72056848D01*
X172060217Y-72184144D01*
X163270500Y-72184144D01*
X163270500Y-71980266D01*
X163240548Y-71752762D01*
X163181158Y-71531113D01*
X163093344Y-71319112D01*
X162978611Y-71120388D01*
X162978608Y-71120385D01*
X162978607Y-71120382D01*
X162838918Y-70938338D01*
X162838911Y-70938330D01*
X162741130Y-70840549D01*
X162707645Y-70779226D01*
X162704811Y-70752943D01*
X162703621Y-68643884D01*
X174730082Y-68643884D01*
X174758923Y-68788871D01*
X174758926Y-68788881D01*
X174815495Y-68925452D01*
X174815502Y-68925465D01*
X174897631Y-69048379D01*
X174897634Y-69048383D01*
X175002163Y-69152912D01*
X175002167Y-69152915D01*
X175125081Y-69235044D01*
X175125094Y-69235051D01*
X175261665Y-69291620D01*
X175261670Y-69291622D01*
X175261674Y-69291622D01*
X175261675Y-69291623D01*
X175406662Y-69320464D01*
X175406665Y-69320464D01*
X175554503Y-69320464D01*
X175655045Y-69300464D01*
X175699496Y-69291622D01*
X175836078Y-69235048D01*
X175958999Y-69152915D01*
X176063534Y-69048380D01*
X176145667Y-68925459D01*
X176202241Y-68788877D01*
X176231083Y-68643882D01*
X176231083Y-68623884D01*
X180120082Y-68623884D01*
X180148923Y-68768871D01*
X180148926Y-68768881D01*
X180205495Y-68905452D01*
X180205502Y-68905465D01*
X180287631Y-69028379D01*
X180287634Y-69028383D01*
X180392163Y-69132912D01*
X180392167Y-69132915D01*
X180515081Y-69215044D01*
X180515094Y-69215051D01*
X180651665Y-69271620D01*
X180651670Y-69271622D01*
X180651674Y-69271622D01*
X180651675Y-69271623D01*
X180796662Y-69300464D01*
X180796665Y-69300464D01*
X180944503Y-69300464D01*
X181042045Y-69281060D01*
X181089496Y-69271622D01*
X181226078Y-69215048D01*
X181348999Y-69132915D01*
X181453534Y-69028380D01*
X181535667Y-68905459D01*
X181592241Y-68768877D01*
X181601679Y-68721426D01*
X181621083Y-68623884D01*
X181621083Y-68476043D01*
X181592242Y-68331056D01*
X181592241Y-68331055D01*
X181592241Y-68331051D01*
X181543954Y-68214475D01*
X181535670Y-68194475D01*
X181535663Y-68194462D01*
X181453534Y-68071548D01*
X181453531Y-68071544D01*
X181349002Y-67967015D01*
X181348998Y-67967012D01*
X181226084Y-67884883D01*
X181226071Y-67884876D01*
X181089500Y-67828307D01*
X181089490Y-67828304D01*
X180944503Y-67799464D01*
X180944501Y-67799464D01*
X180796665Y-67799464D01*
X180796663Y-67799464D01*
X180651675Y-67828304D01*
X180651665Y-67828307D01*
X180515094Y-67884876D01*
X180515081Y-67884883D01*
X180392167Y-67967012D01*
X180392163Y-67967015D01*
X180287634Y-68071544D01*
X180287631Y-68071548D01*
X180205502Y-68194462D01*
X180205495Y-68194475D01*
X180148926Y-68331046D01*
X180148923Y-68331056D01*
X180120083Y-68476043D01*
X180120083Y-68476046D01*
X180120083Y-68623882D01*
X180120083Y-68623884D01*
X180120082Y-68623884D01*
X176231083Y-68623884D01*
X176231083Y-68496046D01*
X176231082Y-68496043D01*
X176230704Y-68494139D01*
X176230704Y-68494136D01*
X176202242Y-68351056D01*
X176202241Y-68351055D01*
X176202241Y-68351051D01*
X176193955Y-68331046D01*
X176145670Y-68214475D01*
X176145663Y-68214462D01*
X176063534Y-68091548D01*
X176063531Y-68091544D01*
X175959002Y-67987015D01*
X175958998Y-67987012D01*
X175836084Y-67904883D01*
X175836071Y-67904876D01*
X175699500Y-67848307D01*
X175699490Y-67848304D01*
X175554503Y-67819464D01*
X175554501Y-67819464D01*
X175406665Y-67819464D01*
X175406663Y-67819464D01*
X175261675Y-67848304D01*
X175261665Y-67848307D01*
X175125094Y-67904876D01*
X175125081Y-67904883D01*
X175002167Y-67987012D01*
X175002163Y-67987015D01*
X174897634Y-68091544D01*
X174897631Y-68091548D01*
X174815502Y-68214462D01*
X174815495Y-68214475D01*
X174758926Y-68351046D01*
X174758923Y-68351056D01*
X174730083Y-68496043D01*
X174730083Y-68496044D01*
X174730083Y-68496046D01*
X174730083Y-68643882D01*
X174730083Y-68643884D01*
X174730082Y-68643884D01*
X162703621Y-68643884D01*
X162702654Y-66928920D01*
X172899499Y-66928920D01*
X172928340Y-67073907D01*
X172928343Y-67073917D01*
X172984912Y-67210488D01*
X172984919Y-67210501D01*
X173067048Y-67333415D01*
X173067051Y-67333419D01*
X173171580Y-67437948D01*
X173171584Y-67437951D01*
X173294498Y-67520080D01*
X173294511Y-67520087D01*
X173431082Y-67576656D01*
X173431087Y-67576658D01*
X173431091Y-67576658D01*
X173431092Y-67576659D01*
X173576079Y-67605500D01*
X173576082Y-67605500D01*
X173723920Y-67605500D01*
X173821462Y-67586096D01*
X173868913Y-67576658D01*
X174005495Y-67520084D01*
X174128416Y-67437951D01*
X174232951Y-67333416D01*
X174315084Y-67210495D01*
X174371658Y-67073913D01*
X174400500Y-66928918D01*
X174400500Y-66141846D01*
X174420185Y-66074807D01*
X174472989Y-66029052D01*
X174542147Y-66019108D01*
X174605703Y-66048133D01*
X174631885Y-66079844D01*
X174644266Y-66101288D01*
X174659492Y-66127661D01*
X174659495Y-66127665D01*
X174757335Y-66225505D01*
X174877164Y-66294688D01*
X175010817Y-66330500D01*
X175010819Y-66330500D01*
X175149181Y-66330500D01*
X175149183Y-66330500D01*
X175282836Y-66294688D01*
X175402665Y-66225505D01*
X175500505Y-66127665D01*
X175569688Y-66007836D01*
X175605500Y-65874183D01*
X175605500Y-65735817D01*
X180334500Y-65735817D01*
X180334500Y-65874183D01*
X180346007Y-65917126D01*
X180370312Y-66007835D01*
X180370313Y-66007838D01*
X180439492Y-66127661D01*
X180439494Y-66127664D01*
X180439495Y-66127665D01*
X180537335Y-66225505D01*
X180657164Y-66294688D01*
X180790817Y-66330500D01*
X180790819Y-66330500D01*
X180929181Y-66330500D01*
X180929183Y-66330500D01*
X181062836Y-66294688D01*
X181182665Y-66225505D01*
X181280505Y-66127665D01*
X181308113Y-66079845D01*
X181358679Y-66031631D01*
X181427286Y-66018407D01*
X181492151Y-66044375D01*
X181532680Y-66101288D01*
X181539500Y-66141846D01*
X181539500Y-66928918D01*
X181539500Y-66928920D01*
X181539499Y-66928920D01*
X181568340Y-67073907D01*
X181568343Y-67073917D01*
X181624912Y-67210488D01*
X181624919Y-67210501D01*
X181707048Y-67333415D01*
X181707051Y-67333419D01*
X181811580Y-67437948D01*
X181811584Y-67437951D01*
X181934498Y-67520080D01*
X181934511Y-67520087D01*
X182071082Y-67576656D01*
X182071087Y-67576658D01*
X182071091Y-67576658D01*
X182071092Y-67576659D01*
X182216079Y-67605500D01*
X182216082Y-67605500D01*
X182363920Y-67605500D01*
X182461462Y-67586096D01*
X182508913Y-67576658D01*
X182645495Y-67520084D01*
X182768416Y-67437951D01*
X182872951Y-67333416D01*
X182955084Y-67210495D01*
X183011658Y-67073913D01*
X183040500Y-66928918D01*
X183040500Y-65681082D01*
X183040500Y-65681079D01*
X183011659Y-65536092D01*
X183011658Y-65536091D01*
X183011658Y-65536087D01*
X183011656Y-65536082D01*
X182955087Y-65399511D01*
X182955080Y-65399498D01*
X182872951Y-65276584D01*
X182872948Y-65276580D01*
X182768419Y-65172051D01*
X182768415Y-65172048D01*
X182645501Y-65089919D01*
X182645488Y-65089912D01*
X182508917Y-65033343D01*
X182508907Y-65033340D01*
X182363920Y-65004500D01*
X182363918Y-65004500D01*
X182216082Y-65004500D01*
X182216080Y-65004500D01*
X182071092Y-65033340D01*
X182071082Y-65033343D01*
X181934511Y-65089912D01*
X181934498Y-65089919D01*
X181811584Y-65172048D01*
X181811580Y-65172051D01*
X181707051Y-65276580D01*
X181707048Y-65276584D01*
X181624919Y-65399498D01*
X181624912Y-65399511D01*
X181568343Y-65536082D01*
X181568340Y-65536092D01*
X181566810Y-65543785D01*
X181534421Y-65605694D01*
X181473703Y-65640264D01*
X181403934Y-65636520D01*
X181347264Y-65595650D01*
X181337807Y-65581586D01*
X181280505Y-65482335D01*
X181182665Y-65384495D01*
X181182664Y-65384494D01*
X181182661Y-65384492D01*
X181062838Y-65315313D01*
X181062837Y-65315312D01*
X181062836Y-65315312D01*
X180929183Y-65279500D01*
X180790817Y-65279500D01*
X180657164Y-65315312D01*
X180657161Y-65315313D01*
X180537338Y-65384492D01*
X180537333Y-65384496D01*
X180439496Y-65482333D01*
X180439492Y-65482338D01*
X180370313Y-65602161D01*
X180370312Y-65602164D01*
X180334500Y-65735817D01*
X175605500Y-65735817D01*
X175569688Y-65602164D01*
X175535096Y-65542249D01*
X175500507Y-65482338D01*
X175500506Y-65482336D01*
X175500505Y-65482335D01*
X175402665Y-65384495D01*
X175402664Y-65384494D01*
X175402661Y-65384492D01*
X175282838Y-65315313D01*
X175282837Y-65315312D01*
X175282836Y-65315312D01*
X175149183Y-65279500D01*
X175010817Y-65279500D01*
X174877164Y-65315312D01*
X174877161Y-65315313D01*
X174757338Y-65384492D01*
X174757333Y-65384496D01*
X174659496Y-65482333D01*
X174659492Y-65482338D01*
X174602192Y-65581586D01*
X174551625Y-65629802D01*
X174483018Y-65643025D01*
X174418153Y-65617057D01*
X174377625Y-65560142D01*
X174373187Y-65543776D01*
X174371658Y-65536087D01*
X174371656Y-65536082D01*
X174315087Y-65399511D01*
X174315080Y-65399498D01*
X174232951Y-65276584D01*
X174232948Y-65276580D01*
X174128419Y-65172051D01*
X174128415Y-65172048D01*
X174005501Y-65089919D01*
X174005488Y-65089912D01*
X173868917Y-65033343D01*
X173868907Y-65033340D01*
X173723920Y-65004500D01*
X173723918Y-65004500D01*
X173576082Y-65004500D01*
X173576080Y-65004500D01*
X173431092Y-65033340D01*
X173431082Y-65033343D01*
X173294511Y-65089912D01*
X173294498Y-65089919D01*
X173171584Y-65172048D01*
X173171580Y-65172051D01*
X173067051Y-65276580D01*
X173067048Y-65276584D01*
X172984919Y-65399498D01*
X172984912Y-65399511D01*
X172928343Y-65536082D01*
X172928340Y-65536092D01*
X172899500Y-65681079D01*
X172899500Y-65681082D01*
X172899500Y-66928918D01*
X172899500Y-66928920D01*
X172899499Y-66928920D01*
X162702654Y-66928920D01*
X162701491Y-64867399D01*
X166364500Y-64867399D01*
X166364500Y-64992601D01*
X166396905Y-65113536D01*
X166459505Y-65221964D01*
X166548036Y-65310495D01*
X166656464Y-65373095D01*
X166777399Y-65405500D01*
X166777401Y-65405500D01*
X166902599Y-65405500D01*
X166902601Y-65405500D01*
X167023536Y-65373095D01*
X167131964Y-65310495D01*
X167220495Y-65221964D01*
X167283095Y-65113536D01*
X167315500Y-64992601D01*
X167315500Y-64867399D01*
X168614500Y-64867399D01*
X168614500Y-64992601D01*
X168646905Y-65113536D01*
X168709505Y-65221964D01*
X168798036Y-65310495D01*
X168906464Y-65373095D01*
X169027399Y-65405500D01*
X169027401Y-65405500D01*
X169152599Y-65405500D01*
X169152601Y-65405500D01*
X169273536Y-65373095D01*
X169381964Y-65310495D01*
X169470495Y-65221964D01*
X169533095Y-65113536D01*
X169565500Y-64992601D01*
X169565500Y-64867399D01*
X169533095Y-64746464D01*
X169470495Y-64638036D01*
X169381964Y-64549505D01*
X169273536Y-64486905D01*
X169273537Y-64486905D01*
X169233224Y-64476103D01*
X169152601Y-64454500D01*
X169027399Y-64454500D01*
X168946775Y-64476103D01*
X168906463Y-64486905D01*
X168798037Y-64549504D01*
X168798034Y-64549506D01*
X168709506Y-64638034D01*
X168709504Y-64638037D01*
X168646905Y-64746463D01*
X168646905Y-64746464D01*
X168614500Y-64867399D01*
X167315500Y-64867399D01*
X167283095Y-64746464D01*
X167220495Y-64638036D01*
X167131964Y-64549505D01*
X167023536Y-64486905D01*
X167023537Y-64486905D01*
X166983224Y-64476103D01*
X166902601Y-64454500D01*
X166777399Y-64454500D01*
X166696775Y-64476103D01*
X166656463Y-64486905D01*
X166548037Y-64549504D01*
X166548034Y-64549506D01*
X166459506Y-64638034D01*
X166459504Y-64638037D01*
X166396905Y-64746463D01*
X166396905Y-64746464D01*
X166364500Y-64867399D01*
X162701491Y-64867399D01*
X162700752Y-63557399D01*
X166364500Y-63557399D01*
X166364500Y-63682601D01*
X166396905Y-63803536D01*
X166459505Y-63911964D01*
X166548036Y-64000495D01*
X166656464Y-64063095D01*
X166777399Y-64095500D01*
X166777401Y-64095500D01*
X166902599Y-64095500D01*
X166902601Y-64095500D01*
X167023536Y-64063095D01*
X167131964Y-64000495D01*
X167220495Y-63911964D01*
X167283095Y-63803536D01*
X167315500Y-63682601D01*
X167315500Y-63557399D01*
X168614500Y-63557399D01*
X168614500Y-63682601D01*
X168646905Y-63803536D01*
X168709505Y-63911964D01*
X168798036Y-64000495D01*
X168906464Y-64063095D01*
X169027399Y-64095500D01*
X169027401Y-64095500D01*
X169152599Y-64095500D01*
X169152601Y-64095500D01*
X169273536Y-64063095D01*
X169381964Y-64000495D01*
X169470495Y-63911964D01*
X169493482Y-63872149D01*
X187049500Y-63872149D01*
X187049500Y-64127850D01*
X187075457Y-64325007D01*
X187082874Y-64381340D01*
X187127934Y-64549505D01*
X187149050Y-64628312D01*
X187149053Y-64628322D01*
X187246894Y-64864531D01*
X187246899Y-64864542D01*
X187374734Y-65085957D01*
X187374745Y-65085973D01*
X187530388Y-65288811D01*
X187530394Y-65288818D01*
X187711181Y-65469605D01*
X187711188Y-65469611D01*
X187829170Y-65560142D01*
X187914035Y-65625261D01*
X187914042Y-65625265D01*
X188135457Y-65753100D01*
X188135462Y-65753102D01*
X188135465Y-65753104D01*
X188371687Y-65850950D01*
X188618660Y-65917126D01*
X188872157Y-65950500D01*
X188872164Y-65950500D01*
X189127836Y-65950500D01*
X189127843Y-65950500D01*
X189381340Y-65917126D01*
X189628313Y-65850950D01*
X189864535Y-65753104D01*
X190085965Y-65625261D01*
X190288813Y-65469610D01*
X190469610Y-65288813D01*
X190625261Y-65085965D01*
X190753104Y-64864535D01*
X190850950Y-64628313D01*
X190917126Y-64381340D01*
X190950500Y-64127843D01*
X190950500Y-63872157D01*
X190917126Y-63618660D01*
X190850950Y-63371687D01*
X190753104Y-63135465D01*
X190753102Y-63135462D01*
X190753100Y-63135457D01*
X190625265Y-62914042D01*
X190625261Y-62914035D01*
X190469610Y-62711187D01*
X190469605Y-62711181D01*
X190288818Y-62530394D01*
X190288811Y-62530388D01*
X190085973Y-62374745D01*
X190085971Y-62374743D01*
X190085965Y-62374739D01*
X190085960Y-62374736D01*
X190085957Y-62374734D01*
X189864542Y-62246899D01*
X189864531Y-62246894D01*
X189628322Y-62149053D01*
X189628315Y-62149051D01*
X189628313Y-62149050D01*
X189381340Y-62082874D01*
X189325007Y-62075457D01*
X189127850Y-62049500D01*
X189127843Y-62049500D01*
X188872157Y-62049500D01*
X188872149Y-62049500D01*
X188646826Y-62079165D01*
X188618660Y-62082874D01*
X188371687Y-62149050D01*
X188371677Y-62149053D01*
X188135468Y-62246894D01*
X188135457Y-62246899D01*
X187914042Y-62374734D01*
X187914026Y-62374745D01*
X187711188Y-62530388D01*
X187711181Y-62530394D01*
X187530394Y-62711181D01*
X187530388Y-62711188D01*
X187374745Y-62914026D01*
X187374734Y-62914042D01*
X187246899Y-63135457D01*
X187246894Y-63135468D01*
X187149053Y-63371677D01*
X187149050Y-63371687D01*
X187082874Y-63618661D01*
X187049500Y-63872149D01*
X169493482Y-63872149D01*
X169533095Y-63803536D01*
X169565500Y-63682601D01*
X169565500Y-63557399D01*
X169533095Y-63436464D01*
X169470495Y-63328036D01*
X169381964Y-63239505D01*
X169273536Y-63176905D01*
X169273537Y-63176905D01*
X169227330Y-63164524D01*
X169152601Y-63144500D01*
X169027399Y-63144500D01*
X168952670Y-63164524D01*
X168906463Y-63176905D01*
X168798037Y-63239504D01*
X168798034Y-63239506D01*
X168709506Y-63328034D01*
X168709504Y-63328037D01*
X168646905Y-63436463D01*
X168646905Y-63436464D01*
X168614500Y-63557399D01*
X167315500Y-63557399D01*
X167283095Y-63436464D01*
X167220495Y-63328036D01*
X167131964Y-63239505D01*
X167023536Y-63176905D01*
X167023537Y-63176905D01*
X166977330Y-63164524D01*
X166902601Y-63144500D01*
X166777399Y-63144500D01*
X166702670Y-63164524D01*
X166656463Y-63176905D01*
X166548037Y-63239504D01*
X166548034Y-63239506D01*
X166459506Y-63328034D01*
X166459504Y-63328037D01*
X166396905Y-63436463D01*
X166396905Y-63436464D01*
X166364500Y-63557399D01*
X162700752Y-63557399D01*
X162699871Y-61996577D01*
X163269500Y-61996577D01*
X163269500Y-62193422D01*
X163300290Y-62387826D01*
X163361117Y-62575029D01*
X163430494Y-62711188D01*
X163450476Y-62750405D01*
X163566172Y-62909646D01*
X163705354Y-63048828D01*
X163864595Y-63164524D01*
X163914752Y-63190080D01*
X164039970Y-63253882D01*
X164039972Y-63253882D01*
X164039975Y-63253884D01*
X164106502Y-63275500D01*
X164227173Y-63314709D01*
X164421578Y-63345500D01*
X164421583Y-63345500D01*
X164618422Y-63345500D01*
X164812826Y-63314709D01*
X165000025Y-63253884D01*
X165175405Y-63164524D01*
X165334646Y-63048828D01*
X165473828Y-62909646D01*
X165589524Y-62750405D01*
X165666709Y-62598920D01*
X172899499Y-62598920D01*
X172928340Y-62743907D01*
X172928343Y-62743917D01*
X172984912Y-62880488D01*
X172984919Y-62880501D01*
X173067048Y-63003415D01*
X173067051Y-63003419D01*
X173171580Y-63107948D01*
X173171584Y-63107951D01*
X173294498Y-63190080D01*
X173294511Y-63190087D01*
X173431082Y-63246656D01*
X173431087Y-63246658D01*
X173431091Y-63246658D01*
X173431092Y-63246659D01*
X173576079Y-63275500D01*
X173576082Y-63275500D01*
X173723920Y-63275500D01*
X173832596Y-63253882D01*
X173868913Y-63246658D01*
X174005495Y-63190084D01*
X174128416Y-63107951D01*
X174232951Y-63003416D01*
X174315084Y-62880495D01*
X174371658Y-62743913D01*
X174400500Y-62598920D01*
X181539499Y-62598920D01*
X181568340Y-62743907D01*
X181568343Y-62743917D01*
X181624912Y-62880488D01*
X181624919Y-62880501D01*
X181707048Y-63003415D01*
X181707051Y-63003419D01*
X181811580Y-63107948D01*
X181811584Y-63107951D01*
X181934498Y-63190080D01*
X181934511Y-63190087D01*
X182071082Y-63246656D01*
X182071087Y-63246658D01*
X182071091Y-63246658D01*
X182071092Y-63246659D01*
X182216079Y-63275500D01*
X182216082Y-63275500D01*
X182363920Y-63275500D01*
X182472596Y-63253882D01*
X182508913Y-63246658D01*
X182645495Y-63190084D01*
X182768416Y-63107951D01*
X182872951Y-63003416D01*
X182955084Y-62880495D01*
X183011658Y-62743913D01*
X183040500Y-62598918D01*
X183040500Y-61651082D01*
X183040500Y-61651079D01*
X183011659Y-61506092D01*
X183011658Y-61506091D01*
X183011658Y-61506087D01*
X182984116Y-61439594D01*
X182955087Y-61369511D01*
X182955080Y-61369498D01*
X182872951Y-61246584D01*
X182872948Y-61246580D01*
X182768419Y-61142051D01*
X182768415Y-61142048D01*
X182645501Y-61059919D01*
X182645488Y-61059912D01*
X182508917Y-61003343D01*
X182508907Y-61003340D01*
X182363920Y-60974500D01*
X182363918Y-60974500D01*
X182216082Y-60974500D01*
X182216080Y-60974500D01*
X182071092Y-61003340D01*
X182071082Y-61003343D01*
X181934511Y-61059912D01*
X181934498Y-61059919D01*
X181811584Y-61142048D01*
X181811580Y-61142051D01*
X181707051Y-61246580D01*
X181707048Y-61246584D01*
X181624919Y-61369498D01*
X181624912Y-61369511D01*
X181568343Y-61506082D01*
X181568340Y-61506092D01*
X181539500Y-61651079D01*
X181539500Y-61651082D01*
X181539500Y-62598918D01*
X181539500Y-62598920D01*
X181539499Y-62598920D01*
X174400500Y-62598920D01*
X174400500Y-62598918D01*
X174400500Y-61651082D01*
X174400500Y-61651079D01*
X174371659Y-61506092D01*
X174371658Y-61506091D01*
X174371658Y-61506087D01*
X174344116Y-61439594D01*
X174315087Y-61369511D01*
X174315080Y-61369498D01*
X174232951Y-61246584D01*
X174232948Y-61246580D01*
X174128419Y-61142051D01*
X174128415Y-61142048D01*
X174005501Y-61059919D01*
X174005488Y-61059912D01*
X173868917Y-61003343D01*
X173868907Y-61003340D01*
X173723920Y-60974500D01*
X173723918Y-60974500D01*
X173576082Y-60974500D01*
X173576080Y-60974500D01*
X173431092Y-61003340D01*
X173431082Y-61003343D01*
X173294511Y-61059912D01*
X173294498Y-61059919D01*
X173171584Y-61142048D01*
X173171580Y-61142051D01*
X173067051Y-61246580D01*
X173067048Y-61246584D01*
X172984919Y-61369498D01*
X172984912Y-61369511D01*
X172928343Y-61506082D01*
X172928340Y-61506092D01*
X172899500Y-61651079D01*
X172899500Y-61651082D01*
X172899500Y-62598918D01*
X172899500Y-62598920D01*
X172899499Y-62598920D01*
X165666709Y-62598920D01*
X165678884Y-62575025D01*
X165739709Y-62387826D01*
X165741783Y-62374734D01*
X165770500Y-62193422D01*
X165770500Y-61996577D01*
X165739709Y-61802173D01*
X165701087Y-61683309D01*
X165678882Y-61614970D01*
X165589523Y-61439594D01*
X165473828Y-61280354D01*
X165334646Y-61141172D01*
X165175405Y-61025476D01*
X165000029Y-60936117D01*
X164812826Y-60875290D01*
X164618422Y-60844500D01*
X164618417Y-60844500D01*
X164421583Y-60844500D01*
X164421578Y-60844500D01*
X164227173Y-60875290D01*
X164039970Y-60936117D01*
X163864594Y-61025476D01*
X163773741Y-61091485D01*
X163705354Y-61141172D01*
X163705352Y-61141174D01*
X163705351Y-61141174D01*
X163566174Y-61280351D01*
X163566174Y-61280352D01*
X163566172Y-61280354D01*
X163516485Y-61348741D01*
X163450476Y-61439594D01*
X163361117Y-61614970D01*
X163300290Y-61802173D01*
X163269500Y-61996577D01*
X162699871Y-61996577D01*
X162698533Y-59624569D01*
X162718180Y-59557519D01*
X162770958Y-59511735D01*
X162822533Y-59500500D01*
X192494588Y-59500500D01*
X192505394Y-59500972D01*
G37*
%TD.AperFunction*%
%TD*%
M02*
