%TF.GenerationSoftware,KiCad,Pcbnew,9.0.4*%
%TF.CreationDate,2025-09-25T11:48:03-04:00*%
%TF.ProjectId,fanboy,66616e62-6f79-42e6-9b69-6361645f7063,rev?*%
%TF.SameCoordinates,Original*%
%TF.FileFunction,Soldermask,Bot*%
%TF.FilePolarity,Negative*%
%FSLAX46Y46*%
G04 Gerber Fmt 4.6, Leading zero omitted, Abs format (unit mm)*
G04 Created by KiCad (PCBNEW 9.0.4) date 2025-09-25 11:48:03*
%MOMM*%
%LPD*%
G01*
G04 APERTURE LIST*
%ADD10C,1.050000*%
%ADD11C,3.500000*%
%ADD12C,2.000000*%
%ADD13C,3.000000*%
%ADD14C,1.300000*%
%ADD15O,1.574800X4.000000*%
%ADD16C,1.500000*%
%ADD17O,1.000000X1.800000*%
%ADD18O,1.000000X2.100000*%
%ADD19C,0.650000*%
G04 APERTURE END LIST*
%TO.C,FID4*%
D10*
X191205000Y-69780000D02*
G75*
G02*
X190155000Y-69780000I-525000J0D01*
G01*
X190155000Y-69780000D02*
G75*
G02*
X191205000Y-69780000I525000J0D01*
G01*
%TO.C,FID3*%
X190875000Y-98540000D02*
G75*
G02*
X189825000Y-98540000I-525000J0D01*
G01*
X189825000Y-98540000D02*
G75*
G02*
X190875000Y-98540000I525000J0D01*
G01*
%TO.C,FID2*%
X147475000Y-98510000D02*
G75*
G02*
X146425000Y-98510000I-525000J0D01*
G01*
X146425000Y-98510000D02*
G75*
G02*
X147475000Y-98510000I525000J0D01*
G01*
%TO.C,FID1*%
X146335000Y-69700000D02*
G75*
G02*
X145285000Y-69700000I-525000J0D01*
G01*
X145285000Y-69700000D02*
G75*
G02*
X146335000Y-69700000I525000J0D01*
G01*
%TD*%
D11*
%TO.C,H2*%
X148000000Y-105000000D03*
%TD*%
%TO.C,H3*%
X189000000Y-105000000D03*
%TD*%
%TO.C,H4*%
X189000000Y-64000000D03*
%TD*%
%TO.C,H1*%
X148000000Y-64000000D03*
%TD*%
D12*
%TO.C,FID4*%
X190680000Y-69780000D03*
%TD*%
%TO.C,FID3*%
X190350000Y-98540000D03*
%TD*%
%TO.C,FID2*%
X146950000Y-98510000D03*
%TD*%
%TO.C,FID1*%
X145810000Y-69700000D03*
%TD*%
D13*
%TO.C,J1*%
X156520000Y-72095000D03*
X161520000Y-72095000D03*
D12*
X153520000Y-62095000D03*
X164520000Y-62095000D03*
%TD*%
D14*
%TO.C,J4*%
X180150000Y-106180000D03*
D15*
X175070000Y-102820000D03*
X177610000Y-102820000D03*
D16*
X180150000Y-101860000D03*
D15*
X180150000Y-102820000D03*
X182690000Y-102820000D03*
%TD*%
D14*
%TO.C,J3*%
X159310000Y-106180000D03*
D15*
X154230000Y-102820000D03*
X156770000Y-102820000D03*
D16*
X159310000Y-101860000D03*
D15*
X159310000Y-102820000D03*
X161850000Y-102820000D03*
%TD*%
D17*
%TO.C,J6*%
X173650000Y-62125000D03*
D18*
X173650000Y-66305000D03*
D17*
X182290000Y-62125000D03*
D18*
X182290000Y-66305000D03*
D19*
X175080000Y-65805000D03*
X180860000Y-65805000D03*
%TD*%
M02*
