%TF.GenerationSoftware,KiCad,Pcbnew,9.0.4*%
%TF.CreationDate,2025-09-25T11:48:03-04:00*%
%TF.ProjectId,fanboy,66616e62-6f79-42e6-9b69-6361645f7063,rev?*%
%TF.SameCoordinates,Original*%
%TF.FileFunction,Copper,L2,Inr*%
%TF.FilePolarity,Positive*%
%FSLAX46Y46*%
G04 Gerber Fmt 4.6, Leading zero omitted, Abs format (unit mm)*
G04 Created by KiCad (PCBNEW 9.0.4) date 2025-09-25 11:48:03*
%MOMM*%
%LPD*%
G01*
G04 APERTURE LIST*
%TA.AperFunction,ComponentPad*%
%ADD10C,3.000000*%
%TD*%
%TA.AperFunction,ComponentPad*%
%ADD11C,2.000000*%
%TD*%
%TA.AperFunction,ComponentPad*%
%ADD12O,1.574800X4.000000*%
%TD*%
%TA.AperFunction,ComponentPad*%
%ADD13C,1.500000*%
%TD*%
%TA.AperFunction,ComponentPad*%
%ADD14O,1.000000X1.800000*%
%TD*%
%TA.AperFunction,ComponentPad*%
%ADD15O,1.000000X2.100000*%
%TD*%
%TA.AperFunction,ViaPad*%
%ADD16C,0.450000*%
%TD*%
%TA.AperFunction,ViaPad*%
%ADD17C,0.500000*%
%TD*%
%TA.AperFunction,ViaPad*%
%ADD18C,0.800000*%
%TD*%
%TA.AperFunction,ViaPad*%
%ADD19C,1.000000*%
%TD*%
G04 APERTURE END LIST*
D10*
%TO.N,/12V*%
%TO.C,J1*%
X156520000Y-72095000D03*
%TO.N,GND*%
X161520000Y-72095000D03*
D11*
%TO.N,unconnected-(J1-MNT1-Pad3)*%
X153520000Y-62095000D03*
%TO.N,unconnected-(J1-MNT2-Pad4)*%
X164520000Y-62095000D03*
%TD*%
D12*
%TO.N,GND*%
%TO.C,J4*%
X175070000Y-102820000D03*
%TO.N,/12V*%
X177610000Y-102820000D03*
D13*
%TO.N,/FAN2_TACH*%
X180150000Y-101860000D03*
D12*
X180150000Y-102820000D03*
%TO.N,/FAN2_PWM*%
X182690000Y-102820000D03*
%TD*%
%TO.N,GND*%
%TO.C,J3*%
X154230000Y-102820000D03*
%TO.N,/12V*%
X156770000Y-102820000D03*
D13*
%TO.N,/FAN1_TACH*%
X159310000Y-101860000D03*
D12*
X159310000Y-102820000D03*
%TO.N,/FAN1_PWM*%
X161850000Y-102820000D03*
%TD*%
D14*
%TO.N,GND*%
%TO.C,J6*%
X173650000Y-62125000D03*
D15*
X173650000Y-66305000D03*
D14*
X182290000Y-62125000D03*
D15*
X182290000Y-66305000D03*
%TD*%
D16*
%TO.N,/5V*%
X169090000Y-63620000D03*
%TO.N,/QSPI_SS*%
X172195000Y-75945000D03*
%TO.N,GND*%
X166840000Y-64930000D03*
%TO.N,/QSPI_SS*%
X184370000Y-88880000D03*
%TO.N,/3V3*%
X184300000Y-84060000D03*
%TO.N,GND*%
X166840000Y-63620000D03*
%TO.N,/5V*%
X169090000Y-64930000D03*
%TO.N,GND*%
X190190583Y-74514964D03*
X191505583Y-74514964D03*
X190858083Y-73784964D03*
X190200583Y-73144964D03*
X191515583Y-73144964D03*
%TO.N,/3V3*%
X174340000Y-90200000D03*
%TO.N,/FAN_ALERT*%
X172540000Y-78320000D03*
X173330000Y-90210000D03*
%TO.N,/FAN2_TACH*%
X173080000Y-95000000D03*
%TO.N,/12V*%
X175420000Y-94230000D03*
%TO.N,GND*%
X169370000Y-86770000D03*
%TO.N,/5V*%
X162930000Y-99800000D03*
X183750000Y-99830000D03*
X184620583Y-72964964D03*
X185935583Y-72964964D03*
X182900000Y-72130000D03*
X183990000Y-72110000D03*
X185278083Y-73604964D03*
X185925583Y-74334964D03*
X185370000Y-72100000D03*
%TO.N,GND*%
X182095000Y-94210000D03*
X183410000Y-94210000D03*
X180780000Y-94210000D03*
X161795000Y-94100000D03*
X163110000Y-94100000D03*
X160480000Y-94100000D03*
%TO.N,/12V*%
X156790000Y-99810000D03*
%TO.N,GND*%
X157750000Y-99800000D03*
X178570000Y-99820000D03*
%TO.N,/12V*%
X177600000Y-99890000D03*
%TO.N,/3V3*%
X179430000Y-91550000D03*
X181210000Y-99800000D03*
X160310000Y-99810000D03*
%TO.N,/12V*%
X156395000Y-94100000D03*
X157710000Y-94100000D03*
X155080000Y-94100000D03*
X178050000Y-94230000D03*
X176735000Y-94230000D03*
%TO.N,/3V3*%
X172250000Y-89220000D03*
X170380000Y-89210000D03*
%TO.N,GND*%
X165837500Y-95160000D03*
%TO.N,/3V3*%
X165060000Y-92180000D03*
%TO.N,/FAN1_PWM*%
X161920000Y-98740000D03*
X163347500Y-97060000D03*
%TO.N,/FAN2_TACH*%
X180130000Y-98610000D03*
D17*
%TO.N,/SWD*%
X180140717Y-73170036D03*
X179401524Y-82115036D03*
%TO.N,/SWCLK*%
X177187037Y-72936510D03*
X178641524Y-82030036D03*
%TO.N,/QSPI_SD1*%
X175321524Y-77290036D03*
X167740413Y-74563680D03*
%TO.N,/QSPI_SD2*%
X176161524Y-77290036D03*
X168691524Y-74545036D03*
%TO.N,GND*%
X172560717Y-72250036D03*
X182794417Y-75100036D03*
X180920717Y-86160036D03*
X190490000Y-91950000D03*
X182260717Y-86110036D03*
X178281524Y-80540036D03*
X174490000Y-87380000D03*
X177591524Y-79697536D03*
X171590000Y-77120000D03*
X174791524Y-72470036D03*
X177641524Y-85735036D03*
X178291524Y-78870036D03*
X183450717Y-80700036D03*
X190500000Y-85060000D03*
X183370717Y-76570036D03*
X176871524Y-78870036D03*
X181280000Y-74050000D03*
X175841524Y-88035036D03*
X178950000Y-86420000D03*
X170811524Y-80260036D03*
X180571524Y-88500036D03*
X176386099Y-82200036D03*
X182929283Y-73749964D03*
X170570000Y-75670000D03*
X176861524Y-80540036D03*
%TO.N,/3V3*%
X182260717Y-85150036D03*
X168100717Y-72260036D03*
X182490717Y-80700036D03*
X171771524Y-80260036D03*
X178851121Y-85120036D03*
X172550000Y-77120000D03*
X182410717Y-76570036D03*
X178031524Y-74280036D03*
D18*
X187876300Y-76675000D03*
X187876300Y-75585000D03*
X187885000Y-79625000D03*
D17*
X173501524Y-73495036D03*
X180391524Y-75175036D03*
%TO.N,/1V1*%
X177381524Y-77315036D03*
X179321524Y-77315036D03*
X177741524Y-82085036D03*
D19*
%TO.N,/5V*%
X175480583Y-68569964D03*
X180870583Y-68549964D03*
%TD*%
%TA.AperFunction,Conductor*%
%TO.N,GND*%
G36*
X192505394Y-59500972D02*
G01*
X192512947Y-59501632D01*
X192651564Y-59513760D01*
X192664907Y-59515665D01*
X192694247Y-59521501D01*
X192702109Y-59523334D01*
X192826922Y-59556777D01*
X192842275Y-59561989D01*
X192859224Y-59569009D01*
X192864134Y-59571169D01*
X192989918Y-59629823D01*
X193008633Y-59640629D01*
X193133582Y-59728119D01*
X193150140Y-59742013D01*
X193257986Y-59849859D01*
X193271880Y-59866417D01*
X193359370Y-59991366D01*
X193370177Y-60010084D01*
X193428809Y-60135819D01*
X193430989Y-60140774D01*
X193438009Y-60157723D01*
X193443222Y-60173080D01*
X193476659Y-60297869D01*
X193478501Y-60305769D01*
X193484330Y-60335071D01*
X193486241Y-60348456D01*
X193499028Y-60494605D01*
X193499500Y-60505413D01*
X193499500Y-108494586D01*
X193499028Y-108505394D01*
X193486241Y-108651542D01*
X193484330Y-108664927D01*
X193478501Y-108694229D01*
X193476659Y-108702129D01*
X193443222Y-108826918D01*
X193438009Y-108842275D01*
X193430989Y-108859224D01*
X193428809Y-108864179D01*
X193370177Y-108989915D01*
X193359370Y-109008633D01*
X193271880Y-109133582D01*
X193257986Y-109150140D01*
X193150140Y-109257986D01*
X193133582Y-109271880D01*
X193008633Y-109359370D01*
X192989915Y-109370177D01*
X192864179Y-109428809D01*
X192859224Y-109430989D01*
X192842275Y-109438009D01*
X192826918Y-109443222D01*
X192702129Y-109476659D01*
X192694229Y-109478501D01*
X192664927Y-109484330D01*
X192651542Y-109486241D01*
X192505395Y-109499028D01*
X192494587Y-109499500D01*
X144505413Y-109499500D01*
X144494605Y-109499028D01*
X144348456Y-109486241D01*
X144335071Y-109484330D01*
X144305769Y-109478501D01*
X144297869Y-109476659D01*
X144173080Y-109443222D01*
X144157723Y-109438009D01*
X144140774Y-109430989D01*
X144135819Y-109428809D01*
X144010084Y-109370177D01*
X143991366Y-109359370D01*
X143866417Y-109271880D01*
X143849859Y-109257986D01*
X143742013Y-109150140D01*
X143728119Y-109133582D01*
X143640629Y-109008633D01*
X143629822Y-108989916D01*
X143599292Y-108924445D01*
X143571169Y-108864134D01*
X143569009Y-108859224D01*
X143561989Y-108842275D01*
X143556776Y-108826918D01*
X143538829Y-108759938D01*
X143523334Y-108702109D01*
X143521501Y-108694247D01*
X143515665Y-108664907D01*
X143513760Y-108651564D01*
X143500972Y-108505394D01*
X143500500Y-108494588D01*
X143500500Y-104872149D01*
X146049500Y-104872149D01*
X146049500Y-105127850D01*
X146070689Y-105288787D01*
X146082874Y-105381340D01*
X146119859Y-105519370D01*
X146149050Y-105628312D01*
X146149053Y-105628322D01*
X146246894Y-105864531D01*
X146246899Y-105864542D01*
X146374734Y-106085957D01*
X146374745Y-106085973D01*
X146530388Y-106288811D01*
X146530394Y-106288818D01*
X146711181Y-106469605D01*
X146711187Y-106469610D01*
X146914035Y-106625261D01*
X146914042Y-106625265D01*
X147135457Y-106753100D01*
X147135462Y-106753102D01*
X147135465Y-106753104D01*
X147284426Y-106814805D01*
X147346762Y-106840626D01*
X147371687Y-106850950D01*
X147618660Y-106917126D01*
X147872157Y-106950500D01*
X147872164Y-106950500D01*
X148127836Y-106950500D01*
X148127843Y-106950500D01*
X148381340Y-106917126D01*
X148628313Y-106850950D01*
X148864535Y-106753104D01*
X149085965Y-106625261D01*
X149288813Y-106469610D01*
X149469610Y-106288813D01*
X149625261Y-106085965D01*
X149753104Y-105864535D01*
X149850950Y-105628313D01*
X149917126Y-105381340D01*
X149950500Y-105127843D01*
X149950500Y-104872157D01*
X149917126Y-104618660D01*
X149850950Y-104371687D01*
X149753104Y-104135465D01*
X149753102Y-104135462D01*
X149753100Y-104135457D01*
X149625265Y-103914042D01*
X149625261Y-103914035D01*
X149469610Y-103711187D01*
X149469605Y-103711181D01*
X149288818Y-103530394D01*
X149288811Y-103530388D01*
X149085973Y-103374745D01*
X149085971Y-103374743D01*
X149085965Y-103374739D01*
X149085960Y-103374736D01*
X149085957Y-103374734D01*
X148864542Y-103246899D01*
X148864531Y-103246894D01*
X148628322Y-103149053D01*
X148628315Y-103149051D01*
X148628316Y-103149051D01*
X148628313Y-103149050D01*
X148588612Y-103138412D01*
X148535673Y-103124227D01*
X148381340Y-103082874D01*
X148325007Y-103075457D01*
X148283558Y-103070000D01*
X152942600Y-103070000D01*
X152942600Y-104133920D01*
X152974299Y-104334063D01*
X153036921Y-104526792D01*
X153128919Y-104707348D01*
X153248020Y-104871278D01*
X153248024Y-104871283D01*
X153391316Y-105014575D01*
X153391321Y-105014579D01*
X153555251Y-105133680D01*
X153735805Y-105225678D01*
X153928527Y-105288298D01*
X153980000Y-105296450D01*
X153980000Y-104491579D01*
X154024115Y-104517050D01*
X154159777Y-104553400D01*
X154300223Y-104553400D01*
X154435885Y-104517050D01*
X154480000Y-104491579D01*
X154480000Y-105296449D01*
X154531472Y-105288298D01*
X154724194Y-105225678D01*
X154904748Y-105133680D01*
X155068678Y-105014579D01*
X155068683Y-105014575D01*
X155211975Y-104871283D01*
X155211979Y-104871278D01*
X155331082Y-104707346D01*
X155389234Y-104593216D01*
X155437208Y-104542420D01*
X155505029Y-104525624D01*
X155571164Y-104548161D01*
X155610203Y-104593214D01*
X155668490Y-104707607D01*
X155787639Y-104871604D01*
X155930995Y-105014960D01*
X156084456Y-105126454D01*
X156094994Y-105134110D01*
X156275618Y-105226143D01*
X156468416Y-105288787D01*
X156668640Y-105320500D01*
X156668641Y-105320500D01*
X156871359Y-105320500D01*
X156871360Y-105320500D01*
X157071584Y-105288787D01*
X157264382Y-105226143D01*
X157445006Y-105134110D01*
X157537085Y-105067210D01*
X157609004Y-105014960D01*
X157609006Y-105014957D01*
X157609010Y-105014955D01*
X157752355Y-104871610D01*
X157752357Y-104871606D01*
X157752360Y-104871604D01*
X157807862Y-104795211D01*
X157871510Y-104707606D01*
X157929515Y-104593764D01*
X157977490Y-104542969D01*
X158045311Y-104526174D01*
X158111446Y-104548711D01*
X158150485Y-104593765D01*
X158208492Y-104707609D01*
X158327639Y-104871604D01*
X158470995Y-105014960D01*
X158624456Y-105126454D01*
X158634994Y-105134110D01*
X158815618Y-105226143D01*
X158835599Y-105232635D01*
X158893275Y-105272072D01*
X158920474Y-105336430D01*
X158908560Y-105405277D01*
X158866173Y-105453668D01*
X158767838Y-105519373D01*
X158767834Y-105519376D01*
X158649373Y-105637837D01*
X158556295Y-105777139D01*
X158492184Y-105931917D01*
X158492182Y-105931925D01*
X158459500Y-106096228D01*
X158459500Y-106263771D01*
X158492182Y-106428074D01*
X158492184Y-106428082D01*
X158556295Y-106582860D01*
X158649373Y-106722162D01*
X158767837Y-106840626D01*
X158860494Y-106902537D01*
X158907137Y-106933703D01*
X159061918Y-106997816D01*
X159226228Y-107030499D01*
X159226232Y-107030500D01*
X159226233Y-107030500D01*
X159393768Y-107030500D01*
X159393769Y-107030499D01*
X159558082Y-106997816D01*
X159712863Y-106933703D01*
X159852162Y-106840626D01*
X159970626Y-106722162D01*
X160063703Y-106582863D01*
X160127816Y-106428082D01*
X160160500Y-106263767D01*
X160160500Y-106096233D01*
X160127816Y-105931918D01*
X160063703Y-105777137D01*
X160032537Y-105730494D01*
X159970626Y-105637837D01*
X159852165Y-105519376D01*
X159852157Y-105519370D01*
X159753827Y-105453668D01*
X159709021Y-105400056D01*
X159700314Y-105330731D01*
X159730468Y-105267704D01*
X159784397Y-105232636D01*
X159804382Y-105226143D01*
X159985006Y-105134110D01*
X160077085Y-105067210D01*
X160149004Y-105014960D01*
X160149006Y-105014957D01*
X160149010Y-105014955D01*
X160292355Y-104871610D01*
X160292357Y-104871606D01*
X160292360Y-104871604D01*
X160347862Y-104795211D01*
X160411510Y-104707606D01*
X160469515Y-104593764D01*
X160517490Y-104542969D01*
X160585311Y-104526174D01*
X160651446Y-104548711D01*
X160690485Y-104593765D01*
X160748492Y-104707609D01*
X160867639Y-104871604D01*
X161010995Y-105014960D01*
X161164456Y-105126454D01*
X161174994Y-105134110D01*
X161355618Y-105226143D01*
X161548416Y-105288787D01*
X161748640Y-105320500D01*
X161748641Y-105320500D01*
X161951359Y-105320500D01*
X161951360Y-105320500D01*
X162151584Y-105288787D01*
X162344382Y-105226143D01*
X162525006Y-105134110D01*
X162617085Y-105067210D01*
X162689004Y-105014960D01*
X162689006Y-105014957D01*
X162689010Y-105014955D01*
X162832355Y-104871610D01*
X162832357Y-104871606D01*
X162832360Y-104871604D01*
X162887862Y-104795211D01*
X162951510Y-104707606D01*
X163043543Y-104526982D01*
X163106187Y-104334184D01*
X163137900Y-104133960D01*
X163137900Y-103070000D01*
X173782600Y-103070000D01*
X173782600Y-104133920D01*
X173814299Y-104334063D01*
X173876921Y-104526792D01*
X173968919Y-104707348D01*
X174088020Y-104871278D01*
X174088024Y-104871283D01*
X174231316Y-105014575D01*
X174231321Y-105014579D01*
X174395251Y-105133680D01*
X174575805Y-105225678D01*
X174768527Y-105288298D01*
X174820000Y-105296450D01*
X174820000Y-104491579D01*
X174864115Y-104517050D01*
X174999777Y-104553400D01*
X175140223Y-104553400D01*
X175275885Y-104517050D01*
X175320000Y-104491579D01*
X175320000Y-105296449D01*
X175371472Y-105288298D01*
X175564194Y-105225678D01*
X175744748Y-105133680D01*
X175908678Y-105014579D01*
X175908683Y-105014575D01*
X176051975Y-104871283D01*
X176051979Y-104871278D01*
X176171082Y-104707346D01*
X176229234Y-104593216D01*
X176277208Y-104542420D01*
X176345029Y-104525624D01*
X176411164Y-104548161D01*
X176450203Y-104593214D01*
X176508490Y-104707607D01*
X176627639Y-104871604D01*
X176770995Y-105014960D01*
X176924456Y-105126454D01*
X176934994Y-105134110D01*
X177115618Y-105226143D01*
X177308416Y-105288787D01*
X177508640Y-105320500D01*
X177508641Y-105320500D01*
X177711359Y-105320500D01*
X177711360Y-105320500D01*
X177911584Y-105288787D01*
X178104382Y-105226143D01*
X178285006Y-105134110D01*
X178377085Y-105067210D01*
X178449004Y-105014960D01*
X178449006Y-105014957D01*
X178449010Y-105014955D01*
X178592355Y-104871610D01*
X178592357Y-104871606D01*
X178592360Y-104871604D01*
X178647862Y-104795211D01*
X178711510Y-104707606D01*
X178769515Y-104593764D01*
X178817490Y-104542969D01*
X178885311Y-104526174D01*
X178951446Y-104548711D01*
X178990485Y-104593765D01*
X179048492Y-104707609D01*
X179167639Y-104871604D01*
X179310995Y-105014960D01*
X179464456Y-105126454D01*
X179474994Y-105134110D01*
X179655618Y-105226143D01*
X179675599Y-105232635D01*
X179733275Y-105272072D01*
X179760474Y-105336430D01*
X179748560Y-105405277D01*
X179706173Y-105453668D01*
X179607838Y-105519373D01*
X179607834Y-105519376D01*
X179489373Y-105637837D01*
X179396295Y-105777139D01*
X179332184Y-105931917D01*
X179332182Y-105931925D01*
X179299500Y-106096228D01*
X179299500Y-106263771D01*
X179332182Y-106428074D01*
X179332184Y-106428082D01*
X179396295Y-106582860D01*
X179489373Y-106722162D01*
X179607837Y-106840626D01*
X179700494Y-106902537D01*
X179747137Y-106933703D01*
X179901918Y-106997816D01*
X180066228Y-107030499D01*
X180066232Y-107030500D01*
X180066233Y-107030500D01*
X180233768Y-107030500D01*
X180233769Y-107030499D01*
X180398082Y-106997816D01*
X180552863Y-106933703D01*
X180692162Y-106840626D01*
X180810626Y-106722162D01*
X180903703Y-106582863D01*
X180967816Y-106428082D01*
X181000500Y-106263767D01*
X181000500Y-106096233D01*
X180967816Y-105931918D01*
X180903703Y-105777137D01*
X180872537Y-105730494D01*
X180810626Y-105637837D01*
X180692165Y-105519376D01*
X180692157Y-105519370D01*
X180593827Y-105453668D01*
X180549021Y-105400056D01*
X180540314Y-105330731D01*
X180570468Y-105267704D01*
X180624397Y-105232636D01*
X180644382Y-105226143D01*
X180825006Y-105134110D01*
X180917085Y-105067210D01*
X180989004Y-105014960D01*
X180989006Y-105014957D01*
X180989010Y-105014955D01*
X181132355Y-104871610D01*
X181132357Y-104871606D01*
X181132360Y-104871604D01*
X181187862Y-104795211D01*
X181251510Y-104707606D01*
X181309515Y-104593764D01*
X181357490Y-104542969D01*
X181425311Y-104526174D01*
X181491446Y-104548711D01*
X181530485Y-104593765D01*
X181588492Y-104707609D01*
X181707639Y-104871604D01*
X181850995Y-105014960D01*
X182004456Y-105126454D01*
X182014994Y-105134110D01*
X182195618Y-105226143D01*
X182388416Y-105288787D01*
X182588640Y-105320500D01*
X182588641Y-105320500D01*
X182791359Y-105320500D01*
X182791360Y-105320500D01*
X182991584Y-105288787D01*
X183184382Y-105226143D01*
X183365006Y-105134110D01*
X183457085Y-105067210D01*
X183529004Y-105014960D01*
X183529006Y-105014957D01*
X183529010Y-105014955D01*
X183671816Y-104872149D01*
X187049500Y-104872149D01*
X187049500Y-105127850D01*
X187070689Y-105288787D01*
X187082874Y-105381340D01*
X187119859Y-105519370D01*
X187149050Y-105628312D01*
X187149053Y-105628322D01*
X187246894Y-105864531D01*
X187246899Y-105864542D01*
X187374734Y-106085957D01*
X187374745Y-106085973D01*
X187530388Y-106288811D01*
X187530394Y-106288818D01*
X187711181Y-106469605D01*
X187711187Y-106469610D01*
X187914035Y-106625261D01*
X187914042Y-106625265D01*
X188135457Y-106753100D01*
X188135462Y-106753102D01*
X188135465Y-106753104D01*
X188284426Y-106814805D01*
X188346762Y-106840626D01*
X188371687Y-106850950D01*
X188618660Y-106917126D01*
X188872157Y-106950500D01*
X188872164Y-106950500D01*
X189127836Y-106950500D01*
X189127843Y-106950500D01*
X189381340Y-106917126D01*
X189628313Y-106850950D01*
X189864535Y-106753104D01*
X190085965Y-106625261D01*
X190288813Y-106469610D01*
X190469610Y-106288813D01*
X190625261Y-106085965D01*
X190753104Y-105864535D01*
X190850950Y-105628313D01*
X190917126Y-105381340D01*
X190950500Y-105127843D01*
X190950500Y-104872157D01*
X190917126Y-104618660D01*
X190850950Y-104371687D01*
X190753104Y-104135465D01*
X190753102Y-104135462D01*
X190753100Y-104135457D01*
X190625265Y-103914042D01*
X190625261Y-103914035D01*
X190469610Y-103711187D01*
X190469605Y-103711181D01*
X190288818Y-103530394D01*
X190288811Y-103530388D01*
X190085973Y-103374745D01*
X190085971Y-103374743D01*
X190085965Y-103374739D01*
X190085960Y-103374736D01*
X190085957Y-103374734D01*
X189864542Y-103246899D01*
X189864531Y-103246894D01*
X189628322Y-103149053D01*
X189628315Y-103149051D01*
X189628313Y-103149050D01*
X189381340Y-103082874D01*
X189325007Y-103075457D01*
X189127850Y-103049500D01*
X189127843Y-103049500D01*
X188872157Y-103049500D01*
X188872149Y-103049500D01*
X188646826Y-103079165D01*
X188618660Y-103082874D01*
X188411389Y-103138412D01*
X188371687Y-103149050D01*
X188371677Y-103149053D01*
X188135468Y-103246894D01*
X188135457Y-103246899D01*
X187914042Y-103374734D01*
X187914026Y-103374745D01*
X187711188Y-103530388D01*
X187711181Y-103530394D01*
X187530394Y-103711181D01*
X187530388Y-103711188D01*
X187374745Y-103914026D01*
X187374734Y-103914042D01*
X187246899Y-104135457D01*
X187246894Y-104135468D01*
X187149053Y-104371677D01*
X187149050Y-104371687D01*
X187100361Y-104553400D01*
X187082874Y-104618661D01*
X187049500Y-104872149D01*
X183671816Y-104872149D01*
X183672355Y-104871610D01*
X183791510Y-104707606D01*
X183883543Y-104526982D01*
X183946187Y-104334184D01*
X183977900Y-104133960D01*
X183977900Y-101506040D01*
X183946187Y-101305816D01*
X183883543Y-101113018D01*
X183791510Y-100932394D01*
X183783854Y-100921856D01*
X183672360Y-100768395D01*
X183671146Y-100767181D01*
X183670833Y-100766608D01*
X183669198Y-100764694D01*
X183669600Y-100764350D01*
X183637661Y-100705858D01*
X183642645Y-100636166D01*
X183684517Y-100580233D01*
X183749981Y-100555816D01*
X183758827Y-100555500D01*
X183821457Y-100555500D01*
X183915751Y-100536742D01*
X183961620Y-100527619D01*
X184093653Y-100472929D01*
X184212479Y-100393532D01*
X184313532Y-100292479D01*
X184392929Y-100173653D01*
X184447619Y-100041620D01*
X184475500Y-99901455D01*
X184475500Y-99758545D01*
X184475500Y-99758542D01*
X184447620Y-99618385D01*
X184447619Y-99618384D01*
X184447619Y-99618380D01*
X184392929Y-99486347D01*
X184392928Y-99486346D01*
X184392925Y-99486340D01*
X184313532Y-99367521D01*
X184313529Y-99367517D01*
X184212482Y-99266470D01*
X184212478Y-99266467D01*
X184093659Y-99187074D01*
X184093650Y-99187069D01*
X183961620Y-99132381D01*
X183961614Y-99132379D01*
X183821457Y-99104500D01*
X183821455Y-99104500D01*
X183678545Y-99104500D01*
X183678543Y-99104500D01*
X183538385Y-99132379D01*
X183538379Y-99132381D01*
X183406349Y-99187069D01*
X183406340Y-99187074D01*
X183287521Y-99266467D01*
X183287517Y-99266470D01*
X183186470Y-99367517D01*
X183186467Y-99367521D01*
X183107074Y-99486340D01*
X183107069Y-99486349D01*
X183052381Y-99618379D01*
X183052379Y-99618385D01*
X183024500Y-99758542D01*
X183024500Y-99758545D01*
X183024500Y-99901455D01*
X183024500Y-99901457D01*
X183024499Y-99901457D01*
X183052379Y-100041614D01*
X183052382Y-100041624D01*
X183109157Y-100178692D01*
X183116626Y-100248161D01*
X183085350Y-100310640D01*
X183025261Y-100346292D01*
X182975198Y-100348617D01*
X182826908Y-100325130D01*
X182791360Y-100319500D01*
X182588640Y-100319500D01*
X182542224Y-100326851D01*
X182388419Y-100351212D01*
X182367789Y-100357915D01*
X182197302Y-100413310D01*
X182195615Y-100413858D01*
X182014990Y-100505892D01*
X181850995Y-100625039D01*
X181707639Y-100768395D01*
X181588492Y-100932390D01*
X181530485Y-101046234D01*
X181482510Y-101097030D01*
X181414689Y-101113825D01*
X181348554Y-101091287D01*
X181309515Y-101046234D01*
X181294921Y-101017594D01*
X181251510Y-100932394D01*
X181243854Y-100921856D01*
X181132360Y-100768395D01*
X181101146Y-100737181D01*
X181067661Y-100675858D01*
X181072645Y-100606166D01*
X181114517Y-100550233D01*
X181179981Y-100525816D01*
X181188827Y-100525500D01*
X181281457Y-100525500D01*
X181380029Y-100505892D01*
X181421620Y-100497619D01*
X181553653Y-100442929D01*
X181672479Y-100363532D01*
X181773532Y-100262479D01*
X181852929Y-100143653D01*
X181907619Y-100011620D01*
X181929533Y-99901455D01*
X181935500Y-99871457D01*
X181935500Y-99728542D01*
X181907620Y-99588385D01*
X181907619Y-99588384D01*
X181907619Y-99588380D01*
X181852929Y-99456347D01*
X181852928Y-99456346D01*
X181852925Y-99456340D01*
X181773532Y-99337521D01*
X181773529Y-99337517D01*
X181672482Y-99236470D01*
X181672478Y-99236467D01*
X181553659Y-99157074D01*
X181553650Y-99157069D01*
X181421620Y-99102381D01*
X181421614Y-99102379D01*
X181281457Y-99074500D01*
X181281455Y-99074500D01*
X181138545Y-99074500D01*
X181138543Y-99074500D01*
X180998385Y-99102379D01*
X180998375Y-99102382D01*
X180926894Y-99131991D01*
X180857425Y-99139460D01*
X180794946Y-99108185D01*
X180759294Y-99048096D01*
X180761788Y-98978271D01*
X180770083Y-98958978D01*
X180772929Y-98953653D01*
X180775500Y-98947445D01*
X180827619Y-98821620D01*
X180855500Y-98681455D01*
X180855500Y-98538545D01*
X180855500Y-98538542D01*
X180827620Y-98398385D01*
X180827619Y-98398384D01*
X180827619Y-98398380D01*
X180785318Y-98296258D01*
X180772930Y-98266349D01*
X180772925Y-98266340D01*
X180693532Y-98147521D01*
X180693529Y-98147517D01*
X180592482Y-98046470D01*
X180592478Y-98046467D01*
X180473659Y-97967074D01*
X180473650Y-97967069D01*
X180341620Y-97912381D01*
X180341614Y-97912379D01*
X180201457Y-97884500D01*
X180201455Y-97884500D01*
X180058545Y-97884500D01*
X180058543Y-97884500D01*
X179918385Y-97912379D01*
X179918379Y-97912381D01*
X179786349Y-97967069D01*
X179786340Y-97967074D01*
X179667521Y-98046467D01*
X179667517Y-98046470D01*
X179566470Y-98147517D01*
X179566467Y-98147521D01*
X179487074Y-98266340D01*
X179487069Y-98266349D01*
X179432381Y-98398379D01*
X179432379Y-98398385D01*
X179404500Y-98538542D01*
X179404500Y-98538545D01*
X179404500Y-98681455D01*
X179404500Y-98681457D01*
X179404499Y-98681457D01*
X179432379Y-98821614D01*
X179432381Y-98821620D01*
X179487069Y-98953650D01*
X179487074Y-98953659D01*
X179566467Y-99072478D01*
X179566470Y-99072482D01*
X179667517Y-99173529D01*
X179667521Y-99173532D01*
X179786340Y-99252925D01*
X179786346Y-99252928D01*
X179786347Y-99252929D01*
X179918380Y-99307619D01*
X179918384Y-99307619D01*
X179918385Y-99307620D01*
X180058542Y-99335500D01*
X180058545Y-99335500D01*
X180201457Y-99335500D01*
X180295751Y-99316742D01*
X180341620Y-99307619D01*
X180413105Y-99278008D01*
X180482572Y-99270539D01*
X180545052Y-99301813D01*
X180580705Y-99361901D01*
X180578212Y-99431727D01*
X180569922Y-99451009D01*
X180567074Y-99456336D01*
X180512381Y-99588379D01*
X180512379Y-99588385D01*
X180484500Y-99728542D01*
X180484500Y-99728545D01*
X180484500Y-99871455D01*
X180484500Y-99871457D01*
X180484499Y-99871457D01*
X180512379Y-100011614D01*
X180512381Y-100011620D01*
X180567069Y-100143650D01*
X180567076Y-100143662D01*
X180578343Y-100160525D01*
X180599220Y-100227203D01*
X180580734Y-100294583D01*
X180528755Y-100341272D01*
X180459785Y-100352447D01*
X180455842Y-100351887D01*
X180307900Y-100328455D01*
X180251360Y-100319500D01*
X180048640Y-100319500D01*
X180002224Y-100326851D01*
X179848419Y-100351212D01*
X179827789Y-100357915D01*
X179657302Y-100413310D01*
X179655615Y-100413858D01*
X179474990Y-100505892D01*
X179310995Y-100625039D01*
X179167639Y-100768395D01*
X179048492Y-100932390D01*
X178990485Y-101046234D01*
X178942510Y-101097030D01*
X178874689Y-101113825D01*
X178808554Y-101091287D01*
X178769515Y-101046234D01*
X178754921Y-101017594D01*
X178711510Y-100932394D01*
X178703854Y-100921856D01*
X178592360Y-100768395D01*
X178449004Y-100625039D01*
X178285007Y-100505890D01*
X178242245Y-100484101D01*
X178191449Y-100436126D01*
X178174655Y-100368305D01*
X178195440Y-100304725D01*
X178242924Y-100233661D01*
X178242925Y-100233658D01*
X178242929Y-100233653D01*
X178297619Y-100101620D01*
X178313532Y-100021620D01*
X178325500Y-99961457D01*
X178325500Y-99818542D01*
X178297620Y-99678385D01*
X178297619Y-99678384D01*
X178297619Y-99678380D01*
X178242929Y-99546347D01*
X178242928Y-99546346D01*
X178242925Y-99546340D01*
X178163532Y-99427521D01*
X178163529Y-99427517D01*
X178062482Y-99326470D01*
X178062478Y-99326467D01*
X177943659Y-99247074D01*
X177943650Y-99247069D01*
X177811620Y-99192381D01*
X177811614Y-99192379D01*
X177671457Y-99164500D01*
X177671455Y-99164500D01*
X177528545Y-99164500D01*
X177528543Y-99164500D01*
X177388385Y-99192379D01*
X177388379Y-99192381D01*
X177256349Y-99247069D01*
X177256340Y-99247074D01*
X177137521Y-99326467D01*
X177137517Y-99326470D01*
X177036470Y-99427517D01*
X177036467Y-99427521D01*
X176957074Y-99546340D01*
X176957069Y-99546349D01*
X176902381Y-99678379D01*
X176902379Y-99678385D01*
X176874500Y-99818542D01*
X176874500Y-99818545D01*
X176874500Y-99961455D01*
X176874500Y-99961457D01*
X176874499Y-99961457D01*
X176902379Y-100101614D01*
X176902381Y-100101620D01*
X176957069Y-100233650D01*
X176957074Y-100233659D01*
X177009640Y-100312329D01*
X177030518Y-100379007D01*
X177012033Y-100446387D01*
X176962834Y-100491704D01*
X176934992Y-100505890D01*
X176770995Y-100625039D01*
X176627639Y-100768395D01*
X176508490Y-100932392D01*
X176450203Y-101046785D01*
X176402228Y-101097580D01*
X176334407Y-101114375D01*
X176268273Y-101091837D01*
X176229234Y-101046783D01*
X176171082Y-100932653D01*
X176051979Y-100768721D01*
X176051975Y-100768716D01*
X175908683Y-100625424D01*
X175908678Y-100625420D01*
X175744748Y-100506319D01*
X175564192Y-100414321D01*
X175371463Y-100351699D01*
X175320000Y-100343548D01*
X175320000Y-103548420D01*
X175275885Y-103522950D01*
X175140223Y-103486600D01*
X174999777Y-103486600D01*
X174864115Y-103522950D01*
X174820000Y-103548420D01*
X174820000Y-103070000D01*
X173782600Y-103070000D01*
X163137900Y-103070000D01*
X163137900Y-101506079D01*
X173782600Y-101506079D01*
X173782600Y-102570000D01*
X174820000Y-102570000D01*
X174820000Y-100343548D01*
X174819999Y-100343548D01*
X174768536Y-100351699D01*
X174575807Y-100414321D01*
X174395251Y-100506319D01*
X174231321Y-100625420D01*
X174231316Y-100625424D01*
X174088024Y-100768716D01*
X174088020Y-100768721D01*
X173968919Y-100932651D01*
X173876921Y-101113207D01*
X173814299Y-101305936D01*
X173782600Y-101506079D01*
X163137900Y-101506079D01*
X163137900Y-101506040D01*
X163106187Y-101305816D01*
X163043543Y-101113018D01*
X162951510Y-100932394D01*
X162943854Y-100921856D01*
X162832360Y-100768395D01*
X162801146Y-100737181D01*
X162767661Y-100675858D01*
X162772645Y-100606166D01*
X162814517Y-100550233D01*
X162879981Y-100525816D01*
X162888827Y-100525500D01*
X163001457Y-100525500D01*
X163100029Y-100505892D01*
X163141620Y-100497619D01*
X163273653Y-100442929D01*
X163392479Y-100363532D01*
X163493532Y-100262479D01*
X163572929Y-100143653D01*
X163627619Y-100011620D01*
X163649533Y-99901455D01*
X163655500Y-99871457D01*
X163655500Y-99728542D01*
X163627620Y-99588385D01*
X163627619Y-99588384D01*
X163627619Y-99588380D01*
X163572929Y-99456347D01*
X163572928Y-99456346D01*
X163572925Y-99456340D01*
X163493532Y-99337521D01*
X163493529Y-99337517D01*
X163392482Y-99236470D01*
X163392478Y-99236467D01*
X163273659Y-99157074D01*
X163273650Y-99157069D01*
X163141620Y-99102381D01*
X163141614Y-99102379D01*
X163001457Y-99074500D01*
X163001455Y-99074500D01*
X162858545Y-99074500D01*
X162858540Y-99074500D01*
X162764257Y-99093254D01*
X162694665Y-99087027D01*
X162639488Y-99044163D01*
X162616244Y-98978274D01*
X162618449Y-98947445D01*
X162645500Y-98811457D01*
X162645500Y-98668542D01*
X162617620Y-98528385D01*
X162617619Y-98528384D01*
X162617619Y-98528380D01*
X162562929Y-98396347D01*
X162562928Y-98396346D01*
X162562925Y-98396340D01*
X162483532Y-98277521D01*
X162483529Y-98277517D01*
X162382482Y-98176470D01*
X162382478Y-98176467D01*
X162263659Y-98097074D01*
X162263650Y-98097069D01*
X162131620Y-98042381D01*
X162131614Y-98042379D01*
X161991457Y-98014500D01*
X161991455Y-98014500D01*
X161848545Y-98014500D01*
X161848543Y-98014500D01*
X161708385Y-98042379D01*
X161708379Y-98042381D01*
X161576349Y-98097069D01*
X161576340Y-98097074D01*
X161457521Y-98176467D01*
X161457517Y-98176470D01*
X161356470Y-98277517D01*
X161356467Y-98277521D01*
X161277074Y-98396340D01*
X161277069Y-98396349D01*
X161222381Y-98528379D01*
X161222379Y-98528385D01*
X161194500Y-98668542D01*
X161194500Y-98668545D01*
X161194500Y-98811455D01*
X161194500Y-98811457D01*
X161194499Y-98811457D01*
X161222379Y-98951614D01*
X161222381Y-98951620D01*
X161277069Y-99083650D01*
X161277074Y-99083659D01*
X161356467Y-99202478D01*
X161356470Y-99202482D01*
X161457517Y-99303529D01*
X161457521Y-99303532D01*
X161576340Y-99382925D01*
X161576346Y-99382928D01*
X161576347Y-99382929D01*
X161708380Y-99437619D01*
X161708384Y-99437619D01*
X161708385Y-99437620D01*
X161848542Y-99465500D01*
X161848545Y-99465500D01*
X161991457Y-99465500D01*
X162085741Y-99446745D01*
X162155332Y-99452972D01*
X162210510Y-99495834D01*
X162233755Y-99561724D01*
X162231550Y-99592553D01*
X162204500Y-99728540D01*
X162204500Y-99728545D01*
X162204500Y-99871455D01*
X162204500Y-99871457D01*
X162204499Y-99871457D01*
X162232379Y-100011614D01*
X162232381Y-100011620D01*
X162287069Y-100143650D01*
X162287074Y-100143659D01*
X162303124Y-100167679D01*
X162324002Y-100234357D01*
X162305517Y-100301737D01*
X162253539Y-100348427D01*
X162184569Y-100359603D01*
X162161708Y-100354502D01*
X162151586Y-100351213D01*
X162151580Y-100351212D01*
X162011782Y-100329070D01*
X161951360Y-100319500D01*
X161748640Y-100319500D01*
X161702224Y-100326851D01*
X161548419Y-100351212D01*
X161527789Y-100357915D01*
X161357302Y-100413310D01*
X161355615Y-100413858D01*
X161174990Y-100505892D01*
X161010995Y-100625039D01*
X160867639Y-100768395D01*
X160748492Y-100932390D01*
X160690485Y-101046234D01*
X160642510Y-101097030D01*
X160574689Y-101113825D01*
X160508554Y-101091287D01*
X160469515Y-101046234D01*
X160454921Y-101017594D01*
X160411510Y-100932394D01*
X160403854Y-100921856D01*
X160292360Y-100768395D01*
X160271146Y-100747181D01*
X160237661Y-100685858D01*
X160242645Y-100616166D01*
X160284517Y-100560233D01*
X160349981Y-100535816D01*
X160358827Y-100535500D01*
X160381457Y-100535500D01*
X160475751Y-100516742D01*
X160521620Y-100507619D01*
X160653653Y-100452929D01*
X160772479Y-100373532D01*
X160873532Y-100272479D01*
X160952929Y-100153653D01*
X161007619Y-100021620D01*
X161019587Y-99961455D01*
X161035500Y-99881457D01*
X161035500Y-99738542D01*
X161007620Y-99598385D01*
X161007619Y-99598384D01*
X161007619Y-99598380D01*
X160952929Y-99466347D01*
X160952928Y-99466346D01*
X160952925Y-99466340D01*
X160873532Y-99347521D01*
X160873529Y-99347517D01*
X160772482Y-99246470D01*
X160772478Y-99246467D01*
X160653659Y-99167074D01*
X160653650Y-99167069D01*
X160521620Y-99112381D01*
X160521614Y-99112379D01*
X160381457Y-99084500D01*
X160381455Y-99084500D01*
X160238545Y-99084500D01*
X160238543Y-99084500D01*
X160098385Y-99112379D01*
X160098379Y-99112381D01*
X159966349Y-99167069D01*
X159966340Y-99167074D01*
X159847521Y-99246467D01*
X159847517Y-99246470D01*
X159746470Y-99347517D01*
X159746467Y-99347521D01*
X159667074Y-99466340D01*
X159667069Y-99466349D01*
X159612381Y-99598379D01*
X159612379Y-99598385D01*
X159584500Y-99738542D01*
X159584500Y-99738545D01*
X159584500Y-99881455D01*
X159584500Y-99881457D01*
X159584499Y-99881457D01*
X159612379Y-100021614D01*
X159612381Y-100021620D01*
X159667069Y-100153650D01*
X159669944Y-100159028D01*
X159667442Y-100160365D01*
X159684648Y-100215518D01*
X159666093Y-100282879D01*
X159614065Y-100329515D01*
X159545084Y-100340619D01*
X159541269Y-100340075D01*
X159411360Y-100319500D01*
X159208640Y-100319500D01*
X159162224Y-100326851D01*
X159008419Y-100351212D01*
X158987789Y-100357915D01*
X158817302Y-100413310D01*
X158815615Y-100413858D01*
X158634990Y-100505892D01*
X158470995Y-100625039D01*
X158327639Y-100768395D01*
X158208492Y-100932390D01*
X158150485Y-101046234D01*
X158102510Y-101097030D01*
X158034689Y-101113825D01*
X157968554Y-101091287D01*
X157929515Y-101046234D01*
X157914921Y-101017594D01*
X157871510Y-100932394D01*
X157863854Y-100921856D01*
X157752360Y-100768395D01*
X157609004Y-100625039D01*
X157445007Y-100505890D01*
X157381851Y-100473710D01*
X157331056Y-100425736D01*
X157314261Y-100357915D01*
X157336799Y-100291780D01*
X157350472Y-100275539D01*
X157353532Y-100272479D01*
X157432929Y-100153653D01*
X157487619Y-100021620D01*
X157499587Y-99961455D01*
X157515500Y-99881457D01*
X157515500Y-99738542D01*
X157487620Y-99598385D01*
X157487619Y-99598384D01*
X157487619Y-99598380D01*
X157432929Y-99466347D01*
X157432928Y-99466346D01*
X157432925Y-99466340D01*
X157353532Y-99347521D01*
X157353529Y-99347517D01*
X157252482Y-99246470D01*
X157252478Y-99246467D01*
X157133659Y-99167074D01*
X157133650Y-99167069D01*
X157001620Y-99112381D01*
X157001614Y-99112379D01*
X156861457Y-99084500D01*
X156861455Y-99084500D01*
X156718545Y-99084500D01*
X156718543Y-99084500D01*
X156578385Y-99112379D01*
X156578379Y-99112381D01*
X156446349Y-99167069D01*
X156446340Y-99167074D01*
X156327521Y-99246467D01*
X156327517Y-99246470D01*
X156226470Y-99347517D01*
X156226467Y-99347521D01*
X156147074Y-99466340D01*
X156147069Y-99466349D01*
X156092381Y-99598379D01*
X156092379Y-99598385D01*
X156064500Y-99738542D01*
X156064500Y-99738545D01*
X156064500Y-99881455D01*
X156064500Y-99881457D01*
X156064499Y-99881457D01*
X156092379Y-100021614D01*
X156092381Y-100021620D01*
X156147069Y-100153650D01*
X156147074Y-100153659D01*
X156229852Y-100277544D01*
X156228331Y-100278560D01*
X156252292Y-100334972D01*
X156240502Y-100403840D01*
X156193352Y-100455401D01*
X156185423Y-100459813D01*
X156137757Y-100484101D01*
X156094990Y-100505892D01*
X155930995Y-100625039D01*
X155787639Y-100768395D01*
X155668490Y-100932392D01*
X155610203Y-101046785D01*
X155562228Y-101097580D01*
X155494407Y-101114375D01*
X155428273Y-101091837D01*
X155389234Y-101046783D01*
X155331082Y-100932653D01*
X155211979Y-100768721D01*
X155211975Y-100768716D01*
X155068683Y-100625424D01*
X155068678Y-100625420D01*
X154904748Y-100506319D01*
X154724192Y-100414321D01*
X154531463Y-100351699D01*
X154480000Y-100343548D01*
X154480000Y-103548420D01*
X154435885Y-103522950D01*
X154300223Y-103486600D01*
X154159777Y-103486600D01*
X154024115Y-103522950D01*
X153980000Y-103548420D01*
X153980000Y-103070000D01*
X152942600Y-103070000D01*
X148283558Y-103070000D01*
X148127850Y-103049500D01*
X148127843Y-103049500D01*
X147872157Y-103049500D01*
X147872149Y-103049500D01*
X147646826Y-103079165D01*
X147618660Y-103082874D01*
X147411389Y-103138412D01*
X147371687Y-103149050D01*
X147371677Y-103149053D01*
X147135468Y-103246894D01*
X147135457Y-103246899D01*
X146914042Y-103374734D01*
X146914026Y-103374745D01*
X146711188Y-103530388D01*
X146711181Y-103530394D01*
X146530394Y-103711181D01*
X146530388Y-103711188D01*
X146374745Y-103914026D01*
X146374734Y-103914042D01*
X146246899Y-104135457D01*
X146246894Y-104135468D01*
X146149053Y-104371677D01*
X146149050Y-104371687D01*
X146100361Y-104553400D01*
X146082874Y-104618661D01*
X146049500Y-104872149D01*
X143500500Y-104872149D01*
X143500500Y-101506079D01*
X152942600Y-101506079D01*
X152942600Y-102570000D01*
X153980000Y-102570000D01*
X153980000Y-100343548D01*
X153979999Y-100343548D01*
X153928536Y-100351699D01*
X153735807Y-100414321D01*
X153555251Y-100506319D01*
X153391321Y-100625420D01*
X153391316Y-100625424D01*
X153248024Y-100768716D01*
X153248020Y-100768721D01*
X153128919Y-100932651D01*
X153036921Y-101113207D01*
X152974299Y-101305936D01*
X152942600Y-101506079D01*
X143500500Y-101506079D01*
X143500500Y-97131457D01*
X162621999Y-97131457D01*
X162649879Y-97271614D01*
X162649881Y-97271620D01*
X162704569Y-97403650D01*
X162704574Y-97403659D01*
X162783967Y-97522478D01*
X162783970Y-97522482D01*
X162885017Y-97623529D01*
X162885021Y-97623532D01*
X163003840Y-97702925D01*
X163003846Y-97702928D01*
X163003847Y-97702929D01*
X163135880Y-97757619D01*
X163135884Y-97757619D01*
X163135885Y-97757620D01*
X163276042Y-97785500D01*
X163276045Y-97785500D01*
X163418957Y-97785500D01*
X163513251Y-97766742D01*
X163559120Y-97757619D01*
X163691153Y-97702929D01*
X163809979Y-97623532D01*
X163911032Y-97522479D01*
X163990429Y-97403653D01*
X164045119Y-97271620D01*
X164073000Y-97131455D01*
X164073000Y-96988545D01*
X164073000Y-96988542D01*
X164045120Y-96848385D01*
X164045119Y-96848384D01*
X164045119Y-96848380D01*
X163990429Y-96716347D01*
X163990428Y-96716346D01*
X163990425Y-96716340D01*
X163911032Y-96597521D01*
X163911029Y-96597517D01*
X163809982Y-96496470D01*
X163809978Y-96496467D01*
X163691159Y-96417074D01*
X163691150Y-96417069D01*
X163559120Y-96362381D01*
X163559114Y-96362379D01*
X163418957Y-96334500D01*
X163418955Y-96334500D01*
X163276045Y-96334500D01*
X163276043Y-96334500D01*
X163135885Y-96362379D01*
X163135879Y-96362381D01*
X163003849Y-96417069D01*
X163003840Y-96417074D01*
X162885021Y-96496467D01*
X162885017Y-96496470D01*
X162783970Y-96597517D01*
X162783967Y-96597521D01*
X162704574Y-96716340D01*
X162704569Y-96716349D01*
X162649881Y-96848379D01*
X162649879Y-96848385D01*
X162622000Y-96988542D01*
X162622000Y-96988545D01*
X162622000Y-97131455D01*
X162622000Y-97131457D01*
X162621999Y-97131457D01*
X143500500Y-97131457D01*
X143500500Y-95071457D01*
X172354499Y-95071457D01*
X172382379Y-95211614D01*
X172382381Y-95211620D01*
X172437069Y-95343650D01*
X172437074Y-95343659D01*
X172516467Y-95462478D01*
X172516470Y-95462482D01*
X172617517Y-95563529D01*
X172617521Y-95563532D01*
X172736340Y-95642925D01*
X172736346Y-95642928D01*
X172736347Y-95642929D01*
X172868380Y-95697619D01*
X172868384Y-95697619D01*
X172868385Y-95697620D01*
X173008542Y-95725500D01*
X173008545Y-95725500D01*
X173151457Y-95725500D01*
X173245751Y-95706742D01*
X173291620Y-95697619D01*
X173423653Y-95642929D01*
X173542479Y-95563532D01*
X173643532Y-95462479D01*
X173722929Y-95343653D01*
X173777619Y-95211620D01*
X173805500Y-95071455D01*
X173805500Y-94928545D01*
X173805500Y-94928542D01*
X173777620Y-94788385D01*
X173777619Y-94788384D01*
X173777619Y-94788380D01*
X173722929Y-94656347D01*
X173722928Y-94656346D01*
X173722925Y-94656340D01*
X173643532Y-94537521D01*
X173643529Y-94537517D01*
X173542482Y-94436470D01*
X173542478Y-94436467D01*
X173423659Y-94357074D01*
X173423650Y-94357069D01*
X173291620Y-94302381D01*
X173291614Y-94302379D01*
X173286979Y-94301457D01*
X174694499Y-94301457D01*
X174722379Y-94441614D01*
X174722381Y-94441620D01*
X174777069Y-94573650D01*
X174777074Y-94573659D01*
X174856467Y-94692478D01*
X174856470Y-94692482D01*
X174957517Y-94793529D01*
X174957521Y-94793532D01*
X175076340Y-94872925D01*
X175076346Y-94872928D01*
X175076347Y-94872929D01*
X175208380Y-94927619D01*
X175208384Y-94927619D01*
X175208385Y-94927620D01*
X175348542Y-94955500D01*
X175348545Y-94955500D01*
X175491457Y-94955500D01*
X175585751Y-94936742D01*
X175631620Y-94927619D01*
X175763653Y-94872929D01*
X175882479Y-94793532D01*
X175933086Y-94742925D01*
X175987840Y-94688172D01*
X175989261Y-94689593D01*
X176039379Y-94655446D01*
X176109223Y-94653567D01*
X176166870Y-94688461D01*
X176167160Y-94688172D01*
X176168337Y-94689349D01*
X176168996Y-94689748D01*
X176170683Y-94691695D01*
X176272517Y-94793529D01*
X176272521Y-94793532D01*
X176391340Y-94872925D01*
X176391346Y-94872928D01*
X176391347Y-94872929D01*
X176523380Y-94927619D01*
X176523384Y-94927619D01*
X176523385Y-94927620D01*
X176663542Y-94955500D01*
X176663545Y-94955500D01*
X176806457Y-94955500D01*
X176900751Y-94936742D01*
X176946620Y-94927619D01*
X177078653Y-94872929D01*
X177197479Y-94793532D01*
X177248086Y-94742925D01*
X177302840Y-94688172D01*
X177304261Y-94689593D01*
X177354379Y-94655446D01*
X177424223Y-94653567D01*
X177481870Y-94688461D01*
X177482160Y-94688172D01*
X177483337Y-94689349D01*
X177483996Y-94689748D01*
X177485683Y-94691695D01*
X177587517Y-94793529D01*
X177587521Y-94793532D01*
X177706340Y-94872925D01*
X177706346Y-94872928D01*
X177706347Y-94872929D01*
X177838380Y-94927619D01*
X177838384Y-94927619D01*
X177838385Y-94927620D01*
X177978542Y-94955500D01*
X177978545Y-94955500D01*
X178121457Y-94955500D01*
X178215751Y-94936742D01*
X178261620Y-94927619D01*
X178393653Y-94872929D01*
X178512479Y-94793532D01*
X178613532Y-94692479D01*
X178692929Y-94573653D01*
X178747619Y-94441620D01*
X178773478Y-94311620D01*
X178775500Y-94301457D01*
X178775500Y-94158542D01*
X178747620Y-94018385D01*
X178747619Y-94018384D01*
X178747619Y-94018380D01*
X178692929Y-93886347D01*
X178692928Y-93886346D01*
X178692925Y-93886340D01*
X178613532Y-93767521D01*
X178613529Y-93767517D01*
X178512482Y-93666470D01*
X178512478Y-93666467D01*
X178393659Y-93587074D01*
X178393650Y-93587069D01*
X178261620Y-93532381D01*
X178261614Y-93532379D01*
X178121457Y-93504500D01*
X178121455Y-93504500D01*
X177978545Y-93504500D01*
X177978543Y-93504500D01*
X177838385Y-93532379D01*
X177838379Y-93532381D01*
X177706349Y-93587069D01*
X177706340Y-93587074D01*
X177587521Y-93666467D01*
X177587517Y-93666470D01*
X177482160Y-93771828D01*
X177480742Y-93770410D01*
X177430597Y-93804560D01*
X177360753Y-93806425D01*
X177303134Y-93771533D01*
X177302840Y-93771828D01*
X177301641Y-93770629D01*
X177300987Y-93770233D01*
X177299313Y-93768301D01*
X177197482Y-93666470D01*
X177197478Y-93666467D01*
X177078659Y-93587074D01*
X177078650Y-93587069D01*
X176946620Y-93532381D01*
X176946614Y-93532379D01*
X176806457Y-93504500D01*
X176806455Y-93504500D01*
X176663545Y-93504500D01*
X176663543Y-93504500D01*
X176523385Y-93532379D01*
X176523379Y-93532381D01*
X176391349Y-93587069D01*
X176391340Y-93587074D01*
X176272521Y-93666467D01*
X176272517Y-93666470D01*
X176167160Y-93771828D01*
X176165742Y-93770410D01*
X176115597Y-93804560D01*
X176045753Y-93806425D01*
X175988134Y-93771533D01*
X175987840Y-93771828D01*
X175986641Y-93770629D01*
X175985987Y-93770233D01*
X175984313Y-93768301D01*
X175882482Y-93666470D01*
X175882478Y-93666467D01*
X175763659Y-93587074D01*
X175763650Y-93587069D01*
X175631620Y-93532381D01*
X175631614Y-93532379D01*
X175491457Y-93504500D01*
X175491455Y-93504500D01*
X175348545Y-93504500D01*
X175348543Y-93504500D01*
X175208385Y-93532379D01*
X175208379Y-93532381D01*
X175076349Y-93587069D01*
X175076340Y-93587074D01*
X174957521Y-93666467D01*
X174957517Y-93666470D01*
X174856470Y-93767517D01*
X174856467Y-93767521D01*
X174777074Y-93886340D01*
X174777069Y-93886349D01*
X174722381Y-94018379D01*
X174722379Y-94018385D01*
X174694500Y-94158542D01*
X174694500Y-94158545D01*
X174694500Y-94301455D01*
X174694500Y-94301457D01*
X174694499Y-94301457D01*
X173286979Y-94301457D01*
X173151458Y-94274500D01*
X173151455Y-94274500D01*
X173008545Y-94274500D01*
X173008543Y-94274500D01*
X172868385Y-94302379D01*
X172868379Y-94302381D01*
X172736349Y-94357069D01*
X172736340Y-94357074D01*
X172617521Y-94436467D01*
X172617517Y-94436470D01*
X172516470Y-94537517D01*
X172516467Y-94537521D01*
X172437074Y-94656340D01*
X172437069Y-94656349D01*
X172382381Y-94788379D01*
X172382379Y-94788385D01*
X172354500Y-94928542D01*
X172354500Y-94928545D01*
X172354500Y-95071455D01*
X172354500Y-95071457D01*
X172354499Y-95071457D01*
X143500500Y-95071457D01*
X143500500Y-94171457D01*
X154354499Y-94171457D01*
X154382379Y-94311614D01*
X154382381Y-94311620D01*
X154437069Y-94443650D01*
X154437074Y-94443659D01*
X154516467Y-94562478D01*
X154516470Y-94562482D01*
X154617517Y-94663529D01*
X154617521Y-94663532D01*
X154736340Y-94742925D01*
X154736346Y-94742928D01*
X154736347Y-94742929D01*
X154868380Y-94797619D01*
X154868384Y-94797619D01*
X154868385Y-94797620D01*
X155008542Y-94825500D01*
X155008545Y-94825500D01*
X155151457Y-94825500D01*
X155275447Y-94800836D01*
X155291620Y-94797619D01*
X155423653Y-94742929D01*
X155542479Y-94663532D01*
X155552444Y-94653567D01*
X155647840Y-94558172D01*
X155649261Y-94559593D01*
X155699379Y-94525446D01*
X155769223Y-94523567D01*
X155826870Y-94558461D01*
X155827160Y-94558172D01*
X155828337Y-94559349D01*
X155828996Y-94559748D01*
X155830683Y-94561695D01*
X155932517Y-94663529D01*
X155932521Y-94663532D01*
X156051340Y-94742925D01*
X156051346Y-94742928D01*
X156051347Y-94742929D01*
X156183380Y-94797619D01*
X156183384Y-94797619D01*
X156183385Y-94797620D01*
X156323542Y-94825500D01*
X156323545Y-94825500D01*
X156466457Y-94825500D01*
X156590447Y-94800836D01*
X156606620Y-94797619D01*
X156738653Y-94742929D01*
X156857479Y-94663532D01*
X156867444Y-94653567D01*
X156962840Y-94558172D01*
X156964261Y-94559593D01*
X157014379Y-94525446D01*
X157084223Y-94523567D01*
X157141870Y-94558461D01*
X157142160Y-94558172D01*
X157143337Y-94559349D01*
X157143996Y-94559748D01*
X157145683Y-94561695D01*
X157247517Y-94663529D01*
X157247521Y-94663532D01*
X157366340Y-94742925D01*
X157366346Y-94742928D01*
X157366347Y-94742929D01*
X157498380Y-94797619D01*
X157498384Y-94797619D01*
X157498385Y-94797620D01*
X157638542Y-94825500D01*
X157638545Y-94825500D01*
X157781457Y-94825500D01*
X157905449Y-94800836D01*
X157915711Y-94798794D01*
X157921620Y-94797619D01*
X158053653Y-94742929D01*
X158172479Y-94663532D01*
X158273532Y-94562479D01*
X158352929Y-94443653D01*
X158407619Y-94311620D01*
X158435500Y-94171455D01*
X158435500Y-94028545D01*
X158435500Y-94028542D01*
X158407620Y-93888385D01*
X158407619Y-93888384D01*
X158407619Y-93888380D01*
X158365318Y-93786258D01*
X158352930Y-93756349D01*
X158352925Y-93756340D01*
X158273532Y-93637521D01*
X158273529Y-93637517D01*
X158172482Y-93536470D01*
X158172478Y-93536467D01*
X158053659Y-93457074D01*
X158053650Y-93457069D01*
X157921620Y-93402381D01*
X157921614Y-93402379D01*
X157781457Y-93374500D01*
X157781455Y-93374500D01*
X157638545Y-93374500D01*
X157638543Y-93374500D01*
X157498385Y-93402379D01*
X157498379Y-93402381D01*
X157366349Y-93457069D01*
X157366340Y-93457074D01*
X157247521Y-93536467D01*
X157247517Y-93536470D01*
X157142160Y-93641828D01*
X157140742Y-93640410D01*
X157090597Y-93674560D01*
X157020753Y-93676425D01*
X156963134Y-93641533D01*
X156962840Y-93641828D01*
X156961641Y-93640629D01*
X156960987Y-93640233D01*
X156959313Y-93638301D01*
X156857482Y-93536470D01*
X156857478Y-93536467D01*
X156738659Y-93457074D01*
X156738650Y-93457069D01*
X156606620Y-93402381D01*
X156606614Y-93402379D01*
X156466457Y-93374500D01*
X156466455Y-93374500D01*
X156323545Y-93374500D01*
X156323543Y-93374500D01*
X156183385Y-93402379D01*
X156183379Y-93402381D01*
X156051349Y-93457069D01*
X156051340Y-93457074D01*
X155932521Y-93536467D01*
X155932517Y-93536470D01*
X155827160Y-93641828D01*
X155825742Y-93640410D01*
X155775597Y-93674560D01*
X155705753Y-93676425D01*
X155648134Y-93641533D01*
X155647840Y-93641828D01*
X155646641Y-93640629D01*
X155645987Y-93640233D01*
X155644313Y-93638301D01*
X155542482Y-93536470D01*
X155542478Y-93536467D01*
X155423659Y-93457074D01*
X155423650Y-93457069D01*
X155291620Y-93402381D01*
X155291614Y-93402379D01*
X155151457Y-93374500D01*
X155151455Y-93374500D01*
X155008545Y-93374500D01*
X155008543Y-93374500D01*
X154868385Y-93402379D01*
X154868379Y-93402381D01*
X154736349Y-93457069D01*
X154736340Y-93457074D01*
X154617521Y-93536467D01*
X154617517Y-93536470D01*
X154516470Y-93637517D01*
X154516467Y-93637521D01*
X154437074Y-93756340D01*
X154437069Y-93756349D01*
X154382381Y-93888379D01*
X154382379Y-93888385D01*
X154354500Y-94028542D01*
X154354500Y-94028545D01*
X154354500Y-94171455D01*
X154354500Y-94171457D01*
X154354499Y-94171457D01*
X143500500Y-94171457D01*
X143500500Y-92251457D01*
X164334499Y-92251457D01*
X164362379Y-92391614D01*
X164362381Y-92391620D01*
X164417069Y-92523650D01*
X164417074Y-92523659D01*
X164496467Y-92642478D01*
X164496470Y-92642482D01*
X164597517Y-92743529D01*
X164597521Y-92743532D01*
X164716340Y-92822925D01*
X164716346Y-92822928D01*
X164716347Y-92822929D01*
X164848380Y-92877619D01*
X164848384Y-92877619D01*
X164848385Y-92877620D01*
X164988542Y-92905500D01*
X164988545Y-92905500D01*
X165131457Y-92905500D01*
X165225751Y-92886742D01*
X165271620Y-92877619D01*
X165403653Y-92822929D01*
X165522479Y-92743532D01*
X165623532Y-92642479D01*
X165702929Y-92523653D01*
X165757619Y-92391620D01*
X165785500Y-92251455D01*
X165785500Y-92108545D01*
X165785500Y-92108542D01*
X165757620Y-91968385D01*
X165757619Y-91968384D01*
X165757619Y-91968380D01*
X165702929Y-91836347D01*
X165702928Y-91836346D01*
X165702925Y-91836340D01*
X165623532Y-91717521D01*
X165623529Y-91717517D01*
X165527469Y-91621457D01*
X178704499Y-91621457D01*
X178732379Y-91761614D01*
X178732381Y-91761620D01*
X178787069Y-91893650D01*
X178787074Y-91893659D01*
X178866467Y-92012478D01*
X178866470Y-92012482D01*
X178967517Y-92113529D01*
X178967521Y-92113532D01*
X179086340Y-92192925D01*
X179086346Y-92192928D01*
X179086347Y-92192929D01*
X179218380Y-92247619D01*
X179218384Y-92247619D01*
X179218385Y-92247620D01*
X179358542Y-92275500D01*
X179358545Y-92275500D01*
X179501457Y-92275500D01*
X179622335Y-92251455D01*
X179641620Y-92247619D01*
X179773653Y-92192929D01*
X179892479Y-92113532D01*
X179993532Y-92012479D01*
X180072929Y-91893653D01*
X180127619Y-91761620D01*
X180155500Y-91621455D01*
X180155500Y-91478545D01*
X180155500Y-91478542D01*
X180127620Y-91338385D01*
X180127619Y-91338384D01*
X180127619Y-91338380D01*
X180072929Y-91206347D01*
X180072928Y-91206346D01*
X180072925Y-91206340D01*
X179993532Y-91087521D01*
X179993529Y-91087517D01*
X179892482Y-90986470D01*
X179892478Y-90986467D01*
X179773659Y-90907074D01*
X179773650Y-90907069D01*
X179641620Y-90852381D01*
X179641614Y-90852379D01*
X179501457Y-90824500D01*
X179501455Y-90824500D01*
X179358545Y-90824500D01*
X179358543Y-90824500D01*
X179218385Y-90852379D01*
X179218379Y-90852381D01*
X179086349Y-90907069D01*
X179086340Y-90907074D01*
X178967521Y-90986467D01*
X178967517Y-90986470D01*
X178866470Y-91087517D01*
X178866467Y-91087521D01*
X178787074Y-91206340D01*
X178787069Y-91206349D01*
X178732381Y-91338379D01*
X178732379Y-91338385D01*
X178704500Y-91478542D01*
X178704500Y-91478545D01*
X178704500Y-91621455D01*
X178704500Y-91621457D01*
X178704499Y-91621457D01*
X165527469Y-91621457D01*
X165522482Y-91616470D01*
X165522478Y-91616467D01*
X165461249Y-91575555D01*
X165403659Y-91537074D01*
X165403650Y-91537069D01*
X165271620Y-91482381D01*
X165271614Y-91482379D01*
X165131457Y-91454500D01*
X165131455Y-91454500D01*
X164988545Y-91454500D01*
X164988543Y-91454500D01*
X164848385Y-91482379D01*
X164848379Y-91482381D01*
X164716349Y-91537069D01*
X164716340Y-91537074D01*
X164597521Y-91616467D01*
X164597517Y-91616470D01*
X164496470Y-91717517D01*
X164496467Y-91717521D01*
X164417074Y-91836340D01*
X164417069Y-91836349D01*
X164362381Y-91968379D01*
X164362379Y-91968385D01*
X164334500Y-92108542D01*
X164334500Y-92108545D01*
X164334500Y-92251455D01*
X164334500Y-92251457D01*
X164334499Y-92251457D01*
X143500500Y-92251457D01*
X143500500Y-89281457D01*
X169654499Y-89281457D01*
X169682379Y-89421614D01*
X169682381Y-89421620D01*
X169737069Y-89553650D01*
X169737074Y-89553659D01*
X169816467Y-89672478D01*
X169816470Y-89672482D01*
X169917517Y-89773529D01*
X169917521Y-89773532D01*
X170036340Y-89852925D01*
X170036349Y-89852930D01*
X170060479Y-89862925D01*
X170168380Y-89907619D01*
X170168384Y-89907619D01*
X170168385Y-89907620D01*
X170308542Y-89935500D01*
X170308545Y-89935500D01*
X170451457Y-89935500D01*
X170547320Y-89916431D01*
X170591620Y-89907619D01*
X170723653Y-89852929D01*
X170842479Y-89773532D01*
X170943532Y-89672479D01*
X171022929Y-89553653D01*
X171077619Y-89421620D01*
X171093361Y-89342482D01*
X171103511Y-89291457D01*
X171524499Y-89291457D01*
X171552379Y-89431614D01*
X171552381Y-89431620D01*
X171607069Y-89563650D01*
X171607074Y-89563659D01*
X171686467Y-89682478D01*
X171686470Y-89682482D01*
X171787517Y-89783529D01*
X171787521Y-89783532D01*
X171906340Y-89862925D01*
X171906349Y-89862930D01*
X171936258Y-89875318D01*
X172038380Y-89917619D01*
X172038384Y-89917619D01*
X172038385Y-89917620D01*
X172178542Y-89945500D01*
X172178545Y-89945500D01*
X172321457Y-89945500D01*
X172377826Y-89934286D01*
X172461620Y-89917619D01*
X172461632Y-89917613D01*
X172462459Y-89917364D01*
X172462924Y-89917359D01*
X172467594Y-89916431D01*
X172467770Y-89917316D01*
X172532326Y-89916735D01*
X172591441Y-89953979D01*
X172621037Y-90017271D01*
X172620081Y-90060212D01*
X172606490Y-90128542D01*
X172604500Y-90138545D01*
X172604500Y-90281455D01*
X172604500Y-90281457D01*
X172604499Y-90281457D01*
X172632379Y-90421614D01*
X172632381Y-90421620D01*
X172687069Y-90553650D01*
X172687074Y-90553659D01*
X172766467Y-90672478D01*
X172766470Y-90672482D01*
X172867517Y-90773529D01*
X172867521Y-90773532D01*
X172986340Y-90852925D01*
X172986346Y-90852928D01*
X172986347Y-90852929D01*
X173118380Y-90907619D01*
X173118384Y-90907619D01*
X173118385Y-90907620D01*
X173258542Y-90935500D01*
X173258545Y-90935500D01*
X173401457Y-90935500D01*
X173495751Y-90916742D01*
X173541620Y-90907619D01*
X173673653Y-90852929D01*
X173773593Y-90786150D01*
X173840268Y-90765274D01*
X173907648Y-90783758D01*
X173911373Y-90786152D01*
X173996340Y-90842925D01*
X173996346Y-90842928D01*
X173996347Y-90842929D01*
X174128380Y-90897619D01*
X174128384Y-90897619D01*
X174128385Y-90897620D01*
X174268542Y-90925500D01*
X174268545Y-90925500D01*
X174411457Y-90925500D01*
X174505751Y-90906742D01*
X174551620Y-90897619D01*
X174683653Y-90842929D01*
X174802479Y-90763532D01*
X174903532Y-90662479D01*
X174982929Y-90543653D01*
X175037619Y-90411620D01*
X175046742Y-90365751D01*
X175065500Y-90271457D01*
X175065500Y-90128542D01*
X175037620Y-89988385D01*
X175037619Y-89988384D01*
X175037619Y-89988380D01*
X174982929Y-89856347D01*
X174982928Y-89856346D01*
X174982925Y-89856340D01*
X174903532Y-89737521D01*
X174903529Y-89737517D01*
X174802482Y-89636470D01*
X174802478Y-89636467D01*
X174683659Y-89557074D01*
X174683650Y-89557069D01*
X174551620Y-89502381D01*
X174551614Y-89502379D01*
X174411457Y-89474500D01*
X174411455Y-89474500D01*
X174268545Y-89474500D01*
X174268543Y-89474500D01*
X174128385Y-89502379D01*
X174128379Y-89502381D01*
X173996349Y-89557069D01*
X173996335Y-89557077D01*
X173896407Y-89623847D01*
X173829730Y-89644725D01*
X173762350Y-89626240D01*
X173758627Y-89623847D01*
X173673664Y-89567077D01*
X173673650Y-89567069D01*
X173541620Y-89512381D01*
X173541614Y-89512379D01*
X173401457Y-89484500D01*
X173401455Y-89484500D01*
X173258545Y-89484500D01*
X173258543Y-89484500D01*
X173118372Y-89512382D01*
X173117519Y-89512641D01*
X173117050Y-89512645D01*
X173112406Y-89513569D01*
X173112230Y-89512687D01*
X173047652Y-89513258D01*
X172988543Y-89476003D01*
X172958959Y-89412706D01*
X172959919Y-89369785D01*
X172975500Y-89291457D01*
X172975500Y-89148542D01*
X172947620Y-89008385D01*
X172947619Y-89008384D01*
X172947619Y-89008380D01*
X172924041Y-88951457D01*
X183644499Y-88951457D01*
X183672379Y-89091614D01*
X183672381Y-89091620D01*
X183727069Y-89223650D01*
X183727074Y-89223659D01*
X183806467Y-89342478D01*
X183806470Y-89342482D01*
X183907517Y-89443529D01*
X183907521Y-89443532D01*
X184026340Y-89522925D01*
X184026346Y-89522928D01*
X184026347Y-89522929D01*
X184158380Y-89577619D01*
X184158384Y-89577619D01*
X184158385Y-89577620D01*
X184298542Y-89605500D01*
X184298545Y-89605500D01*
X184441457Y-89605500D01*
X184535751Y-89586742D01*
X184581620Y-89577619D01*
X184713653Y-89522929D01*
X184832479Y-89443532D01*
X184933532Y-89342479D01*
X185012929Y-89223653D01*
X185067619Y-89091620D01*
X185095500Y-88951455D01*
X185095500Y-88808545D01*
X185095500Y-88808542D01*
X185067620Y-88668385D01*
X185067619Y-88668384D01*
X185067619Y-88668380D01*
X185012929Y-88536347D01*
X185012928Y-88536346D01*
X185012925Y-88536340D01*
X184933532Y-88417521D01*
X184933529Y-88417517D01*
X184832482Y-88316470D01*
X184832478Y-88316467D01*
X184713659Y-88237074D01*
X184713650Y-88237069D01*
X184581620Y-88182381D01*
X184581614Y-88182379D01*
X184441457Y-88154500D01*
X184441455Y-88154500D01*
X184298545Y-88154500D01*
X184298543Y-88154500D01*
X184158385Y-88182379D01*
X184158379Y-88182381D01*
X184026349Y-88237069D01*
X184026340Y-88237074D01*
X183907521Y-88316467D01*
X183907517Y-88316470D01*
X183806470Y-88417517D01*
X183806467Y-88417521D01*
X183727074Y-88536340D01*
X183727069Y-88536349D01*
X183672381Y-88668379D01*
X183672379Y-88668385D01*
X183644500Y-88808542D01*
X183644500Y-88808545D01*
X183644500Y-88951455D01*
X183644500Y-88951457D01*
X183644499Y-88951457D01*
X172924041Y-88951457D01*
X172892929Y-88876347D01*
X172892927Y-88876345D01*
X172892923Y-88876337D01*
X172889586Y-88871342D01*
X172813532Y-88757521D01*
X172813529Y-88757517D01*
X172712482Y-88656470D01*
X172712478Y-88656467D01*
X172593659Y-88577074D01*
X172593650Y-88577069D01*
X172461620Y-88522381D01*
X172461614Y-88522379D01*
X172321457Y-88494500D01*
X172321455Y-88494500D01*
X172178545Y-88494500D01*
X172178543Y-88494500D01*
X172038385Y-88522379D01*
X172038379Y-88522381D01*
X171906349Y-88577069D01*
X171906340Y-88577074D01*
X171787521Y-88656467D01*
X171787517Y-88656470D01*
X171686470Y-88757517D01*
X171686467Y-88757521D01*
X171607074Y-88876340D01*
X171607069Y-88876349D01*
X171552381Y-89008379D01*
X171552379Y-89008385D01*
X171524500Y-89148542D01*
X171524500Y-89148545D01*
X171524500Y-89291455D01*
X171524500Y-89291457D01*
X171524499Y-89291457D01*
X171103511Y-89291457D01*
X171105500Y-89281457D01*
X171105500Y-89138542D01*
X171077620Y-88998385D01*
X171077619Y-88998384D01*
X171077619Y-88998380D01*
X171022929Y-88866347D01*
X171022928Y-88866346D01*
X171022925Y-88866340D01*
X170943532Y-88747521D01*
X170943529Y-88747517D01*
X170842482Y-88646470D01*
X170842478Y-88646467D01*
X170723659Y-88567074D01*
X170723650Y-88567069D01*
X170591620Y-88512381D01*
X170591614Y-88512379D01*
X170451457Y-88484500D01*
X170451455Y-88484500D01*
X170308545Y-88484500D01*
X170308543Y-88484500D01*
X170168385Y-88512379D01*
X170168379Y-88512381D01*
X170036349Y-88567069D01*
X170036340Y-88567074D01*
X169917521Y-88646467D01*
X169917517Y-88646470D01*
X169816470Y-88747517D01*
X169816467Y-88747521D01*
X169737074Y-88866340D01*
X169737069Y-88866349D01*
X169682381Y-88998379D01*
X169682379Y-88998385D01*
X169654500Y-89138542D01*
X169654500Y-89138545D01*
X169654500Y-89281455D01*
X169654500Y-89281457D01*
X169654499Y-89281457D01*
X143500500Y-89281457D01*
X143500500Y-85193956D01*
X178100620Y-85193956D01*
X178129461Y-85338943D01*
X178129464Y-85338953D01*
X178186033Y-85475524D01*
X178186040Y-85475537D01*
X178268169Y-85598451D01*
X178268172Y-85598455D01*
X178372701Y-85702984D01*
X178372705Y-85702987D01*
X178495619Y-85785116D01*
X178495632Y-85785123D01*
X178632203Y-85841692D01*
X178632208Y-85841694D01*
X178632212Y-85841694D01*
X178632213Y-85841695D01*
X178777200Y-85870536D01*
X178777203Y-85870536D01*
X178925041Y-85870536D01*
X179022583Y-85851132D01*
X179070034Y-85841694D01*
X179206616Y-85785120D01*
X179329537Y-85702987D01*
X179434072Y-85598452D01*
X179516205Y-85475531D01*
X179572779Y-85338949D01*
X179595653Y-85223956D01*
X181510216Y-85223956D01*
X181539057Y-85368943D01*
X181539060Y-85368953D01*
X181595629Y-85505524D01*
X181595636Y-85505537D01*
X181677765Y-85628451D01*
X181677768Y-85628455D01*
X181782297Y-85732984D01*
X181782301Y-85732987D01*
X181905215Y-85815116D01*
X181905228Y-85815123D01*
X182039008Y-85870536D01*
X182041804Y-85871694D01*
X182041808Y-85871694D01*
X182041809Y-85871695D01*
X182186796Y-85900536D01*
X182186799Y-85900536D01*
X182334637Y-85900536D01*
X182432179Y-85881132D01*
X182479630Y-85871694D01*
X182616212Y-85815120D01*
X182739133Y-85732987D01*
X182843668Y-85628452D01*
X182925801Y-85505531D01*
X182982375Y-85368949D01*
X183011217Y-85223954D01*
X183011217Y-85076118D01*
X183011217Y-85076115D01*
X182982376Y-84931128D01*
X182982375Y-84931127D01*
X182982375Y-84931123D01*
X182969947Y-84901118D01*
X182925804Y-84794547D01*
X182925797Y-84794534D01*
X182843668Y-84671620D01*
X182843665Y-84671616D01*
X182739136Y-84567087D01*
X182739132Y-84567084D01*
X182616218Y-84484955D01*
X182616205Y-84484948D01*
X182479634Y-84428379D01*
X182479624Y-84428376D01*
X182334637Y-84399536D01*
X182334635Y-84399536D01*
X182186799Y-84399536D01*
X182186797Y-84399536D01*
X182041809Y-84428376D01*
X182041799Y-84428379D01*
X181905228Y-84484948D01*
X181905215Y-84484955D01*
X181782301Y-84567084D01*
X181782297Y-84567087D01*
X181677768Y-84671616D01*
X181677765Y-84671620D01*
X181595636Y-84794534D01*
X181595629Y-84794547D01*
X181539060Y-84931118D01*
X181539057Y-84931128D01*
X181510217Y-85076115D01*
X181510217Y-85076118D01*
X181510217Y-85223954D01*
X181510217Y-85223956D01*
X181510216Y-85223956D01*
X179595653Y-85223956D01*
X179601621Y-85193956D01*
X179601621Y-85046115D01*
X179572780Y-84901128D01*
X179572779Y-84901127D01*
X179572779Y-84901123D01*
X179528634Y-84794547D01*
X179516208Y-84764547D01*
X179516201Y-84764534D01*
X179434072Y-84641620D01*
X179434069Y-84641616D01*
X179329540Y-84537087D01*
X179329536Y-84537084D01*
X179206622Y-84454955D01*
X179206609Y-84454948D01*
X179070038Y-84398379D01*
X179070028Y-84398376D01*
X178925041Y-84369536D01*
X178925039Y-84369536D01*
X178777203Y-84369536D01*
X178777201Y-84369536D01*
X178632213Y-84398376D01*
X178632203Y-84398379D01*
X178495632Y-84454948D01*
X178495619Y-84454955D01*
X178372705Y-84537084D01*
X178372701Y-84537087D01*
X178268172Y-84641616D01*
X178268169Y-84641620D01*
X178186040Y-84764534D01*
X178186033Y-84764547D01*
X178129464Y-84901118D01*
X178129461Y-84901128D01*
X178100621Y-85046115D01*
X178100621Y-85046118D01*
X178100621Y-85193954D01*
X178100621Y-85193956D01*
X178100620Y-85193956D01*
X143500500Y-85193956D01*
X143500500Y-84131457D01*
X183574499Y-84131457D01*
X183602379Y-84271614D01*
X183602381Y-84271620D01*
X183657069Y-84403650D01*
X183657074Y-84403659D01*
X183736467Y-84522478D01*
X183736470Y-84522482D01*
X183837517Y-84623529D01*
X183837521Y-84623532D01*
X183956340Y-84702925D01*
X183956346Y-84702928D01*
X183956347Y-84702929D01*
X184088380Y-84757619D01*
X184088384Y-84757619D01*
X184088385Y-84757620D01*
X184228542Y-84785500D01*
X184228545Y-84785500D01*
X184371457Y-84785500D01*
X184476821Y-84764541D01*
X184511620Y-84757619D01*
X184643653Y-84702929D01*
X184762479Y-84623532D01*
X184863532Y-84522479D01*
X184942929Y-84403653D01*
X184997619Y-84271620D01*
X185025500Y-84131455D01*
X185025500Y-83988545D01*
X185025500Y-83988542D01*
X184997620Y-83848385D01*
X184997619Y-83848384D01*
X184997619Y-83848380D01*
X184942929Y-83716347D01*
X184942928Y-83716346D01*
X184942925Y-83716340D01*
X184863532Y-83597521D01*
X184863529Y-83597517D01*
X184762482Y-83496470D01*
X184762478Y-83496467D01*
X184643659Y-83417074D01*
X184643650Y-83417069D01*
X184511620Y-83362381D01*
X184511614Y-83362379D01*
X184371457Y-83334500D01*
X184371455Y-83334500D01*
X184228545Y-83334500D01*
X184228543Y-83334500D01*
X184088385Y-83362379D01*
X184088379Y-83362381D01*
X183956349Y-83417069D01*
X183956340Y-83417074D01*
X183837521Y-83496467D01*
X183837517Y-83496470D01*
X183736470Y-83597517D01*
X183736467Y-83597521D01*
X183657074Y-83716340D01*
X183657069Y-83716349D01*
X183602381Y-83848379D01*
X183602379Y-83848385D01*
X183574500Y-83988542D01*
X183574500Y-83988545D01*
X183574500Y-84131455D01*
X183574500Y-84131457D01*
X183574499Y-84131457D01*
X143500500Y-84131457D01*
X143500500Y-82158956D01*
X176991023Y-82158956D01*
X177019864Y-82303943D01*
X177019867Y-82303953D01*
X177076436Y-82440524D01*
X177076443Y-82440537D01*
X177158572Y-82563451D01*
X177158575Y-82563455D01*
X177263104Y-82667984D01*
X177263108Y-82667987D01*
X177386022Y-82750116D01*
X177386035Y-82750123D01*
X177522606Y-82806692D01*
X177522611Y-82806694D01*
X177522615Y-82806694D01*
X177522616Y-82806695D01*
X177667603Y-82835536D01*
X177667606Y-82835536D01*
X177815444Y-82835536D01*
X177912986Y-82816132D01*
X177960437Y-82806694D01*
X178093219Y-82751694D01*
X178097012Y-82750123D01*
X178097012Y-82750122D01*
X178097019Y-82750120D01*
X178165054Y-82704660D01*
X178231729Y-82683782D01*
X178281397Y-82693201D01*
X178286027Y-82695119D01*
X178286029Y-82695120D01*
X178422611Y-82751694D01*
X178422615Y-82751694D01*
X178422616Y-82751695D01*
X178567603Y-82780536D01*
X178567606Y-82780536D01*
X178715444Y-82780536D01*
X178812986Y-82761132D01*
X178860437Y-82751694D01*
X178887510Y-82740479D01*
X178956975Y-82733010D01*
X179003851Y-82751937D01*
X179033105Y-82771485D01*
X179046030Y-82780121D01*
X179179815Y-82835536D01*
X179182611Y-82836694D01*
X179182615Y-82836694D01*
X179182616Y-82836695D01*
X179327603Y-82865536D01*
X179327606Y-82865536D01*
X179475444Y-82865536D01*
X179572986Y-82846132D01*
X179620437Y-82836694D01*
X179757019Y-82780120D01*
X179879940Y-82697987D01*
X179984475Y-82593452D01*
X180066608Y-82470531D01*
X180123182Y-82333949D01*
X180152024Y-82188954D01*
X180152024Y-82041118D01*
X180152024Y-82041115D01*
X180123183Y-81896128D01*
X180123182Y-81896127D01*
X180123182Y-81896123D01*
X180110754Y-81866118D01*
X180066611Y-81759547D01*
X180066604Y-81759534D01*
X179984475Y-81636620D01*
X179984472Y-81636616D01*
X179879943Y-81532087D01*
X179879939Y-81532084D01*
X179757025Y-81449955D01*
X179757012Y-81449948D01*
X179620441Y-81393379D01*
X179620431Y-81393376D01*
X179475444Y-81364536D01*
X179475442Y-81364536D01*
X179327606Y-81364536D01*
X179327604Y-81364536D01*
X179182617Y-81393376D01*
X179182610Y-81393378D01*
X179155533Y-81404593D01*
X179086063Y-81412059D01*
X179039195Y-81393133D01*
X178997015Y-81364949D01*
X178860441Y-81308379D01*
X178860431Y-81308376D01*
X178715444Y-81279536D01*
X178715442Y-81279536D01*
X178567606Y-81279536D01*
X178567604Y-81279536D01*
X178422616Y-81308376D01*
X178422606Y-81308379D01*
X178286035Y-81364948D01*
X178286022Y-81364955D01*
X178217994Y-81410411D01*
X178151316Y-81431289D01*
X178101651Y-81421870D01*
X177960441Y-81363379D01*
X177960431Y-81363376D01*
X177815444Y-81334536D01*
X177815442Y-81334536D01*
X177667606Y-81334536D01*
X177667604Y-81334536D01*
X177522616Y-81363376D01*
X177522606Y-81363379D01*
X177386035Y-81419948D01*
X177386022Y-81419955D01*
X177263108Y-81502084D01*
X177263104Y-81502087D01*
X177158575Y-81606616D01*
X177158572Y-81606620D01*
X177076443Y-81729534D01*
X177076436Y-81729547D01*
X177019867Y-81866118D01*
X177019864Y-81866128D01*
X176991024Y-82011115D01*
X176991024Y-82011118D01*
X176991024Y-82158954D01*
X176991024Y-82158956D01*
X176991023Y-82158956D01*
X143500500Y-82158956D01*
X143500500Y-80333956D01*
X171021023Y-80333956D01*
X171049864Y-80478943D01*
X171049867Y-80478953D01*
X171106436Y-80615524D01*
X171106443Y-80615537D01*
X171188572Y-80738451D01*
X171188575Y-80738455D01*
X171293104Y-80842984D01*
X171293108Y-80842987D01*
X171416022Y-80925116D01*
X171416035Y-80925123D01*
X171552606Y-80981692D01*
X171552611Y-80981694D01*
X171552615Y-80981694D01*
X171552616Y-80981695D01*
X171697603Y-81010536D01*
X171697606Y-81010536D01*
X171845444Y-81010536D01*
X171942986Y-80991132D01*
X171990437Y-80981694D01*
X172127019Y-80925120D01*
X172249940Y-80842987D01*
X172318971Y-80773956D01*
X181740216Y-80773956D01*
X181769057Y-80918943D01*
X181769060Y-80918953D01*
X181825629Y-81055524D01*
X181825636Y-81055537D01*
X181907765Y-81178451D01*
X181907768Y-81178455D01*
X182012297Y-81282984D01*
X182012301Y-81282987D01*
X182135215Y-81365116D01*
X182135228Y-81365123D01*
X182271799Y-81421692D01*
X182271804Y-81421694D01*
X182271808Y-81421694D01*
X182271809Y-81421695D01*
X182416796Y-81450536D01*
X182416799Y-81450536D01*
X182564637Y-81450536D01*
X182668100Y-81429955D01*
X182709630Y-81421694D01*
X182846212Y-81365120D01*
X182969133Y-81282987D01*
X183073668Y-81178452D01*
X183155801Y-81055531D01*
X183212375Y-80918949D01*
X183241217Y-80773954D01*
X183241217Y-80626118D01*
X183241217Y-80626115D01*
X183212376Y-80481128D01*
X183212375Y-80481127D01*
X183212375Y-80481123D01*
X183211472Y-80478943D01*
X183155804Y-80344547D01*
X183155797Y-80344534D01*
X183073668Y-80221620D01*
X183073665Y-80221616D01*
X182969136Y-80117087D01*
X182969132Y-80117084D01*
X182846218Y-80034955D01*
X182846205Y-80034948D01*
X182709634Y-79978379D01*
X182709624Y-79978376D01*
X182564637Y-79949536D01*
X182564635Y-79949536D01*
X182416799Y-79949536D01*
X182416797Y-79949536D01*
X182271809Y-79978376D01*
X182271799Y-79978379D01*
X182135228Y-80034948D01*
X182135215Y-80034955D01*
X182012301Y-80117084D01*
X182012297Y-80117087D01*
X181907768Y-80221616D01*
X181907765Y-80221620D01*
X181825636Y-80344534D01*
X181825629Y-80344547D01*
X181769060Y-80481118D01*
X181769057Y-80481128D01*
X181740217Y-80626115D01*
X181740217Y-80626118D01*
X181740217Y-80773954D01*
X181740217Y-80773956D01*
X181740216Y-80773956D01*
X172318971Y-80773956D01*
X172354475Y-80738452D01*
X172436608Y-80615531D01*
X172493182Y-80478949D01*
X172519918Y-80344541D01*
X172522024Y-80333956D01*
X172522024Y-80186115D01*
X172493183Y-80041128D01*
X172493182Y-80041127D01*
X172493182Y-80041123D01*
X172467192Y-79978378D01*
X172436611Y-79904547D01*
X172436604Y-79904534D01*
X172354475Y-79781620D01*
X172354472Y-79781616D01*
X172249943Y-79677087D01*
X172249939Y-79677084D01*
X172184440Y-79633319D01*
X172127025Y-79594955D01*
X172127012Y-79594948D01*
X171990441Y-79538379D01*
X171990431Y-79538376D01*
X171980014Y-79536304D01*
X186984500Y-79536304D01*
X186984500Y-79713695D01*
X187019103Y-79887658D01*
X187019106Y-79887667D01*
X187086983Y-80051540D01*
X187086990Y-80051553D01*
X187185535Y-80199034D01*
X187185538Y-80199038D01*
X187310961Y-80324461D01*
X187310965Y-80324464D01*
X187458446Y-80423009D01*
X187458459Y-80423016D01*
X187581363Y-80473923D01*
X187622334Y-80490894D01*
X187622336Y-80490894D01*
X187622341Y-80490896D01*
X187796304Y-80525499D01*
X187796307Y-80525500D01*
X187796309Y-80525500D01*
X187973693Y-80525500D01*
X187973694Y-80525499D01*
X188031682Y-80513964D01*
X188147658Y-80490896D01*
X188147661Y-80490894D01*
X188147666Y-80490894D01*
X188311547Y-80423013D01*
X188459035Y-80324464D01*
X188584464Y-80199035D01*
X188683013Y-80051547D01*
X188750894Y-79887666D01*
X188785500Y-79713691D01*
X188785500Y-79536309D01*
X188785500Y-79536306D01*
X188785499Y-79536304D01*
X188750896Y-79362341D01*
X188750893Y-79362332D01*
X188683016Y-79198459D01*
X188683009Y-79198446D01*
X188584464Y-79050965D01*
X188584461Y-79050961D01*
X188459038Y-78925538D01*
X188459034Y-78925535D01*
X188311553Y-78826990D01*
X188311540Y-78826983D01*
X188147667Y-78759106D01*
X188147658Y-78759103D01*
X187973694Y-78724500D01*
X187973691Y-78724500D01*
X187796309Y-78724500D01*
X187796306Y-78724500D01*
X187622341Y-78759103D01*
X187622332Y-78759106D01*
X187458459Y-78826983D01*
X187458446Y-78826990D01*
X187310965Y-78925535D01*
X187310961Y-78925538D01*
X187185538Y-79050961D01*
X187185535Y-79050965D01*
X187086990Y-79198446D01*
X187086983Y-79198459D01*
X187019106Y-79362332D01*
X187019103Y-79362341D01*
X186984500Y-79536304D01*
X171980014Y-79536304D01*
X171845444Y-79509536D01*
X171845442Y-79509536D01*
X171697606Y-79509536D01*
X171697604Y-79509536D01*
X171552616Y-79538376D01*
X171552606Y-79538379D01*
X171416035Y-79594948D01*
X171416022Y-79594955D01*
X171293108Y-79677084D01*
X171293104Y-79677087D01*
X171188575Y-79781616D01*
X171188572Y-79781620D01*
X171106443Y-79904534D01*
X171106436Y-79904547D01*
X171049867Y-80041118D01*
X171049864Y-80041128D01*
X171021024Y-80186115D01*
X171021024Y-80186118D01*
X171021024Y-80333954D01*
X171021024Y-80333956D01*
X171021023Y-80333956D01*
X143500500Y-80333956D01*
X143500500Y-76016457D01*
X171469499Y-76016457D01*
X171497379Y-76156614D01*
X171497381Y-76156620D01*
X171552069Y-76288650D01*
X171552074Y-76288659D01*
X171631467Y-76407478D01*
X171631470Y-76407482D01*
X171732517Y-76508529D01*
X171732521Y-76508532D01*
X171853019Y-76589047D01*
X171897824Y-76642659D01*
X171906531Y-76711984D01*
X171887233Y-76761035D01*
X171884922Y-76764493D01*
X171884912Y-76764511D01*
X171828343Y-76901082D01*
X171828340Y-76901092D01*
X171799500Y-77046079D01*
X171799500Y-77046082D01*
X171799500Y-77193918D01*
X171799500Y-77193920D01*
X171799499Y-77193920D01*
X171828340Y-77338907D01*
X171828343Y-77338917D01*
X171884912Y-77475488D01*
X171884919Y-77475501D01*
X171967048Y-77598415D01*
X171967051Y-77598419D01*
X172013628Y-77644995D01*
X172047114Y-77706318D01*
X172042130Y-77776009D01*
X172013630Y-77820357D01*
X171976471Y-77857516D01*
X171976467Y-77857521D01*
X171897074Y-77976340D01*
X171897069Y-77976349D01*
X171842381Y-78108379D01*
X171842379Y-78108385D01*
X171814500Y-78248542D01*
X171814500Y-78248545D01*
X171814500Y-78391455D01*
X171814500Y-78391457D01*
X171814499Y-78391457D01*
X171842379Y-78531614D01*
X171842381Y-78531620D01*
X171897069Y-78663650D01*
X171897074Y-78663659D01*
X171976467Y-78782478D01*
X171976470Y-78782482D01*
X172077517Y-78883529D01*
X172077521Y-78883532D01*
X172196340Y-78962925D01*
X172196346Y-78962928D01*
X172196347Y-78962929D01*
X172328380Y-79017619D01*
X172328384Y-79017619D01*
X172328385Y-79017620D01*
X172468542Y-79045500D01*
X172468545Y-79045500D01*
X172611457Y-79045500D01*
X172705751Y-79026742D01*
X172751620Y-79017619D01*
X172883653Y-78962929D01*
X173002479Y-78883532D01*
X173103532Y-78782479D01*
X173182929Y-78663653D01*
X173237619Y-78531620D01*
X173265500Y-78391455D01*
X173265500Y-78248545D01*
X173265500Y-78248542D01*
X173237620Y-78108385D01*
X173237619Y-78108384D01*
X173237619Y-78108380D01*
X173182929Y-77976347D01*
X173182928Y-77976346D01*
X173182925Y-77976340D01*
X173103532Y-77857521D01*
X173103529Y-77857517D01*
X173076370Y-77830358D01*
X173042885Y-77769035D01*
X173047869Y-77699343D01*
X173076367Y-77654999D01*
X173132951Y-77598416D01*
X173215084Y-77475495D01*
X173261285Y-77363956D01*
X174571023Y-77363956D01*
X174599864Y-77508943D01*
X174599867Y-77508953D01*
X174656436Y-77645524D01*
X174656443Y-77645537D01*
X174738572Y-77768451D01*
X174738575Y-77768455D01*
X174843104Y-77872984D01*
X174843108Y-77872987D01*
X174966022Y-77955116D01*
X174966035Y-77955123D01*
X175102606Y-78011692D01*
X175102611Y-78011694D01*
X175102615Y-78011694D01*
X175102616Y-78011695D01*
X175247603Y-78040536D01*
X175247606Y-78040536D01*
X175395444Y-78040536D01*
X175492986Y-78021132D01*
X175540437Y-78011694D01*
X175677019Y-77955120D01*
X175677024Y-77955116D01*
X175682394Y-77952247D01*
X175683655Y-77954606D01*
X175739272Y-77937173D01*
X175799840Y-77953768D01*
X175800654Y-77952247D01*
X175806035Y-77955123D01*
X175942606Y-78011692D01*
X175942611Y-78011694D01*
X175942615Y-78011694D01*
X175942616Y-78011695D01*
X176087603Y-78040536D01*
X176087606Y-78040536D01*
X176235444Y-78040536D01*
X176332986Y-78021132D01*
X176380437Y-78011694D01*
X176517019Y-77955120D01*
X176639940Y-77872987D01*
X176671343Y-77841583D01*
X176732662Y-77808100D01*
X176802353Y-77813082D01*
X176846704Y-77841584D01*
X176903104Y-77897984D01*
X176903108Y-77897987D01*
X177026022Y-77980116D01*
X177026035Y-77980123D01*
X177162606Y-78036692D01*
X177162611Y-78036694D01*
X177162615Y-78036694D01*
X177162616Y-78036695D01*
X177307603Y-78065536D01*
X177307606Y-78065536D01*
X177455444Y-78065536D01*
X177581122Y-78040536D01*
X177600437Y-78036694D01*
X177737019Y-77980120D01*
X177859940Y-77897987D01*
X177964475Y-77793452D01*
X178046608Y-77670531D01*
X178103182Y-77533949D01*
X178132024Y-77388956D01*
X178571023Y-77388956D01*
X178599864Y-77533943D01*
X178599867Y-77533953D01*
X178656436Y-77670524D01*
X178656443Y-77670537D01*
X178738572Y-77793451D01*
X178738575Y-77793455D01*
X178843104Y-77897984D01*
X178843108Y-77897987D01*
X178966022Y-77980116D01*
X178966035Y-77980123D01*
X179102606Y-78036692D01*
X179102611Y-78036694D01*
X179102615Y-78036694D01*
X179102616Y-78036695D01*
X179247603Y-78065536D01*
X179247606Y-78065536D01*
X179395444Y-78065536D01*
X179521122Y-78040536D01*
X179540437Y-78036694D01*
X179677019Y-77980120D01*
X179799940Y-77897987D01*
X179904475Y-77793452D01*
X179986608Y-77670531D01*
X180043182Y-77533949D01*
X180072024Y-77388954D01*
X180072024Y-77241118D01*
X180072024Y-77241115D01*
X180043183Y-77096128D01*
X180043182Y-77096127D01*
X180043182Y-77096123D01*
X180032825Y-77071118D01*
X179986611Y-76959547D01*
X179986604Y-76959534D01*
X179904475Y-76836620D01*
X179904472Y-76836616D01*
X179799943Y-76732087D01*
X179799939Y-76732084D01*
X179677025Y-76649955D01*
X179677016Y-76649950D01*
X179662545Y-76643956D01*
X181660216Y-76643956D01*
X181689057Y-76788943D01*
X181689060Y-76788953D01*
X181745629Y-76925524D01*
X181745636Y-76925537D01*
X181827765Y-77048451D01*
X181827768Y-77048455D01*
X181932297Y-77152984D01*
X181932301Y-77152987D01*
X182055215Y-77235116D01*
X182055228Y-77235123D01*
X182191799Y-77291692D01*
X182191804Y-77291694D01*
X182191808Y-77291694D01*
X182191809Y-77291695D01*
X182336796Y-77320536D01*
X182336799Y-77320536D01*
X182484637Y-77320536D01*
X182582179Y-77301132D01*
X182629630Y-77291694D01*
X182766212Y-77235120D01*
X182889133Y-77152987D01*
X182993668Y-77048452D01*
X183075801Y-76925531D01*
X183132375Y-76788949D01*
X183148659Y-76707084D01*
X183161217Y-76643956D01*
X183161217Y-76496115D01*
X183132376Y-76351128D01*
X183132375Y-76351127D01*
X183132375Y-76351123D01*
X183106498Y-76288650D01*
X183075804Y-76214547D01*
X183075797Y-76214534D01*
X182993668Y-76091620D01*
X182993665Y-76091616D01*
X182889136Y-75987087D01*
X182889132Y-75987084D01*
X182766218Y-75904955D01*
X182766205Y-75904948D01*
X182629634Y-75848379D01*
X182629624Y-75848376D01*
X182484637Y-75819536D01*
X182484635Y-75819536D01*
X182336799Y-75819536D01*
X182336797Y-75819536D01*
X182191809Y-75848376D01*
X182191799Y-75848379D01*
X182055228Y-75904948D01*
X182055215Y-75904955D01*
X181932301Y-75987084D01*
X181932297Y-75987087D01*
X181827768Y-76091616D01*
X181827765Y-76091620D01*
X181745636Y-76214534D01*
X181745629Y-76214547D01*
X181689060Y-76351118D01*
X181689057Y-76351128D01*
X181660217Y-76496115D01*
X181660217Y-76496118D01*
X181660217Y-76643954D01*
X181660217Y-76643956D01*
X181660216Y-76643956D01*
X179662545Y-76643956D01*
X179567498Y-76604587D01*
X179567496Y-76604586D01*
X179540441Y-76593379D01*
X179540431Y-76593376D01*
X179395444Y-76564536D01*
X179395442Y-76564536D01*
X179247606Y-76564536D01*
X179247604Y-76564536D01*
X179102616Y-76593376D01*
X179102606Y-76593379D01*
X178966035Y-76649948D01*
X178966022Y-76649955D01*
X178843108Y-76732084D01*
X178843104Y-76732087D01*
X178738575Y-76836616D01*
X178738572Y-76836620D01*
X178656443Y-76959534D01*
X178656436Y-76959547D01*
X178599867Y-77096118D01*
X178599864Y-77096128D01*
X178571024Y-77241115D01*
X178571024Y-77241118D01*
X178571024Y-77388954D01*
X178571024Y-77388956D01*
X178571023Y-77388956D01*
X178132024Y-77388956D01*
X178132024Y-77388954D01*
X178132024Y-77241118D01*
X178132024Y-77241115D01*
X178103183Y-77096128D01*
X178103182Y-77096127D01*
X178103182Y-77096123D01*
X178092825Y-77071118D01*
X178046611Y-76959547D01*
X178046604Y-76959534D01*
X177964475Y-76836620D01*
X177964472Y-76836616D01*
X177859943Y-76732087D01*
X177859939Y-76732084D01*
X177737025Y-76649955D01*
X177737012Y-76649948D01*
X177600441Y-76593379D01*
X177600431Y-76593376D01*
X177455444Y-76564536D01*
X177455442Y-76564536D01*
X177307606Y-76564536D01*
X177307604Y-76564536D01*
X177162616Y-76593376D01*
X177162606Y-76593379D01*
X177026035Y-76649948D01*
X177026022Y-76649955D01*
X176903108Y-76732084D01*
X176903104Y-76732087D01*
X176871705Y-76763487D01*
X176810382Y-76796972D01*
X176740690Y-76791988D01*
X176696343Y-76763487D01*
X176639943Y-76707087D01*
X176639939Y-76707084D01*
X176517025Y-76624955D01*
X176517012Y-76624948D01*
X176380441Y-76568379D01*
X176380431Y-76568376D01*
X176235444Y-76539536D01*
X176235442Y-76539536D01*
X176087606Y-76539536D01*
X176087604Y-76539536D01*
X175942616Y-76568376D01*
X175942610Y-76568378D01*
X175806032Y-76624950D01*
X175800655Y-76627825D01*
X175799401Y-76625479D01*
X175743692Y-76642900D01*
X175683216Y-76626285D01*
X175682393Y-76627825D01*
X175677015Y-76624950D01*
X175540437Y-76568378D01*
X175540431Y-76568376D01*
X175395444Y-76539536D01*
X175395442Y-76539536D01*
X175247606Y-76539536D01*
X175247604Y-76539536D01*
X175102616Y-76568376D01*
X175102606Y-76568379D01*
X174966035Y-76624948D01*
X174966022Y-76624955D01*
X174843108Y-76707084D01*
X174843104Y-76707087D01*
X174738575Y-76811616D01*
X174738572Y-76811620D01*
X174656443Y-76934534D01*
X174656436Y-76934547D01*
X174599867Y-77071118D01*
X174599864Y-77071128D01*
X174571024Y-77216115D01*
X174571024Y-77216118D01*
X174571024Y-77363954D01*
X174571024Y-77363956D01*
X174571023Y-77363956D01*
X173261285Y-77363956D01*
X173271658Y-77338913D01*
X173289536Y-77249035D01*
X173300500Y-77193920D01*
X173300500Y-77046079D01*
X173271659Y-76901092D01*
X173271658Y-76901091D01*
X173271658Y-76901087D01*
X173244955Y-76836620D01*
X173215087Y-76764511D01*
X173215080Y-76764498D01*
X173132951Y-76641584D01*
X173132948Y-76641580D01*
X173028419Y-76537051D01*
X173028415Y-76537048D01*
X172905501Y-76454919D01*
X172905485Y-76454911D01*
X172903593Y-76454127D01*
X172902755Y-76453451D01*
X172900125Y-76452046D01*
X172900391Y-76451546D01*
X172849193Y-76410282D01*
X172827134Y-76343986D01*
X172836494Y-76292117D01*
X172837930Y-76288650D01*
X172892619Y-76156620D01*
X172910877Y-76064834D01*
X172920500Y-76016457D01*
X172920500Y-75873542D01*
X172892620Y-75733385D01*
X172892619Y-75733384D01*
X172892619Y-75733380D01*
X172837929Y-75601347D01*
X172837928Y-75601346D01*
X172837925Y-75601340D01*
X172758532Y-75482521D01*
X172758529Y-75482517D01*
X172657482Y-75381470D01*
X172657478Y-75381467D01*
X172538659Y-75302074D01*
X172538650Y-75302069D01*
X172410422Y-75248956D01*
X179641023Y-75248956D01*
X179669864Y-75393943D01*
X179669867Y-75393953D01*
X179726436Y-75530524D01*
X179726443Y-75530537D01*
X179808572Y-75653451D01*
X179808575Y-75653455D01*
X179913104Y-75757984D01*
X179913108Y-75757987D01*
X180036022Y-75840116D01*
X180036035Y-75840123D01*
X180116724Y-75873545D01*
X180172611Y-75896694D01*
X180172615Y-75896694D01*
X180172616Y-75896695D01*
X180317603Y-75925536D01*
X180317606Y-75925536D01*
X180465444Y-75925536D01*
X180568942Y-75904948D01*
X180610437Y-75896694D01*
X180747019Y-75840120D01*
X180869940Y-75757987D01*
X180974475Y-75653452D01*
X181056608Y-75530531D01*
X181070783Y-75496309D01*
X181070785Y-75496304D01*
X186975800Y-75496304D01*
X186975800Y-75673695D01*
X187010403Y-75847658D01*
X187010406Y-75847667D01*
X187078287Y-76011547D01*
X187078287Y-76011548D01*
X187111403Y-76061110D01*
X187132280Y-76127788D01*
X187113795Y-76195168D01*
X187111403Y-76198890D01*
X187078287Y-76248451D01*
X187078287Y-76248452D01*
X187010406Y-76412332D01*
X187010403Y-76412341D01*
X186975800Y-76586304D01*
X186975800Y-76763695D01*
X187010403Y-76937658D01*
X187010406Y-76937667D01*
X187078283Y-77101540D01*
X187078290Y-77101553D01*
X187176835Y-77249034D01*
X187176838Y-77249038D01*
X187302261Y-77374461D01*
X187302265Y-77374464D01*
X187449746Y-77473009D01*
X187449759Y-77473016D01*
X187572663Y-77523923D01*
X187613634Y-77540894D01*
X187613636Y-77540894D01*
X187613641Y-77540896D01*
X187787604Y-77575499D01*
X187787607Y-77575500D01*
X187787609Y-77575500D01*
X187964993Y-77575500D01*
X187964994Y-77575499D01*
X188022982Y-77563964D01*
X188138958Y-77540896D01*
X188138961Y-77540894D01*
X188138966Y-77540894D01*
X188278835Y-77482958D01*
X188302840Y-77473016D01*
X188302840Y-77473015D01*
X188302847Y-77473013D01*
X188450335Y-77374464D01*
X188575764Y-77249035D01*
X188674313Y-77101547D01*
X188742194Y-76937666D01*
X188742815Y-76934547D01*
X188776799Y-76763695D01*
X188776800Y-76763693D01*
X188776800Y-76586306D01*
X188776799Y-76586304D01*
X188742196Y-76412341D01*
X188742193Y-76412332D01*
X188740182Y-76407478D01*
X188674313Y-76248453D01*
X188641195Y-76198890D01*
X188620318Y-76132214D01*
X188638802Y-76064834D01*
X188641190Y-76061117D01*
X188674313Y-76011547D01*
X188742194Y-75847666D01*
X188743695Y-75840123D01*
X188776799Y-75673695D01*
X188776800Y-75673693D01*
X188776800Y-75496306D01*
X188776799Y-75496304D01*
X188742196Y-75322341D01*
X188742193Y-75322332D01*
X188738816Y-75314180D01*
X188703438Y-75228767D01*
X188674316Y-75158459D01*
X188674309Y-75158446D01*
X188575764Y-75010965D01*
X188575761Y-75010961D01*
X188450338Y-74885538D01*
X188450334Y-74885535D01*
X188302853Y-74786990D01*
X188302840Y-74786983D01*
X188138967Y-74719106D01*
X188138958Y-74719103D01*
X187964994Y-74684500D01*
X187964991Y-74684500D01*
X187787609Y-74684500D01*
X187787606Y-74684500D01*
X187613641Y-74719103D01*
X187613632Y-74719106D01*
X187449759Y-74786983D01*
X187449746Y-74786990D01*
X187302265Y-74885535D01*
X187302261Y-74885538D01*
X187176838Y-75010961D01*
X187176835Y-75010965D01*
X187078290Y-75158446D01*
X187078283Y-75158459D01*
X187010406Y-75322332D01*
X187010403Y-75322341D01*
X186975800Y-75496304D01*
X181070785Y-75496304D01*
X181092962Y-75442765D01*
X181092962Y-75442764D01*
X181113182Y-75393949D01*
X181127426Y-75322341D01*
X181142024Y-75248956D01*
X181142024Y-75101115D01*
X181113183Y-74956128D01*
X181113182Y-74956127D01*
X181113182Y-74956123D01*
X181108626Y-74945123D01*
X181056611Y-74819547D01*
X181056604Y-74819534D01*
X180974475Y-74696620D01*
X180974472Y-74696616D01*
X180869943Y-74592087D01*
X180869939Y-74592084D01*
X180747025Y-74509955D01*
X180747012Y-74509948D01*
X180610441Y-74453379D01*
X180610431Y-74453376D01*
X180465444Y-74424536D01*
X180465442Y-74424536D01*
X180317606Y-74424536D01*
X180317604Y-74424536D01*
X180172616Y-74453376D01*
X180172606Y-74453379D01*
X180036035Y-74509948D01*
X180036022Y-74509955D01*
X179913108Y-74592084D01*
X179913104Y-74592087D01*
X179808575Y-74696616D01*
X179808572Y-74696620D01*
X179726443Y-74819534D01*
X179726436Y-74819547D01*
X179669867Y-74956118D01*
X179669864Y-74956128D01*
X179641024Y-75101115D01*
X179641024Y-75101118D01*
X179641024Y-75248954D01*
X179641024Y-75248956D01*
X179641023Y-75248956D01*
X172410422Y-75248956D01*
X172406620Y-75247381D01*
X172406614Y-75247379D01*
X172266457Y-75219500D01*
X172266455Y-75219500D01*
X172123545Y-75219500D01*
X172123543Y-75219500D01*
X171983385Y-75247379D01*
X171983379Y-75247381D01*
X171851349Y-75302069D01*
X171851340Y-75302074D01*
X171732521Y-75381467D01*
X171732517Y-75381470D01*
X171631470Y-75482517D01*
X171631467Y-75482521D01*
X171552074Y-75601340D01*
X171552069Y-75601349D01*
X171497381Y-75733379D01*
X171497379Y-75733385D01*
X171469500Y-75873542D01*
X171469500Y-75873545D01*
X171469500Y-76016455D01*
X171469500Y-76016457D01*
X171469499Y-76016457D01*
X143500500Y-76016457D01*
X143500500Y-74637600D01*
X166989912Y-74637600D01*
X167018753Y-74782587D01*
X167018756Y-74782597D01*
X167075325Y-74919168D01*
X167075332Y-74919181D01*
X167157461Y-75042095D01*
X167157464Y-75042099D01*
X167261993Y-75146628D01*
X167261997Y-75146631D01*
X167384911Y-75228760D01*
X167384924Y-75228767D01*
X167521495Y-75285336D01*
X167521500Y-75285338D01*
X167521504Y-75285338D01*
X167521505Y-75285339D01*
X167666492Y-75314180D01*
X167666495Y-75314180D01*
X167814333Y-75314180D01*
X167911875Y-75294776D01*
X167959326Y-75285338D01*
X168095908Y-75228764D01*
X168095913Y-75228760D01*
X168095916Y-75228759D01*
X168161028Y-75185252D01*
X168227705Y-75164373D01*
X168295086Y-75182857D01*
X168298790Y-75185238D01*
X168321959Y-75200719D01*
X168336030Y-75210121D01*
X168472606Y-75266692D01*
X168472611Y-75266694D01*
X168472615Y-75266694D01*
X168472616Y-75266695D01*
X168617603Y-75295536D01*
X168617606Y-75295536D01*
X168765444Y-75295536D01*
X168862986Y-75276132D01*
X168910437Y-75266694D01*
X169047019Y-75210120D01*
X169169940Y-75127987D01*
X169274475Y-75023452D01*
X169356608Y-74900531D01*
X169413182Y-74763949D01*
X169438315Y-74637600D01*
X169442024Y-74618956D01*
X169442024Y-74471115D01*
X169413183Y-74326128D01*
X169413182Y-74326127D01*
X169413182Y-74326123D01*
X169403432Y-74302584D01*
X169356611Y-74189547D01*
X169356604Y-74189534D01*
X169274475Y-74066620D01*
X169274472Y-74066616D01*
X169169943Y-73962087D01*
X169169939Y-73962084D01*
X169047025Y-73879955D01*
X169047012Y-73879948D01*
X168910441Y-73823379D01*
X168910431Y-73823376D01*
X168765444Y-73794536D01*
X168765442Y-73794536D01*
X168617606Y-73794536D01*
X168617604Y-73794536D01*
X168472616Y-73823376D01*
X168472606Y-73823379D01*
X168336035Y-73879948D01*
X168336024Y-73879954D01*
X168270907Y-73923464D01*
X168204229Y-73944341D01*
X168136849Y-73925856D01*
X168133128Y-73923465D01*
X168095912Y-73898599D01*
X168095908Y-73898596D01*
X168095906Y-73898595D01*
X168095903Y-73898593D01*
X167959330Y-73842023D01*
X167959320Y-73842020D01*
X167814333Y-73813180D01*
X167814331Y-73813180D01*
X167666495Y-73813180D01*
X167666493Y-73813180D01*
X167521505Y-73842020D01*
X167521495Y-73842023D01*
X167384924Y-73898592D01*
X167384911Y-73898599D01*
X167261997Y-73980728D01*
X167261993Y-73980731D01*
X167157464Y-74085260D01*
X167157461Y-74085264D01*
X167075332Y-74208178D01*
X167075325Y-74208191D01*
X167018756Y-74344762D01*
X167018753Y-74344772D01*
X166989913Y-74489759D01*
X166989913Y-74489762D01*
X166989913Y-74637598D01*
X166989913Y-74637600D01*
X166989912Y-74637600D01*
X143500500Y-74637600D01*
X143500500Y-71963872D01*
X154519500Y-71963872D01*
X154519500Y-72226127D01*
X154536278Y-72353558D01*
X154553730Y-72486116D01*
X154609307Y-72693532D01*
X154621602Y-72739418D01*
X154621605Y-72739428D01*
X154721953Y-72981690D01*
X154721958Y-72981700D01*
X154853075Y-73208803D01*
X155012718Y-73416851D01*
X155012726Y-73416860D01*
X155198140Y-73602274D01*
X155198148Y-73602281D01*
X155198149Y-73602282D01*
X155205463Y-73607894D01*
X155406196Y-73761924D01*
X155633299Y-73893041D01*
X155633309Y-73893046D01*
X155875571Y-73993394D01*
X155875581Y-73993398D01*
X156128884Y-74061270D01*
X156377188Y-74093960D01*
X156385074Y-74094999D01*
X156388880Y-74095500D01*
X156388887Y-74095500D01*
X156651113Y-74095500D01*
X156651120Y-74095500D01*
X156911116Y-74061270D01*
X157164419Y-73993398D01*
X157406697Y-73893043D01*
X157633803Y-73761924D01*
X157841851Y-73602282D01*
X157841855Y-73602277D01*
X157841860Y-73602274D01*
X158027274Y-73416860D01*
X158027277Y-73416855D01*
X158027282Y-73416851D01*
X158186924Y-73208803D01*
X158318043Y-72981697D01*
X158418398Y-72739419D01*
X158486270Y-72486116D01*
X158520500Y-72226120D01*
X158520500Y-71963905D01*
X159520000Y-71963905D01*
X159520000Y-72226094D01*
X159554220Y-72486009D01*
X159554222Y-72486020D01*
X159622075Y-72739255D01*
X159722404Y-72981471D01*
X159722409Y-72981482D01*
X159853488Y-73208516D01*
X159853494Y-73208524D01*
X159940080Y-73321365D01*
X160765884Y-72495561D01*
X160766740Y-72497626D01*
X160859762Y-72636844D01*
X160978156Y-72755238D01*
X161117374Y-72848260D01*
X161119437Y-72849114D01*
X160293633Y-73674917D01*
X160293633Y-73674918D01*
X160406475Y-73761505D01*
X160406483Y-73761511D01*
X160633517Y-73892590D01*
X160633528Y-73892595D01*
X160875744Y-73992924D01*
X161128979Y-74060777D01*
X161128990Y-74060779D01*
X161388905Y-74094999D01*
X161388920Y-74095000D01*
X161651080Y-74095000D01*
X161651094Y-74094999D01*
X161911009Y-74060779D01*
X161911020Y-74060777D01*
X162164255Y-73992924D01*
X162406471Y-73892595D01*
X162406482Y-73892590D01*
X162633516Y-73761511D01*
X162633534Y-73761499D01*
X162746365Y-73674919D01*
X162746365Y-73674917D01*
X162640404Y-73568956D01*
X172751023Y-73568956D01*
X172779864Y-73713943D01*
X172779867Y-73713953D01*
X172836436Y-73850524D01*
X172836443Y-73850537D01*
X172918572Y-73973451D01*
X172918575Y-73973455D01*
X173023104Y-74077984D01*
X173023108Y-74077987D01*
X173146022Y-74160116D01*
X173146035Y-74160123D01*
X173262068Y-74208185D01*
X173282611Y-74216694D01*
X173282615Y-74216694D01*
X173282616Y-74216695D01*
X173427603Y-74245536D01*
X173427606Y-74245536D01*
X173575444Y-74245536D01*
X173672986Y-74226132D01*
X173720437Y-74216694D01*
X173857019Y-74160120D01*
X173979940Y-74077987D01*
X174084475Y-73973452D01*
X174166608Y-73850531D01*
X174223182Y-73713949D01*
X174236210Y-73648455D01*
X174252024Y-73568956D01*
X174252024Y-73421115D01*
X174223183Y-73276128D01*
X174223182Y-73276127D01*
X174223182Y-73276123D01*
X174195182Y-73208524D01*
X174166611Y-73139547D01*
X174166604Y-73139534D01*
X174084475Y-73016620D01*
X174084472Y-73016616D01*
X174078286Y-73010430D01*
X176436536Y-73010430D01*
X176465377Y-73155417D01*
X176465380Y-73155427D01*
X176521949Y-73291998D01*
X176521956Y-73292011D01*
X176604085Y-73414925D01*
X176604088Y-73414929D01*
X176708617Y-73519458D01*
X176708621Y-73519461D01*
X176831535Y-73601590D01*
X176831548Y-73601597D01*
X176968119Y-73658166D01*
X176968124Y-73658168D01*
X176968128Y-73658168D01*
X176968129Y-73658169D01*
X177113116Y-73687010D01*
X177113119Y-73687010D01*
X177260954Y-73687010D01*
X177260955Y-73687010D01*
X177272033Y-73684806D01*
X177341622Y-73691029D01*
X177396802Y-73733889D01*
X177420051Y-73799777D01*
X177403987Y-73867775D01*
X177399332Y-73875311D01*
X177366445Y-73924531D01*
X177366436Y-73924547D01*
X177309867Y-74061118D01*
X177309864Y-74061128D01*
X177281024Y-74206115D01*
X177281024Y-74206118D01*
X177281024Y-74353954D01*
X177281024Y-74353956D01*
X177281023Y-74353956D01*
X177309864Y-74498943D01*
X177309867Y-74498953D01*
X177366436Y-74635524D01*
X177366443Y-74635537D01*
X177448572Y-74758451D01*
X177448575Y-74758455D01*
X177553104Y-74862984D01*
X177553108Y-74862987D01*
X177676022Y-74945116D01*
X177676035Y-74945123D01*
X177812606Y-75001692D01*
X177812611Y-75001694D01*
X177812615Y-75001694D01*
X177812616Y-75001695D01*
X177957603Y-75030536D01*
X177957606Y-75030536D01*
X178105444Y-75030536D01*
X178203850Y-75010961D01*
X178250437Y-75001694D01*
X178387019Y-74945120D01*
X178509940Y-74862987D01*
X178614475Y-74758452D01*
X178696608Y-74635531D01*
X178753182Y-74498949D01*
X178767984Y-74424536D01*
X178782024Y-74353956D01*
X178782024Y-74206115D01*
X178753183Y-74061128D01*
X178753182Y-74061127D01*
X178753182Y-74061123D01*
X178753039Y-74060777D01*
X178696611Y-73924547D01*
X178696604Y-73924534D01*
X178614475Y-73801620D01*
X178614472Y-73801616D01*
X178509943Y-73697087D01*
X178509939Y-73697084D01*
X178387025Y-73614955D01*
X178387012Y-73614948D01*
X178250441Y-73558379D01*
X178250431Y-73558376D01*
X178105444Y-73529536D01*
X178105442Y-73529536D01*
X177957606Y-73529536D01*
X177957601Y-73529536D01*
X177946522Y-73531740D01*
X177876930Y-73525513D01*
X177821753Y-73482650D01*
X177798509Y-73416760D01*
X177814577Y-73348763D01*
X177819229Y-73341232D01*
X177852117Y-73292011D01*
X177852117Y-73292010D01*
X177852121Y-73292005D01*
X177858698Y-73276128D01*
X177864939Y-73261057D01*
X177872023Y-73243956D01*
X179390216Y-73243956D01*
X179419057Y-73388943D01*
X179419060Y-73388953D01*
X179475629Y-73525524D01*
X179475636Y-73525537D01*
X179557765Y-73648451D01*
X179557768Y-73648455D01*
X179662297Y-73752984D01*
X179662301Y-73752987D01*
X179785215Y-73835116D01*
X179785228Y-73835123D01*
X179893456Y-73879952D01*
X179921804Y-73891694D01*
X179921808Y-73891694D01*
X179921809Y-73891695D01*
X180066796Y-73920536D01*
X180066799Y-73920536D01*
X180214637Y-73920536D01*
X180324952Y-73898592D01*
X180359630Y-73891694D01*
X180496212Y-73835120D01*
X180619133Y-73752987D01*
X180723668Y-73648452D01*
X180805801Y-73525531D01*
X180805809Y-73525513D01*
X180846430Y-73427443D01*
X180862375Y-73388949D01*
X180878353Y-73308623D01*
X180891217Y-73243956D01*
X180891217Y-73096115D01*
X180862376Y-72951128D01*
X180862375Y-72951127D01*
X180862375Y-72951123D01*
X180854701Y-72932596D01*
X180805804Y-72814547D01*
X180805797Y-72814534D01*
X180723668Y-72691620D01*
X180723665Y-72691616D01*
X180619136Y-72587087D01*
X180619132Y-72587084D01*
X180496218Y-72504955D01*
X180496205Y-72504948D01*
X180359634Y-72448379D01*
X180359624Y-72448376D01*
X180214637Y-72419536D01*
X180214635Y-72419536D01*
X180066799Y-72419536D01*
X180066797Y-72419536D01*
X179921809Y-72448376D01*
X179921799Y-72448379D01*
X179785228Y-72504948D01*
X179785215Y-72504955D01*
X179662301Y-72587084D01*
X179662297Y-72587087D01*
X179557768Y-72691616D01*
X179557765Y-72691620D01*
X179475636Y-72814534D01*
X179475629Y-72814547D01*
X179419060Y-72951118D01*
X179419057Y-72951128D01*
X179390217Y-73096115D01*
X179390217Y-73096118D01*
X179390217Y-73243954D01*
X179390217Y-73243956D01*
X179390216Y-73243956D01*
X177872023Y-73243956D01*
X177908695Y-73155423D01*
X177932367Y-73036419D01*
X177937537Y-73010430D01*
X177937537Y-72862589D01*
X177908696Y-72717602D01*
X177908695Y-72717601D01*
X177908695Y-72717597D01*
X177890443Y-72673532D01*
X177852124Y-72581021D01*
X177852117Y-72581008D01*
X177769988Y-72458094D01*
X177769985Y-72458090D01*
X177665456Y-72353561D01*
X177665452Y-72353558D01*
X177542538Y-72271429D01*
X177542525Y-72271422D01*
X177405954Y-72214853D01*
X177405944Y-72214850D01*
X177338614Y-72201457D01*
X182174499Y-72201457D01*
X182202379Y-72341614D01*
X182202381Y-72341620D01*
X182257069Y-72473650D01*
X182257074Y-72473659D01*
X182336467Y-72592478D01*
X182336470Y-72592482D01*
X182437517Y-72693529D01*
X182437521Y-72693532D01*
X182556340Y-72772925D01*
X182556346Y-72772928D01*
X182556347Y-72772929D01*
X182688380Y-72827619D01*
X182688384Y-72827619D01*
X182688385Y-72827620D01*
X182828542Y-72855500D01*
X182828545Y-72855500D01*
X182971457Y-72855500D01*
X183099891Y-72829952D01*
X183111620Y-72827619D01*
X183243653Y-72772929D01*
X183362479Y-72693532D01*
X183368612Y-72687399D01*
X183429933Y-72653911D01*
X183499625Y-72658892D01*
X183525188Y-72671974D01*
X183646340Y-72752925D01*
X183646349Y-72752930D01*
X183647361Y-72753349D01*
X183778380Y-72807619D01*
X183778382Y-72807619D01*
X183778384Y-72807620D01*
X183783845Y-72808706D01*
X183795270Y-72810978D01*
X183857182Y-72843360D01*
X183891758Y-72904075D01*
X183895083Y-72932596D01*
X183895083Y-73036419D01*
X183895083Y-73036421D01*
X183895082Y-73036421D01*
X183922962Y-73176578D01*
X183922964Y-73176584D01*
X183977652Y-73308614D01*
X183977657Y-73308623D01*
X184057050Y-73427442D01*
X184057053Y-73427446D01*
X184158100Y-73528493D01*
X184158104Y-73528496D01*
X184276923Y-73607889D01*
X184276929Y-73607892D01*
X184276930Y-73607893D01*
X184408963Y-73662583D01*
X184457920Y-73672321D01*
X184474372Y-73675594D01*
X184536283Y-73707979D01*
X184570857Y-73768694D01*
X184571798Y-73773020D01*
X184580462Y-73816576D01*
X184580464Y-73816584D01*
X184635152Y-73948614D01*
X184635157Y-73948623D01*
X184714550Y-74067442D01*
X184714553Y-74067446D01*
X184815600Y-74168493D01*
X184815604Y-74168496D01*
X184934423Y-74247889D01*
X184934429Y-74247892D01*
X184934430Y-74247893D01*
X185066463Y-74302583D01*
X185088593Y-74306985D01*
X185102819Y-74309815D01*
X185164730Y-74342199D01*
X185199304Y-74402915D01*
X185200245Y-74407240D01*
X185227962Y-74546578D01*
X185227964Y-74546584D01*
X185282652Y-74678614D01*
X185282657Y-74678623D01*
X185362050Y-74797442D01*
X185362053Y-74797446D01*
X185463100Y-74898493D01*
X185463104Y-74898496D01*
X185581923Y-74977889D01*
X185581929Y-74977892D01*
X185581930Y-74977893D01*
X185713963Y-75032583D01*
X185713967Y-75032583D01*
X185713968Y-75032584D01*
X185854125Y-75060464D01*
X185854128Y-75060464D01*
X185997040Y-75060464D01*
X186091334Y-75041706D01*
X186137203Y-75032583D01*
X186269236Y-74977893D01*
X186388062Y-74898496D01*
X186489115Y-74797443D01*
X186568512Y-74678617D01*
X186623202Y-74546584D01*
X186641743Y-74453376D01*
X186651083Y-74406421D01*
X186651083Y-74263506D01*
X186623203Y-74123349D01*
X186623202Y-74123348D01*
X186623202Y-74123344D01*
X186580901Y-74021222D01*
X186568513Y-73991313D01*
X186568508Y-73991304D01*
X186489115Y-73872485D01*
X186489112Y-73872481D01*
X186388065Y-73771434D01*
X186365574Y-73756406D01*
X186320770Y-73702793D01*
X186312063Y-73633468D01*
X186342218Y-73570441D01*
X186365572Y-73550204D01*
X186398062Y-73528496D01*
X186499115Y-73427443D01*
X186578512Y-73308617D01*
X186633202Y-73176584D01*
X186661083Y-73036419D01*
X186661083Y-72893509D01*
X186661083Y-72893506D01*
X186633203Y-72753349D01*
X186633202Y-72753348D01*
X186633202Y-72753344D01*
X186578512Y-72621311D01*
X186578511Y-72621310D01*
X186578508Y-72621304D01*
X186499115Y-72502485D01*
X186499112Y-72502481D01*
X186398065Y-72401434D01*
X186398061Y-72401431D01*
X186279242Y-72322038D01*
X186279232Y-72322033D01*
X186172047Y-72277635D01*
X186117643Y-72233793D01*
X186095579Y-72167499D01*
X186095500Y-72163074D01*
X186095500Y-72028542D01*
X186067620Y-71888385D01*
X186067619Y-71888384D01*
X186067619Y-71888380D01*
X186012929Y-71756347D01*
X186012928Y-71756346D01*
X186012925Y-71756340D01*
X185933532Y-71637521D01*
X185933529Y-71637517D01*
X185832482Y-71536470D01*
X185832478Y-71536467D01*
X185713659Y-71457074D01*
X185713650Y-71457069D01*
X185581620Y-71402381D01*
X185581614Y-71402379D01*
X185441457Y-71374500D01*
X185441455Y-71374500D01*
X185298545Y-71374500D01*
X185298543Y-71374500D01*
X185158385Y-71402379D01*
X185158379Y-71402381D01*
X185026349Y-71457069D01*
X185026340Y-71457074D01*
X184907521Y-71536467D01*
X184907517Y-71536470D01*
X184806470Y-71637517D01*
X184806467Y-71637521D01*
X184779761Y-71677490D01*
X184726149Y-71722295D01*
X184656824Y-71731002D01*
X184593796Y-71700847D01*
X184573557Y-71677490D01*
X184553532Y-71647521D01*
X184553529Y-71647517D01*
X184452482Y-71546470D01*
X184452478Y-71546467D01*
X184333659Y-71467074D01*
X184333650Y-71467069D01*
X184201620Y-71412381D01*
X184201614Y-71412379D01*
X184061457Y-71384500D01*
X184061455Y-71384500D01*
X183918545Y-71384500D01*
X183918543Y-71384500D01*
X183778385Y-71412379D01*
X183778379Y-71412381D01*
X183646349Y-71467069D01*
X183646340Y-71467074D01*
X183527521Y-71546467D01*
X183527514Y-71546472D01*
X183521379Y-71552608D01*
X183460054Y-71586090D01*
X183390363Y-71581103D01*
X183364812Y-71568025D01*
X183243664Y-71487077D01*
X183243650Y-71487069D01*
X183111620Y-71432381D01*
X183111614Y-71432379D01*
X182971457Y-71404500D01*
X182971455Y-71404500D01*
X182828545Y-71404500D01*
X182828543Y-71404500D01*
X182688385Y-71432379D01*
X182688379Y-71432381D01*
X182556349Y-71487069D01*
X182556340Y-71487074D01*
X182437521Y-71566467D01*
X182437517Y-71566470D01*
X182336470Y-71667517D01*
X182336467Y-71667521D01*
X182257074Y-71786340D01*
X182257069Y-71786349D01*
X182202381Y-71918379D01*
X182202379Y-71918385D01*
X182174500Y-72058542D01*
X182174500Y-72058545D01*
X182174500Y-72201455D01*
X182174500Y-72201457D01*
X182174499Y-72201457D01*
X177338614Y-72201457D01*
X177260957Y-72186010D01*
X177260955Y-72186010D01*
X177113119Y-72186010D01*
X177113117Y-72186010D01*
X176968129Y-72214850D01*
X176968119Y-72214853D01*
X176831548Y-72271422D01*
X176831535Y-72271429D01*
X176708621Y-72353558D01*
X176708617Y-72353561D01*
X176604088Y-72458090D01*
X176604085Y-72458094D01*
X176521956Y-72581008D01*
X176521949Y-72581021D01*
X176465380Y-72717592D01*
X176465377Y-72717602D01*
X176436537Y-72862589D01*
X176436537Y-72862592D01*
X176436537Y-73010428D01*
X176436537Y-73010430D01*
X176436536Y-73010430D01*
X174078286Y-73010430D01*
X173979943Y-72912087D01*
X173979939Y-72912084D01*
X173857025Y-72829955D01*
X173857012Y-72829948D01*
X173720441Y-72773379D01*
X173720431Y-72773376D01*
X173575444Y-72744536D01*
X173575442Y-72744536D01*
X173427606Y-72744536D01*
X173427604Y-72744536D01*
X173282616Y-72773376D01*
X173282606Y-72773379D01*
X173146035Y-72829948D01*
X173146022Y-72829955D01*
X173023108Y-72912084D01*
X173023104Y-72912087D01*
X172918575Y-73016616D01*
X172918572Y-73016620D01*
X172836443Y-73139534D01*
X172836436Y-73139547D01*
X172779867Y-73276118D01*
X172779864Y-73276128D01*
X172751024Y-73421115D01*
X172751024Y-73421118D01*
X172751024Y-73568954D01*
X172751024Y-73568956D01*
X172751023Y-73568956D01*
X162640404Y-73568956D01*
X161920562Y-72849114D01*
X161922626Y-72848260D01*
X162061844Y-72755238D01*
X162180238Y-72636844D01*
X162273260Y-72497626D01*
X162274114Y-72495562D01*
X163099917Y-73321365D01*
X163099920Y-73321365D01*
X163186499Y-73208534D01*
X163186511Y-73208516D01*
X163317590Y-72981482D01*
X163317595Y-72981471D01*
X163417924Y-72739255D01*
X163485777Y-72486020D01*
X163485779Y-72486009D01*
X163505798Y-72333956D01*
X167350216Y-72333956D01*
X167379057Y-72478943D01*
X167379060Y-72478953D01*
X167435629Y-72615524D01*
X167435636Y-72615537D01*
X167517765Y-72738451D01*
X167517768Y-72738455D01*
X167622297Y-72842984D01*
X167622301Y-72842987D01*
X167745215Y-72925116D01*
X167745228Y-72925123D01*
X167881292Y-72981482D01*
X167881804Y-72981694D01*
X167881808Y-72981694D01*
X167881809Y-72981695D01*
X168026796Y-73010536D01*
X168026799Y-73010536D01*
X168174637Y-73010536D01*
X168272179Y-72991132D01*
X168319630Y-72981694D01*
X168456212Y-72925120D01*
X168579133Y-72842987D01*
X168683668Y-72738452D01*
X168765801Y-72615531D01*
X168822375Y-72478949D01*
X168837794Y-72401434D01*
X168851217Y-72333956D01*
X168851217Y-72186115D01*
X168829441Y-72076645D01*
X168829441Y-72076644D01*
X168826612Y-72062425D01*
X168822375Y-72041123D01*
X168817164Y-72028542D01*
X168765804Y-71904547D01*
X168765797Y-71904534D01*
X168683668Y-71781620D01*
X168683665Y-71781616D01*
X168579136Y-71677087D01*
X168579132Y-71677084D01*
X168456218Y-71594955D01*
X168456205Y-71594948D01*
X168319634Y-71538379D01*
X168319624Y-71538376D01*
X168174637Y-71509536D01*
X168174635Y-71509536D01*
X168026799Y-71509536D01*
X168026797Y-71509536D01*
X167881809Y-71538376D01*
X167881799Y-71538379D01*
X167745228Y-71594948D01*
X167745215Y-71594955D01*
X167622301Y-71677084D01*
X167622297Y-71677087D01*
X167517768Y-71781616D01*
X167517765Y-71781620D01*
X167435636Y-71904534D01*
X167435629Y-71904547D01*
X167379060Y-72041118D01*
X167379057Y-72041128D01*
X167350217Y-72186115D01*
X167350217Y-72186118D01*
X167350217Y-72333954D01*
X167350217Y-72333956D01*
X167350216Y-72333956D01*
X163505798Y-72333956D01*
X163519999Y-72226094D01*
X163520000Y-72226080D01*
X163520000Y-71963919D01*
X163519999Y-71963905D01*
X163485779Y-71703990D01*
X163485777Y-71703979D01*
X163417924Y-71450744D01*
X163317595Y-71208528D01*
X163317590Y-71208517D01*
X163186511Y-70981483D01*
X163186505Y-70981475D01*
X163099918Y-70868633D01*
X163099917Y-70868633D01*
X162274114Y-71694436D01*
X162273260Y-71692374D01*
X162180238Y-71553156D01*
X162061844Y-71434762D01*
X161922626Y-71341740D01*
X161920560Y-71340884D01*
X162746365Y-70515080D01*
X162633524Y-70428494D01*
X162633516Y-70428488D01*
X162406482Y-70297409D01*
X162406471Y-70297404D01*
X162164255Y-70197075D01*
X161911020Y-70129222D01*
X161911009Y-70129220D01*
X161651094Y-70095000D01*
X161388905Y-70095000D01*
X161128990Y-70129220D01*
X161128979Y-70129222D01*
X160875744Y-70197075D01*
X160633528Y-70297404D01*
X160633517Y-70297409D01*
X160406471Y-70428496D01*
X160293633Y-70515079D01*
X160293633Y-70515080D01*
X161119438Y-71340885D01*
X161117374Y-71341740D01*
X160978156Y-71434762D01*
X160859762Y-71553156D01*
X160766740Y-71692374D01*
X160765885Y-71694438D01*
X159940080Y-70868633D01*
X159940079Y-70868633D01*
X159853496Y-70981471D01*
X159722409Y-71208517D01*
X159722404Y-71208528D01*
X159622075Y-71450744D01*
X159554222Y-71703979D01*
X159554220Y-71703990D01*
X159520000Y-71963905D01*
X158520500Y-71963905D01*
X158520500Y-71963880D01*
X158486270Y-71703884D01*
X158418398Y-71450581D01*
X158410859Y-71432381D01*
X158318046Y-71208309D01*
X158318041Y-71208299D01*
X158186924Y-70981196D01*
X158027281Y-70773148D01*
X158027274Y-70773140D01*
X157841860Y-70587726D01*
X157841851Y-70587718D01*
X157633803Y-70428075D01*
X157406700Y-70296958D01*
X157406690Y-70296953D01*
X157164428Y-70196605D01*
X157164421Y-70196603D01*
X157164419Y-70196602D01*
X156911116Y-70128730D01*
X156853339Y-70121123D01*
X156651127Y-70094500D01*
X156651120Y-70094500D01*
X156388880Y-70094500D01*
X156388872Y-70094500D01*
X156157772Y-70124926D01*
X156128884Y-70128730D01*
X155875581Y-70196602D01*
X155875571Y-70196605D01*
X155633309Y-70296953D01*
X155633299Y-70296958D01*
X155406196Y-70428075D01*
X155198148Y-70587718D01*
X155012718Y-70773148D01*
X154853075Y-70981196D01*
X154721958Y-71208299D01*
X154721953Y-71208309D01*
X154621605Y-71450571D01*
X154621602Y-71450581D01*
X154553730Y-71703884D01*
X154553716Y-71703990D01*
X154519500Y-71963872D01*
X143500500Y-71963872D01*
X143500500Y-68668507D01*
X174480082Y-68668507D01*
X174518530Y-68861793D01*
X174518533Y-68861803D01*
X174593947Y-69043871D01*
X174593954Y-69043884D01*
X174703443Y-69207745D01*
X174703446Y-69207749D01*
X174842797Y-69347100D01*
X174842801Y-69347103D01*
X175006662Y-69456592D01*
X175006675Y-69456599D01*
X175188743Y-69532013D01*
X175188748Y-69532015D01*
X175188752Y-69532015D01*
X175188753Y-69532016D01*
X175382039Y-69570464D01*
X175382042Y-69570464D01*
X175579126Y-69570464D01*
X175709165Y-69544596D01*
X175772418Y-69532015D01*
X175954497Y-69456596D01*
X176118365Y-69347103D01*
X176257722Y-69207746D01*
X176367215Y-69043878D01*
X176442634Y-68861799D01*
X176481083Y-68668505D01*
X176481083Y-68648507D01*
X179870082Y-68648507D01*
X179908530Y-68841793D01*
X179908533Y-68841803D01*
X179983947Y-69023871D01*
X179983954Y-69023884D01*
X180093443Y-69187745D01*
X180093446Y-69187749D01*
X180232797Y-69327100D01*
X180232801Y-69327103D01*
X180396662Y-69436592D01*
X180396675Y-69436599D01*
X180578743Y-69512013D01*
X180578748Y-69512015D01*
X180578752Y-69512015D01*
X180578753Y-69512016D01*
X180772039Y-69550464D01*
X180772042Y-69550464D01*
X180969126Y-69550464D01*
X181099165Y-69524596D01*
X181162418Y-69512015D01*
X181344497Y-69436596D01*
X181508365Y-69327103D01*
X181647722Y-69187746D01*
X181757215Y-69023878D01*
X181832634Y-68841799D01*
X181845215Y-68778546D01*
X181871083Y-68648507D01*
X181871083Y-68451420D01*
X181832635Y-68258134D01*
X181832634Y-68258133D01*
X181832634Y-68258129D01*
X181765502Y-68096056D01*
X181757218Y-68076056D01*
X181757211Y-68076043D01*
X181651351Y-67917613D01*
X181630473Y-67850936D01*
X181648957Y-67783555D01*
X181700936Y-67736865D01*
X181769906Y-67725689D01*
X181812903Y-67739362D01*
X181816323Y-67741190D01*
X181998308Y-67816569D01*
X182040000Y-67824862D01*
X182040000Y-67021988D01*
X182049940Y-67039205D01*
X182105795Y-67095060D01*
X182174204Y-67134556D01*
X182250504Y-67155000D01*
X182329496Y-67155000D01*
X182405796Y-67134556D01*
X182474205Y-67095060D01*
X182530060Y-67039205D01*
X182540000Y-67021988D01*
X182540000Y-67824862D01*
X182581690Y-67816569D01*
X182581692Y-67816569D01*
X182763671Y-67741192D01*
X182763684Y-67741185D01*
X182927462Y-67631751D01*
X182927466Y-67631748D01*
X183066748Y-67492466D01*
X183066751Y-67492462D01*
X183176185Y-67328684D01*
X183176192Y-67328671D01*
X183251569Y-67146693D01*
X183251572Y-67146681D01*
X183289999Y-66953495D01*
X183290000Y-66953492D01*
X183290000Y-66555000D01*
X182590000Y-66555000D01*
X182590000Y-66055000D01*
X183290000Y-66055000D01*
X183290000Y-65656508D01*
X183289999Y-65656504D01*
X183251572Y-65463318D01*
X183251569Y-65463306D01*
X183176192Y-65281328D01*
X183176185Y-65281315D01*
X183066751Y-65117537D01*
X183066748Y-65117533D01*
X182927466Y-64978251D01*
X182927462Y-64978248D01*
X182763684Y-64868814D01*
X182763671Y-64868807D01*
X182581691Y-64793429D01*
X182581683Y-64793427D01*
X182540000Y-64785135D01*
X182540000Y-65588011D01*
X182530060Y-65570795D01*
X182474205Y-65514940D01*
X182405796Y-65475444D01*
X182329496Y-65455000D01*
X182250504Y-65455000D01*
X182174204Y-65475444D01*
X182105795Y-65514940D01*
X182049940Y-65570795D01*
X182040000Y-65588011D01*
X182040000Y-64785136D01*
X182039999Y-64785135D01*
X181998316Y-64793427D01*
X181998308Y-64793429D01*
X181816328Y-64868807D01*
X181816315Y-64868814D01*
X181652537Y-64978248D01*
X181652533Y-64978251D01*
X181513251Y-65117533D01*
X181513248Y-65117537D01*
X181403814Y-65281315D01*
X181403807Y-65281328D01*
X181379838Y-65339197D01*
X181335997Y-65393601D01*
X181269703Y-65415666D01*
X181202004Y-65398387D01*
X181189624Y-65388770D01*
X181189110Y-65389441D01*
X181182661Y-65384492D01*
X181062838Y-65315313D01*
X181062837Y-65315312D01*
X181062836Y-65315312D01*
X180929183Y-65279500D01*
X180790817Y-65279500D01*
X180657164Y-65315312D01*
X180657161Y-65315313D01*
X180537338Y-65384492D01*
X180537333Y-65384496D01*
X180439496Y-65482333D01*
X180439492Y-65482338D01*
X180370313Y-65602161D01*
X180370312Y-65602164D01*
X180334500Y-65735817D01*
X180334500Y-65874183D01*
X180346007Y-65917126D01*
X180370312Y-66007835D01*
X180370313Y-66007838D01*
X180439492Y-66127661D01*
X180439494Y-66127664D01*
X180439495Y-66127665D01*
X180537335Y-66225505D01*
X180657164Y-66294688D01*
X180790817Y-66330500D01*
X180790819Y-66330500D01*
X180929181Y-66330500D01*
X180929183Y-66330500D01*
X181062836Y-66294688D01*
X181182665Y-66225505D01*
X181280505Y-66127665D01*
X181286663Y-66116999D01*
X181337231Y-66068784D01*
X181394050Y-66055000D01*
X181990000Y-66055000D01*
X181990000Y-66555000D01*
X181290000Y-66555000D01*
X181290000Y-66953495D01*
X181328427Y-67146681D01*
X181328430Y-67146693D01*
X181403807Y-67328671D01*
X181403814Y-67328684D01*
X181509575Y-67486965D01*
X181530453Y-67553642D01*
X181511969Y-67621023D01*
X181459990Y-67667713D01*
X181391020Y-67678889D01*
X181348024Y-67665217D01*
X181344492Y-67663329D01*
X181162422Y-67587914D01*
X181162412Y-67587911D01*
X180969126Y-67549464D01*
X180969124Y-67549464D01*
X180772042Y-67549464D01*
X180772040Y-67549464D01*
X180578753Y-67587911D01*
X180578743Y-67587914D01*
X180396675Y-67663328D01*
X180396662Y-67663335D01*
X180232801Y-67772824D01*
X180232797Y-67772827D01*
X180093446Y-67912178D01*
X180093443Y-67912182D01*
X179983954Y-68076043D01*
X179983947Y-68076056D01*
X179908533Y-68258124D01*
X179908530Y-68258134D01*
X179870083Y-68451420D01*
X179870083Y-68451423D01*
X179870083Y-68648505D01*
X179870083Y-68648507D01*
X179870082Y-68648507D01*
X176481083Y-68648507D01*
X176481083Y-68471423D01*
X176481082Y-68471420D01*
X176480704Y-68469516D01*
X176480704Y-68469513D01*
X176442635Y-68278134D01*
X176442634Y-68278133D01*
X176442634Y-68278129D01*
X176434348Y-68258124D01*
X176367218Y-68096056D01*
X176367211Y-68096043D01*
X176257722Y-67932182D01*
X176257719Y-67932178D01*
X176118368Y-67792827D01*
X176118364Y-67792824D01*
X175954503Y-67683335D01*
X175954490Y-67683328D01*
X175772422Y-67607914D01*
X175772412Y-67607911D01*
X175579126Y-67569464D01*
X175579124Y-67569464D01*
X175382042Y-67569464D01*
X175382040Y-67569464D01*
X175188753Y-67607911D01*
X175188743Y-67607914D01*
X175006675Y-67683328D01*
X175006662Y-67683335D01*
X174842801Y-67792824D01*
X174842797Y-67792827D01*
X174703446Y-67932178D01*
X174703443Y-67932182D01*
X174593954Y-68096043D01*
X174593947Y-68096056D01*
X174518533Y-68278124D01*
X174518530Y-68278134D01*
X174480083Y-68471420D01*
X174480083Y-68471421D01*
X174480083Y-68471423D01*
X174480083Y-68668505D01*
X174480083Y-68668507D01*
X174480082Y-68668507D01*
X143500500Y-68668507D01*
X143500500Y-63872149D01*
X146049500Y-63872149D01*
X146049500Y-64127850D01*
X146068874Y-64275000D01*
X146082874Y-64381340D01*
X146137806Y-64586349D01*
X146149050Y-64628312D01*
X146149053Y-64628322D01*
X146246889Y-64864520D01*
X146246899Y-64864542D01*
X146374734Y-65085957D01*
X146374745Y-65085973D01*
X146530388Y-65288811D01*
X146530394Y-65288818D01*
X146711181Y-65469605D01*
X146711188Y-65469611D01*
X146845835Y-65572929D01*
X146914035Y-65625261D01*
X146914042Y-65625265D01*
X147135457Y-65753100D01*
X147135462Y-65753102D01*
X147135465Y-65753104D01*
X147371687Y-65850950D01*
X147618660Y-65917126D01*
X147872157Y-65950500D01*
X147872164Y-65950500D01*
X148127836Y-65950500D01*
X148127843Y-65950500D01*
X148381340Y-65917126D01*
X148628313Y-65850950D01*
X148864535Y-65753104D01*
X149031851Y-65656504D01*
X172650000Y-65656504D01*
X172650000Y-66055000D01*
X173350000Y-66055000D01*
X173350000Y-66555000D01*
X172650000Y-66555000D01*
X172650000Y-66953495D01*
X172688427Y-67146681D01*
X172688430Y-67146693D01*
X172763807Y-67328671D01*
X172763814Y-67328684D01*
X172873248Y-67492462D01*
X172873251Y-67492466D01*
X173012533Y-67631748D01*
X173012537Y-67631751D01*
X173176315Y-67741185D01*
X173176328Y-67741192D01*
X173358308Y-67816569D01*
X173400000Y-67824862D01*
X173400000Y-67021988D01*
X173409940Y-67039205D01*
X173465795Y-67095060D01*
X173534204Y-67134556D01*
X173610504Y-67155000D01*
X173689496Y-67155000D01*
X173765796Y-67134556D01*
X173834205Y-67095060D01*
X173890060Y-67039205D01*
X173900000Y-67021988D01*
X173900000Y-67824862D01*
X173941690Y-67816569D01*
X173941692Y-67816569D01*
X174123671Y-67741192D01*
X174123684Y-67741185D01*
X174287462Y-67631751D01*
X174287466Y-67631748D01*
X174426748Y-67492466D01*
X174426751Y-67492462D01*
X174536185Y-67328684D01*
X174536192Y-67328671D01*
X174611569Y-67146693D01*
X174611572Y-67146681D01*
X174649999Y-66953495D01*
X174650000Y-66953492D01*
X174650000Y-66555000D01*
X173950000Y-66555000D01*
X173950000Y-66055000D01*
X174545950Y-66055000D01*
X174612989Y-66074685D01*
X174653337Y-66116999D01*
X174659492Y-66127661D01*
X174659495Y-66127665D01*
X174757335Y-66225505D01*
X174877164Y-66294688D01*
X175010817Y-66330500D01*
X175010819Y-66330500D01*
X175149181Y-66330500D01*
X175149183Y-66330500D01*
X175282836Y-66294688D01*
X175402665Y-66225505D01*
X175500505Y-66127665D01*
X175569688Y-66007836D01*
X175605500Y-65874183D01*
X175605500Y-65735817D01*
X175569688Y-65602164D01*
X175535096Y-65542249D01*
X175500507Y-65482338D01*
X175500503Y-65482333D01*
X175402666Y-65384496D01*
X175402661Y-65384492D01*
X175282838Y-65315313D01*
X175282837Y-65315312D01*
X175282836Y-65315312D01*
X175149183Y-65279500D01*
X175010817Y-65279500D01*
X174877164Y-65315312D01*
X174877161Y-65315313D01*
X174757338Y-65384492D01*
X174750890Y-65389441D01*
X174748883Y-65386825D01*
X174700991Y-65412931D01*
X174631303Y-65407895D01*
X174575400Y-65365982D01*
X174560160Y-65339196D01*
X174536189Y-65281322D01*
X174536185Y-65281315D01*
X174426751Y-65117537D01*
X174426748Y-65117533D01*
X174287466Y-64978251D01*
X174287462Y-64978248D01*
X174123684Y-64868814D01*
X174123671Y-64868807D01*
X173941691Y-64793429D01*
X173941683Y-64793427D01*
X173900000Y-64785135D01*
X173900000Y-65588011D01*
X173890060Y-65570795D01*
X173834205Y-65514940D01*
X173765796Y-65475444D01*
X173689496Y-65455000D01*
X173610504Y-65455000D01*
X173534204Y-65475444D01*
X173465795Y-65514940D01*
X173409940Y-65570795D01*
X173400000Y-65588011D01*
X173400000Y-64785136D01*
X173399999Y-64785135D01*
X173358316Y-64793427D01*
X173358308Y-64793429D01*
X173176328Y-64868807D01*
X173176315Y-64868814D01*
X173012537Y-64978248D01*
X173012533Y-64978251D01*
X172873251Y-65117533D01*
X172873248Y-65117537D01*
X172763814Y-65281315D01*
X172763807Y-65281328D01*
X172688430Y-65463306D01*
X172688427Y-65463318D01*
X172650000Y-65656504D01*
X149031851Y-65656504D01*
X149085965Y-65625261D01*
X149288813Y-65469610D01*
X149469610Y-65288813D01*
X149625261Y-65085965D01*
X149753104Y-64864535D01*
X149753106Y-64864529D01*
X149753111Y-64864520D01*
X149850946Y-64628322D01*
X149850950Y-64628313D01*
X149917126Y-64381340D01*
X149950500Y-64127843D01*
X149950500Y-63872157D01*
X149926710Y-63691457D01*
X168364499Y-63691457D01*
X168392379Y-63831614D01*
X168392381Y-63831620D01*
X168447069Y-63963650D01*
X168447074Y-63963659D01*
X168526467Y-64082478D01*
X168526470Y-64082482D01*
X168631307Y-64187319D01*
X168664792Y-64248642D01*
X168659808Y-64318334D01*
X168631307Y-64362681D01*
X168526470Y-64467517D01*
X168526467Y-64467521D01*
X168447074Y-64586340D01*
X168447069Y-64586349D01*
X168392381Y-64718379D01*
X168392379Y-64718385D01*
X168364500Y-64858542D01*
X168364500Y-64858545D01*
X168364500Y-65001455D01*
X168364500Y-65001457D01*
X168364499Y-65001457D01*
X168392379Y-65141614D01*
X168392381Y-65141620D01*
X168447069Y-65273650D01*
X168447074Y-65273659D01*
X168526467Y-65392478D01*
X168526470Y-65392482D01*
X168627517Y-65493529D01*
X168627521Y-65493532D01*
X168746340Y-65572925D01*
X168746346Y-65572928D01*
X168746347Y-65572929D01*
X168878380Y-65627619D01*
X168878384Y-65627619D01*
X168878385Y-65627620D01*
X169018542Y-65655500D01*
X169018545Y-65655500D01*
X169161457Y-65655500D01*
X169255751Y-65636742D01*
X169301620Y-65627619D01*
X169433653Y-65572929D01*
X169436847Y-65570795D01*
X169471988Y-65547315D01*
X169511041Y-65521219D01*
X169552479Y-65493532D01*
X169653532Y-65392479D01*
X169732929Y-65273653D01*
X169787619Y-65141620D01*
X169815500Y-65001455D01*
X169815500Y-64858545D01*
X169815500Y-64858542D01*
X169787620Y-64718385D01*
X169787619Y-64718384D01*
X169787619Y-64718380D01*
X169732929Y-64586347D01*
X169732928Y-64586346D01*
X169732925Y-64586340D01*
X169653532Y-64467521D01*
X169653529Y-64467517D01*
X169548693Y-64362681D01*
X169515208Y-64301358D01*
X169520192Y-64231666D01*
X169548693Y-64187319D01*
X169653529Y-64082482D01*
X169653532Y-64082479D01*
X169732929Y-63963653D01*
X169770831Y-63872149D01*
X187049500Y-63872149D01*
X187049500Y-64127850D01*
X187068874Y-64275000D01*
X187082874Y-64381340D01*
X187137806Y-64586349D01*
X187149050Y-64628312D01*
X187149053Y-64628322D01*
X187246889Y-64864520D01*
X187246899Y-64864542D01*
X187374734Y-65085957D01*
X187374745Y-65085973D01*
X187530388Y-65288811D01*
X187530394Y-65288818D01*
X187711181Y-65469605D01*
X187711188Y-65469611D01*
X187845835Y-65572929D01*
X187914035Y-65625261D01*
X187914042Y-65625265D01*
X188135457Y-65753100D01*
X188135462Y-65753102D01*
X188135465Y-65753104D01*
X188371687Y-65850950D01*
X188618660Y-65917126D01*
X188872157Y-65950500D01*
X188872164Y-65950500D01*
X189127836Y-65950500D01*
X189127843Y-65950500D01*
X189381340Y-65917126D01*
X189628313Y-65850950D01*
X189864535Y-65753104D01*
X190085965Y-65625261D01*
X190288813Y-65469610D01*
X190469610Y-65288813D01*
X190625261Y-65085965D01*
X190753104Y-64864535D01*
X190753106Y-64864529D01*
X190753111Y-64864520D01*
X190850946Y-64628322D01*
X190850950Y-64628313D01*
X190917126Y-64381340D01*
X190950500Y-64127843D01*
X190950500Y-63872157D01*
X190917126Y-63618660D01*
X190850950Y-63371687D01*
X190753104Y-63135465D01*
X190753102Y-63135462D01*
X190753100Y-63135457D01*
X190625265Y-62914042D01*
X190625261Y-62914035D01*
X190469610Y-62711187D01*
X190469605Y-62711181D01*
X190288818Y-62530394D01*
X190288811Y-62530388D01*
X190085973Y-62374745D01*
X190085971Y-62374743D01*
X190085965Y-62374739D01*
X190085960Y-62374736D01*
X190085957Y-62374734D01*
X189864542Y-62246899D01*
X189864531Y-62246894D01*
X189628322Y-62149053D01*
X189628315Y-62149051D01*
X189628313Y-62149050D01*
X189381340Y-62082874D01*
X189325007Y-62075457D01*
X189127850Y-62049500D01*
X189127843Y-62049500D01*
X188872157Y-62049500D01*
X188872149Y-62049500D01*
X188646826Y-62079165D01*
X188618660Y-62082874D01*
X188585307Y-62091811D01*
X188371687Y-62149050D01*
X188371677Y-62149053D01*
X188135468Y-62246894D01*
X188135457Y-62246899D01*
X187914042Y-62374734D01*
X187914026Y-62374745D01*
X187711188Y-62530388D01*
X187711181Y-62530394D01*
X187530394Y-62711181D01*
X187530388Y-62711188D01*
X187374745Y-62914026D01*
X187374734Y-62914042D01*
X187246899Y-63135457D01*
X187246894Y-63135468D01*
X187149053Y-63371677D01*
X187149050Y-63371687D01*
X187116046Y-63494862D01*
X187082874Y-63618661D01*
X187049500Y-63872149D01*
X169770831Y-63872149D01*
X169787619Y-63831620D01*
X169815500Y-63691455D01*
X169815500Y-63548545D01*
X169815500Y-63548542D01*
X169787620Y-63408385D01*
X169787619Y-63408384D01*
X169787619Y-63408380D01*
X169732929Y-63276347D01*
X169732928Y-63276346D01*
X169732925Y-63276340D01*
X169653532Y-63157521D01*
X169653529Y-63157517D01*
X169552482Y-63056470D01*
X169552478Y-63056467D01*
X169433659Y-62977074D01*
X169433650Y-62977069D01*
X169301620Y-62922381D01*
X169301614Y-62922379D01*
X169161457Y-62894500D01*
X169161455Y-62894500D01*
X169018545Y-62894500D01*
X169018543Y-62894500D01*
X168878385Y-62922379D01*
X168878379Y-62922381D01*
X168746349Y-62977069D01*
X168746340Y-62977074D01*
X168627521Y-63056467D01*
X168627517Y-63056470D01*
X168526470Y-63157517D01*
X168526467Y-63157521D01*
X168447074Y-63276340D01*
X168447069Y-63276349D01*
X168392381Y-63408379D01*
X168392379Y-63408385D01*
X168364500Y-63548542D01*
X168364500Y-63548545D01*
X168364500Y-63691455D01*
X168364500Y-63691457D01*
X168364499Y-63691457D01*
X149926710Y-63691457D01*
X149917126Y-63618660D01*
X149850950Y-63371687D01*
X149753104Y-63135465D01*
X149753102Y-63135462D01*
X149753100Y-63135457D01*
X149625265Y-62914042D01*
X149625261Y-62914035D01*
X149469610Y-62711187D01*
X149469605Y-62711181D01*
X149288818Y-62530394D01*
X149288811Y-62530388D01*
X149085973Y-62374745D01*
X149085971Y-62374743D01*
X149085965Y-62374739D01*
X149085960Y-62374736D01*
X149085957Y-62374734D01*
X148864542Y-62246899D01*
X148864531Y-62246894D01*
X148628322Y-62149053D01*
X148628315Y-62149051D01*
X148628313Y-62149050D01*
X148381340Y-62082874D01*
X148381339Y-62082873D01*
X148381336Y-62082873D01*
X148127850Y-62049500D01*
X148127843Y-62049500D01*
X147872157Y-62049500D01*
X147872149Y-62049500D01*
X147646826Y-62079165D01*
X147618660Y-62082874D01*
X147585307Y-62091811D01*
X147371687Y-62149050D01*
X147371677Y-62149053D01*
X147135468Y-62246894D01*
X147135457Y-62246899D01*
X146914042Y-62374734D01*
X146914026Y-62374745D01*
X146711188Y-62530388D01*
X146711181Y-62530394D01*
X146530394Y-62711181D01*
X146530388Y-62711188D01*
X146374745Y-62914026D01*
X146374734Y-62914042D01*
X146246899Y-63135457D01*
X146246894Y-63135468D01*
X146149053Y-63371677D01*
X146149050Y-63371687D01*
X146116046Y-63494862D01*
X146082874Y-63618661D01*
X146049500Y-63872149D01*
X143500500Y-63872149D01*
X143500500Y-61976902D01*
X152019500Y-61976902D01*
X152019500Y-62213097D01*
X152056446Y-62446368D01*
X152129433Y-62670996D01*
X152197486Y-62804556D01*
X152236657Y-62881433D01*
X152375483Y-63072510D01*
X152542490Y-63239517D01*
X152733567Y-63378343D01*
X152792516Y-63408379D01*
X152944003Y-63485566D01*
X152944005Y-63485566D01*
X152944008Y-63485568D01*
X153064412Y-63524689D01*
X153168631Y-63558553D01*
X153401903Y-63595500D01*
X153401908Y-63595500D01*
X153638097Y-63595500D01*
X153871368Y-63558553D01*
X153902169Y-63548545D01*
X154095992Y-63485568D01*
X154306433Y-63378343D01*
X154497510Y-63239517D01*
X154664517Y-63072510D01*
X154803343Y-62881433D01*
X154910568Y-62670992D01*
X154983553Y-62446368D01*
X155020500Y-62213097D01*
X155020500Y-61976902D01*
X163019500Y-61976902D01*
X163019500Y-62213097D01*
X163056446Y-62446368D01*
X163129433Y-62670996D01*
X163197486Y-62804556D01*
X163236657Y-62881433D01*
X163375483Y-63072510D01*
X163542490Y-63239517D01*
X163733567Y-63378343D01*
X163792516Y-63408379D01*
X163944003Y-63485566D01*
X163944005Y-63485566D01*
X163944008Y-63485568D01*
X164064412Y-63524689D01*
X164168631Y-63558553D01*
X164401903Y-63595500D01*
X164401908Y-63595500D01*
X164638097Y-63595500D01*
X164871368Y-63558553D01*
X164902169Y-63548545D01*
X165095992Y-63485568D01*
X165306433Y-63378343D01*
X165497510Y-63239517D01*
X165664517Y-63072510D01*
X165803343Y-62881433D01*
X165910568Y-62670992D01*
X165983553Y-62446368D01*
X166006064Y-62304240D01*
X166020500Y-62213097D01*
X166020500Y-61976902D01*
X165983553Y-61743631D01*
X165964666Y-61685504D01*
X165945496Y-61626504D01*
X172650000Y-61626504D01*
X172650000Y-61875000D01*
X173350000Y-61875000D01*
X173350000Y-62375000D01*
X172650000Y-62375000D01*
X172650000Y-62623495D01*
X172688427Y-62816681D01*
X172688430Y-62816693D01*
X172763807Y-62998671D01*
X172763814Y-62998684D01*
X172873248Y-63162462D01*
X172873251Y-63162466D01*
X173012533Y-63301748D01*
X173012537Y-63301751D01*
X173176315Y-63411185D01*
X173176328Y-63411192D01*
X173358308Y-63486569D01*
X173400000Y-63494862D01*
X173400000Y-62691988D01*
X173409940Y-62709205D01*
X173465795Y-62765060D01*
X173534204Y-62804556D01*
X173610504Y-62825000D01*
X173689496Y-62825000D01*
X173765796Y-62804556D01*
X173834205Y-62765060D01*
X173890060Y-62709205D01*
X173900000Y-62691988D01*
X173900000Y-63494862D01*
X173941690Y-63486569D01*
X173941692Y-63486569D01*
X174123671Y-63411192D01*
X174123684Y-63411185D01*
X174287462Y-63301751D01*
X174287466Y-63301748D01*
X174426748Y-63162466D01*
X174426751Y-63162462D01*
X174536185Y-62998684D01*
X174536192Y-62998671D01*
X174611569Y-62816693D01*
X174611572Y-62816681D01*
X174649999Y-62623495D01*
X174650000Y-62623492D01*
X174650000Y-62375000D01*
X173950000Y-62375000D01*
X173950000Y-61875000D01*
X174650000Y-61875000D01*
X174650000Y-61626508D01*
X174649999Y-61626504D01*
X181290000Y-61626504D01*
X181290000Y-61875000D01*
X181990000Y-61875000D01*
X181990000Y-62375000D01*
X181290000Y-62375000D01*
X181290000Y-62623495D01*
X181328427Y-62816681D01*
X181328430Y-62816693D01*
X181403807Y-62998671D01*
X181403814Y-62998684D01*
X181513248Y-63162462D01*
X181513251Y-63162466D01*
X181652533Y-63301748D01*
X181652537Y-63301751D01*
X181816315Y-63411185D01*
X181816328Y-63411192D01*
X181998308Y-63486569D01*
X182040000Y-63494862D01*
X182040000Y-62691988D01*
X182049940Y-62709205D01*
X182105795Y-62765060D01*
X182174204Y-62804556D01*
X182250504Y-62825000D01*
X182329496Y-62825000D01*
X182405796Y-62804556D01*
X182474205Y-62765060D01*
X182530060Y-62709205D01*
X182540000Y-62691988D01*
X182540000Y-63494862D01*
X182581690Y-63486569D01*
X182581692Y-63486569D01*
X182763671Y-63411192D01*
X182763684Y-63411185D01*
X182927462Y-63301751D01*
X182927466Y-63301748D01*
X183066748Y-63162466D01*
X183066751Y-63162462D01*
X183176185Y-62998684D01*
X183176192Y-62998671D01*
X183251569Y-62816693D01*
X183251572Y-62816681D01*
X183289999Y-62623495D01*
X183290000Y-62623492D01*
X183290000Y-62375000D01*
X182590000Y-62375000D01*
X182590000Y-61875000D01*
X183290000Y-61875000D01*
X183290000Y-61626508D01*
X183289999Y-61626504D01*
X183251572Y-61433318D01*
X183251569Y-61433306D01*
X183176192Y-61251328D01*
X183176185Y-61251315D01*
X183066751Y-61087537D01*
X183066748Y-61087533D01*
X182927466Y-60948251D01*
X182927462Y-60948248D01*
X182763684Y-60838814D01*
X182763671Y-60838807D01*
X182581691Y-60763429D01*
X182581683Y-60763427D01*
X182540000Y-60755135D01*
X182540000Y-61558011D01*
X182530060Y-61540795D01*
X182474205Y-61484940D01*
X182405796Y-61445444D01*
X182329496Y-61425000D01*
X182250504Y-61425000D01*
X182174204Y-61445444D01*
X182105795Y-61484940D01*
X182049940Y-61540795D01*
X182040000Y-61558011D01*
X182040000Y-60755136D01*
X182039999Y-60755135D01*
X181998316Y-60763427D01*
X181998308Y-60763429D01*
X181816328Y-60838807D01*
X181816315Y-60838814D01*
X181652537Y-60948248D01*
X181652533Y-60948251D01*
X181513251Y-61087533D01*
X181513248Y-61087537D01*
X181403814Y-61251315D01*
X181403807Y-61251328D01*
X181328430Y-61433306D01*
X181328427Y-61433318D01*
X181290000Y-61626504D01*
X174649999Y-61626504D01*
X174611572Y-61433318D01*
X174611569Y-61433306D01*
X174536192Y-61251328D01*
X174536185Y-61251315D01*
X174426751Y-61087537D01*
X174426748Y-61087533D01*
X174287466Y-60948251D01*
X174287462Y-60948248D01*
X174123684Y-60838814D01*
X174123671Y-60838807D01*
X173941691Y-60763429D01*
X173941683Y-60763427D01*
X173900000Y-60755135D01*
X173900000Y-61558011D01*
X173890060Y-61540795D01*
X173834205Y-61484940D01*
X173765796Y-61445444D01*
X173689496Y-61425000D01*
X173610504Y-61425000D01*
X173534204Y-61445444D01*
X173465795Y-61484940D01*
X173409940Y-61540795D01*
X173400000Y-61558011D01*
X173400000Y-60755136D01*
X173399999Y-60755135D01*
X173358316Y-60763427D01*
X173358308Y-60763429D01*
X173176328Y-60838807D01*
X173176315Y-60838814D01*
X173012537Y-60948248D01*
X173012533Y-60948251D01*
X172873251Y-61087533D01*
X172873248Y-61087537D01*
X172763814Y-61251315D01*
X172763807Y-61251328D01*
X172688430Y-61433306D01*
X172688427Y-61433318D01*
X172650000Y-61626504D01*
X165945496Y-61626504D01*
X165910568Y-61519008D01*
X165803343Y-61308567D01*
X165664517Y-61117490D01*
X165497510Y-60950483D01*
X165306433Y-60811657D01*
X165095996Y-60704433D01*
X164871368Y-60631446D01*
X164638097Y-60594500D01*
X164638092Y-60594500D01*
X164401908Y-60594500D01*
X164401903Y-60594500D01*
X164168631Y-60631446D01*
X163944003Y-60704433D01*
X163733566Y-60811657D01*
X163624550Y-60890862D01*
X163542490Y-60950483D01*
X163542488Y-60950485D01*
X163542487Y-60950485D01*
X163375485Y-61117487D01*
X163375485Y-61117488D01*
X163375483Y-61117490D01*
X163315862Y-61199550D01*
X163236657Y-61308566D01*
X163129433Y-61519003D01*
X163056446Y-61743631D01*
X163019500Y-61976902D01*
X155020500Y-61976902D01*
X154983553Y-61743631D01*
X154945496Y-61626504D01*
X154910568Y-61519008D01*
X154910566Y-61519005D01*
X154910566Y-61519003D01*
X154803342Y-61308566D01*
X154761756Y-61251328D01*
X154664517Y-61117490D01*
X154497510Y-60950483D01*
X154306433Y-60811657D01*
X154095996Y-60704433D01*
X153871368Y-60631446D01*
X153638097Y-60594500D01*
X153638092Y-60594500D01*
X153401908Y-60594500D01*
X153401903Y-60594500D01*
X153168631Y-60631446D01*
X152944003Y-60704433D01*
X152733566Y-60811657D01*
X152624550Y-60890862D01*
X152542490Y-60950483D01*
X152542488Y-60950485D01*
X152542487Y-60950485D01*
X152375485Y-61117487D01*
X152375485Y-61117488D01*
X152375483Y-61117490D01*
X152315862Y-61199550D01*
X152236657Y-61308566D01*
X152129433Y-61519003D01*
X152056446Y-61743631D01*
X152019500Y-61976902D01*
X143500500Y-61976902D01*
X143500500Y-60505411D01*
X143500972Y-60494605D01*
X143513760Y-60348430D01*
X143515664Y-60335097D01*
X143521503Y-60305739D01*
X143523330Y-60297903D01*
X143556779Y-60173068D01*
X143561990Y-60157721D01*
X143569010Y-60140773D01*
X143571161Y-60135881D01*
X143629825Y-60010076D01*
X143640629Y-59991366D01*
X143728119Y-59866417D01*
X143742007Y-59849865D01*
X143849865Y-59742007D01*
X143866417Y-59728119D01*
X143991366Y-59640629D01*
X144010076Y-59629825D01*
X144135881Y-59571161D01*
X144140773Y-59569010D01*
X144140776Y-59569009D01*
X144157721Y-59561990D01*
X144173068Y-59556779D01*
X144297903Y-59523330D01*
X144305739Y-59521503D01*
X144335097Y-59515664D01*
X144348430Y-59513760D01*
X144487871Y-59501561D01*
X144494606Y-59500972D01*
X144505412Y-59500500D01*
X192494588Y-59500500D01*
X192505394Y-59500972D01*
G37*
%TD.AperFunction*%
%TD*%
M02*
