%TF.GenerationSoftware,KiCad,Pcbnew,9.0.4*%
%TF.CreationDate,2025-09-25T11:48:03-04:00*%
%TF.ProjectId,fanboy,66616e62-6f79-42e6-9b69-6361645f7063,rev?*%
%TF.SameCoordinates,Original*%
%TF.FileFunction,Copper,L6,Bot*%
%TF.FilePolarity,Positive*%
%FSLAX46Y46*%
G04 Gerber Fmt 4.6, Leading zero omitted, Abs format (unit mm)*
G04 Created by KiCad (PCBNEW 9.0.4) date 2025-09-25 11:48:03*
%MOMM*%
%LPD*%
G01*
G04 APERTURE LIST*
%TA.AperFunction,SMDPad,CuDef*%
%ADD10C,1.000000*%
%TD*%
%TA.AperFunction,ComponentPad*%
%ADD11C,3.000000*%
%TD*%
%TA.AperFunction,ComponentPad*%
%ADD12C,2.000000*%
%TD*%
%TA.AperFunction,ComponentPad*%
%ADD13O,1.574800X4.000000*%
%TD*%
%TA.AperFunction,ComponentPad*%
%ADD14C,1.500000*%
%TD*%
%TA.AperFunction,ComponentPad*%
%ADD15O,1.000000X1.800000*%
%TD*%
%TA.AperFunction,ComponentPad*%
%ADD16O,1.000000X2.100000*%
%TD*%
%TA.AperFunction,ViaPad*%
%ADD17C,0.450000*%
%TD*%
%TA.AperFunction,ViaPad*%
%ADD18C,0.500000*%
%TD*%
%TA.AperFunction,ViaPad*%
%ADD19C,0.800000*%
%TD*%
%TA.AperFunction,ViaPad*%
%ADD20C,1.000000*%
%TD*%
%TA.AperFunction,Conductor*%
%ADD21C,1.000000*%
%TD*%
%TA.AperFunction,Conductor*%
%ADD22C,0.254000*%
%TD*%
%TA.AperFunction,Conductor*%
%ADD23C,0.101600*%
%TD*%
%TA.AperFunction,Conductor*%
%ADD24C,0.200000*%
%TD*%
G04 APERTURE END LIST*
D10*
%TO.P,FID4,*%
%TO.N,*%
X190680000Y-69780000D03*
%TD*%
%TO.P,FID3,*%
%TO.N,*%
X190350000Y-98540000D03*
%TD*%
%TO.P,FID2,*%
%TO.N,*%
X146950000Y-98510000D03*
%TD*%
%TO.P,FID1,*%
%TO.N,*%
X145810000Y-69700000D03*
%TD*%
D11*
%TO.P,J1,1,+V*%
%TO.N,/12V*%
X156520000Y-72095000D03*
%TO.P,J1,2,GND*%
%TO.N,GND*%
X161520000Y-72095000D03*
D12*
%TO.P,J1,3,MNT1*%
%TO.N,unconnected-(J1-MNT1-Pad3)*%
X153520000Y-62095000D03*
%TO.P,J1,4,MNT2*%
%TO.N,unconnected-(J1-MNT2-Pad4)*%
X164520000Y-62095000D03*
%TD*%
D13*
%TO.P,J4,1,Pin_1*%
%TO.N,GND*%
X175070000Y-102820000D03*
%TO.P,J4,2,Pin_2*%
%TO.N,/12V*%
X177610000Y-102820000D03*
D14*
%TO.P,J4,3,Pin_3*%
%TO.N,/FAN2_TACH*%
X180150000Y-101860000D03*
D13*
X180150000Y-102820000D03*
%TO.P,J4,4,Pin_4*%
%TO.N,/FAN2_PWM*%
X182690000Y-102820000D03*
%TD*%
%TO.P,J3,1,Pin_1*%
%TO.N,GND*%
X154230000Y-102820000D03*
%TO.P,J3,2,Pin_2*%
%TO.N,/12V*%
X156770000Y-102820000D03*
D14*
%TO.P,J3,3,Pin_3*%
%TO.N,/FAN1_TACH*%
X159310000Y-101860000D03*
D13*
X159310000Y-102820000D03*
%TO.P,J3,4,Pin_4*%
%TO.N,/FAN1_PWM*%
X161850000Y-102820000D03*
%TD*%
D15*
%TO.P,J6,S1,SHIELD*%
%TO.N,GND*%
X173650000Y-62125000D03*
D16*
X173650000Y-66305000D03*
D15*
X182290000Y-62125000D03*
D16*
X182290000Y-66305000D03*
%TD*%
D17*
%TO.N,/5V*%
X169090000Y-63620000D03*
%TO.N,/QSPI_SS*%
X172195000Y-75945000D03*
%TO.N,GND*%
X166840000Y-64930000D03*
%TO.N,/QSPI_SS*%
X184370000Y-88880000D03*
%TO.N,/3V3*%
X184300000Y-84060000D03*
%TO.N,GND*%
X166840000Y-63620000D03*
%TO.N,/5V*%
X169090000Y-64930000D03*
%TO.N,GND*%
X190190583Y-74514964D03*
X191505583Y-74514964D03*
X190858083Y-73784964D03*
X190200583Y-73144964D03*
X191515583Y-73144964D03*
%TO.N,/3V3*%
X174340000Y-90200000D03*
%TO.N,/FAN_ALERT*%
X172540000Y-78320000D03*
X173330000Y-90210000D03*
%TO.N,/FAN2_TACH*%
X173080000Y-95000000D03*
%TO.N,/12V*%
X175420000Y-94230000D03*
%TO.N,GND*%
X169370000Y-86770000D03*
%TO.N,/5V*%
X162930000Y-99800000D03*
X183750000Y-99830000D03*
X184620583Y-72964964D03*
X185935583Y-72964964D03*
X182900000Y-72130000D03*
X183990000Y-72110000D03*
X185278083Y-73604964D03*
X185925583Y-74334964D03*
X185370000Y-72100000D03*
%TO.N,GND*%
X182095000Y-94210000D03*
X183410000Y-94210000D03*
X180780000Y-94210000D03*
X161795000Y-94100000D03*
X163110000Y-94100000D03*
X160480000Y-94100000D03*
%TO.N,/12V*%
X156790000Y-99810000D03*
%TO.N,GND*%
X157750000Y-99800000D03*
X178570000Y-99820000D03*
%TO.N,/12V*%
X177600000Y-99890000D03*
%TO.N,/3V3*%
X179430000Y-91550000D03*
X181210000Y-99800000D03*
X160310000Y-99810000D03*
%TO.N,/12V*%
X156395000Y-94100000D03*
X157710000Y-94100000D03*
X155080000Y-94100000D03*
X178050000Y-94230000D03*
X176735000Y-94230000D03*
%TO.N,/3V3*%
X172250000Y-89220000D03*
X170380000Y-89210000D03*
%TO.N,GND*%
X165837500Y-95160000D03*
%TO.N,/3V3*%
X165060000Y-92180000D03*
%TO.N,/FAN1_PWM*%
X161920000Y-98740000D03*
X163347500Y-97060000D03*
%TO.N,/FAN2_TACH*%
X180130000Y-98610000D03*
D18*
%TO.N,/SWD*%
X180140717Y-73170036D03*
X179401524Y-82115036D03*
%TO.N,/SWCLK*%
X177187037Y-72936510D03*
X178641524Y-82030036D03*
%TO.N,/QSPI_SD1*%
X175321524Y-77290036D03*
X167740413Y-74563680D03*
%TO.N,/QSPI_SD2*%
X176161524Y-77290036D03*
X168691524Y-74545036D03*
%TO.N,GND*%
X172560717Y-72250036D03*
X182794417Y-75100036D03*
X180920717Y-86160036D03*
X190490000Y-91950000D03*
X182260717Y-86110036D03*
X178281524Y-80540036D03*
X174490000Y-87380000D03*
X177591524Y-79697536D03*
X171590000Y-77120000D03*
X174791524Y-72470036D03*
X177641524Y-85735036D03*
X178291524Y-78870036D03*
X183450717Y-80700036D03*
X190500000Y-85060000D03*
X183370717Y-76570036D03*
X176871524Y-78870036D03*
X181280000Y-74050000D03*
X175841524Y-88035036D03*
X178950000Y-86420000D03*
X170811524Y-80260036D03*
X180571524Y-88500036D03*
X176386099Y-82200036D03*
X182929283Y-73749964D03*
X170570000Y-75670000D03*
X176861524Y-80540036D03*
%TO.N,/3V3*%
X182260717Y-85150036D03*
X168100717Y-72260036D03*
X182490717Y-80700036D03*
X171771524Y-80260036D03*
X178851121Y-85120036D03*
X172550000Y-77120000D03*
X182410717Y-76570036D03*
X178031524Y-74280036D03*
D19*
X187876300Y-76675000D03*
X187876300Y-75585000D03*
X187885000Y-79625000D03*
D18*
X173501524Y-73495036D03*
X180391524Y-75175036D03*
%TO.N,/1V1*%
X177381524Y-77315036D03*
X179321524Y-77315036D03*
X177741524Y-82085036D03*
D20*
%TO.N,/5V*%
X175480583Y-68569964D03*
X180870583Y-68549964D03*
%TD*%
D21*
%TO.N,/5V*%
X175480583Y-68569964D02*
X171569964Y-68569964D01*
X171569964Y-68569964D02*
X169090000Y-66090000D01*
X169090000Y-66090000D02*
X169090000Y-64930000D01*
D22*
%TO.N,/3V3*%
X179430000Y-91550000D02*
X179230000Y-91750000D01*
X179230000Y-91750000D02*
X179230000Y-96610000D01*
X179230000Y-96610000D02*
X181210000Y-98590000D01*
X181210000Y-98590000D02*
X181210000Y-99800000D01*
X165060000Y-92180000D02*
X165060000Y-94160000D01*
X165060000Y-94160000D02*
X160310000Y-98910000D01*
X160310000Y-98910000D02*
X160310000Y-99810000D01*
D23*
%TO.N,/QSPI_SS*%
X182140000Y-89540000D02*
X182800000Y-88880000D01*
X182800000Y-88880000D02*
X184370000Y-88880000D01*
X172965000Y-75945000D02*
X173180000Y-76160000D01*
X173180000Y-76160000D02*
X173180000Y-88440000D01*
X173180000Y-88440000D02*
X174280000Y-89540000D01*
X174280000Y-89540000D02*
X182140000Y-89540000D01*
X172195000Y-75945000D02*
X172965000Y-75945000D01*
%TO.N,/FAN_ALERT*%
X172540000Y-78320000D02*
X172540000Y-88350000D01*
X172540000Y-88350000D02*
X173330000Y-89140000D01*
X173330000Y-89140000D02*
X173330000Y-90210000D01*
%TO.N,/QSPI_SD2*%
X176161524Y-77290036D02*
X176161524Y-77235036D01*
X176161524Y-77235036D02*
X173466488Y-74540000D01*
X173466488Y-74540000D02*
X168696560Y-74540000D01*
X168696560Y-74540000D02*
X168691524Y-74545036D01*
D24*
%TO.N,/FAN1_PWM*%
X163347500Y-97060000D02*
X162810000Y-97060000D01*
X162810000Y-97060000D02*
X161920000Y-97950000D01*
X161920000Y-97950000D02*
X161920000Y-98740000D01*
%TO.N,/FAN2_TACH*%
X176690000Y-98610000D02*
X180130000Y-98610000D01*
X173080000Y-95000000D02*
X176690000Y-98610000D01*
D23*
%TO.N,/SWD*%
X179811524Y-82115036D02*
X179401524Y-82115036D01*
X180361524Y-81565036D02*
X179811524Y-82115036D01*
X180361524Y-76120036D02*
X180361524Y-81565036D01*
X179781524Y-73529229D02*
X179781524Y-75540036D01*
X180140717Y-73170036D02*
X179781524Y-73529229D01*
X179781524Y-75540036D02*
X180361524Y-76120036D01*
%TO.N,/SWCLK*%
X179106524Y-81565036D02*
X178641524Y-82030036D01*
X179686524Y-81565036D02*
X179106524Y-81565036D01*
X179361524Y-74120036D02*
X179361524Y-75740036D01*
X179361524Y-75740036D02*
X179931524Y-76310036D01*
X178177998Y-72936510D02*
X179361524Y-74120036D01*
X179931524Y-76310036D02*
X179931524Y-81320036D01*
X177187037Y-72936510D02*
X178177998Y-72936510D01*
X179931524Y-81320036D02*
X179686524Y-81565036D01*
%TO.N,/QSPI_SD1*%
X175321524Y-77290036D02*
X173141524Y-75110036D01*
X168241524Y-75110036D02*
X167740413Y-74608925D01*
X173141524Y-75110036D02*
X168241524Y-75110036D01*
X167740413Y-74608925D02*
X167740413Y-74563680D01*
D24*
%TO.N,/1V1*%
X175731524Y-77840036D02*
X175531524Y-78040036D01*
X177741524Y-82085036D02*
X177741524Y-82035036D01*
X175771524Y-81610036D02*
X177266524Y-81610036D01*
X178471524Y-77315036D02*
X177381524Y-77315036D01*
X179321524Y-77315036D02*
X178471524Y-77315036D01*
X175531524Y-81370036D02*
X175771524Y-81610036D01*
X177266524Y-81610036D02*
X177741524Y-82085036D01*
X176856524Y-77840036D02*
X175731524Y-77840036D01*
X179351524Y-77315036D02*
X178471524Y-77315036D01*
X175531524Y-78040036D02*
X175531524Y-81370036D01*
X177381524Y-77315036D02*
X176856524Y-77840036D01*
D21*
%TO.N,/5V*%
X169090000Y-64930000D02*
X169090000Y-63620000D01*
%TD*%
%TA.AperFunction,Conductor*%
%TO.N,/5V*%
G36*
X183410305Y-67862610D02*
G01*
X183431430Y-67879716D01*
X184823604Y-69286135D01*
X186376211Y-70854629D01*
X186409384Y-70916122D01*
X186412083Y-70942513D01*
X186392019Y-74767258D01*
X186371983Y-74834194D01*
X186318940Y-74879671D01*
X186268021Y-74890608D01*
X185432810Y-74890608D01*
X185365771Y-74870923D01*
X185353933Y-74862286D01*
X185319857Y-74834194D01*
X180599243Y-70942513D01*
X178588712Y-69285028D01*
X178588711Y-69285027D01*
X174604034Y-69286135D01*
X174536990Y-69266469D01*
X174491220Y-69213678D01*
X174480000Y-69162135D01*
X174480000Y-67970497D01*
X174499685Y-67903458D01*
X174552489Y-67857703D01*
X174603946Y-67846497D01*
X183343261Y-67842953D01*
X183410305Y-67862610D01*
G37*
%TD.AperFunction*%
%TD*%
M02*
