M48
; DRILL file {KiCad 9.0.4} date 2025-09-25T10:41:29-0400
; FORMAT={-:-/ absolute / metric / decimal}
; #@! TF.CreationDate,2025-09-25T10:41:29-04:00
; #@! TF.GenerationSoftware,Kicad,Pcbnew,9.0.4
; #@! TF.FileFunction,Plated,1,6,PTH
FMAT,2
METRIC
; #@! TA.AperFunction,Plated,PTH,ViaDrill
T1C0.300
; #@! TA.AperFunction,Plated,PTH,ViaDrill
T2C0.400
; #@! TA.AperFunction,Plated,PTH,ViaDrill
T3C0.600
; #@! TA.AperFunction,Plated,PTH,ComponentDrill
T4C0.600
; #@! TA.AperFunction,Plated,PTH,ComponentDrill
T5C1.000
; #@! TA.AperFunction,Plated,PTH,ComponentDrill
T6C1.067
; #@! TA.AperFunction,Plated,PTH,ComponentDrill
T7C1.300
; #@! TA.AperFunction,Plated,PTH,ComponentDrill
T8C1.700
%
G90
G05
T1
X155.01Y-94.06
X156.325Y-94.06
X157.25Y-98.78
X157.64Y-94.06
X158.21Y-98.77
X160.41Y-94.06
X160.77Y-98.78
X160.791Y-66.68
X161.725Y-94.06
X162.38Y-97.71
X163.04Y-94.06
X163.39Y-98.77
X163.808Y-96.03
X165.331Y-72.26
X165.54Y-92.57
X166.297Y-94.13
X166.691Y-74.57
X167.681Y-66.69
X167.74Y-74.564
X168.101Y-72.26
X168.692Y-74.545
X169.37Y-86.77
X170.38Y-89.21
X170.581Y-76.011
X170.812Y-80.26
X171.593Y-76.818
X171.772Y-80.26
X172.25Y-89.22
X172.331Y-78.31
X172.553Y-76.818
X172.561Y-72.25
X173.005Y-76.014
X173.22Y-83.65
X173.25Y-78.32
X173.33Y-90.21
X173.502Y-73.495
X173.54Y-93.97
X174.34Y-90.2
X174.49Y-87.38
X174.792Y-72.47
X175.322Y-77.29
X175.35Y-94.2
X175.842Y-88.035
X176.162Y-77.29
X176.386Y-82.2
X176.665Y-94.2
X176.862Y-80.54
X176.872Y-78.87
X177.187Y-72.937
X177.382Y-77.315
X177.592Y-79.698
X177.642Y-85.735
X177.742Y-82.085
X177.98Y-94.2
X178.032Y-74.28
X178.06Y-98.86
X178.282Y-80.54
X178.292Y-78.87
X178.642Y-82.03
X178.851Y-85.12
X178.95Y-86.42
X179.03Y-98.79
X179.322Y-77.315
X179.402Y-82.115
X179.751Y-84.462
X180.141Y-73.17
X180.392Y-75.175
X180.572Y-88.5
X180.59Y-97.58
X180.71Y-94.18
X180.921Y-86.16
X181.669Y-74.025
X181.67Y-98.77
X182.025Y-94.18
X182.261Y-85.15
X182.261Y-86.11
X182.411Y-76.57
X182.491Y-80.7
X182.794Y-75.1
X183.34Y-94.18
X183.371Y-76.57
X183.451Y-80.7
X184.059Y-75.08
X184.21Y-98.8
X184.78Y-74.39
X184.79Y-73.02
X185.14Y-92.44
X185.447Y-73.66
X186.095Y-74.39
X186.105Y-73.02
X186.32Y-63.28
X186.762Y-73.66
X187.17Y-70.34
X187.41Y-74.39
X187.42Y-73.02
X189.92Y-63.28
X191.675Y-74.57
X191.685Y-73.2
X192.343Y-73.84
X192.99Y-74.57
X193.0Y-73.2
T2
X189.361Y-75.64
X189.361Y-76.73
X189.369Y-79.68
T3
X175.019Y-70.22
X181.001Y-70.47
T5
X145.01Y-63.475
X156.01Y-63.475
T6
X154.69Y-102.99
X157.23Y-102.99
X159.77Y-102.99
X162.31Y-102.99
X175.53Y-103.43
X178.07Y-103.43
X180.61Y-103.43
X183.15Y-103.43
T7
X159.77Y-100.83
X180.61Y-101.27
T8
X148.01Y-73.475
X153.01Y-73.475
T4
G00X173.099Y-64.415
M15
G01X173.099Y-63.615
M16
G05
G00X173.099Y-68.745
M15
G01X173.099Y-67.645
M16
G05
G00X181.739Y-64.415
M15
G01X181.739Y-63.615
M16
G05
G00X181.739Y-68.745
M15
G01X181.739Y-67.645
M16
G05
M30
